G04 #@! TF.GenerationSoftware,KiCad,Pcbnew,(5.1.4)-1*
G04 #@! TF.CreationDate,2020-04-29T01:37:44+09:00*
G04 #@! TF.ProjectId,xSSdAUGHTER-JK,78535364-4155-4474-9854-45522d4a4b2e,rev?*
G04 #@! TF.SameCoordinates,Original*
G04 #@! TF.FileFunction,Soldermask,Bot*
G04 #@! TF.FilePolarity,Negative*
%FSLAX46Y46*%
G04 Gerber Fmt 4.6, Leading zero omitted, Abs format (unit mm)*
G04 Created by KiCad (PCBNEW (5.1.4)-1) date 2020-04-29 01:37:44*
%MOMM*%
%LPD*%
G04 APERTURE LIST*
%ADD10C,0.100000*%
G04 APERTURE END LIST*
D10*
G36*
X122736693Y-138841859D02*
G01*
X123002437Y-138894719D01*
X123503087Y-139102095D01*
X123683561Y-139222684D01*
X123953660Y-139403158D01*
X124336842Y-139786340D01*
X124517316Y-140056439D01*
X124637905Y-140236913D01*
X124771363Y-140559109D01*
X124845281Y-140737564D01*
X124951000Y-141269049D01*
X124951000Y-141810951D01*
X124918015Y-141976778D01*
X124845281Y-142342437D01*
X124637905Y-142843087D01*
X124581521Y-142927471D01*
X124336842Y-143293660D01*
X123953660Y-143676842D01*
X123690774Y-143852496D01*
X123503087Y-143977905D01*
X123002437Y-144185281D01*
X122736694Y-144238140D01*
X122470951Y-144291000D01*
X121929049Y-144291000D01*
X121663306Y-144238140D01*
X121397563Y-144185281D01*
X120896913Y-143977905D01*
X120709226Y-143852496D01*
X120446340Y-143676842D01*
X120063158Y-143293660D01*
X119818479Y-142927471D01*
X119762095Y-142843087D01*
X119554719Y-142342437D01*
X119481985Y-141976778D01*
X119449000Y-141810951D01*
X119449000Y-141269049D01*
X119554719Y-140737564D01*
X119628637Y-140559109D01*
X119762095Y-140236913D01*
X119882684Y-140056439D01*
X120063158Y-139786340D01*
X120446340Y-139403158D01*
X120716439Y-139222684D01*
X120896913Y-139102095D01*
X121397563Y-138894719D01*
X121663307Y-138841859D01*
X121929049Y-138789000D01*
X122470951Y-138789000D01*
X122736693Y-138841859D01*
X122736693Y-138841859D01*
G37*
G36*
X70736693Y-138841859D02*
G01*
X71002437Y-138894719D01*
X71503087Y-139102095D01*
X71683561Y-139222684D01*
X71953660Y-139403158D01*
X72336842Y-139786340D01*
X72517316Y-140056439D01*
X72637905Y-140236913D01*
X72771363Y-140559109D01*
X72845281Y-140737564D01*
X72951000Y-141269049D01*
X72951000Y-141810951D01*
X72918015Y-141976778D01*
X72845281Y-142342437D01*
X72637905Y-142843087D01*
X72581521Y-142927471D01*
X72336842Y-143293660D01*
X71953660Y-143676842D01*
X71690774Y-143852496D01*
X71503087Y-143977905D01*
X71002437Y-144185281D01*
X70736694Y-144238140D01*
X70470951Y-144291000D01*
X69929049Y-144291000D01*
X69663306Y-144238140D01*
X69397563Y-144185281D01*
X68896913Y-143977905D01*
X68709226Y-143852496D01*
X68446340Y-143676842D01*
X68063158Y-143293660D01*
X67818479Y-142927471D01*
X67762095Y-142843087D01*
X67554719Y-142342437D01*
X67481985Y-141976778D01*
X67449000Y-141810951D01*
X67449000Y-141269049D01*
X67554719Y-140737564D01*
X67628637Y-140559109D01*
X67762095Y-140236913D01*
X67882684Y-140056439D01*
X68063158Y-139786340D01*
X68446340Y-139403158D01*
X68716439Y-139222684D01*
X68896913Y-139102095D01*
X69397563Y-138894719D01*
X69663307Y-138841859D01*
X69929049Y-138789000D01*
X70470951Y-138789000D01*
X70736693Y-138841859D01*
X70736693Y-138841859D01*
G37*
G36*
X90915442Y-140329518D02*
G01*
X90981627Y-140336037D01*
X91151466Y-140387557D01*
X91307991Y-140471222D01*
X91343729Y-140500552D01*
X91445186Y-140583814D01*
X91528448Y-140685271D01*
X91557778Y-140721009D01*
X91641443Y-140877534D01*
X91692963Y-141047373D01*
X91710359Y-141224000D01*
X91692963Y-141400627D01*
X91641443Y-141570466D01*
X91557778Y-141726991D01*
X91528448Y-141762729D01*
X91445186Y-141864186D01*
X91353206Y-141939671D01*
X91307991Y-141976778D01*
X91151466Y-142060443D01*
X90981627Y-142111963D01*
X90915443Y-142118481D01*
X90849260Y-142125000D01*
X90760740Y-142125000D01*
X90694557Y-142118481D01*
X90628373Y-142111963D01*
X90458534Y-142060443D01*
X90302009Y-141976778D01*
X90256794Y-141939671D01*
X90164814Y-141864186D01*
X90081552Y-141762729D01*
X90052222Y-141726991D01*
X89968557Y-141570466D01*
X89917037Y-141400627D01*
X89899641Y-141224000D01*
X89917037Y-141047373D01*
X89968557Y-140877534D01*
X90052222Y-140721009D01*
X90081552Y-140685271D01*
X90164814Y-140583814D01*
X90266271Y-140500552D01*
X90302009Y-140471222D01*
X90458534Y-140387557D01*
X90628373Y-140336037D01*
X90694558Y-140329518D01*
X90760740Y-140323000D01*
X90849260Y-140323000D01*
X90915442Y-140329518D01*
X90915442Y-140329518D01*
G37*
G36*
X90915443Y-137789519D02*
G01*
X90981627Y-137796037D01*
X91151466Y-137847557D01*
X91307991Y-137931222D01*
X91343729Y-137960552D01*
X91445186Y-138043814D01*
X91528448Y-138145271D01*
X91557778Y-138181009D01*
X91641443Y-138337534D01*
X91692963Y-138507373D01*
X91710359Y-138684000D01*
X91692963Y-138860627D01*
X91641443Y-139030466D01*
X91557778Y-139186991D01*
X91528448Y-139222729D01*
X91445186Y-139324186D01*
X91348957Y-139403158D01*
X91307991Y-139436778D01*
X91151466Y-139520443D01*
X90981627Y-139571963D01*
X90915443Y-139578481D01*
X90849260Y-139585000D01*
X90760740Y-139585000D01*
X90694557Y-139578481D01*
X90628373Y-139571963D01*
X90458534Y-139520443D01*
X90302009Y-139436778D01*
X90261043Y-139403158D01*
X90164814Y-139324186D01*
X90081552Y-139222729D01*
X90052222Y-139186991D01*
X89968557Y-139030466D01*
X89917037Y-138860627D01*
X89899641Y-138684000D01*
X89917037Y-138507373D01*
X89968557Y-138337534D01*
X90052222Y-138181009D01*
X90081552Y-138145271D01*
X90164814Y-138043814D01*
X90266271Y-137960552D01*
X90302009Y-137931222D01*
X90458534Y-137847557D01*
X90628373Y-137796037D01*
X90694557Y-137789519D01*
X90760740Y-137783000D01*
X90849260Y-137783000D01*
X90915443Y-137789519D01*
X90915443Y-137789519D01*
G37*
G36*
X90915443Y-135249519D02*
G01*
X90981627Y-135256037D01*
X91151466Y-135307557D01*
X91307991Y-135391222D01*
X91343729Y-135420552D01*
X91445186Y-135503814D01*
X91528448Y-135605271D01*
X91557778Y-135641009D01*
X91641443Y-135797534D01*
X91692963Y-135967373D01*
X91710359Y-136144000D01*
X91692963Y-136320627D01*
X91641443Y-136490466D01*
X91557778Y-136646991D01*
X91528448Y-136682729D01*
X91445186Y-136784186D01*
X91343729Y-136867448D01*
X91307991Y-136896778D01*
X91151466Y-136980443D01*
X90981627Y-137031963D01*
X90915443Y-137038481D01*
X90849260Y-137045000D01*
X90760740Y-137045000D01*
X90694557Y-137038481D01*
X90628373Y-137031963D01*
X90458534Y-136980443D01*
X90302009Y-136896778D01*
X90266271Y-136867448D01*
X90164814Y-136784186D01*
X90081552Y-136682729D01*
X90052222Y-136646991D01*
X89968557Y-136490466D01*
X89917037Y-136320627D01*
X89899641Y-136144000D01*
X89917037Y-135967373D01*
X89968557Y-135797534D01*
X90052222Y-135641009D01*
X90081552Y-135605271D01*
X90164814Y-135503814D01*
X90266271Y-135420552D01*
X90302009Y-135391222D01*
X90458534Y-135307557D01*
X90628373Y-135256037D01*
X90694557Y-135249519D01*
X90760740Y-135243000D01*
X90849260Y-135243000D01*
X90915443Y-135249519D01*
X90915443Y-135249519D01*
G37*
G36*
X91706000Y-134505000D02*
G01*
X89904000Y-134505000D01*
X89904000Y-132703000D01*
X91706000Y-132703000D01*
X91706000Y-134505000D01*
X91706000Y-134505000D01*
G37*
G36*
X78850443Y-128645519D02*
G01*
X78916627Y-128652037D01*
X79086466Y-128703557D01*
X79242991Y-128787222D01*
X79278729Y-128816552D01*
X79380186Y-128899814D01*
X79463448Y-129001271D01*
X79492778Y-129037009D01*
X79576443Y-129193534D01*
X79627963Y-129363373D01*
X79645359Y-129540000D01*
X79627963Y-129716627D01*
X79576443Y-129886466D01*
X79492778Y-130042991D01*
X79473596Y-130066364D01*
X79380186Y-130180186D01*
X79278729Y-130263448D01*
X79242991Y-130292778D01*
X79086466Y-130376443D01*
X78916627Y-130427963D01*
X78850443Y-130434481D01*
X78784260Y-130441000D01*
X78695740Y-130441000D01*
X78629557Y-130434481D01*
X78563373Y-130427963D01*
X78393534Y-130376443D01*
X78237009Y-130292778D01*
X78201271Y-130263448D01*
X78099814Y-130180186D01*
X78006404Y-130066364D01*
X77987222Y-130042991D01*
X77903557Y-129886466D01*
X77852037Y-129716627D01*
X77834641Y-129540000D01*
X77852037Y-129363373D01*
X77903557Y-129193534D01*
X77987222Y-129037009D01*
X78016552Y-129001271D01*
X78099814Y-128899814D01*
X78201271Y-128816552D01*
X78237009Y-128787222D01*
X78393534Y-128703557D01*
X78563373Y-128652037D01*
X78629557Y-128645519D01*
X78695740Y-128639000D01*
X78784260Y-128639000D01*
X78850443Y-128645519D01*
X78850443Y-128645519D01*
G37*
G36*
X77101000Y-130441000D02*
G01*
X75299000Y-130441000D01*
X75299000Y-128639000D01*
X77101000Y-128639000D01*
X77101000Y-130441000D01*
X77101000Y-130441000D01*
G37*
G36*
X73770443Y-128645519D02*
G01*
X73836627Y-128652037D01*
X74006466Y-128703557D01*
X74162991Y-128787222D01*
X74198729Y-128816552D01*
X74300186Y-128899814D01*
X74383448Y-129001271D01*
X74412778Y-129037009D01*
X74496443Y-129193534D01*
X74547963Y-129363373D01*
X74565359Y-129540000D01*
X74547963Y-129716627D01*
X74496443Y-129886466D01*
X74412778Y-130042991D01*
X74393596Y-130066364D01*
X74300186Y-130180186D01*
X74198729Y-130263448D01*
X74162991Y-130292778D01*
X74006466Y-130376443D01*
X73836627Y-130427963D01*
X73770443Y-130434481D01*
X73704260Y-130441000D01*
X73615740Y-130441000D01*
X73549557Y-130434481D01*
X73483373Y-130427963D01*
X73313534Y-130376443D01*
X73157009Y-130292778D01*
X73121271Y-130263448D01*
X73019814Y-130180186D01*
X72926404Y-130066364D01*
X72907222Y-130042991D01*
X72823557Y-129886466D01*
X72772037Y-129716627D01*
X72754641Y-129540000D01*
X72772037Y-129363373D01*
X72823557Y-129193534D01*
X72907222Y-129037009D01*
X72936552Y-129001271D01*
X73019814Y-128899814D01*
X73121271Y-128816552D01*
X73157009Y-128787222D01*
X73313534Y-128703557D01*
X73483373Y-128652037D01*
X73549557Y-128645519D01*
X73615740Y-128639000D01*
X73704260Y-128639000D01*
X73770443Y-128645519D01*
X73770443Y-128645519D01*
G37*
G36*
X117085239Y-127672101D02*
G01*
X117321053Y-127743634D01*
X117538381Y-127859799D01*
X117728871Y-128016129D01*
X117885201Y-128206619D01*
X118001366Y-128423947D01*
X118072899Y-128659761D01*
X118097053Y-128905000D01*
X118072899Y-129150239D01*
X118001366Y-129386053D01*
X117885201Y-129603381D01*
X117728871Y-129793871D01*
X117538381Y-129950201D01*
X117321053Y-130066366D01*
X117085239Y-130137899D01*
X116901457Y-130156000D01*
X116778543Y-130156000D01*
X116594761Y-130137899D01*
X116358947Y-130066366D01*
X116141619Y-129950201D01*
X115951129Y-129793871D01*
X115794799Y-129603381D01*
X115678634Y-129386053D01*
X115607101Y-129150239D01*
X115582947Y-128905000D01*
X115607101Y-128659761D01*
X115678634Y-128423947D01*
X115794799Y-128206619D01*
X115951129Y-128016129D01*
X116141619Y-127859799D01*
X116358947Y-127743634D01*
X116594761Y-127672101D01*
X116778543Y-127654000D01*
X116901457Y-127654000D01*
X117085239Y-127672101D01*
X117085239Y-127672101D01*
G37*
G36*
X122284903Y-127702075D02*
G01*
X122385236Y-127743634D01*
X122512571Y-127796378D01*
X122717466Y-127933285D01*
X122891715Y-128107534D01*
X122957922Y-128206620D01*
X123028623Y-128312431D01*
X123122925Y-128540097D01*
X123171000Y-128781786D01*
X123171000Y-129028214D01*
X123169250Y-129037011D01*
X123122925Y-129269903D01*
X123028622Y-129497571D01*
X122891715Y-129702466D01*
X122717466Y-129876715D01*
X122512571Y-130013622D01*
X122512570Y-130013623D01*
X122512569Y-130013623D01*
X122284903Y-130107925D01*
X122043214Y-130156000D01*
X121796786Y-130156000D01*
X121555097Y-130107925D01*
X121327431Y-130013623D01*
X121327430Y-130013623D01*
X121327429Y-130013622D01*
X121122534Y-129876715D01*
X120948285Y-129702466D01*
X120811378Y-129497571D01*
X120717075Y-129269903D01*
X120670750Y-129037011D01*
X120669000Y-129028214D01*
X120669000Y-128781786D01*
X120717075Y-128540097D01*
X120811377Y-128312431D01*
X120882078Y-128206620D01*
X120948285Y-128107534D01*
X121122534Y-127933285D01*
X121327429Y-127796378D01*
X121454765Y-127743634D01*
X121555097Y-127702075D01*
X121796786Y-127654000D01*
X122043214Y-127654000D01*
X122284903Y-127702075D01*
X122284903Y-127702075D01*
G37*
G36*
X73770443Y-126105519D02*
G01*
X73836627Y-126112037D01*
X74006466Y-126163557D01*
X74162991Y-126247222D01*
X74198729Y-126276552D01*
X74300186Y-126359814D01*
X74383448Y-126461271D01*
X74412778Y-126497009D01*
X74496443Y-126653534D01*
X74547963Y-126823373D01*
X74565359Y-127000000D01*
X74547963Y-127176627D01*
X74496443Y-127346466D01*
X74412778Y-127502991D01*
X74383448Y-127538729D01*
X74300186Y-127640186D01*
X74198729Y-127723448D01*
X74162991Y-127752778D01*
X74006466Y-127836443D01*
X73836627Y-127887963D01*
X73770442Y-127894482D01*
X73704260Y-127901000D01*
X73615740Y-127901000D01*
X73549558Y-127894482D01*
X73483373Y-127887963D01*
X73313534Y-127836443D01*
X73157009Y-127752778D01*
X73121271Y-127723448D01*
X73019814Y-127640186D01*
X72936552Y-127538729D01*
X72907222Y-127502991D01*
X72823557Y-127346466D01*
X72772037Y-127176627D01*
X72754641Y-127000000D01*
X72772037Y-126823373D01*
X72823557Y-126653534D01*
X72907222Y-126497009D01*
X72936552Y-126461271D01*
X73019814Y-126359814D01*
X73121271Y-126276552D01*
X73157009Y-126247222D01*
X73313534Y-126163557D01*
X73483373Y-126112037D01*
X73549557Y-126105519D01*
X73615740Y-126099000D01*
X73704260Y-126099000D01*
X73770443Y-126105519D01*
X73770443Y-126105519D01*
G37*
G36*
X76310443Y-126105519D02*
G01*
X76376627Y-126112037D01*
X76546466Y-126163557D01*
X76702991Y-126247222D01*
X76738729Y-126276552D01*
X76840186Y-126359814D01*
X76923448Y-126461271D01*
X76952778Y-126497009D01*
X77036443Y-126653534D01*
X77087963Y-126823373D01*
X77105359Y-127000000D01*
X77087963Y-127176627D01*
X77036443Y-127346466D01*
X76952778Y-127502991D01*
X76923448Y-127538729D01*
X76840186Y-127640186D01*
X76738729Y-127723448D01*
X76702991Y-127752778D01*
X76546466Y-127836443D01*
X76376627Y-127887963D01*
X76310442Y-127894482D01*
X76244260Y-127901000D01*
X76155740Y-127901000D01*
X76089558Y-127894482D01*
X76023373Y-127887963D01*
X75853534Y-127836443D01*
X75697009Y-127752778D01*
X75661271Y-127723448D01*
X75559814Y-127640186D01*
X75476552Y-127538729D01*
X75447222Y-127502991D01*
X75363557Y-127346466D01*
X75312037Y-127176627D01*
X75294641Y-127000000D01*
X75312037Y-126823373D01*
X75363557Y-126653534D01*
X75447222Y-126497009D01*
X75476552Y-126461271D01*
X75559814Y-126359814D01*
X75661271Y-126276552D01*
X75697009Y-126247222D01*
X75853534Y-126163557D01*
X76023373Y-126112037D01*
X76089557Y-126105519D01*
X76155740Y-126099000D01*
X76244260Y-126099000D01*
X76310443Y-126105519D01*
X76310443Y-126105519D01*
G37*
G36*
X78850443Y-126105519D02*
G01*
X78916627Y-126112037D01*
X79086466Y-126163557D01*
X79242991Y-126247222D01*
X79278729Y-126276552D01*
X79380186Y-126359814D01*
X79463448Y-126461271D01*
X79492778Y-126497009D01*
X79576443Y-126653534D01*
X79627963Y-126823373D01*
X79645359Y-127000000D01*
X79627963Y-127176627D01*
X79576443Y-127346466D01*
X79492778Y-127502991D01*
X79463448Y-127538729D01*
X79380186Y-127640186D01*
X79278729Y-127723448D01*
X79242991Y-127752778D01*
X79086466Y-127836443D01*
X78916627Y-127887963D01*
X78850442Y-127894482D01*
X78784260Y-127901000D01*
X78695740Y-127901000D01*
X78629558Y-127894482D01*
X78563373Y-127887963D01*
X78393534Y-127836443D01*
X78237009Y-127752778D01*
X78201271Y-127723448D01*
X78099814Y-127640186D01*
X78016552Y-127538729D01*
X77987222Y-127502991D01*
X77903557Y-127346466D01*
X77852037Y-127176627D01*
X77834641Y-127000000D01*
X77852037Y-126823373D01*
X77903557Y-126653534D01*
X77987222Y-126497009D01*
X78016552Y-126461271D01*
X78099814Y-126359814D01*
X78201271Y-126276552D01*
X78237009Y-126247222D01*
X78393534Y-126163557D01*
X78563373Y-126112037D01*
X78629557Y-126105519D01*
X78695740Y-126099000D01*
X78784260Y-126099000D01*
X78850443Y-126105519D01*
X78850443Y-126105519D01*
G37*
G36*
X73770442Y-123565518D02*
G01*
X73836627Y-123572037D01*
X74006466Y-123623557D01*
X74162991Y-123707222D01*
X74193768Y-123732480D01*
X74300186Y-123819814D01*
X74383448Y-123921271D01*
X74412778Y-123957009D01*
X74496443Y-124113534D01*
X74547963Y-124283373D01*
X74565359Y-124460000D01*
X74547963Y-124636627D01*
X74496443Y-124806466D01*
X74412778Y-124962991D01*
X74383448Y-124998729D01*
X74300186Y-125100186D01*
X74198729Y-125183448D01*
X74162991Y-125212778D01*
X74006466Y-125296443D01*
X73836627Y-125347963D01*
X73770442Y-125354482D01*
X73704260Y-125361000D01*
X73615740Y-125361000D01*
X73549558Y-125354482D01*
X73483373Y-125347963D01*
X73313534Y-125296443D01*
X73157009Y-125212778D01*
X73121271Y-125183448D01*
X73019814Y-125100186D01*
X72936552Y-124998729D01*
X72907222Y-124962991D01*
X72823557Y-124806466D01*
X72772037Y-124636627D01*
X72754641Y-124460000D01*
X72772037Y-124283373D01*
X72823557Y-124113534D01*
X72907222Y-123957009D01*
X72936552Y-123921271D01*
X73019814Y-123819814D01*
X73126232Y-123732480D01*
X73157009Y-123707222D01*
X73313534Y-123623557D01*
X73483373Y-123572037D01*
X73549558Y-123565518D01*
X73615740Y-123559000D01*
X73704260Y-123559000D01*
X73770442Y-123565518D01*
X73770442Y-123565518D01*
G37*
G36*
X78850442Y-123565518D02*
G01*
X78916627Y-123572037D01*
X79086466Y-123623557D01*
X79242991Y-123707222D01*
X79273768Y-123732480D01*
X79380186Y-123819814D01*
X79463448Y-123921271D01*
X79492778Y-123957009D01*
X79576443Y-124113534D01*
X79627963Y-124283373D01*
X79645359Y-124460000D01*
X79627963Y-124636627D01*
X79576443Y-124806466D01*
X79492778Y-124962991D01*
X79463448Y-124998729D01*
X79380186Y-125100186D01*
X79278729Y-125183448D01*
X79242991Y-125212778D01*
X79086466Y-125296443D01*
X78916627Y-125347963D01*
X78850442Y-125354482D01*
X78784260Y-125361000D01*
X78695740Y-125361000D01*
X78629558Y-125354482D01*
X78563373Y-125347963D01*
X78393534Y-125296443D01*
X78237009Y-125212778D01*
X78201271Y-125183448D01*
X78099814Y-125100186D01*
X78016552Y-124998729D01*
X77987222Y-124962991D01*
X77903557Y-124806466D01*
X77852037Y-124636627D01*
X77834641Y-124460000D01*
X77852037Y-124283373D01*
X77903557Y-124113534D01*
X77987222Y-123957009D01*
X78016552Y-123921271D01*
X78099814Y-123819814D01*
X78206232Y-123732480D01*
X78237009Y-123707222D01*
X78393534Y-123623557D01*
X78563373Y-123572037D01*
X78629558Y-123565518D01*
X78695740Y-123559000D01*
X78784260Y-123559000D01*
X78850442Y-123565518D01*
X78850442Y-123565518D01*
G37*
G36*
X76310442Y-123565518D02*
G01*
X76376627Y-123572037D01*
X76546466Y-123623557D01*
X76702991Y-123707222D01*
X76733768Y-123732480D01*
X76840186Y-123819814D01*
X76923448Y-123921271D01*
X76952778Y-123957009D01*
X77036443Y-124113534D01*
X77087963Y-124283373D01*
X77105359Y-124460000D01*
X77087963Y-124636627D01*
X77036443Y-124806466D01*
X76952778Y-124962991D01*
X76923448Y-124998729D01*
X76840186Y-125100186D01*
X76738729Y-125183448D01*
X76702991Y-125212778D01*
X76546466Y-125296443D01*
X76376627Y-125347963D01*
X76310442Y-125354482D01*
X76244260Y-125361000D01*
X76155740Y-125361000D01*
X76089558Y-125354482D01*
X76023373Y-125347963D01*
X75853534Y-125296443D01*
X75697009Y-125212778D01*
X75661271Y-125183448D01*
X75559814Y-125100186D01*
X75476552Y-124998729D01*
X75447222Y-124962991D01*
X75363557Y-124806466D01*
X75312037Y-124636627D01*
X75294641Y-124460000D01*
X75312037Y-124283373D01*
X75363557Y-124113534D01*
X75447222Y-123957009D01*
X75476552Y-123921271D01*
X75559814Y-123819814D01*
X75666232Y-123732480D01*
X75697009Y-123707222D01*
X75853534Y-123623557D01*
X76023373Y-123572037D01*
X76089558Y-123565518D01*
X76155740Y-123559000D01*
X76244260Y-123559000D01*
X76310442Y-123565518D01*
X76310442Y-123565518D01*
G37*
G36*
X119628228Y-122371703D02*
G01*
X119783100Y-122435853D01*
X119922481Y-122528985D01*
X120041015Y-122647519D01*
X120134147Y-122786900D01*
X120198297Y-122941772D01*
X120231000Y-123106184D01*
X120231000Y-123273816D01*
X120198297Y-123438228D01*
X120134147Y-123593100D01*
X120041015Y-123732481D01*
X119922481Y-123851015D01*
X119783100Y-123944147D01*
X119628228Y-124008297D01*
X119463816Y-124041000D01*
X119296184Y-124041000D01*
X119131772Y-124008297D01*
X118976900Y-123944147D01*
X118837519Y-123851015D01*
X118718985Y-123732481D01*
X118625853Y-123593100D01*
X118561703Y-123438228D01*
X118529000Y-123273816D01*
X118529000Y-123106184D01*
X118561703Y-122941772D01*
X118625853Y-122786900D01*
X118718985Y-122647519D01*
X118837519Y-122528985D01*
X118976900Y-122435853D01*
X119131772Y-122371703D01*
X119296184Y-122339000D01*
X119463816Y-122339000D01*
X119628228Y-122371703D01*
X119628228Y-122371703D01*
G37*
G36*
X122128228Y-122371703D02*
G01*
X122283100Y-122435853D01*
X122422481Y-122528985D01*
X122541015Y-122647519D01*
X122634147Y-122786900D01*
X122698297Y-122941772D01*
X122731000Y-123106184D01*
X122731000Y-123273816D01*
X122698297Y-123438228D01*
X122634147Y-123593100D01*
X122541015Y-123732481D01*
X122422481Y-123851015D01*
X122283100Y-123944147D01*
X122128228Y-124008297D01*
X121963816Y-124041000D01*
X121796184Y-124041000D01*
X121631772Y-124008297D01*
X121476900Y-123944147D01*
X121337519Y-123851015D01*
X121218985Y-123732481D01*
X121125853Y-123593100D01*
X121061703Y-123438228D01*
X121029000Y-123273816D01*
X121029000Y-123106184D01*
X121061703Y-122941772D01*
X121125853Y-122786900D01*
X121218985Y-122647519D01*
X121337519Y-122528985D01*
X121476900Y-122435853D01*
X121631772Y-122371703D01*
X121796184Y-122339000D01*
X121963816Y-122339000D01*
X122128228Y-122371703D01*
X122128228Y-122371703D01*
G37*
G36*
X76310442Y-121025518D02*
G01*
X76376627Y-121032037D01*
X76546466Y-121083557D01*
X76702991Y-121167222D01*
X76738729Y-121196552D01*
X76840186Y-121279814D01*
X76923448Y-121381271D01*
X76952778Y-121417009D01*
X77036443Y-121573534D01*
X77087963Y-121743373D01*
X77105359Y-121920000D01*
X77087963Y-122096627D01*
X77036443Y-122266466D01*
X76952778Y-122422991D01*
X76942223Y-122435852D01*
X76840186Y-122560186D01*
X76738729Y-122643448D01*
X76702991Y-122672778D01*
X76546466Y-122756443D01*
X76376627Y-122807963D01*
X76310443Y-122814481D01*
X76244260Y-122821000D01*
X76155740Y-122821000D01*
X76089557Y-122814481D01*
X76023373Y-122807963D01*
X75853534Y-122756443D01*
X75697009Y-122672778D01*
X75661271Y-122643448D01*
X75559814Y-122560186D01*
X75457777Y-122435852D01*
X75447222Y-122422991D01*
X75363557Y-122266466D01*
X75312037Y-122096627D01*
X75294641Y-121920000D01*
X75312037Y-121743373D01*
X75363557Y-121573534D01*
X75447222Y-121417009D01*
X75476552Y-121381271D01*
X75559814Y-121279814D01*
X75661271Y-121196552D01*
X75697009Y-121167222D01*
X75853534Y-121083557D01*
X76023373Y-121032037D01*
X76089558Y-121025518D01*
X76155740Y-121019000D01*
X76244260Y-121019000D01*
X76310442Y-121025518D01*
X76310442Y-121025518D01*
G37*
G36*
X73770442Y-121025518D02*
G01*
X73836627Y-121032037D01*
X74006466Y-121083557D01*
X74162991Y-121167222D01*
X74198729Y-121196552D01*
X74300186Y-121279814D01*
X74383448Y-121381271D01*
X74412778Y-121417009D01*
X74496443Y-121573534D01*
X74547963Y-121743373D01*
X74565359Y-121920000D01*
X74547963Y-122096627D01*
X74496443Y-122266466D01*
X74412778Y-122422991D01*
X74402223Y-122435852D01*
X74300186Y-122560186D01*
X74198729Y-122643448D01*
X74162991Y-122672778D01*
X74006466Y-122756443D01*
X73836627Y-122807963D01*
X73770443Y-122814481D01*
X73704260Y-122821000D01*
X73615740Y-122821000D01*
X73549557Y-122814481D01*
X73483373Y-122807963D01*
X73313534Y-122756443D01*
X73157009Y-122672778D01*
X73121271Y-122643448D01*
X73019814Y-122560186D01*
X72917777Y-122435852D01*
X72907222Y-122422991D01*
X72823557Y-122266466D01*
X72772037Y-122096627D01*
X72754641Y-121920000D01*
X72772037Y-121743373D01*
X72823557Y-121573534D01*
X72907222Y-121417009D01*
X72936552Y-121381271D01*
X73019814Y-121279814D01*
X73121271Y-121196552D01*
X73157009Y-121167222D01*
X73313534Y-121083557D01*
X73483373Y-121032037D01*
X73549558Y-121025518D01*
X73615740Y-121019000D01*
X73704260Y-121019000D01*
X73770442Y-121025518D01*
X73770442Y-121025518D01*
G37*
G36*
X78850442Y-121025518D02*
G01*
X78916627Y-121032037D01*
X79086466Y-121083557D01*
X79242991Y-121167222D01*
X79278729Y-121196552D01*
X79380186Y-121279814D01*
X79463448Y-121381271D01*
X79492778Y-121417009D01*
X79576443Y-121573534D01*
X79627963Y-121743373D01*
X79645359Y-121920000D01*
X79627963Y-122096627D01*
X79576443Y-122266466D01*
X79492778Y-122422991D01*
X79482223Y-122435852D01*
X79380186Y-122560186D01*
X79278729Y-122643448D01*
X79242991Y-122672778D01*
X79086466Y-122756443D01*
X78916627Y-122807963D01*
X78850443Y-122814481D01*
X78784260Y-122821000D01*
X78695740Y-122821000D01*
X78629557Y-122814481D01*
X78563373Y-122807963D01*
X78393534Y-122756443D01*
X78237009Y-122672778D01*
X78201271Y-122643448D01*
X78099814Y-122560186D01*
X77997777Y-122435852D01*
X77987222Y-122422991D01*
X77903557Y-122266466D01*
X77852037Y-122096627D01*
X77834641Y-121920000D01*
X77852037Y-121743373D01*
X77903557Y-121573534D01*
X77987222Y-121417009D01*
X78016552Y-121381271D01*
X78099814Y-121279814D01*
X78201271Y-121196552D01*
X78237009Y-121167222D01*
X78393534Y-121083557D01*
X78563373Y-121032037D01*
X78629558Y-121025518D01*
X78695740Y-121019000D01*
X78784260Y-121019000D01*
X78850442Y-121025518D01*
X78850442Y-121025518D01*
G37*
G36*
X122086823Y-119176313D02*
G01*
X122247242Y-119224976D01*
X122379906Y-119295886D01*
X122395078Y-119303996D01*
X122524659Y-119410341D01*
X122631004Y-119539922D01*
X122631005Y-119539924D01*
X122710024Y-119687758D01*
X122758687Y-119848177D01*
X122775117Y-120015000D01*
X122758687Y-120181823D01*
X122710024Y-120342242D01*
X122639114Y-120474906D01*
X122631004Y-120490078D01*
X122524659Y-120619659D01*
X122395078Y-120726004D01*
X122395076Y-120726005D01*
X122247242Y-120805024D01*
X122086823Y-120853687D01*
X121961804Y-120866000D01*
X121878196Y-120866000D01*
X121753177Y-120853687D01*
X121592758Y-120805024D01*
X121444924Y-120726005D01*
X121444922Y-120726004D01*
X121315341Y-120619659D01*
X121208996Y-120490078D01*
X121200886Y-120474906D01*
X121129976Y-120342242D01*
X121081313Y-120181823D01*
X121064883Y-120015000D01*
X121081313Y-119848177D01*
X121129976Y-119687758D01*
X121208995Y-119539924D01*
X121208996Y-119539922D01*
X121315341Y-119410341D01*
X121444922Y-119303996D01*
X121460094Y-119295886D01*
X121592758Y-119224976D01*
X121753177Y-119176313D01*
X121878196Y-119164000D01*
X121961804Y-119164000D01*
X122086823Y-119176313D01*
X122086823Y-119176313D01*
G37*
G36*
X117006823Y-119176313D02*
G01*
X117167242Y-119224976D01*
X117299906Y-119295886D01*
X117315078Y-119303996D01*
X117444659Y-119410341D01*
X117551004Y-119539922D01*
X117551005Y-119539924D01*
X117630024Y-119687758D01*
X117678687Y-119848177D01*
X117695117Y-120015000D01*
X117678687Y-120181823D01*
X117630024Y-120342242D01*
X117559114Y-120474906D01*
X117551004Y-120490078D01*
X117444659Y-120619659D01*
X117315078Y-120726004D01*
X117315076Y-120726005D01*
X117167242Y-120805024D01*
X117006823Y-120853687D01*
X116881804Y-120866000D01*
X116798196Y-120866000D01*
X116673177Y-120853687D01*
X116512758Y-120805024D01*
X116364924Y-120726005D01*
X116364922Y-120726004D01*
X116235341Y-120619659D01*
X116128996Y-120490078D01*
X116120886Y-120474906D01*
X116049976Y-120342242D01*
X116001313Y-120181823D01*
X115984883Y-120015000D01*
X116001313Y-119848177D01*
X116049976Y-119687758D01*
X116128995Y-119539924D01*
X116128996Y-119539922D01*
X116235341Y-119410341D01*
X116364922Y-119303996D01*
X116380094Y-119295886D01*
X116512758Y-119224976D01*
X116673177Y-119176313D01*
X116798196Y-119164000D01*
X116881804Y-119164000D01*
X117006823Y-119176313D01*
X117006823Y-119176313D01*
G37*
G36*
X76310442Y-118485518D02*
G01*
X76376627Y-118492037D01*
X76546466Y-118543557D01*
X76702991Y-118627222D01*
X76738729Y-118656552D01*
X76840186Y-118739814D01*
X76923448Y-118841271D01*
X76952778Y-118877009D01*
X77036443Y-119033534D01*
X77087963Y-119203373D01*
X77105359Y-119380000D01*
X77087963Y-119556627D01*
X77036443Y-119726466D01*
X76952778Y-119882991D01*
X76923448Y-119918729D01*
X76840186Y-120020186D01*
X76738729Y-120103448D01*
X76702991Y-120132778D01*
X76546466Y-120216443D01*
X76376627Y-120267963D01*
X76310442Y-120274482D01*
X76244260Y-120281000D01*
X76155740Y-120281000D01*
X76089558Y-120274482D01*
X76023373Y-120267963D01*
X75853534Y-120216443D01*
X75697009Y-120132778D01*
X75661271Y-120103448D01*
X75559814Y-120020186D01*
X75476552Y-119918729D01*
X75447222Y-119882991D01*
X75363557Y-119726466D01*
X75312037Y-119556627D01*
X75294641Y-119380000D01*
X75312037Y-119203373D01*
X75363557Y-119033534D01*
X75447222Y-118877009D01*
X75476552Y-118841271D01*
X75559814Y-118739814D01*
X75661271Y-118656552D01*
X75697009Y-118627222D01*
X75853534Y-118543557D01*
X76023373Y-118492037D01*
X76089558Y-118485518D01*
X76155740Y-118479000D01*
X76244260Y-118479000D01*
X76310442Y-118485518D01*
X76310442Y-118485518D01*
G37*
G36*
X79641000Y-120281000D02*
G01*
X77839000Y-120281000D01*
X77839000Y-118479000D01*
X79641000Y-118479000D01*
X79641000Y-120281000D01*
X79641000Y-120281000D01*
G37*
G36*
X73770442Y-118485518D02*
G01*
X73836627Y-118492037D01*
X74006466Y-118543557D01*
X74162991Y-118627222D01*
X74198729Y-118656552D01*
X74300186Y-118739814D01*
X74383448Y-118841271D01*
X74412778Y-118877009D01*
X74496443Y-119033534D01*
X74547963Y-119203373D01*
X74565359Y-119380000D01*
X74547963Y-119556627D01*
X74496443Y-119726466D01*
X74412778Y-119882991D01*
X74383448Y-119918729D01*
X74300186Y-120020186D01*
X74198729Y-120103448D01*
X74162991Y-120132778D01*
X74006466Y-120216443D01*
X73836627Y-120267963D01*
X73770442Y-120274482D01*
X73704260Y-120281000D01*
X73615740Y-120281000D01*
X73549558Y-120274482D01*
X73483373Y-120267963D01*
X73313534Y-120216443D01*
X73157009Y-120132778D01*
X73121271Y-120103448D01*
X73019814Y-120020186D01*
X72936552Y-119918729D01*
X72907222Y-119882991D01*
X72823557Y-119726466D01*
X72772037Y-119556627D01*
X72754641Y-119380000D01*
X72772037Y-119203373D01*
X72823557Y-119033534D01*
X72907222Y-118877009D01*
X72936552Y-118841271D01*
X73019814Y-118739814D01*
X73121271Y-118656552D01*
X73157009Y-118627222D01*
X73313534Y-118543557D01*
X73483373Y-118492037D01*
X73549558Y-118485518D01*
X73615740Y-118479000D01*
X73704260Y-118479000D01*
X73770442Y-118485518D01*
X73770442Y-118485518D01*
G37*
G36*
X122168228Y-116656703D02*
G01*
X122323100Y-116720853D01*
X122462481Y-116813985D01*
X122581015Y-116932519D01*
X122674147Y-117071900D01*
X122738297Y-117226772D01*
X122771000Y-117391184D01*
X122771000Y-117558816D01*
X122738297Y-117723228D01*
X122674147Y-117878100D01*
X122581015Y-118017481D01*
X122462481Y-118136015D01*
X122323100Y-118229147D01*
X122168228Y-118293297D01*
X122003816Y-118326000D01*
X121836184Y-118326000D01*
X121671772Y-118293297D01*
X121516900Y-118229147D01*
X121377519Y-118136015D01*
X121258985Y-118017481D01*
X121165853Y-117878100D01*
X121101703Y-117723228D01*
X121069000Y-117558816D01*
X121069000Y-117391184D01*
X121101703Y-117226772D01*
X121165853Y-117071900D01*
X121258985Y-116932519D01*
X121377519Y-116813985D01*
X121516900Y-116720853D01*
X121671772Y-116656703D01*
X121836184Y-116624000D01*
X122003816Y-116624000D01*
X122168228Y-116656703D01*
X122168228Y-116656703D01*
G37*
G36*
X117088228Y-116656703D02*
G01*
X117243100Y-116720853D01*
X117382481Y-116813985D01*
X117501015Y-116932519D01*
X117594147Y-117071900D01*
X117658297Y-117226772D01*
X117691000Y-117391184D01*
X117691000Y-117558816D01*
X117658297Y-117723228D01*
X117594147Y-117878100D01*
X117501015Y-118017481D01*
X117382481Y-118136015D01*
X117243100Y-118229147D01*
X117088228Y-118293297D01*
X116923816Y-118326000D01*
X116756184Y-118326000D01*
X116591772Y-118293297D01*
X116436900Y-118229147D01*
X116297519Y-118136015D01*
X116178985Y-118017481D01*
X116085853Y-117878100D01*
X116021703Y-117723228D01*
X115989000Y-117558816D01*
X115989000Y-117391184D01*
X116021703Y-117226772D01*
X116085853Y-117071900D01*
X116178985Y-116932519D01*
X116297519Y-116813985D01*
X116436900Y-116720853D01*
X116591772Y-116656703D01*
X116756184Y-116624000D01*
X116923816Y-116624000D01*
X117088228Y-116656703D01*
X117088228Y-116656703D01*
G37*
G36*
X78850442Y-115945518D02*
G01*
X78916627Y-115952037D01*
X79086466Y-116003557D01*
X79242991Y-116087222D01*
X79278729Y-116116552D01*
X79380186Y-116199814D01*
X79463448Y-116301271D01*
X79492778Y-116337009D01*
X79576443Y-116493534D01*
X79627963Y-116663373D01*
X79645359Y-116840000D01*
X79627963Y-117016627D01*
X79576443Y-117186466D01*
X79492778Y-117342991D01*
X79463448Y-117378729D01*
X79380186Y-117480186D01*
X79284375Y-117558815D01*
X79242991Y-117592778D01*
X79086466Y-117676443D01*
X78916627Y-117727963D01*
X78850442Y-117734482D01*
X78784260Y-117741000D01*
X78695740Y-117741000D01*
X78629558Y-117734482D01*
X78563373Y-117727963D01*
X78393534Y-117676443D01*
X78237009Y-117592778D01*
X78195625Y-117558815D01*
X78099814Y-117480186D01*
X78016552Y-117378729D01*
X77987222Y-117342991D01*
X77903557Y-117186466D01*
X77852037Y-117016627D01*
X77834641Y-116840000D01*
X77852037Y-116663373D01*
X77903557Y-116493534D01*
X77987222Y-116337009D01*
X78016552Y-116301271D01*
X78099814Y-116199814D01*
X78201271Y-116116552D01*
X78237009Y-116087222D01*
X78393534Y-116003557D01*
X78563373Y-115952037D01*
X78629558Y-115945518D01*
X78695740Y-115939000D01*
X78784260Y-115939000D01*
X78850442Y-115945518D01*
X78850442Y-115945518D01*
G37*
G36*
X76310442Y-115945518D02*
G01*
X76376627Y-115952037D01*
X76546466Y-116003557D01*
X76702991Y-116087222D01*
X76738729Y-116116552D01*
X76840186Y-116199814D01*
X76923448Y-116301271D01*
X76952778Y-116337009D01*
X77036443Y-116493534D01*
X77087963Y-116663373D01*
X77105359Y-116840000D01*
X77087963Y-117016627D01*
X77036443Y-117186466D01*
X76952778Y-117342991D01*
X76923448Y-117378729D01*
X76840186Y-117480186D01*
X76744375Y-117558815D01*
X76702991Y-117592778D01*
X76546466Y-117676443D01*
X76376627Y-117727963D01*
X76310442Y-117734482D01*
X76244260Y-117741000D01*
X76155740Y-117741000D01*
X76089558Y-117734482D01*
X76023373Y-117727963D01*
X75853534Y-117676443D01*
X75697009Y-117592778D01*
X75655625Y-117558815D01*
X75559814Y-117480186D01*
X75476552Y-117378729D01*
X75447222Y-117342991D01*
X75363557Y-117186466D01*
X75312037Y-117016627D01*
X75294641Y-116840000D01*
X75312037Y-116663373D01*
X75363557Y-116493534D01*
X75447222Y-116337009D01*
X75476552Y-116301271D01*
X75559814Y-116199814D01*
X75661271Y-116116552D01*
X75697009Y-116087222D01*
X75853534Y-116003557D01*
X76023373Y-115952037D01*
X76089558Y-115945518D01*
X76155740Y-115939000D01*
X76244260Y-115939000D01*
X76310442Y-115945518D01*
X76310442Y-115945518D01*
G37*
G36*
X73770442Y-115945518D02*
G01*
X73836627Y-115952037D01*
X74006466Y-116003557D01*
X74162991Y-116087222D01*
X74198729Y-116116552D01*
X74300186Y-116199814D01*
X74383448Y-116301271D01*
X74412778Y-116337009D01*
X74496443Y-116493534D01*
X74547963Y-116663373D01*
X74565359Y-116840000D01*
X74547963Y-117016627D01*
X74496443Y-117186466D01*
X74412778Y-117342991D01*
X74383448Y-117378729D01*
X74300186Y-117480186D01*
X74204375Y-117558815D01*
X74162991Y-117592778D01*
X74006466Y-117676443D01*
X73836627Y-117727963D01*
X73770442Y-117734482D01*
X73704260Y-117741000D01*
X73615740Y-117741000D01*
X73549558Y-117734482D01*
X73483373Y-117727963D01*
X73313534Y-117676443D01*
X73157009Y-117592778D01*
X73115625Y-117558815D01*
X73019814Y-117480186D01*
X72936552Y-117378729D01*
X72907222Y-117342991D01*
X72823557Y-117186466D01*
X72772037Y-117016627D01*
X72754641Y-116840000D01*
X72772037Y-116663373D01*
X72823557Y-116493534D01*
X72907222Y-116337009D01*
X72936552Y-116301271D01*
X73019814Y-116199814D01*
X73121271Y-116116552D01*
X73157009Y-116087222D01*
X73313534Y-116003557D01*
X73483373Y-115952037D01*
X73549558Y-115945518D01*
X73615740Y-115939000D01*
X73704260Y-115939000D01*
X73770442Y-115945518D01*
X73770442Y-115945518D01*
G37*
G36*
X73770443Y-113405519D02*
G01*
X73836627Y-113412037D01*
X74006466Y-113463557D01*
X74162991Y-113547222D01*
X74198729Y-113576552D01*
X74300186Y-113659814D01*
X74383448Y-113761271D01*
X74412778Y-113797009D01*
X74496443Y-113953534D01*
X74547963Y-114123373D01*
X74565359Y-114300000D01*
X74547963Y-114476627D01*
X74496443Y-114646466D01*
X74412778Y-114802991D01*
X74383448Y-114838729D01*
X74300186Y-114940186D01*
X74198729Y-115023448D01*
X74162991Y-115052778D01*
X74006466Y-115136443D01*
X73836627Y-115187963D01*
X73770442Y-115194482D01*
X73704260Y-115201000D01*
X73615740Y-115201000D01*
X73549558Y-115194482D01*
X73483373Y-115187963D01*
X73313534Y-115136443D01*
X73157009Y-115052778D01*
X73121271Y-115023448D01*
X73019814Y-114940186D01*
X72936552Y-114838729D01*
X72907222Y-114802991D01*
X72823557Y-114646466D01*
X72772037Y-114476627D01*
X72754641Y-114300000D01*
X72772037Y-114123373D01*
X72823557Y-113953534D01*
X72907222Y-113797009D01*
X72936552Y-113761271D01*
X73019814Y-113659814D01*
X73121271Y-113576552D01*
X73157009Y-113547222D01*
X73313534Y-113463557D01*
X73483373Y-113412037D01*
X73549557Y-113405519D01*
X73615740Y-113399000D01*
X73704260Y-113399000D01*
X73770443Y-113405519D01*
X73770443Y-113405519D01*
G37*
G36*
X78850443Y-113405519D02*
G01*
X78916627Y-113412037D01*
X79086466Y-113463557D01*
X79242991Y-113547222D01*
X79278729Y-113576552D01*
X79380186Y-113659814D01*
X79463448Y-113761271D01*
X79492778Y-113797009D01*
X79576443Y-113953534D01*
X79627963Y-114123373D01*
X79645359Y-114300000D01*
X79627963Y-114476627D01*
X79576443Y-114646466D01*
X79492778Y-114802991D01*
X79463448Y-114838729D01*
X79380186Y-114940186D01*
X79278729Y-115023448D01*
X79242991Y-115052778D01*
X79086466Y-115136443D01*
X78916627Y-115187963D01*
X78850442Y-115194482D01*
X78784260Y-115201000D01*
X78695740Y-115201000D01*
X78629558Y-115194482D01*
X78563373Y-115187963D01*
X78393534Y-115136443D01*
X78237009Y-115052778D01*
X78201271Y-115023448D01*
X78099814Y-114940186D01*
X78016552Y-114838729D01*
X77987222Y-114802991D01*
X77903557Y-114646466D01*
X77852037Y-114476627D01*
X77834641Y-114300000D01*
X77852037Y-114123373D01*
X77903557Y-113953534D01*
X77987222Y-113797009D01*
X78016552Y-113761271D01*
X78099814Y-113659814D01*
X78201271Y-113576552D01*
X78237009Y-113547222D01*
X78393534Y-113463557D01*
X78563373Y-113412037D01*
X78629557Y-113405519D01*
X78695740Y-113399000D01*
X78784260Y-113399000D01*
X78850443Y-113405519D01*
X78850443Y-113405519D01*
G37*
G36*
X76310443Y-113405519D02*
G01*
X76376627Y-113412037D01*
X76546466Y-113463557D01*
X76702991Y-113547222D01*
X76738729Y-113576552D01*
X76840186Y-113659814D01*
X76923448Y-113761271D01*
X76952778Y-113797009D01*
X77036443Y-113953534D01*
X77087963Y-114123373D01*
X77105359Y-114300000D01*
X77087963Y-114476627D01*
X77036443Y-114646466D01*
X76952778Y-114802991D01*
X76923448Y-114838729D01*
X76840186Y-114940186D01*
X76738729Y-115023448D01*
X76702991Y-115052778D01*
X76546466Y-115136443D01*
X76376627Y-115187963D01*
X76310442Y-115194482D01*
X76244260Y-115201000D01*
X76155740Y-115201000D01*
X76089558Y-115194482D01*
X76023373Y-115187963D01*
X75853534Y-115136443D01*
X75697009Y-115052778D01*
X75661271Y-115023448D01*
X75559814Y-114940186D01*
X75476552Y-114838729D01*
X75447222Y-114802991D01*
X75363557Y-114646466D01*
X75312037Y-114476627D01*
X75294641Y-114300000D01*
X75312037Y-114123373D01*
X75363557Y-113953534D01*
X75447222Y-113797009D01*
X75476552Y-113761271D01*
X75559814Y-113659814D01*
X75661271Y-113576552D01*
X75697009Y-113547222D01*
X75853534Y-113463557D01*
X76023373Y-113412037D01*
X76089557Y-113405519D01*
X76155740Y-113399000D01*
X76244260Y-113399000D01*
X76310443Y-113405519D01*
X76310443Y-113405519D01*
G37*
G36*
X123342994Y-111549404D02*
G01*
X123543027Y-111589193D01*
X123757045Y-111677842D01*
X123757046Y-111677843D01*
X123949654Y-111806539D01*
X124113461Y-111970346D01*
X124199258Y-112098751D01*
X124242158Y-112162955D01*
X124330807Y-112376973D01*
X124376000Y-112604174D01*
X124376000Y-112835826D01*
X124330807Y-113063027D01*
X124242158Y-113277045D01*
X124242157Y-113277046D01*
X124113461Y-113469654D01*
X123949654Y-113633461D01*
X123910212Y-113659815D01*
X123757045Y-113762158D01*
X123543027Y-113850807D01*
X123391560Y-113880936D01*
X123315827Y-113896000D01*
X123084173Y-113896000D01*
X123008440Y-113880936D01*
X122856973Y-113850807D01*
X122642955Y-113762158D01*
X122489788Y-113659815D01*
X122450346Y-113633461D01*
X122286539Y-113469654D01*
X122157843Y-113277046D01*
X122157842Y-113277045D01*
X122069193Y-113063027D01*
X122024000Y-112835826D01*
X122024000Y-112604174D01*
X122069193Y-112376973D01*
X122157842Y-112162955D01*
X122200742Y-112098751D01*
X122286539Y-111970346D01*
X122450346Y-111806539D01*
X122642954Y-111677843D01*
X122642955Y-111677842D01*
X122856973Y-111589193D01*
X123057006Y-111549404D01*
X123084173Y-111544000D01*
X123315827Y-111544000D01*
X123342994Y-111549404D01*
X123342994Y-111549404D01*
G37*
G36*
X78850442Y-110865518D02*
G01*
X78916627Y-110872037D01*
X79086466Y-110923557D01*
X79242991Y-111007222D01*
X79278729Y-111036552D01*
X79380186Y-111119814D01*
X79463448Y-111221271D01*
X79492778Y-111257009D01*
X79576443Y-111413534D01*
X79627963Y-111583373D01*
X79645359Y-111760000D01*
X79627963Y-111936627D01*
X79576443Y-112106466D01*
X79492778Y-112262991D01*
X79463448Y-112298729D01*
X79380186Y-112400186D01*
X79278729Y-112483448D01*
X79242991Y-112512778D01*
X79086466Y-112596443D01*
X78916627Y-112647963D01*
X78850442Y-112654482D01*
X78784260Y-112661000D01*
X78695740Y-112661000D01*
X78629558Y-112654482D01*
X78563373Y-112647963D01*
X78393534Y-112596443D01*
X78237009Y-112512778D01*
X78201271Y-112483448D01*
X78099814Y-112400186D01*
X78016552Y-112298729D01*
X77987222Y-112262991D01*
X77903557Y-112106466D01*
X77852037Y-111936627D01*
X77834641Y-111760000D01*
X77852037Y-111583373D01*
X77903557Y-111413534D01*
X77987222Y-111257009D01*
X78016552Y-111221271D01*
X78099814Y-111119814D01*
X78201271Y-111036552D01*
X78237009Y-111007222D01*
X78393534Y-110923557D01*
X78563373Y-110872037D01*
X78629558Y-110865518D01*
X78695740Y-110859000D01*
X78784260Y-110859000D01*
X78850442Y-110865518D01*
X78850442Y-110865518D01*
G37*
G36*
X76310442Y-110865518D02*
G01*
X76376627Y-110872037D01*
X76546466Y-110923557D01*
X76702991Y-111007222D01*
X76738729Y-111036552D01*
X76840186Y-111119814D01*
X76923448Y-111221271D01*
X76952778Y-111257009D01*
X77036443Y-111413534D01*
X77087963Y-111583373D01*
X77105359Y-111760000D01*
X77087963Y-111936627D01*
X77036443Y-112106466D01*
X76952778Y-112262991D01*
X76923448Y-112298729D01*
X76840186Y-112400186D01*
X76738729Y-112483448D01*
X76702991Y-112512778D01*
X76546466Y-112596443D01*
X76376627Y-112647963D01*
X76310442Y-112654482D01*
X76244260Y-112661000D01*
X76155740Y-112661000D01*
X76089558Y-112654482D01*
X76023373Y-112647963D01*
X75853534Y-112596443D01*
X75697009Y-112512778D01*
X75661271Y-112483448D01*
X75559814Y-112400186D01*
X75476552Y-112298729D01*
X75447222Y-112262991D01*
X75363557Y-112106466D01*
X75312037Y-111936627D01*
X75294641Y-111760000D01*
X75312037Y-111583373D01*
X75363557Y-111413534D01*
X75447222Y-111257009D01*
X75476552Y-111221271D01*
X75559814Y-111119814D01*
X75661271Y-111036552D01*
X75697009Y-111007222D01*
X75853534Y-110923557D01*
X76023373Y-110872037D01*
X76089558Y-110865518D01*
X76155740Y-110859000D01*
X76244260Y-110859000D01*
X76310442Y-110865518D01*
X76310442Y-110865518D01*
G37*
G36*
X73770442Y-110865518D02*
G01*
X73836627Y-110872037D01*
X74006466Y-110923557D01*
X74162991Y-111007222D01*
X74198729Y-111036552D01*
X74300186Y-111119814D01*
X74383448Y-111221271D01*
X74412778Y-111257009D01*
X74496443Y-111413534D01*
X74547963Y-111583373D01*
X74565359Y-111760000D01*
X74547963Y-111936627D01*
X74496443Y-112106466D01*
X74412778Y-112262991D01*
X74383448Y-112298729D01*
X74300186Y-112400186D01*
X74198729Y-112483448D01*
X74162991Y-112512778D01*
X74006466Y-112596443D01*
X73836627Y-112647963D01*
X73770442Y-112654482D01*
X73704260Y-112661000D01*
X73615740Y-112661000D01*
X73549558Y-112654482D01*
X73483373Y-112647963D01*
X73313534Y-112596443D01*
X73157009Y-112512778D01*
X73121271Y-112483448D01*
X73019814Y-112400186D01*
X72936552Y-112298729D01*
X72907222Y-112262991D01*
X72823557Y-112106466D01*
X72772037Y-111936627D01*
X72754641Y-111760000D01*
X72772037Y-111583373D01*
X72823557Y-111413534D01*
X72907222Y-111257009D01*
X72936552Y-111221271D01*
X73019814Y-111119814D01*
X73121271Y-111036552D01*
X73157009Y-111007222D01*
X73313534Y-110923557D01*
X73483373Y-110872037D01*
X73549558Y-110865518D01*
X73615740Y-110859000D01*
X73704260Y-110859000D01*
X73770442Y-110865518D01*
X73770442Y-110865518D01*
G37*
G36*
X121906616Y-106890595D02*
G01*
X122347482Y-107073208D01*
X122347484Y-107073209D01*
X122407869Y-107113557D01*
X122744253Y-107338322D01*
X123081678Y-107675747D01*
X123346792Y-108072518D01*
X123529405Y-108513384D01*
X123622500Y-108981403D01*
X123622500Y-109458597D01*
X123529405Y-109926616D01*
X123454288Y-110107963D01*
X123346791Y-110367484D01*
X123081678Y-110764253D01*
X122744253Y-111101678D01*
X122347484Y-111366791D01*
X122347483Y-111366792D01*
X122347482Y-111366792D01*
X121906616Y-111549405D01*
X121438597Y-111642500D01*
X120961403Y-111642500D01*
X120493384Y-111549405D01*
X120052518Y-111366792D01*
X120052517Y-111366792D01*
X120052516Y-111366791D01*
X119655747Y-111101678D01*
X119318322Y-110764253D01*
X119053209Y-110367484D01*
X118945712Y-110107963D01*
X118870595Y-109926616D01*
X118777500Y-109458597D01*
X118777500Y-108981403D01*
X118870595Y-108513384D01*
X119053208Y-108072518D01*
X119318322Y-107675747D01*
X119655747Y-107338322D01*
X119992131Y-107113557D01*
X120052516Y-107073209D01*
X120052518Y-107073208D01*
X120493384Y-106890595D01*
X120961403Y-106797500D01*
X121438597Y-106797500D01*
X121906616Y-106890595D01*
X121906616Y-106890595D01*
G37*
G36*
X115606616Y-106890595D02*
G01*
X116047482Y-107073208D01*
X116047484Y-107073209D01*
X116107869Y-107113557D01*
X116444253Y-107338322D01*
X116781678Y-107675747D01*
X117046792Y-108072518D01*
X117229405Y-108513384D01*
X117322500Y-108981403D01*
X117322500Y-109458597D01*
X117229405Y-109926616D01*
X117154288Y-110107963D01*
X117046791Y-110367484D01*
X116781678Y-110764253D01*
X116444253Y-111101678D01*
X116047484Y-111366791D01*
X116047483Y-111366792D01*
X116047482Y-111366792D01*
X115606616Y-111549405D01*
X115138597Y-111642500D01*
X114661403Y-111642500D01*
X114193384Y-111549405D01*
X113752518Y-111366792D01*
X113752517Y-111366792D01*
X113752516Y-111366791D01*
X113355747Y-111101678D01*
X113018322Y-110764253D01*
X112753209Y-110367484D01*
X112645712Y-110107963D01*
X112570595Y-109926616D01*
X112477500Y-109458597D01*
X112477500Y-108981403D01*
X112570595Y-108513384D01*
X112753208Y-108072518D01*
X113018322Y-107675747D01*
X113355747Y-107338322D01*
X113692131Y-107113557D01*
X113752516Y-107073209D01*
X113752518Y-107073208D01*
X114193384Y-106890595D01*
X114661403Y-106797500D01*
X115138597Y-106797500D01*
X115606616Y-106890595D01*
X115606616Y-106890595D01*
G37*
G36*
X76310443Y-108325519D02*
G01*
X76376627Y-108332037D01*
X76546466Y-108383557D01*
X76702991Y-108467222D01*
X76738729Y-108496552D01*
X76840186Y-108579814D01*
X76923448Y-108681271D01*
X76952778Y-108717009D01*
X77036443Y-108873534D01*
X77087963Y-109043373D01*
X77105359Y-109220000D01*
X77087963Y-109396627D01*
X77036443Y-109566466D01*
X76952778Y-109722991D01*
X76923448Y-109758729D01*
X76840186Y-109860186D01*
X76759238Y-109926617D01*
X76702991Y-109972778D01*
X76546466Y-110056443D01*
X76376627Y-110107963D01*
X76310443Y-110114481D01*
X76244260Y-110121000D01*
X76155740Y-110121000D01*
X76089557Y-110114481D01*
X76023373Y-110107963D01*
X75853534Y-110056443D01*
X75697009Y-109972778D01*
X75640762Y-109926617D01*
X75559814Y-109860186D01*
X75476552Y-109758729D01*
X75447222Y-109722991D01*
X75363557Y-109566466D01*
X75312037Y-109396627D01*
X75294641Y-109220000D01*
X75312037Y-109043373D01*
X75363557Y-108873534D01*
X75447222Y-108717009D01*
X75476552Y-108681271D01*
X75559814Y-108579814D01*
X75661271Y-108496552D01*
X75697009Y-108467222D01*
X75853534Y-108383557D01*
X76023373Y-108332037D01*
X76089557Y-108325519D01*
X76155740Y-108319000D01*
X76244260Y-108319000D01*
X76310443Y-108325519D01*
X76310443Y-108325519D01*
G37*
G36*
X73770443Y-108325519D02*
G01*
X73836627Y-108332037D01*
X74006466Y-108383557D01*
X74162991Y-108467222D01*
X74198729Y-108496552D01*
X74300186Y-108579814D01*
X74383448Y-108681271D01*
X74412778Y-108717009D01*
X74496443Y-108873534D01*
X74547963Y-109043373D01*
X74565359Y-109220000D01*
X74547963Y-109396627D01*
X74496443Y-109566466D01*
X74412778Y-109722991D01*
X74383448Y-109758729D01*
X74300186Y-109860186D01*
X74219238Y-109926617D01*
X74162991Y-109972778D01*
X74006466Y-110056443D01*
X73836627Y-110107963D01*
X73770443Y-110114481D01*
X73704260Y-110121000D01*
X73615740Y-110121000D01*
X73549557Y-110114481D01*
X73483373Y-110107963D01*
X73313534Y-110056443D01*
X73157009Y-109972778D01*
X73100762Y-109926617D01*
X73019814Y-109860186D01*
X72936552Y-109758729D01*
X72907222Y-109722991D01*
X72823557Y-109566466D01*
X72772037Y-109396627D01*
X72754641Y-109220000D01*
X72772037Y-109043373D01*
X72823557Y-108873534D01*
X72907222Y-108717009D01*
X72936552Y-108681271D01*
X73019814Y-108579814D01*
X73121271Y-108496552D01*
X73157009Y-108467222D01*
X73313534Y-108383557D01*
X73483373Y-108332037D01*
X73549557Y-108325519D01*
X73615740Y-108319000D01*
X73704260Y-108319000D01*
X73770443Y-108325519D01*
X73770443Y-108325519D01*
G37*
G36*
X78850443Y-108325519D02*
G01*
X78916627Y-108332037D01*
X79086466Y-108383557D01*
X79242991Y-108467222D01*
X79278729Y-108496552D01*
X79380186Y-108579814D01*
X79463448Y-108681271D01*
X79492778Y-108717009D01*
X79576443Y-108873534D01*
X79627963Y-109043373D01*
X79645359Y-109220000D01*
X79627963Y-109396627D01*
X79576443Y-109566466D01*
X79492778Y-109722991D01*
X79463448Y-109758729D01*
X79380186Y-109860186D01*
X79299238Y-109926617D01*
X79242991Y-109972778D01*
X79086466Y-110056443D01*
X78916627Y-110107963D01*
X78850443Y-110114481D01*
X78784260Y-110121000D01*
X78695740Y-110121000D01*
X78629557Y-110114481D01*
X78563373Y-110107963D01*
X78393534Y-110056443D01*
X78237009Y-109972778D01*
X78180762Y-109926617D01*
X78099814Y-109860186D01*
X78016552Y-109758729D01*
X77987222Y-109722991D01*
X77903557Y-109566466D01*
X77852037Y-109396627D01*
X77834641Y-109220000D01*
X77852037Y-109043373D01*
X77903557Y-108873534D01*
X77987222Y-108717009D01*
X78016552Y-108681271D01*
X78099814Y-108579814D01*
X78201271Y-108496552D01*
X78237009Y-108467222D01*
X78393534Y-108383557D01*
X78563373Y-108332037D01*
X78629557Y-108325519D01*
X78695740Y-108319000D01*
X78784260Y-108319000D01*
X78850443Y-108325519D01*
X78850443Y-108325519D01*
G37*
G36*
X94090442Y-107055518D02*
G01*
X94156627Y-107062037D01*
X94326466Y-107113557D01*
X94482991Y-107197222D01*
X94518729Y-107226552D01*
X94620186Y-107309814D01*
X94703448Y-107411271D01*
X94732778Y-107447009D01*
X94816443Y-107603534D01*
X94867963Y-107773373D01*
X94885359Y-107950000D01*
X94867963Y-108126627D01*
X94816443Y-108296466D01*
X94732778Y-108452991D01*
X94703448Y-108488729D01*
X94620186Y-108590186D01*
X94518729Y-108673448D01*
X94482991Y-108702778D01*
X94326466Y-108786443D01*
X94156627Y-108837963D01*
X94090442Y-108844482D01*
X94024260Y-108851000D01*
X93935740Y-108851000D01*
X93869558Y-108844482D01*
X93803373Y-108837963D01*
X93633534Y-108786443D01*
X93477009Y-108702778D01*
X93441271Y-108673448D01*
X93339814Y-108590186D01*
X93256552Y-108488729D01*
X93227222Y-108452991D01*
X93143557Y-108296466D01*
X93092037Y-108126627D01*
X93074641Y-107950000D01*
X93092037Y-107773373D01*
X93143557Y-107603534D01*
X93227222Y-107447009D01*
X93256552Y-107411271D01*
X93339814Y-107309814D01*
X93441271Y-107226552D01*
X93477009Y-107197222D01*
X93633534Y-107113557D01*
X93803373Y-107062037D01*
X93869558Y-107055518D01*
X93935740Y-107049000D01*
X94024260Y-107049000D01*
X94090442Y-107055518D01*
X94090442Y-107055518D01*
G37*
G36*
X73770443Y-105785519D02*
G01*
X73836627Y-105792037D01*
X74006466Y-105843557D01*
X74162991Y-105927222D01*
X74198729Y-105956552D01*
X74300186Y-106039814D01*
X74383448Y-106141271D01*
X74412778Y-106177009D01*
X74496443Y-106333534D01*
X74547963Y-106503373D01*
X74565359Y-106680000D01*
X74547963Y-106856627D01*
X74496443Y-107026466D01*
X74412778Y-107182991D01*
X74383448Y-107218729D01*
X74300186Y-107320186D01*
X74198729Y-107403448D01*
X74162991Y-107432778D01*
X74006466Y-107516443D01*
X73836627Y-107567963D01*
X73770443Y-107574481D01*
X73704260Y-107581000D01*
X73615740Y-107581000D01*
X73549557Y-107574481D01*
X73483373Y-107567963D01*
X73313534Y-107516443D01*
X73157009Y-107432778D01*
X73121271Y-107403448D01*
X73019814Y-107320186D01*
X72936552Y-107218729D01*
X72907222Y-107182991D01*
X72823557Y-107026466D01*
X72772037Y-106856627D01*
X72754641Y-106680000D01*
X72772037Y-106503373D01*
X72823557Y-106333534D01*
X72907222Y-106177009D01*
X72936552Y-106141271D01*
X73019814Y-106039814D01*
X73121271Y-105956552D01*
X73157009Y-105927222D01*
X73313534Y-105843557D01*
X73483373Y-105792037D01*
X73549557Y-105785519D01*
X73615740Y-105779000D01*
X73704260Y-105779000D01*
X73770443Y-105785519D01*
X73770443Y-105785519D01*
G37*
G36*
X76310443Y-105785519D02*
G01*
X76376627Y-105792037D01*
X76546466Y-105843557D01*
X76702991Y-105927222D01*
X76738729Y-105956552D01*
X76840186Y-106039814D01*
X76923448Y-106141271D01*
X76952778Y-106177009D01*
X77036443Y-106333534D01*
X77087963Y-106503373D01*
X77105359Y-106680000D01*
X77087963Y-106856627D01*
X77036443Y-107026466D01*
X76952778Y-107182991D01*
X76923448Y-107218729D01*
X76840186Y-107320186D01*
X76738729Y-107403448D01*
X76702991Y-107432778D01*
X76546466Y-107516443D01*
X76376627Y-107567963D01*
X76310443Y-107574481D01*
X76244260Y-107581000D01*
X76155740Y-107581000D01*
X76089557Y-107574481D01*
X76023373Y-107567963D01*
X75853534Y-107516443D01*
X75697009Y-107432778D01*
X75661271Y-107403448D01*
X75559814Y-107320186D01*
X75476552Y-107218729D01*
X75447222Y-107182991D01*
X75363557Y-107026466D01*
X75312037Y-106856627D01*
X75294641Y-106680000D01*
X75312037Y-106503373D01*
X75363557Y-106333534D01*
X75447222Y-106177009D01*
X75476552Y-106141271D01*
X75559814Y-106039814D01*
X75661271Y-105956552D01*
X75697009Y-105927222D01*
X75853534Y-105843557D01*
X76023373Y-105792037D01*
X76089557Y-105785519D01*
X76155740Y-105779000D01*
X76244260Y-105779000D01*
X76310443Y-105785519D01*
X76310443Y-105785519D01*
G37*
G36*
X78850443Y-105785519D02*
G01*
X78916627Y-105792037D01*
X79086466Y-105843557D01*
X79242991Y-105927222D01*
X79278729Y-105956552D01*
X79380186Y-106039814D01*
X79463448Y-106141271D01*
X79492778Y-106177009D01*
X79576443Y-106333534D01*
X79627963Y-106503373D01*
X79645359Y-106680000D01*
X79627963Y-106856627D01*
X79576443Y-107026466D01*
X79492778Y-107182991D01*
X79463448Y-107218729D01*
X79380186Y-107320186D01*
X79278729Y-107403448D01*
X79242991Y-107432778D01*
X79086466Y-107516443D01*
X78916627Y-107567963D01*
X78850443Y-107574481D01*
X78784260Y-107581000D01*
X78695740Y-107581000D01*
X78629557Y-107574481D01*
X78563373Y-107567963D01*
X78393534Y-107516443D01*
X78237009Y-107432778D01*
X78201271Y-107403448D01*
X78099814Y-107320186D01*
X78016552Y-107218729D01*
X77987222Y-107182991D01*
X77903557Y-107026466D01*
X77852037Y-106856627D01*
X77834641Y-106680000D01*
X77852037Y-106503373D01*
X77903557Y-106333534D01*
X77987222Y-106177009D01*
X78016552Y-106141271D01*
X78099814Y-106039814D01*
X78201271Y-105956552D01*
X78237009Y-105927222D01*
X78393534Y-105843557D01*
X78563373Y-105792037D01*
X78629557Y-105785519D01*
X78695740Y-105779000D01*
X78784260Y-105779000D01*
X78850443Y-105785519D01*
X78850443Y-105785519D01*
G37*
G36*
X123391560Y-104559064D02*
G01*
X123543027Y-104589193D01*
X123757045Y-104677842D01*
X123757046Y-104677843D01*
X123949654Y-104806539D01*
X124113461Y-104970346D01*
X124175727Y-105063534D01*
X124242158Y-105162955D01*
X124330807Y-105376973D01*
X124376000Y-105604174D01*
X124376000Y-105835826D01*
X124330807Y-106063027D01*
X124242158Y-106277045D01*
X124242157Y-106277046D01*
X124113461Y-106469654D01*
X123949654Y-106633461D01*
X123880003Y-106680000D01*
X123757045Y-106762158D01*
X123543027Y-106850807D01*
X123391560Y-106880936D01*
X123315827Y-106896000D01*
X123084173Y-106896000D01*
X123008440Y-106880936D01*
X122856973Y-106850807D01*
X122642955Y-106762158D01*
X122519997Y-106680000D01*
X122450346Y-106633461D01*
X122286539Y-106469654D01*
X122157843Y-106277046D01*
X122157842Y-106277045D01*
X122069193Y-106063027D01*
X122024000Y-105835826D01*
X122024000Y-105604174D01*
X122069193Y-105376973D01*
X122157842Y-105162955D01*
X122224273Y-105063534D01*
X122286539Y-104970346D01*
X122450346Y-104806539D01*
X122642954Y-104677843D01*
X122642955Y-104677842D01*
X122856973Y-104589193D01*
X123008440Y-104559064D01*
X123084173Y-104544000D01*
X123315827Y-104544000D01*
X123391560Y-104559064D01*
X123391560Y-104559064D01*
G37*
G36*
X94090443Y-104515519D02*
G01*
X94156627Y-104522037D01*
X94326466Y-104573557D01*
X94482991Y-104657222D01*
X94518729Y-104686552D01*
X94620186Y-104769814D01*
X94703448Y-104871271D01*
X94732778Y-104907009D01*
X94816443Y-105063534D01*
X94867963Y-105233373D01*
X94885359Y-105410000D01*
X94867963Y-105586627D01*
X94816443Y-105756466D01*
X94732778Y-105912991D01*
X94703448Y-105948729D01*
X94620186Y-106050186D01*
X94518729Y-106133448D01*
X94482991Y-106162778D01*
X94326466Y-106246443D01*
X94156627Y-106297963D01*
X94090442Y-106304482D01*
X94024260Y-106311000D01*
X93935740Y-106311000D01*
X93869558Y-106304482D01*
X93803373Y-106297963D01*
X93633534Y-106246443D01*
X93477009Y-106162778D01*
X93441271Y-106133448D01*
X93339814Y-106050186D01*
X93256552Y-105948729D01*
X93227222Y-105912991D01*
X93143557Y-105756466D01*
X93092037Y-105586627D01*
X93074641Y-105410000D01*
X93092037Y-105233373D01*
X93143557Y-105063534D01*
X93227222Y-104907009D01*
X93256552Y-104871271D01*
X93339814Y-104769814D01*
X93441271Y-104686552D01*
X93477009Y-104657222D01*
X93633534Y-104573557D01*
X93803373Y-104522037D01*
X93869557Y-104515519D01*
X93935740Y-104509000D01*
X94024260Y-104509000D01*
X94090443Y-104515519D01*
X94090443Y-104515519D01*
G37*
G36*
X76310443Y-103245519D02*
G01*
X76376627Y-103252037D01*
X76546466Y-103303557D01*
X76702991Y-103387222D01*
X76738729Y-103416552D01*
X76840186Y-103499814D01*
X76923448Y-103601271D01*
X76952778Y-103637009D01*
X77036443Y-103793534D01*
X77087963Y-103963373D01*
X77105359Y-104140000D01*
X77087963Y-104316627D01*
X77036443Y-104486466D01*
X76952778Y-104642991D01*
X76923448Y-104678729D01*
X76840186Y-104780186D01*
X76738729Y-104863448D01*
X76702991Y-104892778D01*
X76546466Y-104976443D01*
X76376627Y-105027963D01*
X76310442Y-105034482D01*
X76244260Y-105041000D01*
X76155740Y-105041000D01*
X76089557Y-105034481D01*
X76023373Y-105027963D01*
X75853534Y-104976443D01*
X75697009Y-104892778D01*
X75661271Y-104863448D01*
X75559814Y-104780186D01*
X75476552Y-104678729D01*
X75447222Y-104642991D01*
X75363557Y-104486466D01*
X75312037Y-104316627D01*
X75294641Y-104140000D01*
X75312037Y-103963373D01*
X75363557Y-103793534D01*
X75447222Y-103637009D01*
X75476552Y-103601271D01*
X75559814Y-103499814D01*
X75661271Y-103416552D01*
X75697009Y-103387222D01*
X75853534Y-103303557D01*
X76023373Y-103252037D01*
X76089558Y-103245518D01*
X76155740Y-103239000D01*
X76244260Y-103239000D01*
X76310443Y-103245519D01*
X76310443Y-103245519D01*
G37*
G36*
X73770443Y-103245519D02*
G01*
X73836627Y-103252037D01*
X74006466Y-103303557D01*
X74162991Y-103387222D01*
X74198729Y-103416552D01*
X74300186Y-103499814D01*
X74383448Y-103601271D01*
X74412778Y-103637009D01*
X74496443Y-103793534D01*
X74547963Y-103963373D01*
X74565359Y-104140000D01*
X74547963Y-104316627D01*
X74496443Y-104486466D01*
X74412778Y-104642991D01*
X74383448Y-104678729D01*
X74300186Y-104780186D01*
X74198729Y-104863448D01*
X74162991Y-104892778D01*
X74006466Y-104976443D01*
X73836627Y-105027963D01*
X73770442Y-105034482D01*
X73704260Y-105041000D01*
X73615740Y-105041000D01*
X73549557Y-105034481D01*
X73483373Y-105027963D01*
X73313534Y-104976443D01*
X73157009Y-104892778D01*
X73121271Y-104863448D01*
X73019814Y-104780186D01*
X72936552Y-104678729D01*
X72907222Y-104642991D01*
X72823557Y-104486466D01*
X72772037Y-104316627D01*
X72754641Y-104140000D01*
X72772037Y-103963373D01*
X72823557Y-103793534D01*
X72907222Y-103637009D01*
X72936552Y-103601271D01*
X73019814Y-103499814D01*
X73121271Y-103416552D01*
X73157009Y-103387222D01*
X73313534Y-103303557D01*
X73483373Y-103252037D01*
X73549558Y-103245518D01*
X73615740Y-103239000D01*
X73704260Y-103239000D01*
X73770443Y-103245519D01*
X73770443Y-103245519D01*
G37*
G36*
X78850443Y-103245519D02*
G01*
X78916627Y-103252037D01*
X79086466Y-103303557D01*
X79242991Y-103387222D01*
X79278729Y-103416552D01*
X79380186Y-103499814D01*
X79463448Y-103601271D01*
X79492778Y-103637009D01*
X79576443Y-103793534D01*
X79627963Y-103963373D01*
X79645359Y-104140000D01*
X79627963Y-104316627D01*
X79576443Y-104486466D01*
X79492778Y-104642991D01*
X79463448Y-104678729D01*
X79380186Y-104780186D01*
X79278729Y-104863448D01*
X79242991Y-104892778D01*
X79086466Y-104976443D01*
X78916627Y-105027963D01*
X78850442Y-105034482D01*
X78784260Y-105041000D01*
X78695740Y-105041000D01*
X78629557Y-105034481D01*
X78563373Y-105027963D01*
X78393534Y-104976443D01*
X78237009Y-104892778D01*
X78201271Y-104863448D01*
X78099814Y-104780186D01*
X78016552Y-104678729D01*
X77987222Y-104642991D01*
X77903557Y-104486466D01*
X77852037Y-104316627D01*
X77834641Y-104140000D01*
X77852037Y-103963373D01*
X77903557Y-103793534D01*
X77987222Y-103637009D01*
X78016552Y-103601271D01*
X78099814Y-103499814D01*
X78201271Y-103416552D01*
X78237009Y-103387222D01*
X78393534Y-103303557D01*
X78563373Y-103252037D01*
X78629558Y-103245518D01*
X78695740Y-103239000D01*
X78784260Y-103239000D01*
X78850443Y-103245519D01*
X78850443Y-103245519D01*
G37*
G36*
X94090442Y-101975518D02*
G01*
X94156627Y-101982037D01*
X94326466Y-102033557D01*
X94482991Y-102117222D01*
X94518729Y-102146552D01*
X94620186Y-102229814D01*
X94703448Y-102331271D01*
X94732778Y-102367009D01*
X94816443Y-102523534D01*
X94867963Y-102693373D01*
X94885359Y-102870000D01*
X94867963Y-103046627D01*
X94816443Y-103216466D01*
X94732778Y-103372991D01*
X94703448Y-103408729D01*
X94620186Y-103510186D01*
X94518729Y-103593448D01*
X94482991Y-103622778D01*
X94326466Y-103706443D01*
X94156627Y-103757963D01*
X94090443Y-103764481D01*
X94024260Y-103771000D01*
X93935740Y-103771000D01*
X93869557Y-103764481D01*
X93803373Y-103757963D01*
X93633534Y-103706443D01*
X93477009Y-103622778D01*
X93441271Y-103593448D01*
X93339814Y-103510186D01*
X93256552Y-103408729D01*
X93227222Y-103372991D01*
X93143557Y-103216466D01*
X93092037Y-103046627D01*
X93074641Y-102870000D01*
X93092037Y-102693373D01*
X93143557Y-102523534D01*
X93227222Y-102367009D01*
X93256552Y-102331271D01*
X93339814Y-102229814D01*
X93441271Y-102146552D01*
X93477009Y-102117222D01*
X93633534Y-102033557D01*
X93803373Y-101982037D01*
X93869558Y-101975518D01*
X93935740Y-101969000D01*
X94024260Y-101969000D01*
X94090442Y-101975518D01*
X94090442Y-101975518D01*
G37*
G36*
X79641000Y-102501000D02*
G01*
X77839000Y-102501000D01*
X77839000Y-100699000D01*
X79641000Y-100699000D01*
X79641000Y-102501000D01*
X79641000Y-102501000D01*
G37*
G36*
X73770443Y-100705519D02*
G01*
X73836627Y-100712037D01*
X74006466Y-100763557D01*
X74162991Y-100847222D01*
X74198729Y-100876552D01*
X74300186Y-100959814D01*
X74383448Y-101061271D01*
X74412778Y-101097009D01*
X74496443Y-101253534D01*
X74547963Y-101423373D01*
X74565359Y-101600000D01*
X74547963Y-101776627D01*
X74496443Y-101946466D01*
X74412778Y-102102991D01*
X74383448Y-102138729D01*
X74300186Y-102240186D01*
X74198729Y-102323448D01*
X74162991Y-102352778D01*
X74006466Y-102436443D01*
X73836627Y-102487963D01*
X73770442Y-102494482D01*
X73704260Y-102501000D01*
X73615740Y-102501000D01*
X73549558Y-102494482D01*
X73483373Y-102487963D01*
X73313534Y-102436443D01*
X73157009Y-102352778D01*
X73121271Y-102323448D01*
X73019814Y-102240186D01*
X72936552Y-102138729D01*
X72907222Y-102102991D01*
X72823557Y-101946466D01*
X72772037Y-101776627D01*
X72754641Y-101600000D01*
X72772037Y-101423373D01*
X72823557Y-101253534D01*
X72907222Y-101097009D01*
X72936552Y-101061271D01*
X73019814Y-100959814D01*
X73121271Y-100876552D01*
X73157009Y-100847222D01*
X73313534Y-100763557D01*
X73483373Y-100712037D01*
X73549557Y-100705519D01*
X73615740Y-100699000D01*
X73704260Y-100699000D01*
X73770443Y-100705519D01*
X73770443Y-100705519D01*
G37*
G36*
X76310443Y-100705519D02*
G01*
X76376627Y-100712037D01*
X76546466Y-100763557D01*
X76702991Y-100847222D01*
X76738729Y-100876552D01*
X76840186Y-100959814D01*
X76923448Y-101061271D01*
X76952778Y-101097009D01*
X77036443Y-101253534D01*
X77087963Y-101423373D01*
X77105359Y-101600000D01*
X77087963Y-101776627D01*
X77036443Y-101946466D01*
X76952778Y-102102991D01*
X76923448Y-102138729D01*
X76840186Y-102240186D01*
X76738729Y-102323448D01*
X76702991Y-102352778D01*
X76546466Y-102436443D01*
X76376627Y-102487963D01*
X76310442Y-102494482D01*
X76244260Y-102501000D01*
X76155740Y-102501000D01*
X76089558Y-102494482D01*
X76023373Y-102487963D01*
X75853534Y-102436443D01*
X75697009Y-102352778D01*
X75661271Y-102323448D01*
X75559814Y-102240186D01*
X75476552Y-102138729D01*
X75447222Y-102102991D01*
X75363557Y-101946466D01*
X75312037Y-101776627D01*
X75294641Y-101600000D01*
X75312037Y-101423373D01*
X75363557Y-101253534D01*
X75447222Y-101097009D01*
X75476552Y-101061271D01*
X75559814Y-100959814D01*
X75661271Y-100876552D01*
X75697009Y-100847222D01*
X75853534Y-100763557D01*
X76023373Y-100712037D01*
X76089557Y-100705519D01*
X76155740Y-100699000D01*
X76244260Y-100699000D01*
X76310443Y-100705519D01*
X76310443Y-100705519D01*
G37*
G36*
X94881000Y-101231000D02*
G01*
X93079000Y-101231000D01*
X93079000Y-99429000D01*
X94881000Y-99429000D01*
X94881000Y-101231000D01*
X94881000Y-101231000D01*
G37*
G36*
X73770443Y-98165519D02*
G01*
X73836627Y-98172037D01*
X74006466Y-98223557D01*
X74162991Y-98307222D01*
X74198729Y-98336552D01*
X74300186Y-98419814D01*
X74383448Y-98521271D01*
X74412778Y-98557009D01*
X74496443Y-98713534D01*
X74547963Y-98883373D01*
X74565359Y-99060000D01*
X74547963Y-99236627D01*
X74496443Y-99406466D01*
X74412778Y-99562991D01*
X74383448Y-99598729D01*
X74300186Y-99700186D01*
X74198729Y-99783448D01*
X74162991Y-99812778D01*
X74006466Y-99896443D01*
X73836627Y-99947963D01*
X73770443Y-99954481D01*
X73704260Y-99961000D01*
X73615740Y-99961000D01*
X73549557Y-99954481D01*
X73483373Y-99947963D01*
X73313534Y-99896443D01*
X73157009Y-99812778D01*
X73121271Y-99783448D01*
X73019814Y-99700186D01*
X72936552Y-99598729D01*
X72907222Y-99562991D01*
X72823557Y-99406466D01*
X72772037Y-99236627D01*
X72754641Y-99060000D01*
X72772037Y-98883373D01*
X72823557Y-98713534D01*
X72907222Y-98557009D01*
X72936552Y-98521271D01*
X73019814Y-98419814D01*
X73121271Y-98336552D01*
X73157009Y-98307222D01*
X73313534Y-98223557D01*
X73483373Y-98172037D01*
X73549557Y-98165519D01*
X73615740Y-98159000D01*
X73704260Y-98159000D01*
X73770443Y-98165519D01*
X73770443Y-98165519D01*
G37*
G36*
X76310443Y-98165519D02*
G01*
X76376627Y-98172037D01*
X76546466Y-98223557D01*
X76702991Y-98307222D01*
X76738729Y-98336552D01*
X76840186Y-98419814D01*
X76923448Y-98521271D01*
X76952778Y-98557009D01*
X77036443Y-98713534D01*
X77087963Y-98883373D01*
X77105359Y-99060000D01*
X77087963Y-99236627D01*
X77036443Y-99406466D01*
X76952778Y-99562991D01*
X76923448Y-99598729D01*
X76840186Y-99700186D01*
X76738729Y-99783448D01*
X76702991Y-99812778D01*
X76546466Y-99896443D01*
X76376627Y-99947963D01*
X76310443Y-99954481D01*
X76244260Y-99961000D01*
X76155740Y-99961000D01*
X76089557Y-99954481D01*
X76023373Y-99947963D01*
X75853534Y-99896443D01*
X75697009Y-99812778D01*
X75661271Y-99783448D01*
X75559814Y-99700186D01*
X75476552Y-99598729D01*
X75447222Y-99562991D01*
X75363557Y-99406466D01*
X75312037Y-99236627D01*
X75294641Y-99060000D01*
X75312037Y-98883373D01*
X75363557Y-98713534D01*
X75447222Y-98557009D01*
X75476552Y-98521271D01*
X75559814Y-98419814D01*
X75661271Y-98336552D01*
X75697009Y-98307222D01*
X75853534Y-98223557D01*
X76023373Y-98172037D01*
X76089557Y-98165519D01*
X76155740Y-98159000D01*
X76244260Y-98159000D01*
X76310443Y-98165519D01*
X76310443Y-98165519D01*
G37*
G36*
X76310442Y-95625518D02*
G01*
X76376627Y-95632037D01*
X76546466Y-95683557D01*
X76702991Y-95767222D01*
X76738729Y-95796552D01*
X76840186Y-95879814D01*
X76923448Y-95981271D01*
X76952778Y-96017009D01*
X77036443Y-96173534D01*
X77087963Y-96343373D01*
X77105359Y-96520000D01*
X77087963Y-96696627D01*
X77036443Y-96866466D01*
X76952778Y-97022991D01*
X76923448Y-97058729D01*
X76840186Y-97160186D01*
X76738729Y-97243448D01*
X76702991Y-97272778D01*
X76546466Y-97356443D01*
X76376627Y-97407963D01*
X76310442Y-97414482D01*
X76244260Y-97421000D01*
X76155740Y-97421000D01*
X76089558Y-97414482D01*
X76023373Y-97407963D01*
X75853534Y-97356443D01*
X75697009Y-97272778D01*
X75661271Y-97243448D01*
X75559814Y-97160186D01*
X75476552Y-97058729D01*
X75447222Y-97022991D01*
X75363557Y-96866466D01*
X75312037Y-96696627D01*
X75294641Y-96520000D01*
X75312037Y-96343373D01*
X75363557Y-96173534D01*
X75447222Y-96017009D01*
X75476552Y-95981271D01*
X75559814Y-95879814D01*
X75661271Y-95796552D01*
X75697009Y-95767222D01*
X75853534Y-95683557D01*
X76023373Y-95632037D01*
X76089558Y-95625518D01*
X76155740Y-95619000D01*
X76244260Y-95619000D01*
X76310442Y-95625518D01*
X76310442Y-95625518D01*
G37*
G36*
X73770442Y-95625518D02*
G01*
X73836627Y-95632037D01*
X74006466Y-95683557D01*
X74162991Y-95767222D01*
X74198729Y-95796552D01*
X74300186Y-95879814D01*
X74383448Y-95981271D01*
X74412778Y-96017009D01*
X74496443Y-96173534D01*
X74547963Y-96343373D01*
X74565359Y-96520000D01*
X74547963Y-96696627D01*
X74496443Y-96866466D01*
X74412778Y-97022991D01*
X74383448Y-97058729D01*
X74300186Y-97160186D01*
X74198729Y-97243448D01*
X74162991Y-97272778D01*
X74006466Y-97356443D01*
X73836627Y-97407963D01*
X73770442Y-97414482D01*
X73704260Y-97421000D01*
X73615740Y-97421000D01*
X73549558Y-97414482D01*
X73483373Y-97407963D01*
X73313534Y-97356443D01*
X73157009Y-97272778D01*
X73121271Y-97243448D01*
X73019814Y-97160186D01*
X72936552Y-97058729D01*
X72907222Y-97022991D01*
X72823557Y-96866466D01*
X72772037Y-96696627D01*
X72754641Y-96520000D01*
X72772037Y-96343373D01*
X72823557Y-96173534D01*
X72907222Y-96017009D01*
X72936552Y-95981271D01*
X73019814Y-95879814D01*
X73121271Y-95796552D01*
X73157009Y-95767222D01*
X73313534Y-95683557D01*
X73483373Y-95632037D01*
X73549558Y-95625518D01*
X73615740Y-95619000D01*
X73704260Y-95619000D01*
X73770442Y-95625518D01*
X73770442Y-95625518D01*
G37*
G36*
X76310443Y-93085519D02*
G01*
X76376627Y-93092037D01*
X76546466Y-93143557D01*
X76702991Y-93227222D01*
X76738729Y-93256552D01*
X76840186Y-93339814D01*
X76923448Y-93441271D01*
X76952778Y-93477009D01*
X77036443Y-93633534D01*
X77087963Y-93803373D01*
X77105359Y-93980000D01*
X77087963Y-94156627D01*
X77036443Y-94326466D01*
X76952778Y-94482991D01*
X76923448Y-94518729D01*
X76840186Y-94620186D01*
X76738729Y-94703448D01*
X76702991Y-94732778D01*
X76546466Y-94816443D01*
X76376627Y-94867963D01*
X76310443Y-94874481D01*
X76244260Y-94881000D01*
X76155740Y-94881000D01*
X76089557Y-94874481D01*
X76023373Y-94867963D01*
X75853534Y-94816443D01*
X75697009Y-94732778D01*
X75661271Y-94703448D01*
X75559814Y-94620186D01*
X75476552Y-94518729D01*
X75447222Y-94482991D01*
X75363557Y-94326466D01*
X75312037Y-94156627D01*
X75294641Y-93980000D01*
X75312037Y-93803373D01*
X75363557Y-93633534D01*
X75447222Y-93477009D01*
X75476552Y-93441271D01*
X75559814Y-93339814D01*
X75661271Y-93256552D01*
X75697009Y-93227222D01*
X75853534Y-93143557D01*
X76023373Y-93092037D01*
X76089557Y-93085519D01*
X76155740Y-93079000D01*
X76244260Y-93079000D01*
X76310443Y-93085519D01*
X76310443Y-93085519D01*
G37*
G36*
X73770443Y-93085519D02*
G01*
X73836627Y-93092037D01*
X74006466Y-93143557D01*
X74162991Y-93227222D01*
X74198729Y-93256552D01*
X74300186Y-93339814D01*
X74383448Y-93441271D01*
X74412778Y-93477009D01*
X74496443Y-93633534D01*
X74547963Y-93803373D01*
X74565359Y-93980000D01*
X74547963Y-94156627D01*
X74496443Y-94326466D01*
X74412778Y-94482991D01*
X74383448Y-94518729D01*
X74300186Y-94620186D01*
X74198729Y-94703448D01*
X74162991Y-94732778D01*
X74006466Y-94816443D01*
X73836627Y-94867963D01*
X73770443Y-94874481D01*
X73704260Y-94881000D01*
X73615740Y-94881000D01*
X73549557Y-94874481D01*
X73483373Y-94867963D01*
X73313534Y-94816443D01*
X73157009Y-94732778D01*
X73121271Y-94703448D01*
X73019814Y-94620186D01*
X72936552Y-94518729D01*
X72907222Y-94482991D01*
X72823557Y-94326466D01*
X72772037Y-94156627D01*
X72754641Y-93980000D01*
X72772037Y-93803373D01*
X72823557Y-93633534D01*
X72907222Y-93477009D01*
X72936552Y-93441271D01*
X73019814Y-93339814D01*
X73121271Y-93256552D01*
X73157009Y-93227222D01*
X73313534Y-93143557D01*
X73483373Y-93092037D01*
X73549557Y-93085519D01*
X73615740Y-93079000D01*
X73704260Y-93079000D01*
X73770443Y-93085519D01*
X73770443Y-93085519D01*
G37*
G36*
X76310443Y-90545519D02*
G01*
X76376627Y-90552037D01*
X76546466Y-90603557D01*
X76702991Y-90687222D01*
X76738729Y-90716552D01*
X76840186Y-90799814D01*
X76923448Y-90901271D01*
X76952778Y-90937009D01*
X77036443Y-91093534D01*
X77087963Y-91263373D01*
X77105359Y-91440000D01*
X77087963Y-91616627D01*
X77036443Y-91786466D01*
X76952778Y-91942991D01*
X76923448Y-91978729D01*
X76840186Y-92080186D01*
X76738729Y-92163448D01*
X76702991Y-92192778D01*
X76546466Y-92276443D01*
X76376627Y-92327963D01*
X76310443Y-92334481D01*
X76244260Y-92341000D01*
X76155740Y-92341000D01*
X76089557Y-92334481D01*
X76023373Y-92327963D01*
X75853534Y-92276443D01*
X75697009Y-92192778D01*
X75661271Y-92163448D01*
X75559814Y-92080186D01*
X75476552Y-91978729D01*
X75447222Y-91942991D01*
X75363557Y-91786466D01*
X75312037Y-91616627D01*
X75294641Y-91440000D01*
X75312037Y-91263373D01*
X75363557Y-91093534D01*
X75447222Y-90937009D01*
X75476552Y-90901271D01*
X75559814Y-90799814D01*
X75661271Y-90716552D01*
X75697009Y-90687222D01*
X75853534Y-90603557D01*
X76023373Y-90552037D01*
X76089557Y-90545519D01*
X76155740Y-90539000D01*
X76244260Y-90539000D01*
X76310443Y-90545519D01*
X76310443Y-90545519D01*
G37*
G36*
X78850443Y-90545519D02*
G01*
X78916627Y-90552037D01*
X79086466Y-90603557D01*
X79242991Y-90687222D01*
X79278729Y-90716552D01*
X79380186Y-90799814D01*
X79463448Y-90901271D01*
X79492778Y-90937009D01*
X79576443Y-91093534D01*
X79627963Y-91263373D01*
X79645359Y-91440000D01*
X79627963Y-91616627D01*
X79576443Y-91786466D01*
X79492778Y-91942991D01*
X79463448Y-91978729D01*
X79380186Y-92080186D01*
X79278729Y-92163448D01*
X79242991Y-92192778D01*
X79086466Y-92276443D01*
X78916627Y-92327963D01*
X78850443Y-92334481D01*
X78784260Y-92341000D01*
X78695740Y-92341000D01*
X78629557Y-92334481D01*
X78563373Y-92327963D01*
X78393534Y-92276443D01*
X78237009Y-92192778D01*
X78201271Y-92163448D01*
X78099814Y-92080186D01*
X78016552Y-91978729D01*
X77987222Y-91942991D01*
X77903557Y-91786466D01*
X77852037Y-91616627D01*
X77834641Y-91440000D01*
X77852037Y-91263373D01*
X77903557Y-91093534D01*
X77987222Y-90937009D01*
X78016552Y-90901271D01*
X78099814Y-90799814D01*
X78201271Y-90716552D01*
X78237009Y-90687222D01*
X78393534Y-90603557D01*
X78563373Y-90552037D01*
X78629557Y-90545519D01*
X78695740Y-90539000D01*
X78784260Y-90539000D01*
X78850443Y-90545519D01*
X78850443Y-90545519D01*
G37*
G36*
X73770443Y-90545519D02*
G01*
X73836627Y-90552037D01*
X74006466Y-90603557D01*
X74162991Y-90687222D01*
X74198729Y-90716552D01*
X74300186Y-90799814D01*
X74383448Y-90901271D01*
X74412778Y-90937009D01*
X74496443Y-91093534D01*
X74547963Y-91263373D01*
X74565359Y-91440000D01*
X74547963Y-91616627D01*
X74496443Y-91786466D01*
X74412778Y-91942991D01*
X74383448Y-91978729D01*
X74300186Y-92080186D01*
X74198729Y-92163448D01*
X74162991Y-92192778D01*
X74006466Y-92276443D01*
X73836627Y-92327963D01*
X73770443Y-92334481D01*
X73704260Y-92341000D01*
X73615740Y-92341000D01*
X73549557Y-92334481D01*
X73483373Y-92327963D01*
X73313534Y-92276443D01*
X73157009Y-92192778D01*
X73121271Y-92163448D01*
X73019814Y-92080186D01*
X72936552Y-91978729D01*
X72907222Y-91942991D01*
X72823557Y-91786466D01*
X72772037Y-91616627D01*
X72754641Y-91440000D01*
X72772037Y-91263373D01*
X72823557Y-91093534D01*
X72907222Y-90937009D01*
X72936552Y-90901271D01*
X73019814Y-90799814D01*
X73121271Y-90716552D01*
X73157009Y-90687222D01*
X73313534Y-90603557D01*
X73483373Y-90552037D01*
X73549557Y-90545519D01*
X73615740Y-90539000D01*
X73704260Y-90539000D01*
X73770443Y-90545519D01*
X73770443Y-90545519D01*
G37*
G36*
X78850443Y-88005519D02*
G01*
X78916627Y-88012037D01*
X79086466Y-88063557D01*
X79242991Y-88147222D01*
X79278729Y-88176552D01*
X79380186Y-88259814D01*
X79463448Y-88361271D01*
X79492778Y-88397009D01*
X79576443Y-88553534D01*
X79627963Y-88723373D01*
X79645359Y-88900000D01*
X79627963Y-89076627D01*
X79576443Y-89246466D01*
X79492778Y-89402991D01*
X79463448Y-89438729D01*
X79380186Y-89540186D01*
X79278729Y-89623448D01*
X79242991Y-89652778D01*
X79086466Y-89736443D01*
X78916627Y-89787963D01*
X78850443Y-89794481D01*
X78784260Y-89801000D01*
X78695740Y-89801000D01*
X78629557Y-89794481D01*
X78563373Y-89787963D01*
X78393534Y-89736443D01*
X78237009Y-89652778D01*
X78201271Y-89623448D01*
X78099814Y-89540186D01*
X78016552Y-89438729D01*
X77987222Y-89402991D01*
X77903557Y-89246466D01*
X77852037Y-89076627D01*
X77834641Y-88900000D01*
X77852037Y-88723373D01*
X77903557Y-88553534D01*
X77987222Y-88397009D01*
X78016552Y-88361271D01*
X78099814Y-88259814D01*
X78201271Y-88176552D01*
X78237009Y-88147222D01*
X78393534Y-88063557D01*
X78563373Y-88012037D01*
X78629557Y-88005519D01*
X78695740Y-87999000D01*
X78784260Y-87999000D01*
X78850443Y-88005519D01*
X78850443Y-88005519D01*
G37*
G36*
X73770443Y-88005519D02*
G01*
X73836627Y-88012037D01*
X74006466Y-88063557D01*
X74162991Y-88147222D01*
X74198729Y-88176552D01*
X74300186Y-88259814D01*
X74383448Y-88361271D01*
X74412778Y-88397009D01*
X74496443Y-88553534D01*
X74547963Y-88723373D01*
X74565359Y-88900000D01*
X74547963Y-89076627D01*
X74496443Y-89246466D01*
X74412778Y-89402991D01*
X74383448Y-89438729D01*
X74300186Y-89540186D01*
X74198729Y-89623448D01*
X74162991Y-89652778D01*
X74006466Y-89736443D01*
X73836627Y-89787963D01*
X73770443Y-89794481D01*
X73704260Y-89801000D01*
X73615740Y-89801000D01*
X73549557Y-89794481D01*
X73483373Y-89787963D01*
X73313534Y-89736443D01*
X73157009Y-89652778D01*
X73121271Y-89623448D01*
X73019814Y-89540186D01*
X72936552Y-89438729D01*
X72907222Y-89402991D01*
X72823557Y-89246466D01*
X72772037Y-89076627D01*
X72754641Y-88900000D01*
X72772037Y-88723373D01*
X72823557Y-88553534D01*
X72907222Y-88397009D01*
X72936552Y-88361271D01*
X73019814Y-88259814D01*
X73121271Y-88176552D01*
X73157009Y-88147222D01*
X73313534Y-88063557D01*
X73483373Y-88012037D01*
X73549557Y-88005519D01*
X73615740Y-87999000D01*
X73704260Y-87999000D01*
X73770443Y-88005519D01*
X73770443Y-88005519D01*
G37*
G36*
X76310443Y-88005519D02*
G01*
X76376627Y-88012037D01*
X76546466Y-88063557D01*
X76702991Y-88147222D01*
X76738729Y-88176552D01*
X76840186Y-88259814D01*
X76923448Y-88361271D01*
X76952778Y-88397009D01*
X77036443Y-88553534D01*
X77087963Y-88723373D01*
X77105359Y-88900000D01*
X77087963Y-89076627D01*
X77036443Y-89246466D01*
X76952778Y-89402991D01*
X76923448Y-89438729D01*
X76840186Y-89540186D01*
X76738729Y-89623448D01*
X76702991Y-89652778D01*
X76546466Y-89736443D01*
X76376627Y-89787963D01*
X76310443Y-89794481D01*
X76244260Y-89801000D01*
X76155740Y-89801000D01*
X76089557Y-89794481D01*
X76023373Y-89787963D01*
X75853534Y-89736443D01*
X75697009Y-89652778D01*
X75661271Y-89623448D01*
X75559814Y-89540186D01*
X75476552Y-89438729D01*
X75447222Y-89402991D01*
X75363557Y-89246466D01*
X75312037Y-89076627D01*
X75294641Y-88900000D01*
X75312037Y-88723373D01*
X75363557Y-88553534D01*
X75447222Y-88397009D01*
X75476552Y-88361271D01*
X75559814Y-88259814D01*
X75661271Y-88176552D01*
X75697009Y-88147222D01*
X75853534Y-88063557D01*
X76023373Y-88012037D01*
X76089557Y-88005519D01*
X76155740Y-87999000D01*
X76244260Y-87999000D01*
X76310443Y-88005519D01*
X76310443Y-88005519D01*
G37*
G36*
X73770442Y-85465518D02*
G01*
X73836627Y-85472037D01*
X74006466Y-85523557D01*
X74162991Y-85607222D01*
X74198729Y-85636552D01*
X74300186Y-85719814D01*
X74383448Y-85821271D01*
X74412778Y-85857009D01*
X74496443Y-86013534D01*
X74547963Y-86183373D01*
X74565359Y-86360000D01*
X74547963Y-86536627D01*
X74496443Y-86706466D01*
X74412778Y-86862991D01*
X74383448Y-86898729D01*
X74300186Y-87000186D01*
X74198729Y-87083448D01*
X74162991Y-87112778D01*
X74006466Y-87196443D01*
X73836627Y-87247963D01*
X73770442Y-87254482D01*
X73704260Y-87261000D01*
X73615740Y-87261000D01*
X73549558Y-87254482D01*
X73483373Y-87247963D01*
X73313534Y-87196443D01*
X73157009Y-87112778D01*
X73121271Y-87083448D01*
X73019814Y-87000186D01*
X72936552Y-86898729D01*
X72907222Y-86862991D01*
X72823557Y-86706466D01*
X72772037Y-86536627D01*
X72754641Y-86360000D01*
X72772037Y-86183373D01*
X72823557Y-86013534D01*
X72907222Y-85857009D01*
X72936552Y-85821271D01*
X73019814Y-85719814D01*
X73121271Y-85636552D01*
X73157009Y-85607222D01*
X73313534Y-85523557D01*
X73483373Y-85472037D01*
X73549558Y-85465518D01*
X73615740Y-85459000D01*
X73704260Y-85459000D01*
X73770442Y-85465518D01*
X73770442Y-85465518D01*
G37*
G36*
X76310442Y-85465518D02*
G01*
X76376627Y-85472037D01*
X76546466Y-85523557D01*
X76702991Y-85607222D01*
X76738729Y-85636552D01*
X76840186Y-85719814D01*
X76923448Y-85821271D01*
X76952778Y-85857009D01*
X77036443Y-86013534D01*
X77087963Y-86183373D01*
X77105359Y-86360000D01*
X77087963Y-86536627D01*
X77036443Y-86706466D01*
X76952778Y-86862991D01*
X76923448Y-86898729D01*
X76840186Y-87000186D01*
X76738729Y-87083448D01*
X76702991Y-87112778D01*
X76546466Y-87196443D01*
X76376627Y-87247963D01*
X76310442Y-87254482D01*
X76244260Y-87261000D01*
X76155740Y-87261000D01*
X76089558Y-87254482D01*
X76023373Y-87247963D01*
X75853534Y-87196443D01*
X75697009Y-87112778D01*
X75661271Y-87083448D01*
X75559814Y-87000186D01*
X75476552Y-86898729D01*
X75447222Y-86862991D01*
X75363557Y-86706466D01*
X75312037Y-86536627D01*
X75294641Y-86360000D01*
X75312037Y-86183373D01*
X75363557Y-86013534D01*
X75447222Y-85857009D01*
X75476552Y-85821271D01*
X75559814Y-85719814D01*
X75661271Y-85636552D01*
X75697009Y-85607222D01*
X75853534Y-85523557D01*
X76023373Y-85472037D01*
X76089558Y-85465518D01*
X76155740Y-85459000D01*
X76244260Y-85459000D01*
X76310442Y-85465518D01*
X76310442Y-85465518D01*
G37*
G36*
X78850442Y-85465518D02*
G01*
X78916627Y-85472037D01*
X79086466Y-85523557D01*
X79242991Y-85607222D01*
X79278729Y-85636552D01*
X79380186Y-85719814D01*
X79463448Y-85821271D01*
X79492778Y-85857009D01*
X79576443Y-86013534D01*
X79627963Y-86183373D01*
X79645359Y-86360000D01*
X79627963Y-86536627D01*
X79576443Y-86706466D01*
X79492778Y-86862991D01*
X79463448Y-86898729D01*
X79380186Y-87000186D01*
X79278729Y-87083448D01*
X79242991Y-87112778D01*
X79086466Y-87196443D01*
X78916627Y-87247963D01*
X78850442Y-87254482D01*
X78784260Y-87261000D01*
X78695740Y-87261000D01*
X78629558Y-87254482D01*
X78563373Y-87247963D01*
X78393534Y-87196443D01*
X78237009Y-87112778D01*
X78201271Y-87083448D01*
X78099814Y-87000186D01*
X78016552Y-86898729D01*
X77987222Y-86862991D01*
X77903557Y-86706466D01*
X77852037Y-86536627D01*
X77834641Y-86360000D01*
X77852037Y-86183373D01*
X77903557Y-86013534D01*
X77987222Y-85857009D01*
X78016552Y-85821271D01*
X78099814Y-85719814D01*
X78201271Y-85636552D01*
X78237009Y-85607222D01*
X78393534Y-85523557D01*
X78563373Y-85472037D01*
X78629558Y-85465518D01*
X78695740Y-85459000D01*
X78784260Y-85459000D01*
X78850442Y-85465518D01*
X78850442Y-85465518D01*
G37*
G36*
X73770443Y-82925519D02*
G01*
X73836627Y-82932037D01*
X74006466Y-82983557D01*
X74162991Y-83067222D01*
X74198729Y-83096552D01*
X74300186Y-83179814D01*
X74383448Y-83281271D01*
X74412778Y-83317009D01*
X74496443Y-83473534D01*
X74547963Y-83643373D01*
X74565359Y-83820000D01*
X74547963Y-83996627D01*
X74496443Y-84166466D01*
X74412778Y-84322991D01*
X74383448Y-84358729D01*
X74300186Y-84460186D01*
X74198729Y-84543448D01*
X74162991Y-84572778D01*
X74006466Y-84656443D01*
X73836627Y-84707963D01*
X73770443Y-84714481D01*
X73704260Y-84721000D01*
X73615740Y-84721000D01*
X73549557Y-84714481D01*
X73483373Y-84707963D01*
X73313534Y-84656443D01*
X73157009Y-84572778D01*
X73121271Y-84543448D01*
X73019814Y-84460186D01*
X72936552Y-84358729D01*
X72907222Y-84322991D01*
X72823557Y-84166466D01*
X72772037Y-83996627D01*
X72754641Y-83820000D01*
X72772037Y-83643373D01*
X72823557Y-83473534D01*
X72907222Y-83317009D01*
X72936552Y-83281271D01*
X73019814Y-83179814D01*
X73121271Y-83096552D01*
X73157009Y-83067222D01*
X73313534Y-82983557D01*
X73483373Y-82932037D01*
X73549557Y-82925519D01*
X73615740Y-82919000D01*
X73704260Y-82919000D01*
X73770443Y-82925519D01*
X73770443Y-82925519D01*
G37*
G36*
X78850443Y-82925519D02*
G01*
X78916627Y-82932037D01*
X79086466Y-82983557D01*
X79242991Y-83067222D01*
X79278729Y-83096552D01*
X79380186Y-83179814D01*
X79463448Y-83281271D01*
X79492778Y-83317009D01*
X79576443Y-83473534D01*
X79627963Y-83643373D01*
X79645359Y-83820000D01*
X79627963Y-83996627D01*
X79576443Y-84166466D01*
X79492778Y-84322991D01*
X79463448Y-84358729D01*
X79380186Y-84460186D01*
X79278729Y-84543448D01*
X79242991Y-84572778D01*
X79086466Y-84656443D01*
X78916627Y-84707963D01*
X78850443Y-84714481D01*
X78784260Y-84721000D01*
X78695740Y-84721000D01*
X78629557Y-84714481D01*
X78563373Y-84707963D01*
X78393534Y-84656443D01*
X78237009Y-84572778D01*
X78201271Y-84543448D01*
X78099814Y-84460186D01*
X78016552Y-84358729D01*
X77987222Y-84322991D01*
X77903557Y-84166466D01*
X77852037Y-83996627D01*
X77834641Y-83820000D01*
X77852037Y-83643373D01*
X77903557Y-83473534D01*
X77987222Y-83317009D01*
X78016552Y-83281271D01*
X78099814Y-83179814D01*
X78201271Y-83096552D01*
X78237009Y-83067222D01*
X78393534Y-82983557D01*
X78563373Y-82932037D01*
X78629557Y-82925519D01*
X78695740Y-82919000D01*
X78784260Y-82919000D01*
X78850443Y-82925519D01*
X78850443Y-82925519D01*
G37*
G36*
X76310443Y-82925519D02*
G01*
X76376627Y-82932037D01*
X76546466Y-82983557D01*
X76702991Y-83067222D01*
X76738729Y-83096552D01*
X76840186Y-83179814D01*
X76923448Y-83281271D01*
X76952778Y-83317009D01*
X77036443Y-83473534D01*
X77087963Y-83643373D01*
X77105359Y-83820000D01*
X77087963Y-83996627D01*
X77036443Y-84166466D01*
X76952778Y-84322991D01*
X76923448Y-84358729D01*
X76840186Y-84460186D01*
X76738729Y-84543448D01*
X76702991Y-84572778D01*
X76546466Y-84656443D01*
X76376627Y-84707963D01*
X76310443Y-84714481D01*
X76244260Y-84721000D01*
X76155740Y-84721000D01*
X76089557Y-84714481D01*
X76023373Y-84707963D01*
X75853534Y-84656443D01*
X75697009Y-84572778D01*
X75661271Y-84543448D01*
X75559814Y-84460186D01*
X75476552Y-84358729D01*
X75447222Y-84322991D01*
X75363557Y-84166466D01*
X75312037Y-83996627D01*
X75294641Y-83820000D01*
X75312037Y-83643373D01*
X75363557Y-83473534D01*
X75447222Y-83317009D01*
X75476552Y-83281271D01*
X75559814Y-83179814D01*
X75661271Y-83096552D01*
X75697009Y-83067222D01*
X75853534Y-82983557D01*
X76023373Y-82932037D01*
X76089557Y-82925519D01*
X76155740Y-82919000D01*
X76244260Y-82919000D01*
X76310443Y-82925519D01*
X76310443Y-82925519D01*
G37*
G36*
X94090443Y-82925519D02*
G01*
X94156627Y-82932037D01*
X94326466Y-82983557D01*
X94482991Y-83067222D01*
X94518729Y-83096552D01*
X94620186Y-83179814D01*
X94703448Y-83281271D01*
X94732778Y-83317009D01*
X94816443Y-83473534D01*
X94867963Y-83643373D01*
X94885359Y-83820000D01*
X94867963Y-83996627D01*
X94816443Y-84166466D01*
X94732778Y-84322991D01*
X94703448Y-84358729D01*
X94620186Y-84460186D01*
X94518729Y-84543448D01*
X94482991Y-84572778D01*
X94326466Y-84656443D01*
X94156627Y-84707963D01*
X94090443Y-84714481D01*
X94024260Y-84721000D01*
X93935740Y-84721000D01*
X93869557Y-84714481D01*
X93803373Y-84707963D01*
X93633534Y-84656443D01*
X93477009Y-84572778D01*
X93441271Y-84543448D01*
X93339814Y-84460186D01*
X93256552Y-84358729D01*
X93227222Y-84322991D01*
X93143557Y-84166466D01*
X93092037Y-83996627D01*
X93074641Y-83820000D01*
X93092037Y-83643373D01*
X93143557Y-83473534D01*
X93227222Y-83317009D01*
X93256552Y-83281271D01*
X93339814Y-83179814D01*
X93441271Y-83096552D01*
X93477009Y-83067222D01*
X93633534Y-82983557D01*
X93803373Y-82932037D01*
X93869557Y-82925519D01*
X93935740Y-82919000D01*
X94024260Y-82919000D01*
X94090443Y-82925519D01*
X94090443Y-82925519D01*
G37*
G36*
X123342994Y-81069404D02*
G01*
X123543027Y-81109193D01*
X123757045Y-81197842D01*
X123757046Y-81197843D01*
X123949654Y-81326539D01*
X124113461Y-81490346D01*
X124199258Y-81618751D01*
X124242158Y-81682955D01*
X124330807Y-81896973D01*
X124376000Y-82124174D01*
X124376000Y-82355826D01*
X124330807Y-82583027D01*
X124242158Y-82797045D01*
X124242157Y-82797046D01*
X124113461Y-82989654D01*
X123949654Y-83153461D01*
X123910212Y-83179815D01*
X123757045Y-83282158D01*
X123543027Y-83370807D01*
X123391560Y-83400936D01*
X123315827Y-83416000D01*
X123084173Y-83416000D01*
X123008440Y-83400936D01*
X122856973Y-83370807D01*
X122642955Y-83282158D01*
X122489788Y-83179815D01*
X122450346Y-83153461D01*
X122286539Y-82989654D01*
X122157843Y-82797046D01*
X122157842Y-82797045D01*
X122069193Y-82583027D01*
X122024000Y-82355826D01*
X122024000Y-82124174D01*
X122069193Y-81896973D01*
X122157842Y-81682955D01*
X122200742Y-81618751D01*
X122286539Y-81490346D01*
X122450346Y-81326539D01*
X122642954Y-81197843D01*
X122642955Y-81197842D01*
X122856973Y-81109193D01*
X123057006Y-81069404D01*
X123084173Y-81064000D01*
X123315827Y-81064000D01*
X123342994Y-81069404D01*
X123342994Y-81069404D01*
G37*
G36*
X94090442Y-80385518D02*
G01*
X94156627Y-80392037D01*
X94326466Y-80443557D01*
X94482991Y-80527222D01*
X94518729Y-80556552D01*
X94620186Y-80639814D01*
X94703448Y-80741271D01*
X94732778Y-80777009D01*
X94816443Y-80933534D01*
X94867963Y-81103373D01*
X94885359Y-81280000D01*
X94867963Y-81456627D01*
X94816443Y-81626466D01*
X94732778Y-81782991D01*
X94703448Y-81818729D01*
X94620186Y-81920186D01*
X94518729Y-82003448D01*
X94482991Y-82032778D01*
X94326466Y-82116443D01*
X94156627Y-82167963D01*
X94090443Y-82174481D01*
X94024260Y-82181000D01*
X93935740Y-82181000D01*
X93869557Y-82174481D01*
X93803373Y-82167963D01*
X93633534Y-82116443D01*
X93477009Y-82032778D01*
X93441271Y-82003448D01*
X93339814Y-81920186D01*
X93256552Y-81818729D01*
X93227222Y-81782991D01*
X93143557Y-81626466D01*
X93092037Y-81456627D01*
X93074641Y-81280000D01*
X93092037Y-81103373D01*
X93143557Y-80933534D01*
X93227222Y-80777009D01*
X93256552Y-80741271D01*
X93339814Y-80639814D01*
X93441271Y-80556552D01*
X93477009Y-80527222D01*
X93633534Y-80443557D01*
X93803373Y-80392037D01*
X93869558Y-80385518D01*
X93935740Y-80379000D01*
X94024260Y-80379000D01*
X94090442Y-80385518D01*
X94090442Y-80385518D01*
G37*
G36*
X79641000Y-82181000D02*
G01*
X77839000Y-82181000D01*
X77839000Y-80379000D01*
X79641000Y-80379000D01*
X79641000Y-82181000D01*
X79641000Y-82181000D01*
G37*
G36*
X76310442Y-80385518D02*
G01*
X76376627Y-80392037D01*
X76546466Y-80443557D01*
X76702991Y-80527222D01*
X76738729Y-80556552D01*
X76840186Y-80639814D01*
X76923448Y-80741271D01*
X76952778Y-80777009D01*
X77036443Y-80933534D01*
X77087963Y-81103373D01*
X77105359Y-81280000D01*
X77087963Y-81456627D01*
X77036443Y-81626466D01*
X76952778Y-81782991D01*
X76923448Y-81818729D01*
X76840186Y-81920186D01*
X76738729Y-82003448D01*
X76702991Y-82032778D01*
X76546466Y-82116443D01*
X76376627Y-82167963D01*
X76310443Y-82174481D01*
X76244260Y-82181000D01*
X76155740Y-82181000D01*
X76089557Y-82174481D01*
X76023373Y-82167963D01*
X75853534Y-82116443D01*
X75697009Y-82032778D01*
X75661271Y-82003448D01*
X75559814Y-81920186D01*
X75476552Y-81818729D01*
X75447222Y-81782991D01*
X75363557Y-81626466D01*
X75312037Y-81456627D01*
X75294641Y-81280000D01*
X75312037Y-81103373D01*
X75363557Y-80933534D01*
X75447222Y-80777009D01*
X75476552Y-80741271D01*
X75559814Y-80639814D01*
X75661271Y-80556552D01*
X75697009Y-80527222D01*
X75853534Y-80443557D01*
X76023373Y-80392037D01*
X76089558Y-80385518D01*
X76155740Y-80379000D01*
X76244260Y-80379000D01*
X76310442Y-80385518D01*
X76310442Y-80385518D01*
G37*
G36*
X73770442Y-80385518D02*
G01*
X73836627Y-80392037D01*
X74006466Y-80443557D01*
X74162991Y-80527222D01*
X74198729Y-80556552D01*
X74300186Y-80639814D01*
X74383448Y-80741271D01*
X74412778Y-80777009D01*
X74496443Y-80933534D01*
X74547963Y-81103373D01*
X74565359Y-81280000D01*
X74547963Y-81456627D01*
X74496443Y-81626466D01*
X74412778Y-81782991D01*
X74383448Y-81818729D01*
X74300186Y-81920186D01*
X74198729Y-82003448D01*
X74162991Y-82032778D01*
X74006466Y-82116443D01*
X73836627Y-82167963D01*
X73770443Y-82174481D01*
X73704260Y-82181000D01*
X73615740Y-82181000D01*
X73549557Y-82174481D01*
X73483373Y-82167963D01*
X73313534Y-82116443D01*
X73157009Y-82032778D01*
X73121271Y-82003448D01*
X73019814Y-81920186D01*
X72936552Y-81818729D01*
X72907222Y-81782991D01*
X72823557Y-81626466D01*
X72772037Y-81456627D01*
X72754641Y-81280000D01*
X72772037Y-81103373D01*
X72823557Y-80933534D01*
X72907222Y-80777009D01*
X72936552Y-80741271D01*
X73019814Y-80639814D01*
X73121271Y-80556552D01*
X73157009Y-80527222D01*
X73313534Y-80443557D01*
X73483373Y-80392037D01*
X73549558Y-80385518D01*
X73615740Y-80379000D01*
X73704260Y-80379000D01*
X73770442Y-80385518D01*
X73770442Y-80385518D01*
G37*
G36*
X115606616Y-76410595D02*
G01*
X116047482Y-76593208D01*
X116047484Y-76593209D01*
X116211781Y-76702989D01*
X116444253Y-76858322D01*
X116781678Y-77195747D01*
X117046792Y-77592518D01*
X117229405Y-78033384D01*
X117322500Y-78501403D01*
X117322500Y-78978597D01*
X117229405Y-79446616D01*
X117154288Y-79627963D01*
X117046791Y-79887484D01*
X116781678Y-80284253D01*
X116444253Y-80621678D01*
X116047484Y-80886791D01*
X116047483Y-80886792D01*
X116047482Y-80886792D01*
X115606616Y-81069405D01*
X115138597Y-81162500D01*
X114661403Y-81162500D01*
X114193384Y-81069405D01*
X113752518Y-80886792D01*
X113752517Y-80886792D01*
X113752516Y-80886791D01*
X113355747Y-80621678D01*
X113018322Y-80284253D01*
X112753209Y-79887484D01*
X112645712Y-79627963D01*
X112570595Y-79446616D01*
X112477500Y-78978597D01*
X112477500Y-78501403D01*
X112570595Y-78033384D01*
X112753208Y-77592518D01*
X113018322Y-77195747D01*
X113355747Y-76858322D01*
X113588219Y-76702989D01*
X113752516Y-76593209D01*
X113752518Y-76593208D01*
X114193384Y-76410595D01*
X114661403Y-76317500D01*
X115138597Y-76317500D01*
X115606616Y-76410595D01*
X115606616Y-76410595D01*
G37*
G36*
X121906616Y-76410595D02*
G01*
X122347482Y-76593208D01*
X122347484Y-76593209D01*
X122511781Y-76702989D01*
X122744253Y-76858322D01*
X123081678Y-77195747D01*
X123346792Y-77592518D01*
X123529405Y-78033384D01*
X123622500Y-78501403D01*
X123622500Y-78978597D01*
X123529405Y-79446616D01*
X123454288Y-79627963D01*
X123346791Y-79887484D01*
X123081678Y-80284253D01*
X122744253Y-80621678D01*
X122347484Y-80886791D01*
X122347483Y-80886792D01*
X122347482Y-80886792D01*
X121906616Y-81069405D01*
X121438597Y-81162500D01*
X120961403Y-81162500D01*
X120493384Y-81069405D01*
X120052518Y-80886792D01*
X120052517Y-80886792D01*
X120052516Y-80886791D01*
X119655747Y-80621678D01*
X119318322Y-80284253D01*
X119053209Y-79887484D01*
X118945712Y-79627963D01*
X118870595Y-79446616D01*
X118777500Y-78978597D01*
X118777500Y-78501403D01*
X118870595Y-78033384D01*
X119053208Y-77592518D01*
X119318322Y-77195747D01*
X119655747Y-76858322D01*
X119888219Y-76702989D01*
X120052516Y-76593209D01*
X120052518Y-76593208D01*
X120493384Y-76410595D01*
X120961403Y-76317500D01*
X121438597Y-76317500D01*
X121906616Y-76410595D01*
X121906616Y-76410595D01*
G37*
G36*
X94090443Y-77845519D02*
G01*
X94156627Y-77852037D01*
X94326466Y-77903557D01*
X94482991Y-77987222D01*
X94518729Y-78016552D01*
X94620186Y-78099814D01*
X94703448Y-78201271D01*
X94732778Y-78237009D01*
X94816443Y-78393534D01*
X94867963Y-78563373D01*
X94885359Y-78740000D01*
X94867963Y-78916627D01*
X94816443Y-79086466D01*
X94732778Y-79242991D01*
X94703448Y-79278729D01*
X94620186Y-79380186D01*
X94539238Y-79446617D01*
X94482991Y-79492778D01*
X94326466Y-79576443D01*
X94156627Y-79627963D01*
X94090442Y-79634482D01*
X94024260Y-79641000D01*
X93935740Y-79641000D01*
X93869558Y-79634482D01*
X93803373Y-79627963D01*
X93633534Y-79576443D01*
X93477009Y-79492778D01*
X93420762Y-79446617D01*
X93339814Y-79380186D01*
X93256552Y-79278729D01*
X93227222Y-79242991D01*
X93143557Y-79086466D01*
X93092037Y-78916627D01*
X93074641Y-78740000D01*
X93092037Y-78563373D01*
X93143557Y-78393534D01*
X93227222Y-78237009D01*
X93256552Y-78201271D01*
X93339814Y-78099814D01*
X93441271Y-78016552D01*
X93477009Y-77987222D01*
X93633534Y-77903557D01*
X93803373Y-77852037D01*
X93869557Y-77845519D01*
X93935740Y-77839000D01*
X94024260Y-77839000D01*
X94090443Y-77845519D01*
X94090443Y-77845519D01*
G37*
G36*
X73770443Y-77845519D02*
G01*
X73836627Y-77852037D01*
X74006466Y-77903557D01*
X74162991Y-77987222D01*
X74198729Y-78016552D01*
X74300186Y-78099814D01*
X74383448Y-78201271D01*
X74412778Y-78237009D01*
X74496443Y-78393534D01*
X74547963Y-78563373D01*
X74565359Y-78740000D01*
X74547963Y-78916627D01*
X74496443Y-79086466D01*
X74412778Y-79242991D01*
X74383448Y-79278729D01*
X74300186Y-79380186D01*
X74219238Y-79446617D01*
X74162991Y-79492778D01*
X74006466Y-79576443D01*
X73836627Y-79627963D01*
X73770442Y-79634482D01*
X73704260Y-79641000D01*
X73615740Y-79641000D01*
X73549558Y-79634482D01*
X73483373Y-79627963D01*
X73313534Y-79576443D01*
X73157009Y-79492778D01*
X73100762Y-79446617D01*
X73019814Y-79380186D01*
X72936552Y-79278729D01*
X72907222Y-79242991D01*
X72823557Y-79086466D01*
X72772037Y-78916627D01*
X72754641Y-78740000D01*
X72772037Y-78563373D01*
X72823557Y-78393534D01*
X72907222Y-78237009D01*
X72936552Y-78201271D01*
X73019814Y-78099814D01*
X73121271Y-78016552D01*
X73157009Y-77987222D01*
X73313534Y-77903557D01*
X73483373Y-77852037D01*
X73549557Y-77845519D01*
X73615740Y-77839000D01*
X73704260Y-77839000D01*
X73770443Y-77845519D01*
X73770443Y-77845519D01*
G37*
G36*
X76310443Y-77845519D02*
G01*
X76376627Y-77852037D01*
X76546466Y-77903557D01*
X76702991Y-77987222D01*
X76738729Y-78016552D01*
X76840186Y-78099814D01*
X76923448Y-78201271D01*
X76952778Y-78237009D01*
X77036443Y-78393534D01*
X77087963Y-78563373D01*
X77105359Y-78740000D01*
X77087963Y-78916627D01*
X77036443Y-79086466D01*
X76952778Y-79242991D01*
X76923448Y-79278729D01*
X76840186Y-79380186D01*
X76759238Y-79446617D01*
X76702991Y-79492778D01*
X76546466Y-79576443D01*
X76376627Y-79627963D01*
X76310442Y-79634482D01*
X76244260Y-79641000D01*
X76155740Y-79641000D01*
X76089558Y-79634482D01*
X76023373Y-79627963D01*
X75853534Y-79576443D01*
X75697009Y-79492778D01*
X75640762Y-79446617D01*
X75559814Y-79380186D01*
X75476552Y-79278729D01*
X75447222Y-79242991D01*
X75363557Y-79086466D01*
X75312037Y-78916627D01*
X75294641Y-78740000D01*
X75312037Y-78563373D01*
X75363557Y-78393534D01*
X75447222Y-78237009D01*
X75476552Y-78201271D01*
X75559814Y-78099814D01*
X75661271Y-78016552D01*
X75697009Y-77987222D01*
X75853534Y-77903557D01*
X76023373Y-77852037D01*
X76089557Y-77845519D01*
X76155740Y-77839000D01*
X76244260Y-77839000D01*
X76310443Y-77845519D01*
X76310443Y-77845519D01*
G37*
G36*
X76310442Y-75305518D02*
G01*
X76376627Y-75312037D01*
X76546466Y-75363557D01*
X76702991Y-75447222D01*
X76738729Y-75476552D01*
X76840186Y-75559814D01*
X76923448Y-75661271D01*
X76952778Y-75697009D01*
X77036443Y-75853534D01*
X77087963Y-76023373D01*
X77105359Y-76200000D01*
X77087963Y-76376627D01*
X77036443Y-76546466D01*
X76952778Y-76702991D01*
X76923448Y-76738729D01*
X76840186Y-76840186D01*
X76738729Y-76923448D01*
X76702991Y-76952778D01*
X76546466Y-77036443D01*
X76376627Y-77087963D01*
X76310442Y-77094482D01*
X76244260Y-77101000D01*
X76155740Y-77101000D01*
X76089558Y-77094482D01*
X76023373Y-77087963D01*
X75853534Y-77036443D01*
X75697009Y-76952778D01*
X75661271Y-76923448D01*
X75559814Y-76840186D01*
X75476552Y-76738729D01*
X75447222Y-76702991D01*
X75363557Y-76546466D01*
X75312037Y-76376627D01*
X75294641Y-76200000D01*
X75312037Y-76023373D01*
X75363557Y-75853534D01*
X75447222Y-75697009D01*
X75476552Y-75661271D01*
X75559814Y-75559814D01*
X75661271Y-75476552D01*
X75697009Y-75447222D01*
X75853534Y-75363557D01*
X76023373Y-75312037D01*
X76089558Y-75305518D01*
X76155740Y-75299000D01*
X76244260Y-75299000D01*
X76310442Y-75305518D01*
X76310442Y-75305518D01*
G37*
G36*
X94881000Y-77101000D02*
G01*
X93079000Y-77101000D01*
X93079000Y-75299000D01*
X94881000Y-75299000D01*
X94881000Y-77101000D01*
X94881000Y-77101000D01*
G37*
G36*
X73770442Y-75305518D02*
G01*
X73836627Y-75312037D01*
X74006466Y-75363557D01*
X74162991Y-75447222D01*
X74198729Y-75476552D01*
X74300186Y-75559814D01*
X74383448Y-75661271D01*
X74412778Y-75697009D01*
X74496443Y-75853534D01*
X74547963Y-76023373D01*
X74565359Y-76200000D01*
X74547963Y-76376627D01*
X74496443Y-76546466D01*
X74412778Y-76702991D01*
X74383448Y-76738729D01*
X74300186Y-76840186D01*
X74198729Y-76923448D01*
X74162991Y-76952778D01*
X74006466Y-77036443D01*
X73836627Y-77087963D01*
X73770442Y-77094482D01*
X73704260Y-77101000D01*
X73615740Y-77101000D01*
X73549558Y-77094482D01*
X73483373Y-77087963D01*
X73313534Y-77036443D01*
X73157009Y-76952778D01*
X73121271Y-76923448D01*
X73019814Y-76840186D01*
X72936552Y-76738729D01*
X72907222Y-76702991D01*
X72823557Y-76546466D01*
X72772037Y-76376627D01*
X72754641Y-76200000D01*
X72772037Y-76023373D01*
X72823557Y-75853534D01*
X72907222Y-75697009D01*
X72936552Y-75661271D01*
X73019814Y-75559814D01*
X73121271Y-75476552D01*
X73157009Y-75447222D01*
X73313534Y-75363557D01*
X73483373Y-75312037D01*
X73549558Y-75305518D01*
X73615740Y-75299000D01*
X73704260Y-75299000D01*
X73770442Y-75305518D01*
X73770442Y-75305518D01*
G37*
G36*
X123391560Y-74079064D02*
G01*
X123543027Y-74109193D01*
X123757045Y-74197842D01*
X123757046Y-74197843D01*
X123949654Y-74326539D01*
X124113461Y-74490346D01*
X124151959Y-74547963D01*
X124242158Y-74682955D01*
X124330807Y-74896973D01*
X124376000Y-75124174D01*
X124376000Y-75355826D01*
X124330807Y-75583027D01*
X124242158Y-75797045D01*
X124242157Y-75797046D01*
X124113461Y-75989654D01*
X123949654Y-76153461D01*
X123880003Y-76200000D01*
X123757045Y-76282158D01*
X123543027Y-76370807D01*
X123391560Y-76400936D01*
X123315827Y-76416000D01*
X123084173Y-76416000D01*
X123008440Y-76400936D01*
X122856973Y-76370807D01*
X122642955Y-76282158D01*
X122519997Y-76200000D01*
X122450346Y-76153461D01*
X122286539Y-75989654D01*
X122157843Y-75797046D01*
X122157842Y-75797045D01*
X122069193Y-75583027D01*
X122024000Y-75355826D01*
X122024000Y-75124174D01*
X122069193Y-74896973D01*
X122157842Y-74682955D01*
X122248041Y-74547963D01*
X122286539Y-74490346D01*
X122450346Y-74326539D01*
X122642954Y-74197843D01*
X122642955Y-74197842D01*
X122856973Y-74109193D01*
X123008440Y-74079064D01*
X123084173Y-74064000D01*
X123315827Y-74064000D01*
X123391560Y-74079064D01*
X123391560Y-74079064D01*
G37*
G36*
X73770442Y-72765518D02*
G01*
X73836627Y-72772037D01*
X74006466Y-72823557D01*
X74162991Y-72907222D01*
X74198729Y-72936552D01*
X74300186Y-73019814D01*
X74383448Y-73121271D01*
X74412778Y-73157009D01*
X74496443Y-73313534D01*
X74547963Y-73483373D01*
X74565359Y-73660000D01*
X74547963Y-73836627D01*
X74496443Y-74006466D01*
X74412778Y-74162991D01*
X74383448Y-74198729D01*
X74300186Y-74300186D01*
X74198729Y-74383448D01*
X74162991Y-74412778D01*
X74006466Y-74496443D01*
X73836627Y-74547963D01*
X73770442Y-74554482D01*
X73704260Y-74561000D01*
X73615740Y-74561000D01*
X73549558Y-74554482D01*
X73483373Y-74547963D01*
X73313534Y-74496443D01*
X73157009Y-74412778D01*
X73121271Y-74383448D01*
X73019814Y-74300186D01*
X72936552Y-74198729D01*
X72907222Y-74162991D01*
X72823557Y-74006466D01*
X72772037Y-73836627D01*
X72754641Y-73660000D01*
X72772037Y-73483373D01*
X72823557Y-73313534D01*
X72907222Y-73157009D01*
X72936552Y-73121271D01*
X73019814Y-73019814D01*
X73121271Y-72936552D01*
X73157009Y-72907222D01*
X73313534Y-72823557D01*
X73483373Y-72772037D01*
X73549558Y-72765518D01*
X73615740Y-72759000D01*
X73704260Y-72759000D01*
X73770442Y-72765518D01*
X73770442Y-72765518D01*
G37*
G36*
X76310442Y-72765518D02*
G01*
X76376627Y-72772037D01*
X76546466Y-72823557D01*
X76702991Y-72907222D01*
X76738729Y-72936552D01*
X76840186Y-73019814D01*
X76923448Y-73121271D01*
X76952778Y-73157009D01*
X77036443Y-73313534D01*
X77087963Y-73483373D01*
X77105359Y-73660000D01*
X77087963Y-73836627D01*
X77036443Y-74006466D01*
X76952778Y-74162991D01*
X76923448Y-74198729D01*
X76840186Y-74300186D01*
X76738729Y-74383448D01*
X76702991Y-74412778D01*
X76546466Y-74496443D01*
X76376627Y-74547963D01*
X76310442Y-74554482D01*
X76244260Y-74561000D01*
X76155740Y-74561000D01*
X76089558Y-74554482D01*
X76023373Y-74547963D01*
X75853534Y-74496443D01*
X75697009Y-74412778D01*
X75661271Y-74383448D01*
X75559814Y-74300186D01*
X75476552Y-74198729D01*
X75447222Y-74162991D01*
X75363557Y-74006466D01*
X75312037Y-73836627D01*
X75294641Y-73660000D01*
X75312037Y-73483373D01*
X75363557Y-73313534D01*
X75447222Y-73157009D01*
X75476552Y-73121271D01*
X75559814Y-73019814D01*
X75661271Y-72936552D01*
X75697009Y-72907222D01*
X75853534Y-72823557D01*
X76023373Y-72772037D01*
X76089558Y-72765518D01*
X76155740Y-72759000D01*
X76244260Y-72759000D01*
X76310442Y-72765518D01*
X76310442Y-72765518D01*
G37*
G36*
X73770442Y-70225518D02*
G01*
X73836627Y-70232037D01*
X74006466Y-70283557D01*
X74162991Y-70367222D01*
X74198729Y-70396552D01*
X74300186Y-70479814D01*
X74373226Y-70568815D01*
X74412778Y-70617009D01*
X74496443Y-70773534D01*
X74547963Y-70943373D01*
X74565359Y-71120000D01*
X74547963Y-71296627D01*
X74496443Y-71466466D01*
X74412778Y-71622991D01*
X74383448Y-71658729D01*
X74300186Y-71760186D01*
X74198729Y-71843448D01*
X74162991Y-71872778D01*
X74006466Y-71956443D01*
X73836627Y-72007963D01*
X73770443Y-72014481D01*
X73704260Y-72021000D01*
X73615740Y-72021000D01*
X73549557Y-72014481D01*
X73483373Y-72007963D01*
X73313534Y-71956443D01*
X73157009Y-71872778D01*
X73121271Y-71843448D01*
X73019814Y-71760186D01*
X72936552Y-71658729D01*
X72907222Y-71622991D01*
X72823557Y-71466466D01*
X72772037Y-71296627D01*
X72754641Y-71120000D01*
X72772037Y-70943373D01*
X72823557Y-70773534D01*
X72907222Y-70617009D01*
X72946774Y-70568815D01*
X73019814Y-70479814D01*
X73121271Y-70396552D01*
X73157009Y-70367222D01*
X73313534Y-70283557D01*
X73483373Y-70232037D01*
X73549558Y-70225518D01*
X73615740Y-70219000D01*
X73704260Y-70219000D01*
X73770442Y-70225518D01*
X73770442Y-70225518D01*
G37*
G36*
X76310442Y-70225518D02*
G01*
X76376627Y-70232037D01*
X76546466Y-70283557D01*
X76702991Y-70367222D01*
X76738729Y-70396552D01*
X76840186Y-70479814D01*
X76913226Y-70568815D01*
X76952778Y-70617009D01*
X77036443Y-70773534D01*
X77087963Y-70943373D01*
X77105359Y-71120000D01*
X77087963Y-71296627D01*
X77036443Y-71466466D01*
X76952778Y-71622991D01*
X76923448Y-71658729D01*
X76840186Y-71760186D01*
X76738729Y-71843448D01*
X76702991Y-71872778D01*
X76546466Y-71956443D01*
X76376627Y-72007963D01*
X76310443Y-72014481D01*
X76244260Y-72021000D01*
X76155740Y-72021000D01*
X76089557Y-72014481D01*
X76023373Y-72007963D01*
X75853534Y-71956443D01*
X75697009Y-71872778D01*
X75661271Y-71843448D01*
X75559814Y-71760186D01*
X75476552Y-71658729D01*
X75447222Y-71622991D01*
X75363557Y-71466466D01*
X75312037Y-71296627D01*
X75294641Y-71120000D01*
X75312037Y-70943373D01*
X75363557Y-70773534D01*
X75447222Y-70617009D01*
X75486774Y-70568815D01*
X75559814Y-70479814D01*
X75661271Y-70396552D01*
X75697009Y-70367222D01*
X75853534Y-70283557D01*
X76023373Y-70232037D01*
X76089558Y-70225518D01*
X76155740Y-70219000D01*
X76244260Y-70219000D01*
X76310442Y-70225518D01*
X76310442Y-70225518D01*
G37*
G36*
X78850442Y-70225518D02*
G01*
X78916627Y-70232037D01*
X79086466Y-70283557D01*
X79242991Y-70367222D01*
X79278729Y-70396552D01*
X79380186Y-70479814D01*
X79453226Y-70568815D01*
X79492778Y-70617009D01*
X79576443Y-70773534D01*
X79627963Y-70943373D01*
X79645359Y-71120000D01*
X79627963Y-71296627D01*
X79576443Y-71466466D01*
X79492778Y-71622991D01*
X79463448Y-71658729D01*
X79380186Y-71760186D01*
X79278729Y-71843448D01*
X79242991Y-71872778D01*
X79086466Y-71956443D01*
X78916627Y-72007963D01*
X78850443Y-72014481D01*
X78784260Y-72021000D01*
X78695740Y-72021000D01*
X78629557Y-72014481D01*
X78563373Y-72007963D01*
X78393534Y-71956443D01*
X78237009Y-71872778D01*
X78201271Y-71843448D01*
X78099814Y-71760186D01*
X78016552Y-71658729D01*
X77987222Y-71622991D01*
X77903557Y-71466466D01*
X77852037Y-71296627D01*
X77834641Y-71120000D01*
X77852037Y-70943373D01*
X77903557Y-70773534D01*
X77987222Y-70617009D01*
X78026774Y-70568815D01*
X78099814Y-70479814D01*
X78201271Y-70396552D01*
X78237009Y-70367222D01*
X78393534Y-70283557D01*
X78563373Y-70232037D01*
X78629558Y-70225518D01*
X78695740Y-70219000D01*
X78784260Y-70219000D01*
X78850442Y-70225518D01*
X78850442Y-70225518D01*
G37*
G36*
X122168228Y-69666703D02*
G01*
X122323100Y-69730853D01*
X122462481Y-69823985D01*
X122581015Y-69942519D01*
X122674147Y-70081900D01*
X122738297Y-70236772D01*
X122771000Y-70401184D01*
X122771000Y-70568816D01*
X122738297Y-70733228D01*
X122674147Y-70888100D01*
X122581015Y-71027481D01*
X122462481Y-71146015D01*
X122323100Y-71239147D01*
X122168228Y-71303297D01*
X122003816Y-71336000D01*
X121836184Y-71336000D01*
X121671772Y-71303297D01*
X121516900Y-71239147D01*
X121377519Y-71146015D01*
X121258985Y-71027481D01*
X121165853Y-70888100D01*
X121101703Y-70733228D01*
X121069000Y-70568816D01*
X121069000Y-70401184D01*
X121101703Y-70236772D01*
X121165853Y-70081900D01*
X121258985Y-69942519D01*
X121377519Y-69823985D01*
X121516900Y-69730853D01*
X121671772Y-69666703D01*
X121836184Y-69634000D01*
X122003816Y-69634000D01*
X122168228Y-69666703D01*
X122168228Y-69666703D01*
G37*
G36*
X117088228Y-69666703D02*
G01*
X117243100Y-69730853D01*
X117382481Y-69823985D01*
X117501015Y-69942519D01*
X117594147Y-70081900D01*
X117658297Y-70236772D01*
X117691000Y-70401184D01*
X117691000Y-70568816D01*
X117658297Y-70733228D01*
X117594147Y-70888100D01*
X117501015Y-71027481D01*
X117382481Y-71146015D01*
X117243100Y-71239147D01*
X117088228Y-71303297D01*
X116923816Y-71336000D01*
X116756184Y-71336000D01*
X116591772Y-71303297D01*
X116436900Y-71239147D01*
X116297519Y-71146015D01*
X116178985Y-71027481D01*
X116085853Y-70888100D01*
X116021703Y-70733228D01*
X115989000Y-70568816D01*
X115989000Y-70401184D01*
X116021703Y-70236772D01*
X116085853Y-70081900D01*
X116178985Y-69942519D01*
X116297519Y-69823985D01*
X116436900Y-69730853D01*
X116591772Y-69666703D01*
X116756184Y-69634000D01*
X116923816Y-69634000D01*
X117088228Y-69666703D01*
X117088228Y-69666703D01*
G37*
G36*
X76310443Y-67685519D02*
G01*
X76376627Y-67692037D01*
X76546466Y-67743557D01*
X76702991Y-67827222D01*
X76738729Y-67856552D01*
X76840186Y-67939814D01*
X76923448Y-68041271D01*
X76952778Y-68077009D01*
X77036443Y-68233534D01*
X77087963Y-68403373D01*
X77105359Y-68580000D01*
X77087963Y-68756627D01*
X77036443Y-68926466D01*
X76952778Y-69082991D01*
X76923448Y-69118729D01*
X76840186Y-69220186D01*
X76738729Y-69303448D01*
X76702991Y-69332778D01*
X76546466Y-69416443D01*
X76376627Y-69467963D01*
X76310442Y-69474482D01*
X76244260Y-69481000D01*
X76155740Y-69481000D01*
X76089558Y-69474482D01*
X76023373Y-69467963D01*
X75853534Y-69416443D01*
X75697009Y-69332778D01*
X75661271Y-69303448D01*
X75559814Y-69220186D01*
X75476552Y-69118729D01*
X75447222Y-69082991D01*
X75363557Y-68926466D01*
X75312037Y-68756627D01*
X75294641Y-68580000D01*
X75312037Y-68403373D01*
X75363557Y-68233534D01*
X75447222Y-68077009D01*
X75476552Y-68041271D01*
X75559814Y-67939814D01*
X75661271Y-67856552D01*
X75697009Y-67827222D01*
X75853534Y-67743557D01*
X76023373Y-67692037D01*
X76089557Y-67685519D01*
X76155740Y-67679000D01*
X76244260Y-67679000D01*
X76310443Y-67685519D01*
X76310443Y-67685519D01*
G37*
G36*
X73770443Y-67685519D02*
G01*
X73836627Y-67692037D01*
X74006466Y-67743557D01*
X74162991Y-67827222D01*
X74198729Y-67856552D01*
X74300186Y-67939814D01*
X74383448Y-68041271D01*
X74412778Y-68077009D01*
X74496443Y-68233534D01*
X74547963Y-68403373D01*
X74565359Y-68580000D01*
X74547963Y-68756627D01*
X74496443Y-68926466D01*
X74412778Y-69082991D01*
X74383448Y-69118729D01*
X74300186Y-69220186D01*
X74198729Y-69303448D01*
X74162991Y-69332778D01*
X74006466Y-69416443D01*
X73836627Y-69467963D01*
X73770442Y-69474482D01*
X73704260Y-69481000D01*
X73615740Y-69481000D01*
X73549558Y-69474482D01*
X73483373Y-69467963D01*
X73313534Y-69416443D01*
X73157009Y-69332778D01*
X73121271Y-69303448D01*
X73019814Y-69220186D01*
X72936552Y-69118729D01*
X72907222Y-69082991D01*
X72823557Y-68926466D01*
X72772037Y-68756627D01*
X72754641Y-68580000D01*
X72772037Y-68403373D01*
X72823557Y-68233534D01*
X72907222Y-68077009D01*
X72936552Y-68041271D01*
X73019814Y-67939814D01*
X73121271Y-67856552D01*
X73157009Y-67827222D01*
X73313534Y-67743557D01*
X73483373Y-67692037D01*
X73549557Y-67685519D01*
X73615740Y-67679000D01*
X73704260Y-67679000D01*
X73770443Y-67685519D01*
X73770443Y-67685519D01*
G37*
G36*
X78850443Y-67685519D02*
G01*
X78916627Y-67692037D01*
X79086466Y-67743557D01*
X79242991Y-67827222D01*
X79278729Y-67856552D01*
X79380186Y-67939814D01*
X79463448Y-68041271D01*
X79492778Y-68077009D01*
X79576443Y-68233534D01*
X79627963Y-68403373D01*
X79645359Y-68580000D01*
X79627963Y-68756627D01*
X79576443Y-68926466D01*
X79492778Y-69082991D01*
X79463448Y-69118729D01*
X79380186Y-69220186D01*
X79278729Y-69303448D01*
X79242991Y-69332778D01*
X79086466Y-69416443D01*
X78916627Y-69467963D01*
X78850442Y-69474482D01*
X78784260Y-69481000D01*
X78695740Y-69481000D01*
X78629558Y-69474482D01*
X78563373Y-69467963D01*
X78393534Y-69416443D01*
X78237009Y-69332778D01*
X78201271Y-69303448D01*
X78099814Y-69220186D01*
X78016552Y-69118729D01*
X77987222Y-69082991D01*
X77903557Y-68926466D01*
X77852037Y-68756627D01*
X77834641Y-68580000D01*
X77852037Y-68403373D01*
X77903557Y-68233534D01*
X77987222Y-68077009D01*
X78016552Y-68041271D01*
X78099814Y-67939814D01*
X78201271Y-67856552D01*
X78237009Y-67827222D01*
X78393534Y-67743557D01*
X78563373Y-67692037D01*
X78629557Y-67685519D01*
X78695740Y-67679000D01*
X78784260Y-67679000D01*
X78850443Y-67685519D01*
X78850443Y-67685519D01*
G37*
G36*
X122086823Y-67106313D02*
G01*
X122247242Y-67154976D01*
X122379906Y-67225886D01*
X122395078Y-67233996D01*
X122524659Y-67340341D01*
X122631004Y-67469922D01*
X122631005Y-67469924D01*
X122710024Y-67617758D01*
X122758687Y-67778177D01*
X122775117Y-67945000D01*
X122758687Y-68111823D01*
X122710024Y-68272242D01*
X122639933Y-68403373D01*
X122631004Y-68420078D01*
X122524659Y-68549659D01*
X122395078Y-68656004D01*
X122395076Y-68656005D01*
X122247242Y-68735024D01*
X122086823Y-68783687D01*
X121961804Y-68796000D01*
X121878196Y-68796000D01*
X121753177Y-68783687D01*
X121592758Y-68735024D01*
X121444924Y-68656005D01*
X121444922Y-68656004D01*
X121315341Y-68549659D01*
X121208996Y-68420078D01*
X121200067Y-68403373D01*
X121129976Y-68272242D01*
X121081313Y-68111823D01*
X121064883Y-67945000D01*
X121081313Y-67778177D01*
X121129976Y-67617758D01*
X121208995Y-67469924D01*
X121208996Y-67469922D01*
X121315341Y-67340341D01*
X121444922Y-67233996D01*
X121460094Y-67225886D01*
X121592758Y-67154976D01*
X121753177Y-67106313D01*
X121878196Y-67094000D01*
X121961804Y-67094000D01*
X122086823Y-67106313D01*
X122086823Y-67106313D01*
G37*
G36*
X117006823Y-67106313D02*
G01*
X117167242Y-67154976D01*
X117299906Y-67225886D01*
X117315078Y-67233996D01*
X117444659Y-67340341D01*
X117551004Y-67469922D01*
X117551005Y-67469924D01*
X117630024Y-67617758D01*
X117678687Y-67778177D01*
X117695117Y-67945000D01*
X117678687Y-68111823D01*
X117630024Y-68272242D01*
X117559933Y-68403373D01*
X117551004Y-68420078D01*
X117444659Y-68549659D01*
X117315078Y-68656004D01*
X117315076Y-68656005D01*
X117167242Y-68735024D01*
X117006823Y-68783687D01*
X116881804Y-68796000D01*
X116798196Y-68796000D01*
X116673177Y-68783687D01*
X116512758Y-68735024D01*
X116364924Y-68656005D01*
X116364922Y-68656004D01*
X116235341Y-68549659D01*
X116128996Y-68420078D01*
X116120067Y-68403373D01*
X116049976Y-68272242D01*
X116001313Y-68111823D01*
X115984883Y-67945000D01*
X116001313Y-67778177D01*
X116049976Y-67617758D01*
X116128995Y-67469924D01*
X116128996Y-67469922D01*
X116235341Y-67340341D01*
X116364922Y-67233996D01*
X116380094Y-67225886D01*
X116512758Y-67154976D01*
X116673177Y-67106313D01*
X116798196Y-67094000D01*
X116881804Y-67094000D01*
X117006823Y-67106313D01*
X117006823Y-67106313D01*
G37*
G36*
X73770442Y-65145518D02*
G01*
X73836627Y-65152037D01*
X74006466Y-65203557D01*
X74162991Y-65287222D01*
X74193768Y-65312480D01*
X74300186Y-65399814D01*
X74383448Y-65501271D01*
X74412778Y-65537009D01*
X74496443Y-65693534D01*
X74547963Y-65863373D01*
X74565359Y-66040000D01*
X74547963Y-66216627D01*
X74496443Y-66386466D01*
X74412778Y-66542991D01*
X74383448Y-66578729D01*
X74300186Y-66680186D01*
X74198729Y-66763448D01*
X74162991Y-66792778D01*
X74006466Y-66876443D01*
X73836627Y-66927963D01*
X73770442Y-66934482D01*
X73704260Y-66941000D01*
X73615740Y-66941000D01*
X73549558Y-66934482D01*
X73483373Y-66927963D01*
X73313534Y-66876443D01*
X73157009Y-66792778D01*
X73121271Y-66763448D01*
X73019814Y-66680186D01*
X72936552Y-66578729D01*
X72907222Y-66542991D01*
X72823557Y-66386466D01*
X72772037Y-66216627D01*
X72754641Y-66040000D01*
X72772037Y-65863373D01*
X72823557Y-65693534D01*
X72907222Y-65537009D01*
X72936552Y-65501271D01*
X73019814Y-65399814D01*
X73126232Y-65312480D01*
X73157009Y-65287222D01*
X73313534Y-65203557D01*
X73483373Y-65152037D01*
X73549558Y-65145518D01*
X73615740Y-65139000D01*
X73704260Y-65139000D01*
X73770442Y-65145518D01*
X73770442Y-65145518D01*
G37*
G36*
X78850442Y-65145518D02*
G01*
X78916627Y-65152037D01*
X79086466Y-65203557D01*
X79242991Y-65287222D01*
X79273768Y-65312480D01*
X79380186Y-65399814D01*
X79463448Y-65501271D01*
X79492778Y-65537009D01*
X79576443Y-65693534D01*
X79627963Y-65863373D01*
X79645359Y-66040000D01*
X79627963Y-66216627D01*
X79576443Y-66386466D01*
X79492778Y-66542991D01*
X79463448Y-66578729D01*
X79380186Y-66680186D01*
X79278729Y-66763448D01*
X79242991Y-66792778D01*
X79086466Y-66876443D01*
X78916627Y-66927963D01*
X78850442Y-66934482D01*
X78784260Y-66941000D01*
X78695740Y-66941000D01*
X78629558Y-66934482D01*
X78563373Y-66927963D01*
X78393534Y-66876443D01*
X78237009Y-66792778D01*
X78201271Y-66763448D01*
X78099814Y-66680186D01*
X78016552Y-66578729D01*
X77987222Y-66542991D01*
X77903557Y-66386466D01*
X77852037Y-66216627D01*
X77834641Y-66040000D01*
X77852037Y-65863373D01*
X77903557Y-65693534D01*
X77987222Y-65537009D01*
X78016552Y-65501271D01*
X78099814Y-65399814D01*
X78206232Y-65312480D01*
X78237009Y-65287222D01*
X78393534Y-65203557D01*
X78563373Y-65152037D01*
X78629558Y-65145518D01*
X78695740Y-65139000D01*
X78784260Y-65139000D01*
X78850442Y-65145518D01*
X78850442Y-65145518D01*
G37*
G36*
X76310442Y-65145518D02*
G01*
X76376627Y-65152037D01*
X76546466Y-65203557D01*
X76702991Y-65287222D01*
X76733768Y-65312480D01*
X76840186Y-65399814D01*
X76923448Y-65501271D01*
X76952778Y-65537009D01*
X77036443Y-65693534D01*
X77087963Y-65863373D01*
X77105359Y-66040000D01*
X77087963Y-66216627D01*
X77036443Y-66386466D01*
X76952778Y-66542991D01*
X76923448Y-66578729D01*
X76840186Y-66680186D01*
X76738729Y-66763448D01*
X76702991Y-66792778D01*
X76546466Y-66876443D01*
X76376627Y-66927963D01*
X76310442Y-66934482D01*
X76244260Y-66941000D01*
X76155740Y-66941000D01*
X76089558Y-66934482D01*
X76023373Y-66927963D01*
X75853534Y-66876443D01*
X75697009Y-66792778D01*
X75661271Y-66763448D01*
X75559814Y-66680186D01*
X75476552Y-66578729D01*
X75447222Y-66542991D01*
X75363557Y-66386466D01*
X75312037Y-66216627D01*
X75294641Y-66040000D01*
X75312037Y-65863373D01*
X75363557Y-65693534D01*
X75447222Y-65537009D01*
X75476552Y-65501271D01*
X75559814Y-65399814D01*
X75666232Y-65312480D01*
X75697009Y-65287222D01*
X75853534Y-65203557D01*
X76023373Y-65152037D01*
X76089558Y-65145518D01*
X76155740Y-65139000D01*
X76244260Y-65139000D01*
X76310442Y-65145518D01*
X76310442Y-65145518D01*
G37*
G36*
X96736000Y-65621000D02*
G01*
X95034000Y-65621000D01*
X95034000Y-63919000D01*
X96736000Y-63919000D01*
X96736000Y-65621000D01*
X96736000Y-65621000D01*
G37*
G36*
X119668228Y-63951703D02*
G01*
X119823100Y-64015853D01*
X119962481Y-64108985D01*
X120081015Y-64227519D01*
X120174147Y-64366900D01*
X120238297Y-64521772D01*
X120271000Y-64686184D01*
X120271000Y-64853816D01*
X120238297Y-65018228D01*
X120174147Y-65173100D01*
X120081015Y-65312481D01*
X119962481Y-65431015D01*
X119823100Y-65524147D01*
X119668228Y-65588297D01*
X119503816Y-65621000D01*
X119336184Y-65621000D01*
X119171772Y-65588297D01*
X119016900Y-65524147D01*
X118877519Y-65431015D01*
X118758985Y-65312481D01*
X118665853Y-65173100D01*
X118601703Y-65018228D01*
X118569000Y-64853816D01*
X118569000Y-64686184D01*
X118601703Y-64521772D01*
X118665853Y-64366900D01*
X118758985Y-64227519D01*
X118877519Y-64108985D01*
X119016900Y-64015853D01*
X119171772Y-63951703D01*
X119336184Y-63919000D01*
X119503816Y-63919000D01*
X119668228Y-63951703D01*
X119668228Y-63951703D01*
G37*
G36*
X122168228Y-63951703D02*
G01*
X122323100Y-64015853D01*
X122462481Y-64108985D01*
X122581015Y-64227519D01*
X122674147Y-64366900D01*
X122738297Y-64521772D01*
X122771000Y-64686184D01*
X122771000Y-64853816D01*
X122738297Y-65018228D01*
X122674147Y-65173100D01*
X122581015Y-65312481D01*
X122462481Y-65431015D01*
X122323100Y-65524147D01*
X122168228Y-65588297D01*
X122003816Y-65621000D01*
X121836184Y-65621000D01*
X121671772Y-65588297D01*
X121516900Y-65524147D01*
X121377519Y-65431015D01*
X121258985Y-65312481D01*
X121165853Y-65173100D01*
X121101703Y-65018228D01*
X121069000Y-64853816D01*
X121069000Y-64686184D01*
X121101703Y-64521772D01*
X121165853Y-64366900D01*
X121258985Y-64227519D01*
X121377519Y-64108985D01*
X121516900Y-64015853D01*
X121671772Y-63951703D01*
X121836184Y-63919000D01*
X122003816Y-63919000D01*
X122168228Y-63951703D01*
X122168228Y-63951703D01*
G37*
G36*
X106253228Y-63951703D02*
G01*
X106408100Y-64015853D01*
X106547481Y-64108985D01*
X106666015Y-64227519D01*
X106759147Y-64366900D01*
X106823297Y-64521772D01*
X106856000Y-64686184D01*
X106856000Y-64853816D01*
X106823297Y-65018228D01*
X106759147Y-65173100D01*
X106666015Y-65312481D01*
X106547481Y-65431015D01*
X106408100Y-65524147D01*
X106253228Y-65588297D01*
X106088816Y-65621000D01*
X105921184Y-65621000D01*
X105756772Y-65588297D01*
X105601900Y-65524147D01*
X105462519Y-65431015D01*
X105343985Y-65312481D01*
X105250853Y-65173100D01*
X105186703Y-65018228D01*
X105154000Y-64853816D01*
X105154000Y-64686184D01*
X105186703Y-64521772D01*
X105250853Y-64366900D01*
X105343985Y-64227519D01*
X105462519Y-64108985D01*
X105601900Y-64015853D01*
X105756772Y-63951703D01*
X105921184Y-63919000D01*
X106088816Y-63919000D01*
X106253228Y-63951703D01*
X106253228Y-63951703D01*
G37*
G36*
X104356000Y-65621000D02*
G01*
X102654000Y-65621000D01*
X102654000Y-63919000D01*
X104356000Y-63919000D01*
X104356000Y-65621000D01*
X104356000Y-65621000D01*
G37*
G36*
X98633228Y-63951703D02*
G01*
X98788100Y-64015853D01*
X98927481Y-64108985D01*
X99046015Y-64227519D01*
X99139147Y-64366900D01*
X99203297Y-64521772D01*
X99236000Y-64686184D01*
X99236000Y-64853816D01*
X99203297Y-65018228D01*
X99139147Y-65173100D01*
X99046015Y-65312481D01*
X98927481Y-65431015D01*
X98788100Y-65524147D01*
X98633228Y-65588297D01*
X98468816Y-65621000D01*
X98301184Y-65621000D01*
X98136772Y-65588297D01*
X97981900Y-65524147D01*
X97842519Y-65431015D01*
X97723985Y-65312481D01*
X97630853Y-65173100D01*
X97566703Y-65018228D01*
X97534000Y-64853816D01*
X97534000Y-64686184D01*
X97566703Y-64521772D01*
X97630853Y-64366900D01*
X97723985Y-64227519D01*
X97842519Y-64108985D01*
X97981900Y-64015853D01*
X98136772Y-63951703D01*
X98301184Y-63919000D01*
X98468816Y-63919000D01*
X98633228Y-63951703D01*
X98633228Y-63951703D01*
G37*
G36*
X76310442Y-62605518D02*
G01*
X76376627Y-62612037D01*
X76546466Y-62663557D01*
X76702991Y-62747222D01*
X76738729Y-62776552D01*
X76840186Y-62859814D01*
X76923448Y-62961271D01*
X76952778Y-62997009D01*
X77036443Y-63153534D01*
X77087963Y-63323373D01*
X77105359Y-63500000D01*
X77087963Y-63676627D01*
X77036443Y-63846466D01*
X76952778Y-64002991D01*
X76942223Y-64015852D01*
X76840186Y-64140186D01*
X76738729Y-64223448D01*
X76702991Y-64252778D01*
X76546466Y-64336443D01*
X76376627Y-64387963D01*
X76310442Y-64394482D01*
X76244260Y-64401000D01*
X76155740Y-64401000D01*
X76089558Y-64394482D01*
X76023373Y-64387963D01*
X75853534Y-64336443D01*
X75697009Y-64252778D01*
X75661271Y-64223448D01*
X75559814Y-64140186D01*
X75457777Y-64015852D01*
X75447222Y-64002991D01*
X75363557Y-63846466D01*
X75312037Y-63676627D01*
X75294641Y-63500000D01*
X75312037Y-63323373D01*
X75363557Y-63153534D01*
X75447222Y-62997009D01*
X75476552Y-62961271D01*
X75559814Y-62859814D01*
X75661271Y-62776552D01*
X75697009Y-62747222D01*
X75853534Y-62663557D01*
X76023373Y-62612037D01*
X76089558Y-62605518D01*
X76155740Y-62599000D01*
X76244260Y-62599000D01*
X76310442Y-62605518D01*
X76310442Y-62605518D01*
G37*
G36*
X78850442Y-62605518D02*
G01*
X78916627Y-62612037D01*
X79086466Y-62663557D01*
X79242991Y-62747222D01*
X79278729Y-62776552D01*
X79380186Y-62859814D01*
X79463448Y-62961271D01*
X79492778Y-62997009D01*
X79576443Y-63153534D01*
X79627963Y-63323373D01*
X79645359Y-63500000D01*
X79627963Y-63676627D01*
X79576443Y-63846466D01*
X79492778Y-64002991D01*
X79482223Y-64015852D01*
X79380186Y-64140186D01*
X79278729Y-64223448D01*
X79242991Y-64252778D01*
X79086466Y-64336443D01*
X78916627Y-64387963D01*
X78850442Y-64394482D01*
X78784260Y-64401000D01*
X78695740Y-64401000D01*
X78629558Y-64394482D01*
X78563373Y-64387963D01*
X78393534Y-64336443D01*
X78237009Y-64252778D01*
X78201271Y-64223448D01*
X78099814Y-64140186D01*
X77997777Y-64015852D01*
X77987222Y-64002991D01*
X77903557Y-63846466D01*
X77852037Y-63676627D01*
X77834641Y-63500000D01*
X77852037Y-63323373D01*
X77903557Y-63153534D01*
X77987222Y-62997009D01*
X78016552Y-62961271D01*
X78099814Y-62859814D01*
X78201271Y-62776552D01*
X78237009Y-62747222D01*
X78393534Y-62663557D01*
X78563373Y-62612037D01*
X78629558Y-62605518D01*
X78695740Y-62599000D01*
X78784260Y-62599000D01*
X78850442Y-62605518D01*
X78850442Y-62605518D01*
G37*
G36*
X73770442Y-62605518D02*
G01*
X73836627Y-62612037D01*
X74006466Y-62663557D01*
X74162991Y-62747222D01*
X74198729Y-62776552D01*
X74300186Y-62859814D01*
X74383448Y-62961271D01*
X74412778Y-62997009D01*
X74496443Y-63153534D01*
X74547963Y-63323373D01*
X74565359Y-63500000D01*
X74547963Y-63676627D01*
X74496443Y-63846466D01*
X74412778Y-64002991D01*
X74402223Y-64015852D01*
X74300186Y-64140186D01*
X74198729Y-64223448D01*
X74162991Y-64252778D01*
X74006466Y-64336443D01*
X73836627Y-64387963D01*
X73770442Y-64394482D01*
X73704260Y-64401000D01*
X73615740Y-64401000D01*
X73549558Y-64394482D01*
X73483373Y-64387963D01*
X73313534Y-64336443D01*
X73157009Y-64252778D01*
X73121271Y-64223448D01*
X73019814Y-64140186D01*
X72917777Y-64015852D01*
X72907222Y-64002991D01*
X72823557Y-63846466D01*
X72772037Y-63676627D01*
X72754641Y-63500000D01*
X72772037Y-63323373D01*
X72823557Y-63153534D01*
X72907222Y-62997009D01*
X72936552Y-62961271D01*
X73019814Y-62859814D01*
X73121271Y-62776552D01*
X73157009Y-62747222D01*
X73313534Y-62663557D01*
X73483373Y-62612037D01*
X73549558Y-62605518D01*
X73615740Y-62599000D01*
X73704260Y-62599000D01*
X73770442Y-62605518D01*
X73770442Y-62605518D01*
G37*
G36*
X112005239Y-60362101D02*
G01*
X112241053Y-60433634D01*
X112458381Y-60549799D01*
X112648871Y-60706129D01*
X112805201Y-60896619D01*
X112921366Y-61113947D01*
X112992899Y-61349761D01*
X113017053Y-61595000D01*
X112992899Y-61840239D01*
X112921366Y-62076053D01*
X112805201Y-62293381D01*
X112648871Y-62483871D01*
X112458381Y-62640201D01*
X112241053Y-62756366D01*
X112005239Y-62827899D01*
X111821457Y-62846000D01*
X111698543Y-62846000D01*
X111514761Y-62827899D01*
X111278947Y-62756366D01*
X111061619Y-62640201D01*
X110871129Y-62483871D01*
X110714799Y-62293381D01*
X110598634Y-62076053D01*
X110527101Y-61840239D01*
X110502947Y-61595000D01*
X110527101Y-61349761D01*
X110598634Y-61113947D01*
X110714799Y-60896619D01*
X110871129Y-60706129D01*
X111061619Y-60549799D01*
X111278947Y-60433634D01*
X111514761Y-60362101D01*
X111698543Y-60344000D01*
X111821457Y-60344000D01*
X112005239Y-60362101D01*
X112005239Y-60362101D01*
G37*
G36*
X90415239Y-60362101D02*
G01*
X90651053Y-60433634D01*
X90868381Y-60549799D01*
X91058871Y-60706129D01*
X91215201Y-60896619D01*
X91331366Y-61113947D01*
X91402899Y-61349761D01*
X91427053Y-61595000D01*
X91402899Y-61840239D01*
X91331366Y-62076053D01*
X91215201Y-62293381D01*
X91058871Y-62483871D01*
X90868381Y-62640201D01*
X90651053Y-62756366D01*
X90415239Y-62827899D01*
X90231457Y-62846000D01*
X90108543Y-62846000D01*
X89924761Y-62827899D01*
X89688947Y-62756366D01*
X89471619Y-62640201D01*
X89281129Y-62483871D01*
X89124799Y-62293381D01*
X89008634Y-62076053D01*
X88937101Y-61840239D01*
X88912947Y-61595000D01*
X88937101Y-61349761D01*
X89008634Y-61113947D01*
X89124799Y-60896619D01*
X89281129Y-60706129D01*
X89471619Y-60549799D01*
X89688947Y-60433634D01*
X89924761Y-60362101D01*
X90108543Y-60344000D01*
X90231457Y-60344000D01*
X90415239Y-60362101D01*
X90415239Y-60362101D01*
G37*
G36*
X78850442Y-60065518D02*
G01*
X78916627Y-60072037D01*
X79086466Y-60123557D01*
X79242991Y-60207222D01*
X79278729Y-60236552D01*
X79380186Y-60319814D01*
X79463448Y-60421271D01*
X79492778Y-60457009D01*
X79576443Y-60613534D01*
X79627963Y-60783373D01*
X79645359Y-60960000D01*
X79627963Y-61136627D01*
X79576443Y-61306466D01*
X79492778Y-61462991D01*
X79463448Y-61498729D01*
X79380186Y-61600186D01*
X79278729Y-61683448D01*
X79242991Y-61712778D01*
X79086466Y-61796443D01*
X78916627Y-61847963D01*
X78850443Y-61854481D01*
X78784260Y-61861000D01*
X78695740Y-61861000D01*
X78629557Y-61854481D01*
X78563373Y-61847963D01*
X78393534Y-61796443D01*
X78237009Y-61712778D01*
X78201271Y-61683448D01*
X78099814Y-61600186D01*
X78016552Y-61498729D01*
X77987222Y-61462991D01*
X77903557Y-61306466D01*
X77852037Y-61136627D01*
X77834641Y-60960000D01*
X77852037Y-60783373D01*
X77903557Y-60613534D01*
X77987222Y-60457009D01*
X78016552Y-60421271D01*
X78099814Y-60319814D01*
X78201271Y-60236552D01*
X78237009Y-60207222D01*
X78393534Y-60123557D01*
X78563373Y-60072037D01*
X78629558Y-60065518D01*
X78695740Y-60059000D01*
X78784260Y-60059000D01*
X78850442Y-60065518D01*
X78850442Y-60065518D01*
G37*
G36*
X76310442Y-60065518D02*
G01*
X76376627Y-60072037D01*
X76546466Y-60123557D01*
X76702991Y-60207222D01*
X76738729Y-60236552D01*
X76840186Y-60319814D01*
X76923448Y-60421271D01*
X76952778Y-60457009D01*
X77036443Y-60613534D01*
X77087963Y-60783373D01*
X77105359Y-60960000D01*
X77087963Y-61136627D01*
X77036443Y-61306466D01*
X76952778Y-61462991D01*
X76923448Y-61498729D01*
X76840186Y-61600186D01*
X76738729Y-61683448D01*
X76702991Y-61712778D01*
X76546466Y-61796443D01*
X76376627Y-61847963D01*
X76310443Y-61854481D01*
X76244260Y-61861000D01*
X76155740Y-61861000D01*
X76089557Y-61854481D01*
X76023373Y-61847963D01*
X75853534Y-61796443D01*
X75697009Y-61712778D01*
X75661271Y-61683448D01*
X75559814Y-61600186D01*
X75476552Y-61498729D01*
X75447222Y-61462991D01*
X75363557Y-61306466D01*
X75312037Y-61136627D01*
X75294641Y-60960000D01*
X75312037Y-60783373D01*
X75363557Y-60613534D01*
X75447222Y-60457009D01*
X75476552Y-60421271D01*
X75559814Y-60319814D01*
X75661271Y-60236552D01*
X75697009Y-60207222D01*
X75853534Y-60123557D01*
X76023373Y-60072037D01*
X76089558Y-60065518D01*
X76155740Y-60059000D01*
X76244260Y-60059000D01*
X76310442Y-60065518D01*
X76310442Y-60065518D01*
G37*
G36*
X73770442Y-60065518D02*
G01*
X73836627Y-60072037D01*
X74006466Y-60123557D01*
X74162991Y-60207222D01*
X74198729Y-60236552D01*
X74300186Y-60319814D01*
X74383448Y-60421271D01*
X74412778Y-60457009D01*
X74496443Y-60613534D01*
X74547963Y-60783373D01*
X74565359Y-60960000D01*
X74547963Y-61136627D01*
X74496443Y-61306466D01*
X74412778Y-61462991D01*
X74383448Y-61498729D01*
X74300186Y-61600186D01*
X74198729Y-61683448D01*
X74162991Y-61712778D01*
X74006466Y-61796443D01*
X73836627Y-61847963D01*
X73770443Y-61854481D01*
X73704260Y-61861000D01*
X73615740Y-61861000D01*
X73549557Y-61854481D01*
X73483373Y-61847963D01*
X73313534Y-61796443D01*
X73157009Y-61712778D01*
X73121271Y-61683448D01*
X73019814Y-61600186D01*
X72936552Y-61498729D01*
X72907222Y-61462991D01*
X72823557Y-61306466D01*
X72772037Y-61136627D01*
X72754641Y-60960000D01*
X72772037Y-60783373D01*
X72823557Y-60613534D01*
X72907222Y-60457009D01*
X72936552Y-60421271D01*
X73019814Y-60319814D01*
X73121271Y-60236552D01*
X73157009Y-60207222D01*
X73313534Y-60123557D01*
X73483373Y-60072037D01*
X73549558Y-60065518D01*
X73615740Y-60059000D01*
X73704260Y-60059000D01*
X73770442Y-60065518D01*
X73770442Y-60065518D01*
G37*
G36*
X122284903Y-58487075D02*
G01*
X122385236Y-58528634D01*
X122512571Y-58581378D01*
X122717466Y-58718285D01*
X122891715Y-58892534D01*
X123028622Y-59097429D01*
X123122925Y-59325097D01*
X123171000Y-59566787D01*
X123171000Y-59813213D01*
X123122925Y-60054903D01*
X123028622Y-60282571D01*
X122891715Y-60487466D01*
X122717466Y-60661715D01*
X122512571Y-60798622D01*
X122512570Y-60798623D01*
X122512569Y-60798623D01*
X122284903Y-60892925D01*
X122043214Y-60941000D01*
X121796786Y-60941000D01*
X121555097Y-60892925D01*
X121327431Y-60798623D01*
X121327430Y-60798623D01*
X121327429Y-60798622D01*
X121122534Y-60661715D01*
X120948285Y-60487466D01*
X120811378Y-60282571D01*
X120717075Y-60054903D01*
X120669000Y-59813213D01*
X120669000Y-59566787D01*
X120717075Y-59325097D01*
X120811378Y-59097429D01*
X120948285Y-58892534D01*
X121122534Y-58718285D01*
X121327429Y-58581378D01*
X121454765Y-58528634D01*
X121555097Y-58487075D01*
X121796786Y-58439000D01*
X122043214Y-58439000D01*
X122284903Y-58487075D01*
X122284903Y-58487075D01*
G37*
G36*
X117085239Y-58457101D02*
G01*
X117321053Y-58528634D01*
X117538381Y-58644799D01*
X117728871Y-58801129D01*
X117885201Y-58991619D01*
X118001366Y-59208947D01*
X118072899Y-59444761D01*
X118097053Y-59690000D01*
X118072899Y-59935239D01*
X118001366Y-60171053D01*
X117885201Y-60388381D01*
X117728871Y-60578871D01*
X117538381Y-60735201D01*
X117321053Y-60851366D01*
X117085239Y-60922899D01*
X116901457Y-60941000D01*
X116778543Y-60941000D01*
X116594761Y-60922899D01*
X116358947Y-60851366D01*
X116141619Y-60735201D01*
X115951129Y-60578871D01*
X115794799Y-60388381D01*
X115678634Y-60171053D01*
X115607101Y-59935239D01*
X115582947Y-59690000D01*
X115607101Y-59444761D01*
X115678634Y-59208947D01*
X115794799Y-58991619D01*
X115951129Y-58801129D01*
X116141619Y-58644799D01*
X116358947Y-58528634D01*
X116594761Y-58457101D01*
X116778543Y-58439000D01*
X116901457Y-58439000D01*
X117085239Y-58457101D01*
X117085239Y-58457101D01*
G37*
G36*
X78850443Y-57525519D02*
G01*
X78916627Y-57532037D01*
X79086466Y-57583557D01*
X79242991Y-57667222D01*
X79278729Y-57696552D01*
X79380186Y-57779814D01*
X79463448Y-57881271D01*
X79492778Y-57917009D01*
X79576443Y-58073534D01*
X79627963Y-58243373D01*
X79645359Y-58420000D01*
X79627963Y-58596627D01*
X79576443Y-58766466D01*
X79492778Y-58922991D01*
X79463448Y-58958729D01*
X79380186Y-59060186D01*
X79278729Y-59143448D01*
X79242991Y-59172778D01*
X79086466Y-59256443D01*
X78916627Y-59307963D01*
X78850442Y-59314482D01*
X78784260Y-59321000D01*
X78695740Y-59321000D01*
X78629558Y-59314482D01*
X78563373Y-59307963D01*
X78393534Y-59256443D01*
X78237009Y-59172778D01*
X78201271Y-59143448D01*
X78099814Y-59060186D01*
X78016552Y-58958729D01*
X77987222Y-58922991D01*
X77903557Y-58766466D01*
X77852037Y-58596627D01*
X77834641Y-58420000D01*
X77852037Y-58243373D01*
X77903557Y-58073534D01*
X77987222Y-57917009D01*
X78016552Y-57881271D01*
X78099814Y-57779814D01*
X78201271Y-57696552D01*
X78237009Y-57667222D01*
X78393534Y-57583557D01*
X78563373Y-57532037D01*
X78629557Y-57525519D01*
X78695740Y-57519000D01*
X78784260Y-57519000D01*
X78850443Y-57525519D01*
X78850443Y-57525519D01*
G37*
G36*
X76310443Y-57525519D02*
G01*
X76376627Y-57532037D01*
X76546466Y-57583557D01*
X76702991Y-57667222D01*
X76738729Y-57696552D01*
X76840186Y-57779814D01*
X76923448Y-57881271D01*
X76952778Y-57917009D01*
X77036443Y-58073534D01*
X77087963Y-58243373D01*
X77105359Y-58420000D01*
X77087963Y-58596627D01*
X77036443Y-58766466D01*
X76952778Y-58922991D01*
X76923448Y-58958729D01*
X76840186Y-59060186D01*
X76738729Y-59143448D01*
X76702991Y-59172778D01*
X76546466Y-59256443D01*
X76376627Y-59307963D01*
X76310442Y-59314482D01*
X76244260Y-59321000D01*
X76155740Y-59321000D01*
X76089558Y-59314482D01*
X76023373Y-59307963D01*
X75853534Y-59256443D01*
X75697009Y-59172778D01*
X75661271Y-59143448D01*
X75559814Y-59060186D01*
X75476552Y-58958729D01*
X75447222Y-58922991D01*
X75363557Y-58766466D01*
X75312037Y-58596627D01*
X75294641Y-58420000D01*
X75312037Y-58243373D01*
X75363557Y-58073534D01*
X75447222Y-57917009D01*
X75476552Y-57881271D01*
X75559814Y-57779814D01*
X75661271Y-57696552D01*
X75697009Y-57667222D01*
X75853534Y-57583557D01*
X76023373Y-57532037D01*
X76089557Y-57525519D01*
X76155740Y-57519000D01*
X76244260Y-57519000D01*
X76310443Y-57525519D01*
X76310443Y-57525519D01*
G37*
G36*
X73770443Y-57525519D02*
G01*
X73836627Y-57532037D01*
X74006466Y-57583557D01*
X74162991Y-57667222D01*
X74198729Y-57696552D01*
X74300186Y-57779814D01*
X74383448Y-57881271D01*
X74412778Y-57917009D01*
X74496443Y-58073534D01*
X74547963Y-58243373D01*
X74565359Y-58420000D01*
X74547963Y-58596627D01*
X74496443Y-58766466D01*
X74412778Y-58922991D01*
X74383448Y-58958729D01*
X74300186Y-59060186D01*
X74198729Y-59143448D01*
X74162991Y-59172778D01*
X74006466Y-59256443D01*
X73836627Y-59307963D01*
X73770442Y-59314482D01*
X73704260Y-59321000D01*
X73615740Y-59321000D01*
X73549558Y-59314482D01*
X73483373Y-59307963D01*
X73313534Y-59256443D01*
X73157009Y-59172778D01*
X73121271Y-59143448D01*
X73019814Y-59060186D01*
X72936552Y-58958729D01*
X72907222Y-58922991D01*
X72823557Y-58766466D01*
X72772037Y-58596627D01*
X72754641Y-58420000D01*
X72772037Y-58243373D01*
X72823557Y-58073534D01*
X72907222Y-57917009D01*
X72936552Y-57881271D01*
X73019814Y-57779814D01*
X73121271Y-57696552D01*
X73157009Y-57667222D01*
X73313534Y-57583557D01*
X73483373Y-57532037D01*
X73549557Y-57525519D01*
X73615740Y-57519000D01*
X73704260Y-57519000D01*
X73770443Y-57525519D01*
X73770443Y-57525519D01*
G37*
G36*
X112124903Y-55312075D02*
G01*
X112352571Y-55406378D01*
X112557466Y-55543285D01*
X112731715Y-55717534D01*
X112868622Y-55922429D01*
X112868623Y-55922431D01*
X112962925Y-56150097D01*
X113009251Y-56382991D01*
X113011000Y-56391787D01*
X113011000Y-56638213D01*
X112962925Y-56879903D01*
X112868622Y-57107571D01*
X112731715Y-57312466D01*
X112557466Y-57486715D01*
X112352571Y-57623622D01*
X112352570Y-57623623D01*
X112352569Y-57623623D01*
X112124903Y-57717925D01*
X111883214Y-57766000D01*
X111636786Y-57766000D01*
X111395097Y-57717925D01*
X111167431Y-57623623D01*
X111167430Y-57623623D01*
X111167429Y-57623622D01*
X110962534Y-57486715D01*
X110788285Y-57312466D01*
X110651378Y-57107571D01*
X110557075Y-56879903D01*
X110509000Y-56638213D01*
X110509000Y-56391787D01*
X110510750Y-56382991D01*
X110557075Y-56150097D01*
X110651377Y-55922431D01*
X110651378Y-55922429D01*
X110788285Y-55717534D01*
X110962534Y-55543285D01*
X111167429Y-55406378D01*
X111395097Y-55312075D01*
X111636786Y-55264000D01*
X111883214Y-55264000D01*
X112124903Y-55312075D01*
X112124903Y-55312075D01*
G37*
G36*
X90534903Y-55312075D02*
G01*
X90762571Y-55406378D01*
X90967466Y-55543285D01*
X91141715Y-55717534D01*
X91278622Y-55922429D01*
X91278623Y-55922431D01*
X91372925Y-56150097D01*
X91419251Y-56382991D01*
X91421000Y-56391787D01*
X91421000Y-56638213D01*
X91372925Y-56879903D01*
X91278622Y-57107571D01*
X91141715Y-57312466D01*
X90967466Y-57486715D01*
X90762571Y-57623622D01*
X90762570Y-57623623D01*
X90762569Y-57623623D01*
X90534903Y-57717925D01*
X90293214Y-57766000D01*
X90046786Y-57766000D01*
X89805097Y-57717925D01*
X89577431Y-57623623D01*
X89577430Y-57623623D01*
X89577429Y-57623622D01*
X89372534Y-57486715D01*
X89198285Y-57312466D01*
X89061378Y-57107571D01*
X88967075Y-56879903D01*
X88919000Y-56638213D01*
X88919000Y-56391787D01*
X88920750Y-56382991D01*
X88967075Y-56150097D01*
X89061377Y-55922431D01*
X89061378Y-55922429D01*
X89198285Y-55717534D01*
X89372534Y-55543285D01*
X89577429Y-55406378D01*
X89805097Y-55312075D01*
X90046786Y-55264000D01*
X90293214Y-55264000D01*
X90534903Y-55312075D01*
X90534903Y-55312075D01*
G37*
G36*
X98633228Y-55696703D02*
G01*
X98788100Y-55760853D01*
X98927481Y-55853985D01*
X99046015Y-55972519D01*
X99139147Y-56111900D01*
X99203297Y-56266772D01*
X99236000Y-56431184D01*
X99236000Y-56598816D01*
X99203297Y-56763228D01*
X99139147Y-56918100D01*
X99046015Y-57057481D01*
X98927481Y-57176015D01*
X98788100Y-57269147D01*
X98633228Y-57333297D01*
X98468816Y-57366000D01*
X98301184Y-57366000D01*
X98136772Y-57333297D01*
X97981900Y-57269147D01*
X97842519Y-57176015D01*
X97723985Y-57057481D01*
X97630853Y-56918100D01*
X97566703Y-56763228D01*
X97534000Y-56598816D01*
X97534000Y-56431184D01*
X97566703Y-56266772D01*
X97630853Y-56111900D01*
X97723985Y-55972519D01*
X97842519Y-55853985D01*
X97981900Y-55760853D01*
X98136772Y-55696703D01*
X98301184Y-55664000D01*
X98468816Y-55664000D01*
X98633228Y-55696703D01*
X98633228Y-55696703D01*
G37*
G36*
X96736000Y-57366000D02*
G01*
X95034000Y-57366000D01*
X95034000Y-55664000D01*
X96736000Y-55664000D01*
X96736000Y-57366000D01*
X96736000Y-57366000D01*
G37*
G36*
X106253228Y-55696703D02*
G01*
X106408100Y-55760853D01*
X106547481Y-55853985D01*
X106666015Y-55972519D01*
X106759147Y-56111900D01*
X106823297Y-56266772D01*
X106856000Y-56431184D01*
X106856000Y-56598816D01*
X106823297Y-56763228D01*
X106759147Y-56918100D01*
X106666015Y-57057481D01*
X106547481Y-57176015D01*
X106408100Y-57269147D01*
X106253228Y-57333297D01*
X106088816Y-57366000D01*
X105921184Y-57366000D01*
X105756772Y-57333297D01*
X105601900Y-57269147D01*
X105462519Y-57176015D01*
X105343985Y-57057481D01*
X105250853Y-56918100D01*
X105186703Y-56763228D01*
X105154000Y-56598816D01*
X105154000Y-56431184D01*
X105186703Y-56266772D01*
X105250853Y-56111900D01*
X105343985Y-55972519D01*
X105462519Y-55853985D01*
X105601900Y-55760853D01*
X105756772Y-55696703D01*
X105921184Y-55664000D01*
X106088816Y-55664000D01*
X106253228Y-55696703D01*
X106253228Y-55696703D01*
G37*
G36*
X104356000Y-57366000D02*
G01*
X102654000Y-57366000D01*
X102654000Y-55664000D01*
X104356000Y-55664000D01*
X104356000Y-57366000D01*
X104356000Y-57366000D01*
G37*
G36*
X81390443Y-54985519D02*
G01*
X81456627Y-54992037D01*
X81626466Y-55043557D01*
X81782991Y-55127222D01*
X81818729Y-55156552D01*
X81920186Y-55239814D01*
X81979488Y-55312075D01*
X82032778Y-55377009D01*
X82116443Y-55533534D01*
X82167963Y-55703373D01*
X82185359Y-55880000D01*
X82167963Y-56056627D01*
X82116443Y-56226466D01*
X82032778Y-56382991D01*
X82025560Y-56391786D01*
X81920186Y-56520186D01*
X81824375Y-56598815D01*
X81782991Y-56632778D01*
X81626466Y-56716443D01*
X81456627Y-56767963D01*
X81390443Y-56774481D01*
X81324260Y-56781000D01*
X81235740Y-56781000D01*
X81169557Y-56774481D01*
X81103373Y-56767963D01*
X80933534Y-56716443D01*
X80777009Y-56632778D01*
X80735625Y-56598815D01*
X80639814Y-56520186D01*
X80534440Y-56391786D01*
X80527222Y-56382991D01*
X80443557Y-56226466D01*
X80392037Y-56056627D01*
X80374641Y-55880000D01*
X80392037Y-55703373D01*
X80443557Y-55533534D01*
X80527222Y-55377009D01*
X80580512Y-55312075D01*
X80639814Y-55239814D01*
X80741271Y-55156552D01*
X80777009Y-55127222D01*
X80933534Y-55043557D01*
X81103373Y-54992037D01*
X81169557Y-54985519D01*
X81235740Y-54979000D01*
X81324260Y-54979000D01*
X81390443Y-54985519D01*
X81390443Y-54985519D01*
G37*
G36*
X78850443Y-54985519D02*
G01*
X78916627Y-54992037D01*
X79086466Y-55043557D01*
X79242991Y-55127222D01*
X79278729Y-55156552D01*
X79380186Y-55239814D01*
X79439488Y-55312075D01*
X79492778Y-55377009D01*
X79576443Y-55533534D01*
X79627963Y-55703373D01*
X79645359Y-55880000D01*
X79627963Y-56056627D01*
X79576443Y-56226466D01*
X79492778Y-56382991D01*
X79485560Y-56391786D01*
X79380186Y-56520186D01*
X79284375Y-56598815D01*
X79242991Y-56632778D01*
X79086466Y-56716443D01*
X78916627Y-56767963D01*
X78850443Y-56774481D01*
X78784260Y-56781000D01*
X78695740Y-56781000D01*
X78629557Y-56774481D01*
X78563373Y-56767963D01*
X78393534Y-56716443D01*
X78237009Y-56632778D01*
X78195625Y-56598815D01*
X78099814Y-56520186D01*
X77994440Y-56391786D01*
X77987222Y-56382991D01*
X77903557Y-56226466D01*
X77852037Y-56056627D01*
X77834641Y-55880000D01*
X77852037Y-55703373D01*
X77903557Y-55533534D01*
X77987222Y-55377009D01*
X78040512Y-55312075D01*
X78099814Y-55239814D01*
X78201271Y-55156552D01*
X78237009Y-55127222D01*
X78393534Y-55043557D01*
X78563373Y-54992037D01*
X78629557Y-54985519D01*
X78695740Y-54979000D01*
X78784260Y-54979000D01*
X78850443Y-54985519D01*
X78850443Y-54985519D01*
G37*
G36*
X73770443Y-54985519D02*
G01*
X73836627Y-54992037D01*
X74006466Y-55043557D01*
X74162991Y-55127222D01*
X74198729Y-55156552D01*
X74300186Y-55239814D01*
X74359488Y-55312075D01*
X74412778Y-55377009D01*
X74496443Y-55533534D01*
X74547963Y-55703373D01*
X74565359Y-55880000D01*
X74547963Y-56056627D01*
X74496443Y-56226466D01*
X74412778Y-56382991D01*
X74405560Y-56391786D01*
X74300186Y-56520186D01*
X74204375Y-56598815D01*
X74162991Y-56632778D01*
X74006466Y-56716443D01*
X73836627Y-56767963D01*
X73770443Y-56774481D01*
X73704260Y-56781000D01*
X73615740Y-56781000D01*
X73549557Y-56774481D01*
X73483373Y-56767963D01*
X73313534Y-56716443D01*
X73157009Y-56632778D01*
X73115625Y-56598815D01*
X73019814Y-56520186D01*
X72914440Y-56391786D01*
X72907222Y-56382991D01*
X72823557Y-56226466D01*
X72772037Y-56056627D01*
X72754641Y-55880000D01*
X72772037Y-55703373D01*
X72823557Y-55533534D01*
X72907222Y-55377009D01*
X72960512Y-55312075D01*
X73019814Y-55239814D01*
X73121271Y-55156552D01*
X73157009Y-55127222D01*
X73313534Y-55043557D01*
X73483373Y-54992037D01*
X73549557Y-54985519D01*
X73615740Y-54979000D01*
X73704260Y-54979000D01*
X73770443Y-54985519D01*
X73770443Y-54985519D01*
G37*
G36*
X76310443Y-54985519D02*
G01*
X76376627Y-54992037D01*
X76546466Y-55043557D01*
X76702991Y-55127222D01*
X76738729Y-55156552D01*
X76840186Y-55239814D01*
X76899488Y-55312075D01*
X76952778Y-55377009D01*
X77036443Y-55533534D01*
X77087963Y-55703373D01*
X77105359Y-55880000D01*
X77087963Y-56056627D01*
X77036443Y-56226466D01*
X76952778Y-56382991D01*
X76945560Y-56391786D01*
X76840186Y-56520186D01*
X76744375Y-56598815D01*
X76702991Y-56632778D01*
X76546466Y-56716443D01*
X76376627Y-56767963D01*
X76310443Y-56774481D01*
X76244260Y-56781000D01*
X76155740Y-56781000D01*
X76089557Y-56774481D01*
X76023373Y-56767963D01*
X75853534Y-56716443D01*
X75697009Y-56632778D01*
X75655625Y-56598815D01*
X75559814Y-56520186D01*
X75454440Y-56391786D01*
X75447222Y-56382991D01*
X75363557Y-56226466D01*
X75312037Y-56056627D01*
X75294641Y-55880000D01*
X75312037Y-55703373D01*
X75363557Y-55533534D01*
X75447222Y-55377009D01*
X75500512Y-55312075D01*
X75559814Y-55239814D01*
X75661271Y-55156552D01*
X75697009Y-55127222D01*
X75853534Y-55043557D01*
X76023373Y-54992037D01*
X76089557Y-54985519D01*
X76155740Y-54979000D01*
X76244260Y-54979000D01*
X76310443Y-54985519D01*
X76310443Y-54985519D01*
G37*
G36*
X78850443Y-52445519D02*
G01*
X78916627Y-52452037D01*
X79086466Y-52503557D01*
X79242991Y-52587222D01*
X79278729Y-52616552D01*
X79380186Y-52699814D01*
X79463448Y-52801271D01*
X79492778Y-52837009D01*
X79576443Y-52993534D01*
X79627963Y-53163373D01*
X79645359Y-53340000D01*
X79627963Y-53516627D01*
X79576443Y-53686466D01*
X79492778Y-53842991D01*
X79463448Y-53878729D01*
X79380186Y-53980186D01*
X79278729Y-54063448D01*
X79242991Y-54092778D01*
X79086466Y-54176443D01*
X78916627Y-54227963D01*
X78850442Y-54234482D01*
X78784260Y-54241000D01*
X78695740Y-54241000D01*
X78629558Y-54234482D01*
X78563373Y-54227963D01*
X78393534Y-54176443D01*
X78237009Y-54092778D01*
X78201271Y-54063448D01*
X78099814Y-53980186D01*
X78016552Y-53878729D01*
X77987222Y-53842991D01*
X77903557Y-53686466D01*
X77852037Y-53516627D01*
X77834641Y-53340000D01*
X77852037Y-53163373D01*
X77903557Y-52993534D01*
X77987222Y-52837009D01*
X78016552Y-52801271D01*
X78099814Y-52699814D01*
X78201271Y-52616552D01*
X78237009Y-52587222D01*
X78393534Y-52503557D01*
X78563373Y-52452037D01*
X78629558Y-52445518D01*
X78695740Y-52439000D01*
X78784260Y-52439000D01*
X78850443Y-52445519D01*
X78850443Y-52445519D01*
G37*
G36*
X73770443Y-52445519D02*
G01*
X73836627Y-52452037D01*
X74006466Y-52503557D01*
X74162991Y-52587222D01*
X74198729Y-52616552D01*
X74300186Y-52699814D01*
X74383448Y-52801271D01*
X74412778Y-52837009D01*
X74496443Y-52993534D01*
X74547963Y-53163373D01*
X74565359Y-53340000D01*
X74547963Y-53516627D01*
X74496443Y-53686466D01*
X74412778Y-53842991D01*
X74383448Y-53878729D01*
X74300186Y-53980186D01*
X74198729Y-54063448D01*
X74162991Y-54092778D01*
X74006466Y-54176443D01*
X73836627Y-54227963D01*
X73770442Y-54234482D01*
X73704260Y-54241000D01*
X73615740Y-54241000D01*
X73549558Y-54234482D01*
X73483373Y-54227963D01*
X73313534Y-54176443D01*
X73157009Y-54092778D01*
X73121271Y-54063448D01*
X73019814Y-53980186D01*
X72936552Y-53878729D01*
X72907222Y-53842991D01*
X72823557Y-53686466D01*
X72772037Y-53516627D01*
X72754641Y-53340000D01*
X72772037Y-53163373D01*
X72823557Y-52993534D01*
X72907222Y-52837009D01*
X72936552Y-52801271D01*
X73019814Y-52699814D01*
X73121271Y-52616552D01*
X73157009Y-52587222D01*
X73313534Y-52503557D01*
X73483373Y-52452037D01*
X73549558Y-52445518D01*
X73615740Y-52439000D01*
X73704260Y-52439000D01*
X73770443Y-52445519D01*
X73770443Y-52445519D01*
G37*
G36*
X76310443Y-52445519D02*
G01*
X76376627Y-52452037D01*
X76546466Y-52503557D01*
X76702991Y-52587222D01*
X76738729Y-52616552D01*
X76840186Y-52699814D01*
X76923448Y-52801271D01*
X76952778Y-52837009D01*
X77036443Y-52993534D01*
X77087963Y-53163373D01*
X77105359Y-53340000D01*
X77087963Y-53516627D01*
X77036443Y-53686466D01*
X76952778Y-53842991D01*
X76923448Y-53878729D01*
X76840186Y-53980186D01*
X76738729Y-54063448D01*
X76702991Y-54092778D01*
X76546466Y-54176443D01*
X76376627Y-54227963D01*
X76310442Y-54234482D01*
X76244260Y-54241000D01*
X76155740Y-54241000D01*
X76089558Y-54234482D01*
X76023373Y-54227963D01*
X75853534Y-54176443D01*
X75697009Y-54092778D01*
X75661271Y-54063448D01*
X75559814Y-53980186D01*
X75476552Y-53878729D01*
X75447222Y-53842991D01*
X75363557Y-53686466D01*
X75312037Y-53516627D01*
X75294641Y-53340000D01*
X75312037Y-53163373D01*
X75363557Y-52993534D01*
X75447222Y-52837009D01*
X75476552Y-52801271D01*
X75559814Y-52699814D01*
X75661271Y-52616552D01*
X75697009Y-52587222D01*
X75853534Y-52503557D01*
X76023373Y-52452037D01*
X76089558Y-52445518D01*
X76155740Y-52439000D01*
X76244260Y-52439000D01*
X76310443Y-52445519D01*
X76310443Y-52445519D01*
G37*
G36*
X81390443Y-52445519D02*
G01*
X81456627Y-52452037D01*
X81626466Y-52503557D01*
X81782991Y-52587222D01*
X81818729Y-52616552D01*
X81920186Y-52699814D01*
X82003448Y-52801271D01*
X82032778Y-52837009D01*
X82116443Y-52993534D01*
X82167963Y-53163373D01*
X82185359Y-53340000D01*
X82167963Y-53516627D01*
X82116443Y-53686466D01*
X82032778Y-53842991D01*
X82003448Y-53878729D01*
X81920186Y-53980186D01*
X81818729Y-54063448D01*
X81782991Y-54092778D01*
X81626466Y-54176443D01*
X81456627Y-54227963D01*
X81390442Y-54234482D01*
X81324260Y-54241000D01*
X81235740Y-54241000D01*
X81169558Y-54234482D01*
X81103373Y-54227963D01*
X80933534Y-54176443D01*
X80777009Y-54092778D01*
X80741271Y-54063448D01*
X80639814Y-53980186D01*
X80556552Y-53878729D01*
X80527222Y-53842991D01*
X80443557Y-53686466D01*
X80392037Y-53516627D01*
X80374641Y-53340000D01*
X80392037Y-53163373D01*
X80443557Y-52993534D01*
X80527222Y-52837009D01*
X80556552Y-52801271D01*
X80639814Y-52699814D01*
X80741271Y-52616552D01*
X80777009Y-52587222D01*
X80933534Y-52503557D01*
X81103373Y-52452037D01*
X81169558Y-52445518D01*
X81235740Y-52439000D01*
X81324260Y-52439000D01*
X81390443Y-52445519D01*
X81390443Y-52445519D01*
G37*
G36*
X73770442Y-49905518D02*
G01*
X73836627Y-49912037D01*
X74006466Y-49963557D01*
X74162991Y-50047222D01*
X74198729Y-50076552D01*
X74300186Y-50159814D01*
X74383448Y-50261271D01*
X74412778Y-50297009D01*
X74496443Y-50453534D01*
X74547963Y-50623373D01*
X74565359Y-50800000D01*
X74547963Y-50976627D01*
X74496443Y-51146466D01*
X74412778Y-51302991D01*
X74383448Y-51338729D01*
X74300186Y-51440186D01*
X74198729Y-51523448D01*
X74162991Y-51552778D01*
X74006466Y-51636443D01*
X73836627Y-51687963D01*
X73770442Y-51694482D01*
X73704260Y-51701000D01*
X73615740Y-51701000D01*
X73549558Y-51694482D01*
X73483373Y-51687963D01*
X73313534Y-51636443D01*
X73157009Y-51552778D01*
X73121271Y-51523448D01*
X73019814Y-51440186D01*
X72936552Y-51338729D01*
X72907222Y-51302991D01*
X72823557Y-51146466D01*
X72772037Y-50976627D01*
X72754641Y-50800000D01*
X72772037Y-50623373D01*
X72823557Y-50453534D01*
X72907222Y-50297009D01*
X72936552Y-50261271D01*
X73019814Y-50159814D01*
X73121271Y-50076552D01*
X73157009Y-50047222D01*
X73313534Y-49963557D01*
X73483373Y-49912037D01*
X73549557Y-49905519D01*
X73615740Y-49899000D01*
X73704260Y-49899000D01*
X73770442Y-49905518D01*
X73770442Y-49905518D01*
G37*
G36*
X76310442Y-49905518D02*
G01*
X76376627Y-49912037D01*
X76546466Y-49963557D01*
X76702991Y-50047222D01*
X76738729Y-50076552D01*
X76840186Y-50159814D01*
X76923448Y-50261271D01*
X76952778Y-50297009D01*
X77036443Y-50453534D01*
X77087963Y-50623373D01*
X77105359Y-50800000D01*
X77087963Y-50976627D01*
X77036443Y-51146466D01*
X76952778Y-51302991D01*
X76923448Y-51338729D01*
X76840186Y-51440186D01*
X76738729Y-51523448D01*
X76702991Y-51552778D01*
X76546466Y-51636443D01*
X76376627Y-51687963D01*
X76310442Y-51694482D01*
X76244260Y-51701000D01*
X76155740Y-51701000D01*
X76089558Y-51694482D01*
X76023373Y-51687963D01*
X75853534Y-51636443D01*
X75697009Y-51552778D01*
X75661271Y-51523448D01*
X75559814Y-51440186D01*
X75476552Y-51338729D01*
X75447222Y-51302991D01*
X75363557Y-51146466D01*
X75312037Y-50976627D01*
X75294641Y-50800000D01*
X75312037Y-50623373D01*
X75363557Y-50453534D01*
X75447222Y-50297009D01*
X75476552Y-50261271D01*
X75559814Y-50159814D01*
X75661271Y-50076552D01*
X75697009Y-50047222D01*
X75853534Y-49963557D01*
X76023373Y-49912037D01*
X76089557Y-49905519D01*
X76155740Y-49899000D01*
X76244260Y-49899000D01*
X76310442Y-49905518D01*
X76310442Y-49905518D01*
G37*
G36*
X82181000Y-51701000D02*
G01*
X80379000Y-51701000D01*
X80379000Y-49899000D01*
X82181000Y-49899000D01*
X82181000Y-51701000D01*
X82181000Y-51701000D01*
G37*
G36*
X79641000Y-51701000D02*
G01*
X77839000Y-51701000D01*
X77839000Y-49899000D01*
X79641000Y-49899000D01*
X79641000Y-51701000D01*
X79641000Y-51701000D01*
G37*
G36*
X122736694Y-42841860D02*
G01*
X123002437Y-42894719D01*
X123503087Y-43102095D01*
X123683561Y-43222684D01*
X123953660Y-43403158D01*
X124336842Y-43786340D01*
X124517316Y-44056439D01*
X124637905Y-44236913D01*
X124771363Y-44559109D01*
X124845281Y-44737564D01*
X124951000Y-45269049D01*
X124951000Y-45810951D01*
X124915186Y-45991000D01*
X124845281Y-46342437D01*
X124637905Y-46843087D01*
X124581521Y-46927471D01*
X124336842Y-47293660D01*
X123953660Y-47676842D01*
X123690774Y-47852496D01*
X123503087Y-47977905D01*
X123002437Y-48185281D01*
X122736694Y-48238140D01*
X122470951Y-48291000D01*
X121929049Y-48291000D01*
X121663306Y-48238140D01*
X121397563Y-48185281D01*
X120896913Y-47977905D01*
X120709226Y-47852496D01*
X120446340Y-47676842D01*
X120063158Y-47293660D01*
X119818479Y-46927471D01*
X119762095Y-46843087D01*
X119554719Y-46342437D01*
X119484814Y-45991000D01*
X119449000Y-45810951D01*
X119449000Y-45269049D01*
X119554719Y-44737564D01*
X119628637Y-44559109D01*
X119762095Y-44236913D01*
X119882684Y-44056439D01*
X120063158Y-43786340D01*
X120446340Y-43403158D01*
X120716439Y-43222684D01*
X120896913Y-43102095D01*
X121397563Y-42894719D01*
X121663306Y-42841860D01*
X121929049Y-42789000D01*
X122470951Y-42789000D01*
X122736694Y-42841860D01*
X122736694Y-42841860D01*
G37*
G36*
X70736694Y-42841860D02*
G01*
X71002437Y-42894719D01*
X71503087Y-43102095D01*
X71683561Y-43222684D01*
X71953660Y-43403158D01*
X72336842Y-43786340D01*
X72517316Y-44056439D01*
X72637905Y-44236913D01*
X72771363Y-44559109D01*
X72845281Y-44737564D01*
X72951000Y-45269049D01*
X72951000Y-45810951D01*
X72915186Y-45991000D01*
X72845281Y-46342437D01*
X72637905Y-46843087D01*
X72581521Y-46927471D01*
X72336842Y-47293660D01*
X71953660Y-47676842D01*
X71690774Y-47852496D01*
X71503087Y-47977905D01*
X71002437Y-48185281D01*
X70736694Y-48238140D01*
X70470951Y-48291000D01*
X69929049Y-48291000D01*
X69663306Y-48238140D01*
X69397563Y-48185281D01*
X68896913Y-47977905D01*
X68709226Y-47852496D01*
X68446340Y-47676842D01*
X68063158Y-47293660D01*
X67818479Y-46927471D01*
X67762095Y-46843087D01*
X67554719Y-46342437D01*
X67484814Y-45991000D01*
X67449000Y-45810951D01*
X67449000Y-45269049D01*
X67554719Y-44737564D01*
X67628637Y-44559109D01*
X67762095Y-44236913D01*
X67882684Y-44056439D01*
X68063158Y-43786340D01*
X68446340Y-43403158D01*
X68716439Y-43222684D01*
X68896913Y-43102095D01*
X69397563Y-42894719D01*
X69663306Y-42841860D01*
X69929049Y-42789000D01*
X70470951Y-42789000D01*
X70736694Y-42841860D01*
X70736694Y-42841860D01*
G37*
G36*
X111971619Y-45912380D02*
G01*
X112103654Y-45967071D01*
X112222476Y-46046465D01*
X112323535Y-46147524D01*
X112402929Y-46266346D01*
X112457620Y-46398381D01*
X112485500Y-46538543D01*
X112485500Y-46681457D01*
X112457620Y-46821619D01*
X112402929Y-46953654D01*
X112323535Y-47072476D01*
X112222476Y-47173535D01*
X112103654Y-47252929D01*
X111971619Y-47307620D01*
X111831457Y-47335500D01*
X111688543Y-47335500D01*
X111548381Y-47307620D01*
X111416346Y-47252929D01*
X111297524Y-47173535D01*
X111196465Y-47072476D01*
X111117071Y-46953654D01*
X111062380Y-46821619D01*
X111034500Y-46681457D01*
X111034500Y-46538543D01*
X111062380Y-46398381D01*
X111117071Y-46266346D01*
X111196465Y-46147524D01*
X111297524Y-46046465D01*
X111416346Y-45967071D01*
X111548381Y-45912380D01*
X111688543Y-45884500D01*
X111831457Y-45884500D01*
X111971619Y-45912380D01*
X111971619Y-45912380D01*
G37*
G36*
X109431619Y-45912380D02*
G01*
X109563654Y-45967071D01*
X109682476Y-46046465D01*
X109783535Y-46147524D01*
X109862929Y-46266346D01*
X109917620Y-46398381D01*
X109945500Y-46538543D01*
X109945500Y-46681457D01*
X109917620Y-46821619D01*
X109862929Y-46953654D01*
X109783535Y-47072476D01*
X109682476Y-47173535D01*
X109563654Y-47252929D01*
X109431619Y-47307620D01*
X109291457Y-47335500D01*
X109148543Y-47335500D01*
X109008381Y-47307620D01*
X108876346Y-47252929D01*
X108757524Y-47173535D01*
X108656465Y-47072476D01*
X108577071Y-46953654D01*
X108522380Y-46821619D01*
X108494500Y-46681457D01*
X108494500Y-46538543D01*
X108522380Y-46398381D01*
X108577071Y-46266346D01*
X108656465Y-46147524D01*
X108757524Y-46046465D01*
X108876346Y-45967071D01*
X109008381Y-45912380D01*
X109148543Y-45884500D01*
X109291457Y-45884500D01*
X109431619Y-45912380D01*
X109431619Y-45912380D01*
G37*
G36*
X106891619Y-45912380D02*
G01*
X107023654Y-45967071D01*
X107142476Y-46046465D01*
X107243535Y-46147524D01*
X107322929Y-46266346D01*
X107377620Y-46398381D01*
X107405500Y-46538543D01*
X107405500Y-46681457D01*
X107377620Y-46821619D01*
X107322929Y-46953654D01*
X107243535Y-47072476D01*
X107142476Y-47173535D01*
X107023654Y-47252929D01*
X106891619Y-47307620D01*
X106751457Y-47335500D01*
X106608543Y-47335500D01*
X106468381Y-47307620D01*
X106336346Y-47252929D01*
X106217524Y-47173535D01*
X106116465Y-47072476D01*
X106037071Y-46953654D01*
X105982380Y-46821619D01*
X105954500Y-46681457D01*
X105954500Y-46538543D01*
X105982380Y-46398381D01*
X106037071Y-46266346D01*
X106116465Y-46147524D01*
X106217524Y-46046465D01*
X106336346Y-45967071D01*
X106468381Y-45912380D01*
X106608543Y-45884500D01*
X106751457Y-45884500D01*
X106891619Y-45912380D01*
X106891619Y-45912380D01*
G37*
G36*
X101811619Y-45912380D02*
G01*
X101943654Y-45967071D01*
X102062476Y-46046465D01*
X102163535Y-46147524D01*
X102242929Y-46266346D01*
X102297620Y-46398381D01*
X102325500Y-46538543D01*
X102325500Y-46681457D01*
X102297620Y-46821619D01*
X102242929Y-46953654D01*
X102163535Y-47072476D01*
X102062476Y-47173535D01*
X101943654Y-47252929D01*
X101811619Y-47307620D01*
X101671457Y-47335500D01*
X101528543Y-47335500D01*
X101388381Y-47307620D01*
X101256346Y-47252929D01*
X101137524Y-47173535D01*
X101036465Y-47072476D01*
X100957071Y-46953654D01*
X100902380Y-46821619D01*
X100874500Y-46681457D01*
X100874500Y-46538543D01*
X100902380Y-46398381D01*
X100957071Y-46266346D01*
X101036465Y-46147524D01*
X101137524Y-46046465D01*
X101256346Y-45967071D01*
X101388381Y-45912380D01*
X101528543Y-45884500D01*
X101671457Y-45884500D01*
X101811619Y-45912380D01*
X101811619Y-45912380D01*
G37*
G36*
X99271619Y-45912380D02*
G01*
X99403654Y-45967071D01*
X99522476Y-46046465D01*
X99623535Y-46147524D01*
X99702929Y-46266346D01*
X99757620Y-46398381D01*
X99785500Y-46538543D01*
X99785500Y-46681457D01*
X99757620Y-46821619D01*
X99702929Y-46953654D01*
X99623535Y-47072476D01*
X99522476Y-47173535D01*
X99403654Y-47252929D01*
X99271619Y-47307620D01*
X99131457Y-47335500D01*
X98988543Y-47335500D01*
X98848381Y-47307620D01*
X98716346Y-47252929D01*
X98597524Y-47173535D01*
X98496465Y-47072476D01*
X98417071Y-46953654D01*
X98362380Y-46821619D01*
X98334500Y-46681457D01*
X98334500Y-46538543D01*
X98362380Y-46398381D01*
X98417071Y-46266346D01*
X98496465Y-46147524D01*
X98597524Y-46046465D01*
X98716346Y-45967071D01*
X98848381Y-45912380D01*
X98988543Y-45884500D01*
X99131457Y-45884500D01*
X99271619Y-45912380D01*
X99271619Y-45912380D01*
G37*
M02*
