M48
; DRILL file {KiCad (5.1.4)-1} date 2020/04/29 1:38:18
; FORMAT={-:-/ absolute / metric / decimal}
; #@! TF.CreationDate,2020-04-29T01:38:18+09:00
; #@! TF.GenerationSoftware,Kicad,Pcbnew,(5.1.4)-1
FMAT,2
METRIC
T1C0.500
T2C0.600
T3C0.800
T4C0.830
T5C1.000
T6C1.200
T7C1.500
T8C2.700
T9C3.162
%
G90
G05
T1
X68.175Y-45.54
X68.768Y-44.108
X68.768Y-46.972
X70.2Y-43.515
X70.2Y-47.565
X71.632Y-44.108
X71.632Y-46.972
X72.225Y-45.54
X68.175Y-141.54
X68.768Y-140.108
X68.768Y-142.972
X70.2Y-139.515
X70.2Y-143.565
X71.632Y-140.108
X71.632Y-142.972
X72.225Y-141.54
X120.175Y-141.54
X120.768Y-140.108
X120.768Y-142.972
X122.2Y-139.515
X122.2Y-143.565
X123.632Y-140.108
X123.632Y-142.972
X124.225Y-141.54
X120.175Y-45.54
X120.768Y-44.108
X120.768Y-46.972
X122.2Y-43.515
X122.2Y-47.565
X123.632Y-44.108
X123.632Y-46.972
X124.225Y-45.54
T2
X70.7Y-74.93
X80.645Y-75.01
X80.647Y-97.79
X81.28Y-73.66
X81.28Y-96.52
X83.058Y-79.248
X83.185Y-103.505
X83.82Y-81.407
X83.82Y-105.41
X83.82Y-108.585
X84.455Y-141.605
X85.09Y-85.09
X85.09Y-87.63
X85.09Y-90.17
X85.09Y-110.49
X85.09Y-136.525
X85.725Y-68.58
X85.725Y-92.71
X86.36Y-50.165
X86.36Y-51.24
X86.965Y-74.9
X86.995Y-72.39
X86.995Y-73.66
X86.995Y-96.52
X86.995Y-97.79
X86.995Y-99.06
X86.995Y-135.255
X88.9Y-78.74
X88.9Y-83.693
X88.9Y-102.87
X88.9Y-107.95
X94.615Y-132.08
X94.615Y-133.35
X95.25Y-87.63
X95.25Y-137.16
X95.885Y-92.71
X96.52Y-90.17
X97.79Y-120.015
X98.425Y-98.425
X98.425Y-133.35
X100.33Y-119.945
X100.965Y-140.97
X101.6Y-79.375
X101.6Y-81.28
X101.6Y-83.185
X101.6Y-103.378
X101.6Y-105.41
X101.6Y-107.315
X102.235Y-132.08
X102.87Y-83.82
X102.87Y-107.95
X104.48Y-119.04
X105.82Y-137.893
X107.315Y-78.74
X107.315Y-102.87
X107.315Y-107.315
X107.319Y-83.085
X108.331Y-134.62
X109.22Y-78.74
X109.22Y-102.87
X109.855Y-112.395
X110.49Y-81.915
X110.49Y-106.045
X111.76Y-97.155
X116.205Y-53.34
X116.205Y-134.62
X119.38Y-87.503
X119.38Y-93.98
X119.38Y-100.203
X124.46Y-53.34
X124.46Y-134.62
T3
X116.84Y-67.945
X116.84Y-70.485
X121.92Y-67.945
X121.92Y-70.485
X103.505Y-64.77
X106.005Y-64.77
X95.885Y-56.515
X98.385Y-56.515
X119.42Y-64.77
X121.92Y-64.77
X121.92Y-117.475
X121.92Y-120.015
X116.84Y-117.475
X116.84Y-120.015
X95.885Y-64.77
X98.385Y-64.77
X119.38Y-123.19
X121.88Y-123.19
X103.505Y-56.515
X106.005Y-56.515
T4
X99.06Y-46.61
X101.6Y-46.61
X106.68Y-46.61
X109.22Y-46.61
X111.76Y-46.61
T5
X78.74Y-101.6
X78.74Y-104.14
X78.74Y-106.68
X78.74Y-109.22
X78.74Y-111.76
X78.74Y-114.3
X78.74Y-116.84
X78.74Y-50.8
X78.74Y-53.34
X78.74Y-55.88
X78.74Y-58.42
X78.74Y-60.96
X78.74Y-63.5
X78.74Y-66.04
X78.74Y-68.58
X78.74Y-71.12
X93.98Y-100.33
X93.98Y-102.87
X93.98Y-105.41
X93.98Y-107.95
X93.98Y-76.2
X93.98Y-78.74
X93.98Y-81.28
X93.98Y-83.82
X90.805Y-133.604
X90.805Y-136.144
X90.805Y-138.684
X90.805Y-141.224
X81.28Y-50.8
X81.28Y-53.34
X81.28Y-55.88
X78.74Y-81.28
X78.74Y-83.82
X78.74Y-86.36
X78.74Y-88.9
X78.74Y-91.44
X78.74Y-119.38
X78.74Y-121.92
X78.74Y-124.46
X78.74Y-127.0
X78.74Y-129.54
X73.66Y-50.8
X73.66Y-53.34
X73.66Y-55.88
X73.66Y-58.42
X73.66Y-60.96
X73.66Y-63.5
X73.66Y-66.04
X73.66Y-68.58
X73.66Y-71.12
X73.66Y-73.66
X73.66Y-76.2
X73.66Y-78.74
X73.66Y-81.28
X73.66Y-83.82
X73.66Y-86.36
X73.66Y-88.9
X73.66Y-91.44
X73.66Y-93.98
X73.66Y-96.52
X73.66Y-99.06
X73.66Y-101.6
X73.66Y-104.14
X73.66Y-106.68
X73.66Y-109.22
X73.66Y-111.76
X73.66Y-114.3
X73.66Y-116.84
X73.66Y-119.38
X73.66Y-121.92
X73.66Y-124.46
X73.66Y-127.0
X73.66Y-129.54
X76.2Y-50.8
X76.2Y-53.34
X76.2Y-55.88
X76.2Y-58.42
X76.2Y-60.96
X76.2Y-63.5
X76.2Y-66.04
X76.2Y-68.58
X76.2Y-71.12
X76.2Y-73.66
X76.2Y-76.2
X76.2Y-78.74
X76.2Y-81.28
X76.2Y-83.82
X76.2Y-86.36
X76.2Y-88.9
X76.2Y-91.44
X76.2Y-93.98
X76.2Y-96.52
X76.2Y-99.06
X76.2Y-101.6
X76.2Y-104.14
X76.2Y-106.68
X76.2Y-109.22
X76.2Y-111.76
X76.2Y-114.3
X76.2Y-116.84
X76.2Y-119.38
X76.2Y-121.92
X76.2Y-124.46
X76.2Y-127.0
X76.2Y-129.54
T6
X90.17Y-56.515
X90.17Y-61.595
X116.84Y-59.69
X121.92Y-59.69
X116.84Y-128.905
X121.92Y-128.905
X111.76Y-56.515
X111.76Y-61.595
T7
X123.2Y-105.72
X123.2Y-112.72
X123.2Y-75.24
X123.2Y-82.24
T8
X70.2Y-45.54
X70.2Y-141.54
X122.2Y-141.54
X122.2Y-45.54
T9
X114.9Y-109.22
X121.2Y-109.22
X114.9Y-78.74
X121.2Y-78.74
T0
M30
