G04 #@! TF.GenerationSoftware,KiCad,Pcbnew,7.0.5*
G04 #@! TF.CreationDate,2023-08-17T21:40:02+09:00*
G04 #@! TF.ProjectId,xSSDAC,78535344-4143-42e6-9b69-6361645f7063,rev?*
G04 #@! TF.SameCoordinates,Original*
G04 #@! TF.FileFunction,Profile,NP*
%FSLAX46Y46*%
G04 Gerber Fmt 4.6, Leading zero omitted, Abs format (unit mm)*
G04 Created by KiCad (PCBNEW 7.0.5) date 2023-08-17 21:40:02*
%MOMM*%
%LPD*%
G01*
G04 APERTURE LIST*
G04 #@! TA.AperFunction,Profile*
%ADD10C,0.050000*%
G04 #@! TD*
G04 APERTURE END LIST*
D10*
X110000000Y-50000000D02*
X110000000Y-150000000D01*
X110000000Y-150000000D02*
X190000000Y-150000000D01*
X129850000Y-50000000D02*
X110000000Y-50000000D01*
X190000000Y-50000000D02*
X170150000Y-50000000D01*
X162650000Y-113350000D02*
G75*
G03*
X162650000Y-113350000I-1000000J0D01*
G01*
X190000000Y-133400000D02*
X190000000Y-133400000D01*
X161650000Y-50000000D02*
X161650000Y-51700000D01*
X170150000Y-51700000D02*
X168350000Y-51700000D01*
X139350000Y-113350000D02*
G75*
G03*
X139350000Y-113350000I-1000000J0D01*
G01*
X140150000Y-51700000D02*
X138350000Y-51700000D01*
X138350000Y-51700000D02*
X138350000Y-50000000D01*
X190000000Y-150000000D02*
X190000000Y-50000000D01*
X138350000Y-50000000D02*
X131650000Y-50000000D01*
X168350000Y-51700000D02*
X168350000Y-50000000D01*
X159850000Y-51700000D02*
X159850000Y-50000000D01*
X131650000Y-50000000D02*
X131650000Y-51700000D01*
X129850000Y-51700000D02*
X129850000Y-50000000D01*
X159850000Y-50000000D02*
X140150000Y-50000000D01*
X136500000Y-86000000D02*
G75*
G03*
X136500000Y-86000000I-1500000J0D01*
G01*
X168350000Y-50000000D02*
X161650000Y-50000000D01*
X161650000Y-51700000D02*
X159850000Y-51700000D01*
X166500000Y-86000000D02*
G75*
G03*
X166500000Y-86000000I-1500000J0D01*
G01*
X140150000Y-50000000D02*
X140150000Y-51700000D01*
X131650000Y-51700000D02*
X129850000Y-51700000D01*
X170150000Y-50000000D02*
X170150000Y-51700000D01*
M02*
