M48
; DRILL file {KiCad 7.0.5} date Sat Jun 24 08:19:43 2023
; FORMAT={-:-/ absolute / inch / decimal}
; #@! TF.CreationDate,2023-06-24T08:19:43+09:00
; #@! TF.GenerationSoftware,Kicad,Pcbnew,7.0.5
; #@! TF.FileFunction,Plated,1,2,PTH
FMAT,2
INCH
; #@! TA.AperFunction,Plated,PTH,ViaDrill
T1C0.0157
; #@! TA.AperFunction,Plated,PTH,ViaDrill
T2C0.0197
; #@! TA.AperFunction,Plated,PTH,ComponentDrill
T3C0.0197
; #@! TA.AperFunction,Plated,PTH,ViaDrill
T4C0.0315
; #@! TA.AperFunction,Plated,PTH,ComponentDrill
T5C0.0315
; #@! TA.AperFunction,Plated,PTH,ComponentDrill
T6C0.0327
; #@! TA.AperFunction,Plated,PTH,ComponentDrill
T7C0.0394
; #@! TA.AperFunction,Plated,PTH,ComponentDrill
T8C0.0433
; #@! TA.AperFunction,Plated,PTH,ComponentDrill
T9C0.0472
; #@! TA.AperFunction,Plated,PTH,ComponentDrill
T10C0.0512
; #@! TA.AperFunction,Plated,PTH,ComponentDrill
T11C0.0669
; #@! TA.AperFunction,Plated,PTH,ComponentDrill
T12C0.1063
; #@! TA.AperFunction,Plated,PTH,ComponentDrill
T13C0.1181
%
G90
G05
T1
X4.4173Y-3.6299
X4.4272Y-2.724
X4.5512Y-3.6299
X4.6272Y-2.724
X4.6457Y-3.6693
X4.6457Y-3.7559
X4.7559Y-3.8976
X4.7559Y-3.9606
X4.7772Y-2.6772
X4.8425Y-3.8583
X4.8425Y-3.9606
X4.9764Y-2.4094
X4.9764Y-2.6732
X5.0866Y-3.3071
X5.0945Y-3.8661
X5.0945Y-3.9921
X5.1695Y-4.6772
X5.189Y-3.126
X5.189Y-3.189
X5.2008Y-4.4764
X5.2205Y-3.2677
X5.2205Y-3.315
X5.2244Y-3.1575
X5.2992Y-4.4764
X5.3228Y-5.1496
X5.3504Y-4.2756
X5.3937Y-3.4567
X5.4173Y-2.5827
X5.4331Y-3.7008
X5.4331Y-3.7402
X5.4331Y-3.874
X5.4331Y-3.9528
X5.4331Y-3.9921
X5.4331Y-4.0709
X5.437Y-4.2756
X5.4409Y-3.7953
X5.4961Y-3.2677
X5.5118Y-3.0
X5.5197Y-4.1181
X5.5276Y-3.2992
X5.5276Y-4.5984
X5.5276Y-4.6772
X5.5512Y-2.8268
X5.5512Y-2.8976
X5.5512Y-3.126
X5.5512Y-3.189
X5.5512Y-4.9134
X5.5827Y-3.1575
X5.5906Y-4.1181
X5.6181Y-4.9134
X5.622Y-3.0079
X5.6457Y-2.6535
X5.6575Y-4.9646
X5.6772Y-4.1181
X5.6929Y-4.5984
X5.6929Y-4.6772
X5.6944Y-4.3991
X5.6969Y-3.0
X5.7559Y-4.1181
X5.7874Y-3.0
X5.7953Y-3.6299
X5.811Y-3.4882
X5.8268Y-4.1181
X5.8346Y-3.0
X5.8504Y-3.6299
X5.8818Y-3.0001
X5.9213Y-3.6929
X5.9213Y-3.7559
X5.9213Y-3.7953
X5.9213Y-3.874
X5.9213Y-3.9528
X5.9213Y-3.9921
X5.9213Y-4.0709
X6.0Y-3.126
X6.0Y-3.3228
X6.1496Y-3.7795
X6.1654Y-3.3543
X6.1654Y-3.4488
X6.1732Y-3.9528
X6.1732Y-4.1024
X6.1732Y-4.2126
X6.1969Y-3.7244
X6.2126Y-3.5512
X6.2362Y-3.8425
X6.2362Y-4.1024
X6.2441Y-3.4488
X6.252Y-4.5906
X6.253Y-4.4478
X6.2756Y-3.7244
X6.3307Y-2.685
X6.4016Y-3.4882
X6.4016Y-4.1732
X6.4528Y-3.8701
T2
X4.063Y-4.9843
X4.3465Y-3.3071
X4.3465Y-3.3543
X4.3465Y-3.4016
X4.3543Y-3.0315
X4.3543Y-4.5118
X4.3543Y-4.5984
X4.3543Y-4.7008
X4.3937Y-3.3071
X4.3937Y-3.3543
X4.3937Y-3.4016
X4.5748Y-5.0157
X4.6142Y-2.8898
X4.6693Y-4.0315
X4.8504Y-4.5039
X4.8504Y-4.5512
X4.8976Y-3.2441
X4.9055Y-4.5039
X4.9055Y-4.5512
X4.9134Y-3.1654
X4.9134Y-4.9449
X4.9144Y-3.0935
X4.9606Y-4.5039
X4.9606Y-4.5512
X5.0551Y-4.9449
X5.3622Y-2.3543
X5.4409Y-3.6378
X5.4567Y-2.622
X5.4567Y-2.7795
X5.4724Y-2.4016
X5.4803Y-3.6378
X5.5118Y-3.8346
X5.5118Y-3.874
X5.5118Y-3.9134
X5.5197Y-3.6378
X5.5354Y-5.1496
X5.5591Y-3.6378
X5.5821Y-5.1502
X5.6378Y-3.7087
X5.6378Y-4.0394
X5.6772Y-3.7087
X5.6772Y-4.0394
X5.7165Y-3.4173
X5.7165Y-3.7087
X5.7165Y-4.0394
X5.7402Y-2.7795
X5.748Y-5.1496
X5.7953Y-5.1496
X5.8031Y-4.874
X5.8189Y-3.063
X5.8425Y-3.8346
X5.8425Y-3.874
X5.8425Y-3.9134
X5.8976Y-2.378
X5.9055Y-2.8976
X5.9764Y-4.7874
X5.9843Y-2.7874
X5.9921Y-2.378
X6.1024Y-2.5512
X6.1575Y-4.4921
X6.1732Y-2.8976
X6.1811Y-4.8031
X6.2283Y-2.4567
X6.2441Y-2.5512
X6.2756Y-3.622
X6.2756Y-3.8031
X6.2756Y-4.3071
X6.2756Y-4.4882
X6.3228Y-3.4409
X6.3228Y-4.126
X6.3307Y-4.7953
X6.5039Y-3.5354
X6.5039Y-4.2205
X6.5118Y-3.6063
X6.5197Y-4.2913
X6.5827Y-3.0827
X6.6614Y-2.7638
X6.6693Y-4.7717
X6.748Y-2.622
X6.752Y-3.4449
X6.752Y-3.4961
X6.752Y-4.1299
X6.752Y-4.1811
X6.811Y-4.5197
X6.8189Y-3.6693
X6.8189Y-4.3543
X6.9252Y-3.6535
X6.9252Y-4.3386
X6.9764Y-3.4646
X6.9764Y-4.1496
X7.0Y-4.4173
X7.0315Y-3.685
X7.0472Y-4.5197
X7.0787Y-2.7559
X7.2441Y-3.8346
X7.2441Y-3.9134
T3
X3.8258Y-2.4961
X3.8258Y-5.252
X3.8491Y-2.4397
X3.8491Y-2.5524
X3.8491Y-5.1956
X3.8491Y-5.3083
X3.9055Y-2.4163
X3.9055Y-2.5758
X3.9055Y-5.1722
X3.9055Y-5.3317
X3.9619Y-2.4397
X3.9619Y-2.5524
X3.9619Y-5.1956
X3.9619Y-5.3083
X3.9852Y-2.4961
X3.9852Y-5.252
X6.685Y-3.874
X7.3691Y-2.4961
X7.3691Y-5.252
X7.3924Y-2.4397
X7.3924Y-2.5524
X7.3924Y-5.1956
X7.3924Y-5.3083
X7.4488Y-2.4163
X7.4488Y-2.5758
X7.4488Y-5.1722
X7.4488Y-5.3317
X7.5052Y-2.4397
X7.5052Y-2.5524
X7.5052Y-5.1956
X7.5052Y-5.3083
X7.5285Y-2.4961
X7.5285Y-5.252
T4
X3.7717Y-2.3622
X3.7717Y-5.378
X4.1102Y-2.4488
X4.2795Y-2.8031
X4.2795Y-3.1535
X4.5197Y-5.2441
X4.8819Y-5.0709
X5.0236Y-3.5118
X5.0236Y-3.5748
X5.0236Y-3.6378
X5.0236Y-4.126
X5.0236Y-4.189
X5.0236Y-4.252
X5.1969Y-4.9449
X5.252Y-5.3858
X5.8583Y-2.4724
X5.937Y-3.2362
X5.9961Y-5.2441
X6.0551Y-2.4724
X6.063Y-4.3465
X6.3189Y-5.3701
T5
X5.1102Y-2.8709
X5.1102Y-3.063
X6.563Y-4.9449
X6.6614Y-4.9449
X6.8386Y-4.9449
X6.937Y-4.9449
X7.0315Y-3.0157
X7.0315Y-3.1157
X7.0315Y-4.6323
X7.0315Y-4.7323
X7.3937Y-2.8425
X7.3937Y-4.9055
X7.3961Y-2.9764
X7.3961Y-4.7717
X7.4921Y-2.8425
X7.4921Y-4.9055
X7.4961Y-2.9764
X7.4961Y-4.7717
T6
X6.5748Y-5.187
X6.6748Y-5.187
X6.8748Y-5.187
X6.9748Y-5.187
X7.0748Y-5.187
T7
X3.8563Y-2.8406
X3.8563Y-3.0177
X3.8563Y-3.1555
X3.8563Y-3.3327
X3.8563Y-3.4705
X3.8563Y-3.6476
X3.8563Y-3.7854
X3.8563Y-3.9626
X3.8563Y-4.1004
X3.8563Y-4.2776
X3.8563Y-4.4154
X3.8563Y-4.5925
X3.8563Y-4.7303
X3.8563Y-4.9075
X3.9764Y-3.5591
X3.9764Y-3.6591
X3.9764Y-3.7591
X3.9764Y-3.8591
X3.9764Y-3.9591
X3.9764Y-4.0591
X3.9764Y-4.1591
X3.9764Y-4.2591
X4.1122Y-2.8406
X4.1122Y-3.0177
X4.1122Y-3.1555
X4.1122Y-3.3327
X4.1122Y-3.4705
X4.1122Y-3.6476
X4.1122Y-3.7854
X4.1122Y-3.9626
X4.1122Y-4.1004
X4.1122Y-4.2776
X4.1122Y-4.4154
X4.1122Y-4.5925
X4.1122Y-4.7303
X4.1122Y-4.9075
X4.4134Y-3.724
X4.4134Y-3.824
X4.4134Y-3.924
X4.4134Y-4.024
X5.0591Y-5.1437
X5.0591Y-5.2437
X7.0315Y-3.7795
X7.0315Y-3.8795
X7.0315Y-3.9795
T8
X4.2272Y-2.474
X4.2272Y-2.574
X4.3272Y-2.474
X4.3272Y-2.574
X4.4272Y-2.474
X4.4272Y-2.574
X4.5272Y-2.474
X4.5272Y-2.574
X4.6272Y-2.474
X4.6272Y-2.574
X4.7272Y-2.474
X4.7272Y-2.574
X4.8272Y-2.474
X4.8272Y-2.574
X4.9272Y-2.474
X4.9272Y-2.574
X5.0272Y-2.474
X5.0272Y-2.574
X5.1272Y-2.474
X5.1272Y-2.574
T9
X7.2126Y-2.7795
X7.2126Y-2.9795
X7.2126Y-4.7685
X7.2126Y-4.9685
T12
X3.9055Y-2.4961
X3.9055Y-5.252
X7.4488Y-2.4961
X7.4488Y-5.252
T13
X5.6772Y-3.874
T7
G00X7.3406Y-3.2835
M15
G01X7.2815Y-3.2835
M16
G05
G00X7.3406Y-4.4646
M15
G01X7.2815Y-4.4646
M16
G05
T10
G00X7.4882Y-3.3071
M15
G01X7.4882Y-3.2598
M16
G05
G00X7.4882Y-4.4882
M15
G01X7.4882Y-4.4409
M16
G05
T11
G00X4.5591Y-3.1535
M15
G01X4.5591Y-3.1142
M16
G05
G00X4.685Y-4.6969
M15
G01X4.685Y-4.7362
M16
G05
T0
M30
