G04 #@! TF.GenerationSoftware,KiCad,Pcbnew,(5.1.9)-1*
G04 #@! TF.CreationDate,2021-05-07T01:52:01+09:00*
G04 #@! TF.ProjectId,xSSDAC,78535344-4143-42e6-9b69-6361645f7063,rev?*
G04 #@! TF.SameCoordinates,Original*
G04 #@! TF.FileFunction,Legend,Bot*
G04 #@! TF.FilePolarity,Positive*
%FSLAX46Y46*%
G04 Gerber Fmt 4.6, Leading zero omitted, Abs format (unit mm)*
G04 Created by KiCad (PCBNEW (5.1.9)-1) date 2021-05-07 01:52:01*
%MOMM*%
%LPD*%
G01*
G04 APERTURE LIST*
%ADD10C,0.300000*%
%ADD11C,0.120000*%
%ADD12C,0.200000*%
%ADD13C,0.150000*%
%ADD14C,0.254000*%
G04 APERTURE END LIST*
D10*
X164990714Y-128928571D02*
X164205000Y-127928571D01*
X164990714Y-127928571D02*
X164205000Y-128928571D01*
X163705000Y-128857142D02*
X163490714Y-128928571D01*
X163133571Y-128928571D01*
X162990714Y-128857142D01*
X162919285Y-128785714D01*
X162847857Y-128642857D01*
X162847857Y-128500000D01*
X162919285Y-128357142D01*
X162990714Y-128285714D01*
X163133571Y-128214285D01*
X163419285Y-128142857D01*
X163562142Y-128071428D01*
X163633571Y-128000000D01*
X163705000Y-127857142D01*
X163705000Y-127714285D01*
X163633571Y-127571428D01*
X163562142Y-127500000D01*
X163419285Y-127428571D01*
X163062142Y-127428571D01*
X162847857Y-127500000D01*
X162276428Y-128857142D02*
X162062142Y-128928571D01*
X161705000Y-128928571D01*
X161562142Y-128857142D01*
X161490714Y-128785714D01*
X161419285Y-128642857D01*
X161419285Y-128500000D01*
X161490714Y-128357142D01*
X161562142Y-128285714D01*
X161705000Y-128214285D01*
X161990714Y-128142857D01*
X162133571Y-128071428D01*
X162205000Y-128000000D01*
X162276428Y-127857142D01*
X162276428Y-127714285D01*
X162205000Y-127571428D01*
X162133571Y-127500000D01*
X161990714Y-127428571D01*
X161633571Y-127428571D01*
X161419285Y-127500000D01*
X160776428Y-128928571D02*
X160776428Y-127428571D01*
X160419285Y-127428571D01*
X160205000Y-127500000D01*
X160062142Y-127642857D01*
X159990714Y-127785714D01*
X159919285Y-128071428D01*
X159919285Y-128285714D01*
X159990714Y-128571428D01*
X160062142Y-128714285D01*
X160205000Y-128857142D01*
X160419285Y-128928571D01*
X160776428Y-128928571D01*
X159347857Y-128500000D02*
X158633571Y-128500000D01*
X159490714Y-128928571D02*
X158990714Y-127428571D01*
X158490714Y-128928571D01*
X157133571Y-128785714D02*
X157205000Y-128857142D01*
X157419285Y-128928571D01*
X157562142Y-128928571D01*
X157776428Y-128857142D01*
X157919285Y-128714285D01*
X157990714Y-128571428D01*
X158062142Y-128285714D01*
X158062142Y-128071428D01*
X157990714Y-127785714D01*
X157919285Y-127642857D01*
X157776428Y-127500000D01*
X157562142Y-127428571D01*
X157419285Y-127428571D01*
X157205000Y-127500000D01*
X157133571Y-127571428D01*
X155419285Y-128857142D02*
X155205000Y-128928571D01*
X154847857Y-128928571D01*
X154705000Y-128857142D01*
X154633571Y-128785714D01*
X154562142Y-128642857D01*
X154562142Y-128500000D01*
X154633571Y-128357142D01*
X154705000Y-128285714D01*
X154847857Y-128214285D01*
X155133571Y-128142857D01*
X155276428Y-128071428D01*
X155347857Y-128000000D01*
X155419285Y-127857142D01*
X155419285Y-127714285D01*
X155347857Y-127571428D01*
X155276428Y-127500000D01*
X155133571Y-127428571D01*
X154776428Y-127428571D01*
X154562142Y-127500000D01*
X153919285Y-128928571D02*
X153919285Y-127428571D01*
X153562142Y-127428571D01*
X153347857Y-127500000D01*
X153205000Y-127642857D01*
X153133571Y-127785714D01*
X153062142Y-128071428D01*
X153062142Y-128285714D01*
X153133571Y-128571428D01*
X153205000Y-128714285D01*
X153347857Y-128857142D01*
X153562142Y-128928571D01*
X153919285Y-128928571D01*
X151276428Y-127928571D02*
X151276428Y-129428571D01*
X151276428Y-128000000D02*
X151133571Y-127928571D01*
X150847857Y-127928571D01*
X150705000Y-128000000D01*
X150633571Y-128071428D01*
X150562142Y-128214285D01*
X150562142Y-128642857D01*
X150633571Y-128785714D01*
X150705000Y-128857142D01*
X150847857Y-128928571D01*
X151133571Y-128928571D01*
X151276428Y-128857142D01*
X149705000Y-128928571D02*
X149847857Y-128857142D01*
X149919285Y-128714285D01*
X149919285Y-127428571D01*
X148490714Y-128928571D02*
X148490714Y-128142857D01*
X148562142Y-128000000D01*
X148705000Y-127928571D01*
X148990714Y-127928571D01*
X149133571Y-128000000D01*
X148490714Y-128857142D02*
X148633571Y-128928571D01*
X148990714Y-128928571D01*
X149133571Y-128857142D01*
X149205000Y-128714285D01*
X149205000Y-128571428D01*
X149133571Y-128428571D01*
X148990714Y-128357142D01*
X148633571Y-128357142D01*
X148490714Y-128285714D01*
X147919285Y-127928571D02*
X147562142Y-128928571D01*
X147205000Y-127928571D02*
X147562142Y-128928571D01*
X147705000Y-129285714D01*
X147776428Y-129357142D01*
X147919285Y-129428571D01*
X146062142Y-128857142D02*
X146205000Y-128928571D01*
X146490714Y-128928571D01*
X146633571Y-128857142D01*
X146705000Y-128714285D01*
X146705000Y-128142857D01*
X146633571Y-128000000D01*
X146490714Y-127928571D01*
X146205000Y-127928571D01*
X146062142Y-128000000D01*
X145990714Y-128142857D01*
X145990714Y-128285714D01*
X146705000Y-128428571D01*
X145347857Y-128928571D02*
X145347857Y-127928571D01*
X145347857Y-128214285D02*
X145276428Y-128071428D01*
X145205000Y-128000000D01*
X145062142Y-127928571D01*
X144919285Y-127928571D01*
X143419285Y-127928571D02*
X143062142Y-128928571D01*
X142705000Y-127928571D01*
X141347857Y-128928571D02*
X142205000Y-128928571D01*
X141776428Y-128928571D02*
X141776428Y-127428571D01*
X141919285Y-127642857D01*
X142062142Y-127785714D01*
X142205000Y-127857142D01*
X140705000Y-128785714D02*
X140633571Y-128857142D01*
X140705000Y-128928571D01*
X140776428Y-128857142D01*
X140705000Y-128785714D01*
X140705000Y-128928571D01*
X139705000Y-127428571D02*
X139562142Y-127428571D01*
X139419285Y-127500000D01*
X139347857Y-127571428D01*
X139276428Y-127714285D01*
X139205000Y-128000000D01*
X139205000Y-128357142D01*
X139276428Y-128642857D01*
X139347857Y-128785714D01*
X139419285Y-128857142D01*
X139562142Y-128928571D01*
X139705000Y-128928571D01*
X139847857Y-128857142D01*
X139919285Y-128785714D01*
X139990714Y-128642857D01*
X140062142Y-128357142D01*
X140062142Y-128000000D01*
X139990714Y-127714285D01*
X139919285Y-127571428D01*
X139847857Y-127500000D01*
X139705000Y-127428571D01*
X165062142Y-129978571D02*
X164205000Y-129978571D01*
X164633571Y-131478571D02*
X164633571Y-129978571D01*
X163705000Y-131335714D02*
X163633571Y-131407142D01*
X163705000Y-131478571D01*
X163776428Y-131407142D01*
X163705000Y-131335714D01*
X163705000Y-131478571D01*
X161919285Y-131407142D02*
X161705000Y-131478571D01*
X161347857Y-131478571D01*
X161205000Y-131407142D01*
X161133571Y-131335714D01*
X161062142Y-131192857D01*
X161062142Y-131050000D01*
X161133571Y-130907142D01*
X161205000Y-130835714D01*
X161347857Y-130764285D01*
X161633571Y-130692857D01*
X161776428Y-130621428D01*
X161847857Y-130550000D01*
X161919285Y-130407142D01*
X161919285Y-130264285D01*
X161847857Y-130121428D01*
X161776428Y-130050000D01*
X161633571Y-129978571D01*
X161276428Y-129978571D01*
X161062142Y-130050000D01*
X159776428Y-131478571D02*
X159776428Y-130692857D01*
X159847857Y-130550000D01*
X159990714Y-130478571D01*
X160276428Y-130478571D01*
X160419285Y-130550000D01*
X159776428Y-131407142D02*
X159919285Y-131478571D01*
X160276428Y-131478571D01*
X160419285Y-131407142D01*
X160490714Y-131264285D01*
X160490714Y-131121428D01*
X160419285Y-130978571D01*
X160276428Y-130907142D01*
X159919285Y-130907142D01*
X159776428Y-130835714D01*
X159062142Y-131478571D02*
X159062142Y-129978571D01*
X158919285Y-130907142D02*
X158490714Y-131478571D01*
X158490714Y-130478571D02*
X159062142Y-131050000D01*
X157205000Y-130478571D02*
X157205000Y-131478571D01*
X157847857Y-130478571D02*
X157847857Y-131264285D01*
X157776428Y-131407142D01*
X157633571Y-131478571D01*
X157419285Y-131478571D01*
X157276428Y-131407142D01*
X157205000Y-131335714D01*
X156490714Y-131478571D02*
X156490714Y-130478571D01*
X156490714Y-130764285D02*
X156419285Y-130621428D01*
X156347857Y-130550000D01*
X156205000Y-130478571D01*
X156062142Y-130478571D01*
X154919285Y-131478571D02*
X154919285Y-130692857D01*
X154990714Y-130550000D01*
X155133571Y-130478571D01*
X155419285Y-130478571D01*
X155562142Y-130550000D01*
X154919285Y-131407142D02*
X155062142Y-131478571D01*
X155419285Y-131478571D01*
X155562142Y-131407142D01*
X155633571Y-131264285D01*
X155633571Y-131121428D01*
X155562142Y-130978571D01*
X155419285Y-130907142D01*
X155062142Y-130907142D01*
X154919285Y-130835714D01*
X154205000Y-131478571D02*
X154205000Y-130478571D01*
X154205000Y-129978571D02*
X154276428Y-130050000D01*
X154205000Y-130121428D01*
X154133571Y-130050000D01*
X154205000Y-129978571D01*
X154205000Y-130121428D01*
X164847857Y-134028571D02*
X164847857Y-132528571D01*
X164347857Y-133600000D01*
X163847857Y-132528571D01*
X163847857Y-134028571D01*
X162490714Y-134028571D02*
X162490714Y-133242857D01*
X162562142Y-133100000D01*
X162705000Y-133028571D01*
X162990714Y-133028571D01*
X163133571Y-133100000D01*
X162490714Y-133957142D02*
X162633571Y-134028571D01*
X162990714Y-134028571D01*
X163133571Y-133957142D01*
X163205000Y-133814285D01*
X163205000Y-133671428D01*
X163133571Y-133528571D01*
X162990714Y-133457142D01*
X162633571Y-133457142D01*
X162490714Y-133385714D01*
X161919285Y-133028571D02*
X161562142Y-134028571D01*
X161205000Y-133028571D02*
X161562142Y-134028571D01*
X161705000Y-134385714D01*
X161776428Y-134457142D01*
X161919285Y-134528571D01*
X159562142Y-132671428D02*
X159490714Y-132600000D01*
X159347857Y-132528571D01*
X158990714Y-132528571D01*
X158847857Y-132600000D01*
X158776428Y-132671428D01*
X158705000Y-132814285D01*
X158705000Y-132957142D01*
X158776428Y-133171428D01*
X159633571Y-134028571D01*
X158705000Y-134028571D01*
X157776428Y-132528571D02*
X157633571Y-132528571D01*
X157490714Y-132600000D01*
X157419285Y-132671428D01*
X157347857Y-132814285D01*
X157276428Y-133100000D01*
X157276428Y-133457142D01*
X157347857Y-133742857D01*
X157419285Y-133885714D01*
X157490714Y-133957142D01*
X157633571Y-134028571D01*
X157776428Y-134028571D01*
X157919285Y-133957142D01*
X157990714Y-133885714D01*
X158062142Y-133742857D01*
X158133571Y-133457142D01*
X158133571Y-133100000D01*
X158062142Y-132814285D01*
X157990714Y-132671428D01*
X157919285Y-132600000D01*
X157776428Y-132528571D01*
X156705000Y-132671428D02*
X156633571Y-132600000D01*
X156490714Y-132528571D01*
X156133571Y-132528571D01*
X155990714Y-132600000D01*
X155919285Y-132671428D01*
X155847857Y-132814285D01*
X155847857Y-132957142D01*
X155919285Y-133171428D01*
X156776428Y-134028571D01*
X155847857Y-134028571D01*
X154419285Y-134028571D02*
X155276428Y-134028571D01*
X154847857Y-134028571D02*
X154847857Y-132528571D01*
X154990714Y-132742857D01*
X155133571Y-132885714D01*
X155276428Y-132957142D01*
D11*
X145538748Y-82565000D02*
X146061252Y-82565000D01*
X145538748Y-84035000D02*
X146061252Y-84035000D01*
X148090000Y-80608767D02*
X148090000Y-80316233D01*
X149110000Y-80608767D02*
X149110000Y-80316233D01*
X158722500Y-71032776D02*
X158722500Y-71542224D01*
X157677500Y-71032776D02*
X157677500Y-71542224D01*
D12*
X135450000Y-73900000D02*
X134250000Y-73900000D01*
X133900000Y-76850000D02*
X133900000Y-73950000D01*
X133300000Y-76850000D02*
X133900000Y-76850000D01*
X133300000Y-73950000D02*
X133300000Y-76850000D01*
X133900000Y-73950000D02*
X133300000Y-73950000D01*
D11*
X145746267Y-77290000D02*
X145453733Y-77290000D01*
X145746267Y-78310000D02*
X145453733Y-78310000D01*
X133746267Y-71490000D02*
X133453733Y-71490000D01*
X133746267Y-72510000D02*
X133453733Y-72510000D01*
D12*
X142550000Y-65400000D02*
X141350000Y-65400000D01*
X171000000Y-76800000D02*
X171000000Y-79800000D01*
D11*
X178450000Y-73850000D02*
X178450000Y-71450000D01*
X178450000Y-71450000D02*
X177400000Y-71450000D01*
X175150000Y-73250000D02*
X175150000Y-71450000D01*
X175150000Y-71450000D02*
X176200000Y-71450000D01*
X175150000Y-65650000D02*
X176200000Y-65650000D01*
X175150000Y-67450000D02*
X175150000Y-65650000D01*
X178450000Y-65650000D02*
X177400000Y-65650000D01*
X178450000Y-68050000D02*
X178450000Y-65650000D01*
X169150000Y-116450000D02*
X171550000Y-116450000D01*
X171550000Y-116450000D02*
X171550000Y-115400000D01*
X169750000Y-113150000D02*
X171550000Y-113150000D01*
X171550000Y-113150000D02*
X171550000Y-114200000D01*
D12*
X137800000Y-131100000D02*
X137800000Y-130500000D01*
X161100000Y-66350000D02*
X161100000Y-67550000D01*
X164050000Y-67900000D02*
X161150000Y-67900000D01*
X164050000Y-68500000D02*
X164050000Y-67900000D01*
X161150000Y-68500000D02*
X164050000Y-68500000D01*
X161150000Y-67900000D02*
X161150000Y-68500000D01*
X158750000Y-66400000D02*
X157550000Y-66400000D01*
D11*
X146300000Y-82010000D02*
X144500000Y-82010000D01*
X144500000Y-78790000D02*
X146950000Y-78790000D01*
D12*
X185560000Y-97775000D02*
X183150000Y-97775000D01*
X184850000Y-99025000D02*
X183150000Y-99025000D01*
D11*
X161250000Y-101050000D02*
X163650000Y-101050000D01*
X163650000Y-101050000D02*
X163650000Y-100000000D01*
X161850000Y-97750000D02*
X163650000Y-97750000D01*
X163650000Y-97750000D02*
X163650000Y-98800000D01*
D12*
X170754380Y-69494000D02*
G75*
G03*
X170754380Y-69494000I-44380J0D01*
G01*
X166950000Y-64800000D02*
X166950000Y-67300000D01*
X171450000Y-67300000D02*
X171450000Y-64800000D01*
D11*
X160432776Y-65322500D02*
X160942224Y-65322500D01*
X160432776Y-64277500D02*
X160942224Y-64277500D01*
X156322500Y-71542224D02*
X156322500Y-71032776D01*
X155277500Y-71542224D02*
X155277500Y-71032776D01*
X119677500Y-67945276D02*
X119677500Y-68454724D01*
X120722500Y-67945276D02*
X120722500Y-68454724D01*
X124677500Y-67945276D02*
X124677500Y-68454724D01*
X125722500Y-67945276D02*
X125722500Y-68454724D01*
X146342224Y-66322500D02*
X145832776Y-66322500D01*
X146342224Y-65277500D02*
X145832776Y-65277500D01*
X146342224Y-68322500D02*
X145832776Y-68322500D01*
X146342224Y-67277500D02*
X145832776Y-67277500D01*
X129277500Y-75145276D02*
X129277500Y-75654724D01*
X130322500Y-75145276D02*
X130322500Y-75654724D01*
X157277500Y-114345276D02*
X157277500Y-114854724D01*
X158322500Y-114345276D02*
X158322500Y-114854724D01*
X179277500Y-72854724D02*
X179277500Y-72345276D01*
X180322500Y-72854724D02*
X180322500Y-72345276D01*
X172677500Y-73145276D02*
X172677500Y-73654724D01*
X173722500Y-73145276D02*
X173722500Y-73654724D01*
X168232776Y-73122500D02*
X168742224Y-73122500D01*
X168232776Y-72077500D02*
X168742224Y-72077500D01*
X172277500Y-67742224D02*
X172277500Y-67232776D01*
X173322500Y-67742224D02*
X173322500Y-67232776D01*
X168877500Y-118545276D02*
X168877500Y-119054724D01*
X169922500Y-118545276D02*
X169922500Y-119054724D01*
X159354724Y-100922500D02*
X158845276Y-100922500D01*
X159354724Y-99877500D02*
X158845276Y-99877500D01*
X145545276Y-72677500D02*
X146054724Y-72677500D01*
X145545276Y-73722500D02*
X146054724Y-73722500D01*
X132246267Y-131310000D02*
X131953733Y-131310000D01*
X132246267Y-130290000D02*
X131953733Y-130290000D01*
X153483767Y-67090000D02*
X153191233Y-67090000D01*
X153483767Y-68110000D02*
X153191233Y-68110000D01*
X156710000Y-63716233D02*
X156710000Y-64008767D01*
X155690000Y-63716233D02*
X155690000Y-64008767D01*
X141710000Y-89453733D02*
X141710000Y-89746267D01*
X140690000Y-89453733D02*
X140690000Y-89746267D01*
X135253733Y-103910000D02*
X135546267Y-103910000D01*
X135253733Y-102890000D02*
X135546267Y-102890000D01*
X128510000Y-77146267D02*
X128510000Y-76853733D01*
X127490000Y-77146267D02*
X127490000Y-76853733D01*
X153146267Y-95910000D02*
X152853733Y-95910000D01*
X153146267Y-94890000D02*
X152853733Y-94890000D01*
X153146267Y-103910000D02*
X152853733Y-103910000D01*
X153146267Y-102890000D02*
X152853733Y-102890000D01*
X139710000Y-89453733D02*
X139710000Y-89746267D01*
X138690000Y-89453733D02*
X138690000Y-89746267D01*
X135253733Y-96910000D02*
X135546267Y-96910000D01*
X135253733Y-95890000D02*
X135546267Y-95890000D01*
X135253733Y-101910000D02*
X135546267Y-101910000D01*
X135253733Y-100890000D02*
X135546267Y-100890000D01*
X153146267Y-94310000D02*
X152853733Y-94310000D01*
X153146267Y-93290000D02*
X152853733Y-93290000D01*
X135253733Y-97890000D02*
X135546267Y-97890000D01*
X135253733Y-98910000D02*
X135546267Y-98910000D01*
X145890000Y-89453733D02*
X145890000Y-89746267D01*
X146910000Y-89453733D02*
X146910000Y-89746267D01*
X140710000Y-107346267D02*
X140710000Y-107053733D01*
X139690000Y-107346267D02*
X139690000Y-107053733D01*
X145690000Y-107346267D02*
X145690000Y-107053733D01*
X146710000Y-107346267D02*
X146710000Y-107053733D01*
X128510000Y-71853733D02*
X128510000Y-72146267D01*
X127490000Y-71853733D02*
X127490000Y-72146267D01*
X153146267Y-100890000D02*
X152853733Y-100890000D01*
X153146267Y-101910000D02*
X152853733Y-101910000D01*
X143690000Y-107346267D02*
X143690000Y-107053733D01*
X144710000Y-107346267D02*
X144710000Y-107053733D01*
X145808767Y-84690000D02*
X145516233Y-84690000D01*
X145808767Y-85710000D02*
X145516233Y-85710000D01*
X148290000Y-89453733D02*
X148290000Y-89746267D01*
X149310000Y-89453733D02*
X149310000Y-89746267D01*
X135253733Y-94290000D02*
X135546267Y-94290000D01*
X135253733Y-95310000D02*
X135546267Y-95310000D01*
X153146267Y-97890000D02*
X152853733Y-97890000D01*
X153146267Y-98910000D02*
X152853733Y-98910000D01*
X126710000Y-109488748D02*
X126710000Y-110911252D01*
X124890000Y-109488748D02*
X124890000Y-110911252D01*
X126710000Y-87511252D02*
X126710000Y-86088748D01*
X124890000Y-87511252D02*
X124890000Y-86088748D01*
X147690000Y-107346267D02*
X147690000Y-107053733D01*
X148710000Y-107346267D02*
X148710000Y-107053733D01*
X96945276Y-74922500D02*
X97454724Y-74922500D01*
X96945276Y-73877500D02*
X97454724Y-73877500D01*
X96945276Y-82922500D02*
X97454724Y-82922500D01*
X96945276Y-81877500D02*
X97454724Y-81877500D01*
X96945276Y-89877500D02*
X97454724Y-89877500D01*
X96945276Y-90922500D02*
X97454724Y-90922500D01*
X96945276Y-97877500D02*
X97454724Y-97877500D01*
X96945276Y-98922500D02*
X97454724Y-98922500D01*
X96945276Y-106922500D02*
X97454724Y-106922500D01*
X96945276Y-105877500D02*
X97454724Y-105877500D01*
X96945276Y-113877500D02*
X97454724Y-113877500D01*
X96945276Y-114922500D02*
X97454724Y-114922500D01*
X96945276Y-122922500D02*
X97454724Y-122922500D01*
X96945276Y-121877500D02*
X97454724Y-121877500D01*
X99722500Y-67945276D02*
X99722500Y-68454724D01*
X98677500Y-67945276D02*
X98677500Y-68454724D01*
X103945276Y-132877500D02*
X104454724Y-132877500D01*
X103945276Y-133922500D02*
X104454724Y-133922500D01*
X164900000Y-96200000D02*
X164900000Y-100600000D01*
X169300000Y-96200000D02*
X164900000Y-96200000D01*
X169300000Y-100600000D02*
X169300000Y-96200000D01*
X164900000Y-100600000D02*
X169300000Y-100600000D01*
X145996267Y-74490000D02*
X145703733Y-74490000D01*
X145996267Y-75510000D02*
X145703733Y-75510000D01*
D13*
X142966666Y-83757142D02*
X143014285Y-83804761D01*
X143157142Y-83852380D01*
X143252380Y-83852380D01*
X143395238Y-83804761D01*
X143490476Y-83709523D01*
X143538095Y-83614285D01*
X143585714Y-83423809D01*
X143585714Y-83280952D01*
X143538095Y-83090476D01*
X143490476Y-82995238D01*
X143395238Y-82900000D01*
X143252380Y-82852380D01*
X143157142Y-82852380D01*
X143014285Y-82900000D01*
X142966666Y-82947619D01*
X142395238Y-83280952D02*
X142490476Y-83233333D01*
X142538095Y-83185714D01*
X142585714Y-83090476D01*
X142585714Y-83042857D01*
X142538095Y-82947619D01*
X142490476Y-82900000D01*
X142395238Y-82852380D01*
X142204761Y-82852380D01*
X142109523Y-82900000D01*
X142061904Y-82947619D01*
X142014285Y-83042857D01*
X142014285Y-83090476D01*
X142061904Y-83185714D01*
X142109523Y-83233333D01*
X142204761Y-83280952D01*
X142395238Y-83280952D01*
X142490476Y-83328571D01*
X142538095Y-83376190D01*
X142585714Y-83471428D01*
X142585714Y-83661904D01*
X142538095Y-83757142D01*
X142490476Y-83804761D01*
X142395238Y-83852380D01*
X142204761Y-83852380D01*
X142109523Y-83804761D01*
X142061904Y-83757142D01*
X142014285Y-83661904D01*
X142014285Y-83471428D01*
X142061904Y-83376190D01*
X142109523Y-83328571D01*
X142204761Y-83280952D01*
X148957142Y-83033333D02*
X149004761Y-82985714D01*
X149052380Y-82842857D01*
X149052380Y-82747619D01*
X149004761Y-82604761D01*
X148909523Y-82509523D01*
X148814285Y-82461904D01*
X148623809Y-82414285D01*
X148480952Y-82414285D01*
X148290476Y-82461904D01*
X148195238Y-82509523D01*
X148100000Y-82604761D01*
X148052380Y-82747619D01*
X148052380Y-82842857D01*
X148100000Y-82985714D01*
X148147619Y-83033333D01*
X148052380Y-83938095D02*
X148052380Y-83461904D01*
X148528571Y-83414285D01*
X148480952Y-83461904D01*
X148433333Y-83557142D01*
X148433333Y-83795238D01*
X148480952Y-83890476D01*
X148528571Y-83938095D01*
X148623809Y-83985714D01*
X148861904Y-83985714D01*
X148957142Y-83938095D01*
X149004761Y-83890476D01*
X149052380Y-83795238D01*
X149052380Y-83557142D01*
X149004761Y-83461904D01*
X148957142Y-83414285D01*
X158652380Y-73833333D02*
X158176190Y-73500000D01*
X158652380Y-73261904D02*
X157652380Y-73261904D01*
X157652380Y-73642857D01*
X157700000Y-73738095D01*
X157747619Y-73785714D01*
X157842857Y-73833333D01*
X157985714Y-73833333D01*
X158080952Y-73785714D01*
X158128571Y-73738095D01*
X158176190Y-73642857D01*
X158176190Y-73261904D01*
X157985714Y-74690476D02*
X158652380Y-74690476D01*
X157604761Y-74452380D02*
X158319047Y-74214285D01*
X158319047Y-74833333D01*
X134838095Y-77452380D02*
X134838095Y-78261904D01*
X134790476Y-78357142D01*
X134742857Y-78404761D01*
X134647619Y-78452380D01*
X134457142Y-78452380D01*
X134361904Y-78404761D01*
X134314285Y-78357142D01*
X134266666Y-78261904D01*
X134266666Y-77452380D01*
X133838095Y-77547619D02*
X133790476Y-77500000D01*
X133695238Y-77452380D01*
X133457142Y-77452380D01*
X133361904Y-77500000D01*
X133314285Y-77547619D01*
X133266666Y-77642857D01*
X133266666Y-77738095D01*
X133314285Y-77880952D01*
X133885714Y-78452380D01*
X133266666Y-78452380D01*
X132314285Y-78452380D02*
X132885714Y-78452380D01*
X132600000Y-78452380D02*
X132600000Y-77452380D01*
X132695238Y-77595238D01*
X132790476Y-77690476D01*
X132885714Y-77738095D01*
X148966666Y-78157142D02*
X149014285Y-78204761D01*
X149157142Y-78252380D01*
X149252380Y-78252380D01*
X149395238Y-78204761D01*
X149490476Y-78109523D01*
X149538095Y-78014285D01*
X149585714Y-77823809D01*
X149585714Y-77680952D01*
X149538095Y-77490476D01*
X149490476Y-77395238D01*
X149395238Y-77300000D01*
X149252380Y-77252380D01*
X149157142Y-77252380D01*
X149014285Y-77300000D01*
X148966666Y-77347619D01*
X148633333Y-77252380D02*
X147966666Y-77252380D01*
X148395238Y-78252380D01*
X134242857Y-70957142D02*
X134290476Y-71004761D01*
X134433333Y-71052380D01*
X134528571Y-71052380D01*
X134671428Y-71004761D01*
X134766666Y-70909523D01*
X134814285Y-70814285D01*
X134861904Y-70623809D01*
X134861904Y-70480952D01*
X134814285Y-70290476D01*
X134766666Y-70195238D01*
X134671428Y-70100000D01*
X134528571Y-70052380D01*
X134433333Y-70052380D01*
X134290476Y-70100000D01*
X134242857Y-70147619D01*
X133861904Y-70147619D02*
X133814285Y-70100000D01*
X133719047Y-70052380D01*
X133480952Y-70052380D01*
X133385714Y-70100000D01*
X133338095Y-70147619D01*
X133290476Y-70242857D01*
X133290476Y-70338095D01*
X133338095Y-70480952D01*
X133909523Y-71052380D01*
X133290476Y-71052380D01*
X132385714Y-70052380D02*
X132861904Y-70052380D01*
X132909523Y-70528571D01*
X132861904Y-70480952D01*
X132766666Y-70433333D01*
X132528571Y-70433333D01*
X132433333Y-70480952D01*
X132385714Y-70528571D01*
X132338095Y-70623809D01*
X132338095Y-70861904D01*
X132385714Y-70957142D01*
X132433333Y-71004761D01*
X132528571Y-71052380D01*
X132766666Y-71052380D01*
X132861904Y-71004761D01*
X132909523Y-70957142D01*
X141761904Y-63852380D02*
X141761904Y-64661904D01*
X141714285Y-64757142D01*
X141666666Y-64804761D01*
X141571428Y-64852380D01*
X141380952Y-64852380D01*
X141285714Y-64804761D01*
X141238095Y-64757142D01*
X141190476Y-64661904D01*
X141190476Y-63852380D01*
X140666666Y-64852380D02*
X140476190Y-64852380D01*
X140380952Y-64804761D01*
X140333333Y-64757142D01*
X140238095Y-64614285D01*
X140190476Y-64423809D01*
X140190476Y-64042857D01*
X140238095Y-63947619D01*
X140285714Y-63900000D01*
X140380952Y-63852380D01*
X140571428Y-63852380D01*
X140666666Y-63900000D01*
X140714285Y-63947619D01*
X140761904Y-64042857D01*
X140761904Y-64280952D01*
X140714285Y-64376190D01*
X140666666Y-64423809D01*
X140571428Y-64471428D01*
X140380952Y-64471428D01*
X140285714Y-64423809D01*
X140238095Y-64376190D01*
X140190476Y-64280952D01*
X171642857Y-81557142D02*
X171690476Y-81604761D01*
X171833333Y-81652380D01*
X171928571Y-81652380D01*
X172071428Y-81604761D01*
X172166666Y-81509523D01*
X172214285Y-81414285D01*
X172261904Y-81223809D01*
X172261904Y-81080952D01*
X172214285Y-80890476D01*
X172166666Y-80795238D01*
X172071428Y-80700000D01*
X171928571Y-80652380D01*
X171833333Y-80652380D01*
X171690476Y-80700000D01*
X171642857Y-80747619D01*
X170738095Y-80652380D02*
X171214285Y-80652380D01*
X171261904Y-81128571D01*
X171214285Y-81080952D01*
X171119047Y-81033333D01*
X170880952Y-81033333D01*
X170785714Y-81080952D01*
X170738095Y-81128571D01*
X170690476Y-81223809D01*
X170690476Y-81461904D01*
X170738095Y-81557142D01*
X170785714Y-81604761D01*
X170880952Y-81652380D01*
X171119047Y-81652380D01*
X171214285Y-81604761D01*
X171261904Y-81557142D01*
X169833333Y-80985714D02*
X169833333Y-81652380D01*
X170071428Y-80604761D02*
X170309523Y-81319047D01*
X169690476Y-81319047D01*
X176895238Y-75547619D02*
X176990476Y-75500000D01*
X177085714Y-75404761D01*
X177228571Y-75261904D01*
X177323809Y-75214285D01*
X177419047Y-75214285D01*
X177371428Y-75452380D02*
X177466666Y-75404761D01*
X177561904Y-75309523D01*
X177609523Y-75119047D01*
X177609523Y-74785714D01*
X177561904Y-74595238D01*
X177466666Y-74500000D01*
X177371428Y-74452380D01*
X177180952Y-74452380D01*
X177085714Y-74500000D01*
X176990476Y-74595238D01*
X176942857Y-74785714D01*
X176942857Y-75119047D01*
X176990476Y-75309523D01*
X177085714Y-75404761D01*
X177180952Y-75452380D01*
X177371428Y-75452380D01*
X175990476Y-75452380D02*
X176561904Y-75452380D01*
X176276190Y-75452380D02*
X176276190Y-74452380D01*
X176371428Y-74595238D01*
X176466666Y-74690476D01*
X176561904Y-74738095D01*
X176895238Y-69747619D02*
X176990476Y-69700000D01*
X177085714Y-69604761D01*
X177228571Y-69461904D01*
X177323809Y-69414285D01*
X177419047Y-69414285D01*
X177371428Y-69652380D02*
X177466666Y-69604761D01*
X177561904Y-69509523D01*
X177609523Y-69319047D01*
X177609523Y-68985714D01*
X177561904Y-68795238D01*
X177466666Y-68700000D01*
X177371428Y-68652380D01*
X177180952Y-68652380D01*
X177085714Y-68700000D01*
X176990476Y-68795238D01*
X176942857Y-68985714D01*
X176942857Y-69319047D01*
X176990476Y-69509523D01*
X177085714Y-69604761D01*
X177180952Y-69652380D01*
X177371428Y-69652380D01*
X176561904Y-68747619D02*
X176514285Y-68700000D01*
X176419047Y-68652380D01*
X176180952Y-68652380D01*
X176085714Y-68700000D01*
X176038095Y-68747619D01*
X175990476Y-68842857D01*
X175990476Y-68938095D01*
X176038095Y-69080952D01*
X176609523Y-69652380D01*
X175990476Y-69652380D01*
X167495238Y-115347619D02*
X167590476Y-115300000D01*
X167685714Y-115204761D01*
X167828571Y-115061904D01*
X167923809Y-115014285D01*
X168019047Y-115014285D01*
X167971428Y-115252380D02*
X168066666Y-115204761D01*
X168161904Y-115109523D01*
X168209523Y-114919047D01*
X168209523Y-114585714D01*
X168161904Y-114395238D01*
X168066666Y-114300000D01*
X167971428Y-114252380D01*
X167780952Y-114252380D01*
X167685714Y-114300000D01*
X167590476Y-114395238D01*
X167542857Y-114585714D01*
X167542857Y-114919047D01*
X167590476Y-115109523D01*
X167685714Y-115204761D01*
X167780952Y-115252380D01*
X167971428Y-115252380D01*
X167209523Y-114252380D02*
X166590476Y-114252380D01*
X166923809Y-114633333D01*
X166780952Y-114633333D01*
X166685714Y-114680952D01*
X166638095Y-114728571D01*
X166590476Y-114823809D01*
X166590476Y-115061904D01*
X166638095Y-115157142D01*
X166685714Y-115204761D01*
X166780952Y-115252380D01*
X167066666Y-115252380D01*
X167161904Y-115204761D01*
X167209523Y-115157142D01*
X138433333Y-132328571D02*
X138766666Y-132328571D01*
X138766666Y-132852380D02*
X138766666Y-131852380D01*
X138290476Y-131852380D01*
X137576190Y-132328571D02*
X137433333Y-132376190D01*
X137385714Y-132423809D01*
X137338095Y-132519047D01*
X137338095Y-132661904D01*
X137385714Y-132757142D01*
X137433333Y-132804761D01*
X137528571Y-132852380D01*
X137909523Y-132852380D01*
X137909523Y-131852380D01*
X137576190Y-131852380D01*
X137480952Y-131900000D01*
X137433333Y-131947619D01*
X137385714Y-132042857D01*
X137385714Y-132138095D01*
X137433333Y-132233333D01*
X137480952Y-132280952D01*
X137576190Y-132328571D01*
X137909523Y-132328571D01*
X136385714Y-132852380D02*
X136957142Y-132852380D01*
X136671428Y-132852380D02*
X136671428Y-131852380D01*
X136766666Y-131995238D01*
X136861904Y-132090476D01*
X136957142Y-132138095D01*
X164652380Y-67238095D02*
X165461904Y-67238095D01*
X165557142Y-67285714D01*
X165604761Y-67333333D01*
X165652380Y-67428571D01*
X165652380Y-67619047D01*
X165604761Y-67714285D01*
X165557142Y-67761904D01*
X165461904Y-67809523D01*
X164652380Y-67809523D01*
X164652380Y-68190476D02*
X164652380Y-68857142D01*
X165652380Y-68428571D01*
X159252380Y-66838095D02*
X160061904Y-66838095D01*
X160157142Y-66885714D01*
X160204761Y-66933333D01*
X160252380Y-67028571D01*
X160252380Y-67219047D01*
X160204761Y-67314285D01*
X160157142Y-67361904D01*
X160061904Y-67409523D01*
X159252380Y-67409523D01*
X159680952Y-68028571D02*
X159633333Y-67933333D01*
X159585714Y-67885714D01*
X159490476Y-67838095D01*
X159442857Y-67838095D01*
X159347619Y-67885714D01*
X159300000Y-67933333D01*
X159252380Y-68028571D01*
X159252380Y-68219047D01*
X159300000Y-68314285D01*
X159347619Y-68361904D01*
X159442857Y-68409523D01*
X159490476Y-68409523D01*
X159585714Y-68361904D01*
X159633333Y-68314285D01*
X159680952Y-68219047D01*
X159680952Y-68028571D01*
X159728571Y-67933333D01*
X159776190Y-67885714D01*
X159871428Y-67838095D01*
X160061904Y-67838095D01*
X160157142Y-67885714D01*
X160204761Y-67933333D01*
X160252380Y-68028571D01*
X160252380Y-68219047D01*
X160204761Y-68314285D01*
X160157142Y-68361904D01*
X160061904Y-68409523D01*
X159871428Y-68409523D01*
X159776190Y-68361904D01*
X159728571Y-68314285D01*
X159680952Y-68219047D01*
X142252380Y-78961904D02*
X143061904Y-78961904D01*
X143157142Y-79009523D01*
X143204761Y-79057142D01*
X143252380Y-79152380D01*
X143252380Y-79342857D01*
X143204761Y-79438095D01*
X143157142Y-79485714D01*
X143061904Y-79533333D01*
X142252380Y-79533333D01*
X143252380Y-80533333D02*
X143252380Y-79961904D01*
X143252380Y-80247619D02*
X142252380Y-80247619D01*
X142395238Y-80152380D01*
X142490476Y-80057142D01*
X142538095Y-79961904D01*
X142680952Y-81104761D02*
X142633333Y-81009523D01*
X142585714Y-80961904D01*
X142490476Y-80914285D01*
X142442857Y-80914285D01*
X142347619Y-80961904D01*
X142300000Y-81009523D01*
X142252380Y-81104761D01*
X142252380Y-81295238D01*
X142300000Y-81390476D01*
X142347619Y-81438095D01*
X142442857Y-81485714D01*
X142490476Y-81485714D01*
X142585714Y-81438095D01*
X142633333Y-81390476D01*
X142680952Y-81295238D01*
X142680952Y-81104761D01*
X142728571Y-81009523D01*
X142776190Y-80961904D01*
X142871428Y-80914285D01*
X143061904Y-80914285D01*
X143157142Y-80961904D01*
X143204761Y-81009523D01*
X143252380Y-81104761D01*
X143252380Y-81295238D01*
X143204761Y-81390476D01*
X143157142Y-81438095D01*
X143061904Y-81485714D01*
X142871428Y-81485714D01*
X142776190Y-81438095D01*
X142728571Y-81390476D01*
X142680952Y-81295238D01*
X188138095Y-98852380D02*
X188138095Y-97852380D01*
X187900000Y-97852380D01*
X187757142Y-97900000D01*
X187661904Y-97995238D01*
X187614285Y-98090476D01*
X187566666Y-98280952D01*
X187566666Y-98423809D01*
X187614285Y-98614285D01*
X187661904Y-98709523D01*
X187757142Y-98804761D01*
X187900000Y-98852380D01*
X188138095Y-98852380D01*
X186661904Y-97852380D02*
X187138095Y-97852380D01*
X187185714Y-98328571D01*
X187138095Y-98280952D01*
X187042857Y-98233333D01*
X186804761Y-98233333D01*
X186709523Y-98280952D01*
X186661904Y-98328571D01*
X186614285Y-98423809D01*
X186614285Y-98661904D01*
X186661904Y-98757142D01*
X186709523Y-98804761D01*
X186804761Y-98852380D01*
X187042857Y-98852380D01*
X187138095Y-98804761D01*
X187185714Y-98757142D01*
X162595238Y-97347619D02*
X162690476Y-97300000D01*
X162785714Y-97204761D01*
X162928571Y-97061904D01*
X163023809Y-97014285D01*
X163119047Y-97014285D01*
X163071428Y-97252380D02*
X163166666Y-97204761D01*
X163261904Y-97109523D01*
X163309523Y-96919047D01*
X163309523Y-96585714D01*
X163261904Y-96395238D01*
X163166666Y-96300000D01*
X163071428Y-96252380D01*
X162880952Y-96252380D01*
X162785714Y-96300000D01*
X162690476Y-96395238D01*
X162642857Y-96585714D01*
X162642857Y-96919047D01*
X162690476Y-97109523D01*
X162785714Y-97204761D01*
X162880952Y-97252380D01*
X163071428Y-97252380D01*
X161785714Y-96585714D02*
X161785714Y-97252380D01*
X162023809Y-96204761D02*
X162261904Y-96919047D01*
X161642857Y-96919047D01*
D14*
X170167619Y-61904523D02*
X170167619Y-62932619D01*
X170107142Y-63053571D01*
X170046666Y-63114047D01*
X169925714Y-63174523D01*
X169683809Y-63174523D01*
X169562857Y-63114047D01*
X169502380Y-63053571D01*
X169441904Y-62932619D01*
X169441904Y-61904523D01*
X168292857Y-62327857D02*
X168292857Y-63174523D01*
X168595238Y-61844047D02*
X168897619Y-62751190D01*
X168111428Y-62751190D01*
D13*
X163366666Y-65252380D02*
X163700000Y-64776190D01*
X163938095Y-65252380D02*
X163938095Y-64252380D01*
X163557142Y-64252380D01*
X163461904Y-64300000D01*
X163414285Y-64347619D01*
X163366666Y-64442857D01*
X163366666Y-64585714D01*
X163414285Y-64680952D01*
X163461904Y-64728571D01*
X163557142Y-64776190D01*
X163938095Y-64776190D01*
X162985714Y-64347619D02*
X162938095Y-64300000D01*
X162842857Y-64252380D01*
X162604761Y-64252380D01*
X162509523Y-64300000D01*
X162461904Y-64347619D01*
X162414285Y-64442857D01*
X162414285Y-64538095D01*
X162461904Y-64680952D01*
X163033333Y-65252380D01*
X162414285Y-65252380D01*
X156052380Y-73833333D02*
X155576190Y-73500000D01*
X156052380Y-73261904D02*
X155052380Y-73261904D01*
X155052380Y-73642857D01*
X155100000Y-73738095D01*
X155147619Y-73785714D01*
X155242857Y-73833333D01*
X155385714Y-73833333D01*
X155480952Y-73785714D01*
X155528571Y-73738095D01*
X155576190Y-73642857D01*
X155576190Y-73261904D01*
X155052380Y-74166666D02*
X155052380Y-74785714D01*
X155433333Y-74452380D01*
X155433333Y-74595238D01*
X155480952Y-74690476D01*
X155528571Y-74738095D01*
X155623809Y-74785714D01*
X155861904Y-74785714D01*
X155957142Y-74738095D01*
X156004761Y-74690476D01*
X156052380Y-74595238D01*
X156052380Y-74309523D01*
X156004761Y-74214285D01*
X155957142Y-74166666D01*
X120652380Y-71533333D02*
X120176190Y-71200000D01*
X120652380Y-70961904D02*
X119652380Y-70961904D01*
X119652380Y-71342857D01*
X119700000Y-71438095D01*
X119747619Y-71485714D01*
X119842857Y-71533333D01*
X119985714Y-71533333D01*
X120080952Y-71485714D01*
X120128571Y-71438095D01*
X120176190Y-71342857D01*
X120176190Y-70961904D01*
X119652380Y-72438095D02*
X119652380Y-71961904D01*
X120128571Y-71914285D01*
X120080952Y-71961904D01*
X120033333Y-72057142D01*
X120033333Y-72295238D01*
X120080952Y-72390476D01*
X120128571Y-72438095D01*
X120223809Y-72485714D01*
X120461904Y-72485714D01*
X120557142Y-72438095D01*
X120604761Y-72390476D01*
X120652380Y-72295238D01*
X120652380Y-72057142D01*
X120604761Y-71961904D01*
X120557142Y-71914285D01*
X125652380Y-71533333D02*
X125176190Y-71200000D01*
X125652380Y-70961904D02*
X124652380Y-70961904D01*
X124652380Y-71342857D01*
X124700000Y-71438095D01*
X124747619Y-71485714D01*
X124842857Y-71533333D01*
X124985714Y-71533333D01*
X125080952Y-71485714D01*
X125128571Y-71438095D01*
X125176190Y-71342857D01*
X125176190Y-70961904D01*
X124652380Y-72390476D02*
X124652380Y-72200000D01*
X124700000Y-72104761D01*
X124747619Y-72057142D01*
X124890476Y-71961904D01*
X125080952Y-71914285D01*
X125461904Y-71914285D01*
X125557142Y-71961904D01*
X125604761Y-72009523D01*
X125652380Y-72104761D01*
X125652380Y-72295238D01*
X125604761Y-72390476D01*
X125557142Y-72438095D01*
X125461904Y-72485714D01*
X125223809Y-72485714D01*
X125128571Y-72438095D01*
X125080952Y-72390476D01*
X125033333Y-72295238D01*
X125033333Y-72104761D01*
X125080952Y-72009523D01*
X125128571Y-71961904D01*
X125223809Y-71914285D01*
X146166666Y-64852380D02*
X146500000Y-64376190D01*
X146738095Y-64852380D02*
X146738095Y-63852380D01*
X146357142Y-63852380D01*
X146261904Y-63900000D01*
X146214285Y-63947619D01*
X146166666Y-64042857D01*
X146166666Y-64185714D01*
X146214285Y-64280952D01*
X146261904Y-64328571D01*
X146357142Y-64376190D01*
X146738095Y-64376190D01*
X145833333Y-63852380D02*
X145166666Y-63852380D01*
X145595238Y-64852380D01*
X145966666Y-69652380D02*
X146300000Y-69176190D01*
X146538095Y-69652380D02*
X146538095Y-68652380D01*
X146157142Y-68652380D01*
X146061904Y-68700000D01*
X146014285Y-68747619D01*
X145966666Y-68842857D01*
X145966666Y-68985714D01*
X146014285Y-69080952D01*
X146061904Y-69128571D01*
X146157142Y-69176190D01*
X146538095Y-69176190D01*
X145395238Y-69080952D02*
X145490476Y-69033333D01*
X145538095Y-68985714D01*
X145585714Y-68890476D01*
X145585714Y-68842857D01*
X145538095Y-68747619D01*
X145490476Y-68700000D01*
X145395238Y-68652380D01*
X145204761Y-68652380D01*
X145109523Y-68700000D01*
X145061904Y-68747619D01*
X145014285Y-68842857D01*
X145014285Y-68890476D01*
X145061904Y-68985714D01*
X145109523Y-69033333D01*
X145204761Y-69080952D01*
X145395238Y-69080952D01*
X145490476Y-69128571D01*
X145538095Y-69176190D01*
X145585714Y-69271428D01*
X145585714Y-69461904D01*
X145538095Y-69557142D01*
X145490476Y-69604761D01*
X145395238Y-69652380D01*
X145204761Y-69652380D01*
X145109523Y-69604761D01*
X145061904Y-69557142D01*
X145014285Y-69461904D01*
X145014285Y-69271428D01*
X145061904Y-69176190D01*
X145109523Y-69128571D01*
X145204761Y-69080952D01*
X130452380Y-79657142D02*
X129976190Y-79323809D01*
X130452380Y-79085714D02*
X129452380Y-79085714D01*
X129452380Y-79466666D01*
X129500000Y-79561904D01*
X129547619Y-79609523D01*
X129642857Y-79657142D01*
X129785714Y-79657142D01*
X129880952Y-79609523D01*
X129928571Y-79561904D01*
X129976190Y-79466666D01*
X129976190Y-79085714D01*
X130452380Y-80609523D02*
X130452380Y-80038095D01*
X130452380Y-80323809D02*
X129452380Y-80323809D01*
X129595238Y-80228571D01*
X129690476Y-80133333D01*
X129738095Y-80038095D01*
X129452380Y-81466666D02*
X129452380Y-81276190D01*
X129500000Y-81180952D01*
X129547619Y-81133333D01*
X129690476Y-81038095D01*
X129880952Y-80990476D01*
X130261904Y-80990476D01*
X130357142Y-81038095D01*
X130404761Y-81085714D01*
X130452380Y-81180952D01*
X130452380Y-81371428D01*
X130404761Y-81466666D01*
X130357142Y-81514285D01*
X130261904Y-81561904D01*
X130023809Y-81561904D01*
X129928571Y-81514285D01*
X129880952Y-81466666D01*
X129833333Y-81371428D01*
X129833333Y-81180952D01*
X129880952Y-81085714D01*
X129928571Y-81038095D01*
X130023809Y-80990476D01*
X158252380Y-117157142D02*
X157776190Y-116823809D01*
X158252380Y-116585714D02*
X157252380Y-116585714D01*
X157252380Y-116966666D01*
X157300000Y-117061904D01*
X157347619Y-117109523D01*
X157442857Y-117157142D01*
X157585714Y-117157142D01*
X157680952Y-117109523D01*
X157728571Y-117061904D01*
X157776190Y-116966666D01*
X157776190Y-116585714D01*
X157252380Y-117490476D02*
X157252380Y-118109523D01*
X157633333Y-117776190D01*
X157633333Y-117919047D01*
X157680952Y-118014285D01*
X157728571Y-118061904D01*
X157823809Y-118109523D01*
X158061904Y-118109523D01*
X158157142Y-118061904D01*
X158204761Y-118014285D01*
X158252380Y-117919047D01*
X158252380Y-117633333D01*
X158204761Y-117538095D01*
X158157142Y-117490476D01*
X157585714Y-118966666D02*
X158252380Y-118966666D01*
X157204761Y-118728571D02*
X157919047Y-118490476D01*
X157919047Y-119109523D01*
X181682380Y-71957142D02*
X181206190Y-71623809D01*
X181682380Y-71385714D02*
X180682380Y-71385714D01*
X180682380Y-71766666D01*
X180730000Y-71861904D01*
X180777619Y-71909523D01*
X180872857Y-71957142D01*
X181015714Y-71957142D01*
X181110952Y-71909523D01*
X181158571Y-71861904D01*
X181206190Y-71766666D01*
X181206190Y-71385714D01*
X180682380Y-72290476D02*
X180682380Y-72909523D01*
X181063333Y-72576190D01*
X181063333Y-72719047D01*
X181110952Y-72814285D01*
X181158571Y-72861904D01*
X181253809Y-72909523D01*
X181491904Y-72909523D01*
X181587142Y-72861904D01*
X181634761Y-72814285D01*
X181682380Y-72719047D01*
X181682380Y-72433333D01*
X181634761Y-72338095D01*
X181587142Y-72290476D01*
X180682380Y-73814285D02*
X180682380Y-73338095D01*
X181158571Y-73290476D01*
X181110952Y-73338095D01*
X181063333Y-73433333D01*
X181063333Y-73671428D01*
X181110952Y-73766666D01*
X181158571Y-73814285D01*
X181253809Y-73861904D01*
X181491904Y-73861904D01*
X181587142Y-73814285D01*
X181634761Y-73766666D01*
X181682380Y-73671428D01*
X181682380Y-73433333D01*
X181634761Y-73338095D01*
X181587142Y-73290476D01*
X175452380Y-72757142D02*
X174976190Y-72423809D01*
X175452380Y-72185714D02*
X174452380Y-72185714D01*
X174452380Y-72566666D01*
X174500000Y-72661904D01*
X174547619Y-72709523D01*
X174642857Y-72757142D01*
X174785714Y-72757142D01*
X174880952Y-72709523D01*
X174928571Y-72661904D01*
X174976190Y-72566666D01*
X174976190Y-72185714D01*
X174452380Y-73090476D02*
X174452380Y-73709523D01*
X174833333Y-73376190D01*
X174833333Y-73519047D01*
X174880952Y-73614285D01*
X174928571Y-73661904D01*
X175023809Y-73709523D01*
X175261904Y-73709523D01*
X175357142Y-73661904D01*
X175404761Y-73614285D01*
X175452380Y-73519047D01*
X175452380Y-73233333D01*
X175404761Y-73138095D01*
X175357142Y-73090476D01*
X174452380Y-74566666D02*
X174452380Y-74376190D01*
X174500000Y-74280952D01*
X174547619Y-74233333D01*
X174690476Y-74138095D01*
X174880952Y-74090476D01*
X175261904Y-74090476D01*
X175357142Y-74138095D01*
X175404761Y-74185714D01*
X175452380Y-74280952D01*
X175452380Y-74471428D01*
X175404761Y-74566666D01*
X175357142Y-74614285D01*
X175261904Y-74661904D01*
X175023809Y-74661904D01*
X174928571Y-74614285D01*
X174880952Y-74566666D01*
X174833333Y-74471428D01*
X174833333Y-74280952D01*
X174880952Y-74185714D01*
X174928571Y-74138095D01*
X175023809Y-74090476D01*
X169130357Y-74652380D02*
X169463690Y-74176190D01*
X169701785Y-74652380D02*
X169701785Y-73652380D01*
X169320833Y-73652380D01*
X169225595Y-73700000D01*
X169177976Y-73747619D01*
X169130357Y-73842857D01*
X169130357Y-73985714D01*
X169177976Y-74080952D01*
X169225595Y-74128571D01*
X169320833Y-74176190D01*
X169701785Y-74176190D01*
X168797023Y-73652380D02*
X168177976Y-73652380D01*
X168511309Y-74033333D01*
X168368452Y-74033333D01*
X168273214Y-74080952D01*
X168225595Y-74128571D01*
X168177976Y-74223809D01*
X168177976Y-74461904D01*
X168225595Y-74557142D01*
X168273214Y-74604761D01*
X168368452Y-74652380D01*
X168654166Y-74652380D01*
X168749404Y-74604761D01*
X168797023Y-74557142D01*
X167844642Y-73652380D02*
X167177976Y-73652380D01*
X167606547Y-74652380D01*
X174682380Y-66757142D02*
X174206190Y-66423809D01*
X174682380Y-66185714D02*
X173682380Y-66185714D01*
X173682380Y-66566666D01*
X173730000Y-66661904D01*
X173777619Y-66709523D01*
X173872857Y-66757142D01*
X174015714Y-66757142D01*
X174110952Y-66709523D01*
X174158571Y-66661904D01*
X174206190Y-66566666D01*
X174206190Y-66185714D01*
X173682380Y-67090476D02*
X173682380Y-67709523D01*
X174063333Y-67376190D01*
X174063333Y-67519047D01*
X174110952Y-67614285D01*
X174158571Y-67661904D01*
X174253809Y-67709523D01*
X174491904Y-67709523D01*
X174587142Y-67661904D01*
X174634761Y-67614285D01*
X174682380Y-67519047D01*
X174682380Y-67233333D01*
X174634761Y-67138095D01*
X174587142Y-67090476D01*
X174110952Y-68280952D02*
X174063333Y-68185714D01*
X174015714Y-68138095D01*
X173920476Y-68090476D01*
X173872857Y-68090476D01*
X173777619Y-68138095D01*
X173730000Y-68185714D01*
X173682380Y-68280952D01*
X173682380Y-68471428D01*
X173730000Y-68566666D01*
X173777619Y-68614285D01*
X173872857Y-68661904D01*
X173920476Y-68661904D01*
X174015714Y-68614285D01*
X174063333Y-68566666D01*
X174110952Y-68471428D01*
X174110952Y-68280952D01*
X174158571Y-68185714D01*
X174206190Y-68138095D01*
X174301428Y-68090476D01*
X174491904Y-68090476D01*
X174587142Y-68138095D01*
X174634761Y-68185714D01*
X174682380Y-68280952D01*
X174682380Y-68471428D01*
X174634761Y-68566666D01*
X174587142Y-68614285D01*
X174491904Y-68661904D01*
X174301428Y-68661904D01*
X174206190Y-68614285D01*
X174158571Y-68566666D01*
X174110952Y-68471428D01*
X168422380Y-118157142D02*
X167946190Y-117823809D01*
X168422380Y-117585714D02*
X167422380Y-117585714D01*
X167422380Y-117966666D01*
X167470000Y-118061904D01*
X167517619Y-118109523D01*
X167612857Y-118157142D01*
X167755714Y-118157142D01*
X167850952Y-118109523D01*
X167898571Y-118061904D01*
X167946190Y-117966666D01*
X167946190Y-117585714D01*
X167422380Y-118490476D02*
X167422380Y-119109523D01*
X167803333Y-118776190D01*
X167803333Y-118919047D01*
X167850952Y-119014285D01*
X167898571Y-119061904D01*
X167993809Y-119109523D01*
X168231904Y-119109523D01*
X168327142Y-119061904D01*
X168374761Y-119014285D01*
X168422380Y-118919047D01*
X168422380Y-118633333D01*
X168374761Y-118538095D01*
X168327142Y-118490476D01*
X168422380Y-119585714D02*
X168422380Y-119776190D01*
X168374761Y-119871428D01*
X168327142Y-119919047D01*
X168184285Y-120014285D01*
X167993809Y-120061904D01*
X167612857Y-120061904D01*
X167517619Y-120014285D01*
X167470000Y-119966666D01*
X167422380Y-119871428D01*
X167422380Y-119680952D01*
X167470000Y-119585714D01*
X167517619Y-119538095D01*
X167612857Y-119490476D01*
X167850952Y-119490476D01*
X167946190Y-119538095D01*
X167993809Y-119585714D01*
X168041428Y-119680952D01*
X168041428Y-119871428D01*
X167993809Y-119966666D01*
X167946190Y-120014285D01*
X167850952Y-120061904D01*
X159742857Y-102452380D02*
X160076190Y-101976190D01*
X160314285Y-102452380D02*
X160314285Y-101452380D01*
X159933333Y-101452380D01*
X159838095Y-101500000D01*
X159790476Y-101547619D01*
X159742857Y-101642857D01*
X159742857Y-101785714D01*
X159790476Y-101880952D01*
X159838095Y-101928571D01*
X159933333Y-101976190D01*
X160314285Y-101976190D01*
X158885714Y-101785714D02*
X158885714Y-102452380D01*
X159123809Y-101404761D02*
X159361904Y-102119047D01*
X158742857Y-102119047D01*
X158171428Y-101452380D02*
X158076190Y-101452380D01*
X157980952Y-101500000D01*
X157933333Y-101547619D01*
X157885714Y-101642857D01*
X157838095Y-101833333D01*
X157838095Y-102071428D01*
X157885714Y-102261904D01*
X157933333Y-102357142D01*
X157980952Y-102404761D01*
X158076190Y-102452380D01*
X158171428Y-102452380D01*
X158266666Y-102404761D01*
X158314285Y-102357142D01*
X158361904Y-102261904D01*
X158409523Y-102071428D01*
X158409523Y-101833333D01*
X158361904Y-101642857D01*
X158314285Y-101547619D01*
X158266666Y-101500000D01*
X158171428Y-101452380D01*
X143242857Y-73652380D02*
X143576190Y-73176190D01*
X143814285Y-73652380D02*
X143814285Y-72652380D01*
X143433333Y-72652380D01*
X143338095Y-72700000D01*
X143290476Y-72747619D01*
X143242857Y-72842857D01*
X143242857Y-72985714D01*
X143290476Y-73080952D01*
X143338095Y-73128571D01*
X143433333Y-73176190D01*
X143814285Y-73176190D01*
X142385714Y-72985714D02*
X142385714Y-73652380D01*
X142623809Y-72604761D02*
X142861904Y-73319047D01*
X142242857Y-73319047D01*
X141957142Y-72652380D02*
X141290476Y-72652380D01*
X141719047Y-73652380D01*
X132266666Y-132757142D02*
X132314285Y-132804761D01*
X132457142Y-132852380D01*
X132552380Y-132852380D01*
X132695238Y-132804761D01*
X132790476Y-132709523D01*
X132838095Y-132614285D01*
X132885714Y-132423809D01*
X132885714Y-132280952D01*
X132838095Y-132090476D01*
X132790476Y-131995238D01*
X132695238Y-131900000D01*
X132552380Y-131852380D01*
X132457142Y-131852380D01*
X132314285Y-131900000D01*
X132266666Y-131947619D01*
X131885714Y-131947619D02*
X131838095Y-131900000D01*
X131742857Y-131852380D01*
X131504761Y-131852380D01*
X131409523Y-131900000D01*
X131361904Y-131947619D01*
X131314285Y-132042857D01*
X131314285Y-132138095D01*
X131361904Y-132280952D01*
X131933333Y-132852380D01*
X131314285Y-132852380D01*
X153766666Y-69357142D02*
X153814285Y-69404761D01*
X153957142Y-69452380D01*
X154052380Y-69452380D01*
X154195238Y-69404761D01*
X154290476Y-69309523D01*
X154338095Y-69214285D01*
X154385714Y-69023809D01*
X154385714Y-68880952D01*
X154338095Y-68690476D01*
X154290476Y-68595238D01*
X154195238Y-68500000D01*
X154052380Y-68452380D01*
X153957142Y-68452380D01*
X153814285Y-68500000D01*
X153766666Y-68547619D01*
X152909523Y-68785714D02*
X152909523Y-69452380D01*
X153147619Y-68404761D02*
X153385714Y-69119047D01*
X152766666Y-69119047D01*
X156557142Y-61033333D02*
X156604761Y-60985714D01*
X156652380Y-60842857D01*
X156652380Y-60747619D01*
X156604761Y-60604761D01*
X156509523Y-60509523D01*
X156414285Y-60461904D01*
X156223809Y-60414285D01*
X156080952Y-60414285D01*
X155890476Y-60461904D01*
X155795238Y-60509523D01*
X155700000Y-60604761D01*
X155652380Y-60747619D01*
X155652380Y-60842857D01*
X155700000Y-60985714D01*
X155747619Y-61033333D01*
X155652380Y-61890476D02*
X155652380Y-61700000D01*
X155700000Y-61604761D01*
X155747619Y-61557142D01*
X155890476Y-61461904D01*
X156080952Y-61414285D01*
X156461904Y-61414285D01*
X156557142Y-61461904D01*
X156604761Y-61509523D01*
X156652380Y-61604761D01*
X156652380Y-61795238D01*
X156604761Y-61890476D01*
X156557142Y-61938095D01*
X156461904Y-61985714D01*
X156223809Y-61985714D01*
X156128571Y-61938095D01*
X156080952Y-61890476D01*
X156033333Y-61795238D01*
X156033333Y-61604761D01*
X156080952Y-61509523D01*
X156128571Y-61461904D01*
X156223809Y-61414285D01*
X143157142Y-88857142D02*
X143204761Y-88809523D01*
X143252380Y-88666666D01*
X143252380Y-88571428D01*
X143204761Y-88428571D01*
X143109523Y-88333333D01*
X143014285Y-88285714D01*
X142823809Y-88238095D01*
X142680952Y-88238095D01*
X142490476Y-88285714D01*
X142395238Y-88333333D01*
X142300000Y-88428571D01*
X142252380Y-88571428D01*
X142252380Y-88666666D01*
X142300000Y-88809523D01*
X142347619Y-88857142D01*
X143252380Y-89809523D02*
X143252380Y-89238095D01*
X143252380Y-89523809D02*
X142252380Y-89523809D01*
X142395238Y-89428571D01*
X142490476Y-89333333D01*
X142538095Y-89238095D01*
X142585714Y-90666666D02*
X143252380Y-90666666D01*
X142204761Y-90428571D02*
X142919047Y-90190476D01*
X142919047Y-90809523D01*
X132942857Y-103757142D02*
X132990476Y-103804761D01*
X133133333Y-103852380D01*
X133228571Y-103852380D01*
X133371428Y-103804761D01*
X133466666Y-103709523D01*
X133514285Y-103614285D01*
X133561904Y-103423809D01*
X133561904Y-103280952D01*
X133514285Y-103090476D01*
X133466666Y-102995238D01*
X133371428Y-102900000D01*
X133228571Y-102852380D01*
X133133333Y-102852380D01*
X132990476Y-102900000D01*
X132942857Y-102947619D01*
X131990476Y-103852380D02*
X132561904Y-103852380D01*
X132276190Y-103852380D02*
X132276190Y-102852380D01*
X132371428Y-102995238D01*
X132466666Y-103090476D01*
X132561904Y-103138095D01*
X131085714Y-102852380D02*
X131561904Y-102852380D01*
X131609523Y-103328571D01*
X131561904Y-103280952D01*
X131466666Y-103233333D01*
X131228571Y-103233333D01*
X131133333Y-103280952D01*
X131085714Y-103328571D01*
X131038095Y-103423809D01*
X131038095Y-103661904D01*
X131085714Y-103757142D01*
X131133333Y-103804761D01*
X131228571Y-103852380D01*
X131466666Y-103852380D01*
X131561904Y-103804761D01*
X131609523Y-103757142D01*
X126757142Y-75957142D02*
X126804761Y-75909523D01*
X126852380Y-75766666D01*
X126852380Y-75671428D01*
X126804761Y-75528571D01*
X126709523Y-75433333D01*
X126614285Y-75385714D01*
X126423809Y-75338095D01*
X126280952Y-75338095D01*
X126090476Y-75385714D01*
X125995238Y-75433333D01*
X125900000Y-75528571D01*
X125852380Y-75671428D01*
X125852380Y-75766666D01*
X125900000Y-75909523D01*
X125947619Y-75957142D01*
X126852380Y-76909523D02*
X126852380Y-76338095D01*
X126852380Y-76623809D02*
X125852380Y-76623809D01*
X125995238Y-76528571D01*
X126090476Y-76433333D01*
X126138095Y-76338095D01*
X125852380Y-77766666D02*
X125852380Y-77576190D01*
X125900000Y-77480952D01*
X125947619Y-77433333D01*
X126090476Y-77338095D01*
X126280952Y-77290476D01*
X126661904Y-77290476D01*
X126757142Y-77338095D01*
X126804761Y-77385714D01*
X126852380Y-77480952D01*
X126852380Y-77671428D01*
X126804761Y-77766666D01*
X126757142Y-77814285D01*
X126661904Y-77861904D01*
X126423809Y-77861904D01*
X126328571Y-77814285D01*
X126280952Y-77766666D01*
X126233333Y-77671428D01*
X126233333Y-77480952D01*
X126280952Y-77385714D01*
X126328571Y-77338095D01*
X126423809Y-77290476D01*
X149242857Y-95757142D02*
X149290476Y-95804761D01*
X149433333Y-95852380D01*
X149528571Y-95852380D01*
X149671428Y-95804761D01*
X149766666Y-95709523D01*
X149814285Y-95614285D01*
X149861904Y-95423809D01*
X149861904Y-95280952D01*
X149814285Y-95090476D01*
X149766666Y-94995238D01*
X149671428Y-94900000D01*
X149528571Y-94852380D01*
X149433333Y-94852380D01*
X149290476Y-94900000D01*
X149242857Y-94947619D01*
X148290476Y-95852380D02*
X148861904Y-95852380D01*
X148576190Y-95852380D02*
X148576190Y-94852380D01*
X148671428Y-94995238D01*
X148766666Y-95090476D01*
X148861904Y-95138095D01*
X147814285Y-95852380D02*
X147623809Y-95852380D01*
X147528571Y-95804761D01*
X147480952Y-95757142D01*
X147385714Y-95614285D01*
X147338095Y-95423809D01*
X147338095Y-95042857D01*
X147385714Y-94947619D01*
X147433333Y-94900000D01*
X147528571Y-94852380D01*
X147719047Y-94852380D01*
X147814285Y-94900000D01*
X147861904Y-94947619D01*
X147909523Y-95042857D01*
X147909523Y-95280952D01*
X147861904Y-95376190D01*
X147814285Y-95423809D01*
X147719047Y-95471428D01*
X147528571Y-95471428D01*
X147433333Y-95423809D01*
X147385714Y-95376190D01*
X147338095Y-95280952D01*
X149242857Y-103757142D02*
X149290476Y-103804761D01*
X149433333Y-103852380D01*
X149528571Y-103852380D01*
X149671428Y-103804761D01*
X149766666Y-103709523D01*
X149814285Y-103614285D01*
X149861904Y-103423809D01*
X149861904Y-103280952D01*
X149814285Y-103090476D01*
X149766666Y-102995238D01*
X149671428Y-102900000D01*
X149528571Y-102852380D01*
X149433333Y-102852380D01*
X149290476Y-102900000D01*
X149242857Y-102947619D01*
X148861904Y-102947619D02*
X148814285Y-102900000D01*
X148719047Y-102852380D01*
X148480952Y-102852380D01*
X148385714Y-102900000D01*
X148338095Y-102947619D01*
X148290476Y-103042857D01*
X148290476Y-103138095D01*
X148338095Y-103280952D01*
X148909523Y-103852380D01*
X148290476Y-103852380D01*
X147671428Y-102852380D02*
X147576190Y-102852380D01*
X147480952Y-102900000D01*
X147433333Y-102947619D01*
X147385714Y-103042857D01*
X147338095Y-103233333D01*
X147338095Y-103471428D01*
X147385714Y-103661904D01*
X147433333Y-103757142D01*
X147480952Y-103804761D01*
X147576190Y-103852380D01*
X147671428Y-103852380D01*
X147766666Y-103804761D01*
X147814285Y-103757142D01*
X147861904Y-103661904D01*
X147909523Y-103471428D01*
X147909523Y-103233333D01*
X147861904Y-103042857D01*
X147814285Y-102947619D01*
X147766666Y-102900000D01*
X147671428Y-102852380D01*
X138157142Y-88857142D02*
X138204761Y-88809523D01*
X138252380Y-88666666D01*
X138252380Y-88571428D01*
X138204761Y-88428571D01*
X138109523Y-88333333D01*
X138014285Y-88285714D01*
X137823809Y-88238095D01*
X137680952Y-88238095D01*
X137490476Y-88285714D01*
X137395238Y-88333333D01*
X137300000Y-88428571D01*
X137252380Y-88571428D01*
X137252380Y-88666666D01*
X137300000Y-88809523D01*
X137347619Y-88857142D01*
X137347619Y-89238095D02*
X137300000Y-89285714D01*
X137252380Y-89380952D01*
X137252380Y-89619047D01*
X137300000Y-89714285D01*
X137347619Y-89761904D01*
X137442857Y-89809523D01*
X137538095Y-89809523D01*
X137680952Y-89761904D01*
X138252380Y-89190476D01*
X138252380Y-89809523D01*
X137252380Y-90142857D02*
X137252380Y-90761904D01*
X137633333Y-90428571D01*
X137633333Y-90571428D01*
X137680952Y-90666666D01*
X137728571Y-90714285D01*
X137823809Y-90761904D01*
X138061904Y-90761904D01*
X138157142Y-90714285D01*
X138204761Y-90666666D01*
X138252380Y-90571428D01*
X138252380Y-90285714D01*
X138204761Y-90190476D01*
X138157142Y-90142857D01*
X132942857Y-96757142D02*
X132990476Y-96804761D01*
X133133333Y-96852380D01*
X133228571Y-96852380D01*
X133371428Y-96804761D01*
X133466666Y-96709523D01*
X133514285Y-96614285D01*
X133561904Y-96423809D01*
X133561904Y-96280952D01*
X133514285Y-96090476D01*
X133466666Y-95995238D01*
X133371428Y-95900000D01*
X133228571Y-95852380D01*
X133133333Y-95852380D01*
X132990476Y-95900000D01*
X132942857Y-95947619D01*
X132561904Y-95947619D02*
X132514285Y-95900000D01*
X132419047Y-95852380D01*
X132180952Y-95852380D01*
X132085714Y-95900000D01*
X132038095Y-95947619D01*
X131990476Y-96042857D01*
X131990476Y-96138095D01*
X132038095Y-96280952D01*
X132609523Y-96852380D01*
X131990476Y-96852380D01*
X131133333Y-96185714D02*
X131133333Y-96852380D01*
X131371428Y-95804761D02*
X131609523Y-96519047D01*
X130990476Y-96519047D01*
X132942857Y-101857142D02*
X132990476Y-101904761D01*
X133133333Y-101952380D01*
X133228571Y-101952380D01*
X133371428Y-101904761D01*
X133466666Y-101809523D01*
X133514285Y-101714285D01*
X133561904Y-101523809D01*
X133561904Y-101380952D01*
X133514285Y-101190476D01*
X133466666Y-101095238D01*
X133371428Y-101000000D01*
X133228571Y-100952380D01*
X133133333Y-100952380D01*
X132990476Y-101000000D01*
X132942857Y-101047619D01*
X132561904Y-101047619D02*
X132514285Y-101000000D01*
X132419047Y-100952380D01*
X132180952Y-100952380D01*
X132085714Y-101000000D01*
X132038095Y-101047619D01*
X131990476Y-101142857D01*
X131990476Y-101238095D01*
X132038095Y-101380952D01*
X132609523Y-101952380D01*
X131990476Y-101952380D01*
X131133333Y-100952380D02*
X131323809Y-100952380D01*
X131419047Y-101000000D01*
X131466666Y-101047619D01*
X131561904Y-101190476D01*
X131609523Y-101380952D01*
X131609523Y-101761904D01*
X131561904Y-101857142D01*
X131514285Y-101904761D01*
X131419047Y-101952380D01*
X131228571Y-101952380D01*
X131133333Y-101904761D01*
X131085714Y-101857142D01*
X131038095Y-101761904D01*
X131038095Y-101523809D01*
X131085714Y-101428571D01*
X131133333Y-101380952D01*
X131228571Y-101333333D01*
X131419047Y-101333333D01*
X131514285Y-101380952D01*
X131561904Y-101428571D01*
X131609523Y-101523809D01*
X149242857Y-94157142D02*
X149290476Y-94204761D01*
X149433333Y-94252380D01*
X149528571Y-94252380D01*
X149671428Y-94204761D01*
X149766666Y-94109523D01*
X149814285Y-94014285D01*
X149861904Y-93823809D01*
X149861904Y-93680952D01*
X149814285Y-93490476D01*
X149766666Y-93395238D01*
X149671428Y-93300000D01*
X149528571Y-93252380D01*
X149433333Y-93252380D01*
X149290476Y-93300000D01*
X149242857Y-93347619D01*
X148861904Y-93347619D02*
X148814285Y-93300000D01*
X148719047Y-93252380D01*
X148480952Y-93252380D01*
X148385714Y-93300000D01*
X148338095Y-93347619D01*
X148290476Y-93442857D01*
X148290476Y-93538095D01*
X148338095Y-93680952D01*
X148909523Y-94252380D01*
X148290476Y-94252380D01*
X147957142Y-93252380D02*
X147290476Y-93252380D01*
X147719047Y-94252380D01*
X132942857Y-98757142D02*
X132990476Y-98804761D01*
X133133333Y-98852380D01*
X133228571Y-98852380D01*
X133371428Y-98804761D01*
X133466666Y-98709523D01*
X133514285Y-98614285D01*
X133561904Y-98423809D01*
X133561904Y-98280952D01*
X133514285Y-98090476D01*
X133466666Y-97995238D01*
X133371428Y-97900000D01*
X133228571Y-97852380D01*
X133133333Y-97852380D01*
X132990476Y-97900000D01*
X132942857Y-97947619D01*
X132561904Y-97947619D02*
X132514285Y-97900000D01*
X132419047Y-97852380D01*
X132180952Y-97852380D01*
X132085714Y-97900000D01*
X132038095Y-97947619D01*
X131990476Y-98042857D01*
X131990476Y-98138095D01*
X132038095Y-98280952D01*
X132609523Y-98852380D01*
X131990476Y-98852380D01*
X131419047Y-98280952D02*
X131514285Y-98233333D01*
X131561904Y-98185714D01*
X131609523Y-98090476D01*
X131609523Y-98042857D01*
X131561904Y-97947619D01*
X131514285Y-97900000D01*
X131419047Y-97852380D01*
X131228571Y-97852380D01*
X131133333Y-97900000D01*
X131085714Y-97947619D01*
X131038095Y-98042857D01*
X131038095Y-98090476D01*
X131085714Y-98185714D01*
X131133333Y-98233333D01*
X131228571Y-98280952D01*
X131419047Y-98280952D01*
X131514285Y-98328571D01*
X131561904Y-98376190D01*
X131609523Y-98471428D01*
X131609523Y-98661904D01*
X131561904Y-98757142D01*
X131514285Y-98804761D01*
X131419047Y-98852380D01*
X131228571Y-98852380D01*
X131133333Y-98804761D01*
X131085714Y-98757142D01*
X131038095Y-98661904D01*
X131038095Y-98471428D01*
X131085714Y-98376190D01*
X131133333Y-98328571D01*
X131228571Y-98280952D01*
X145257142Y-88857142D02*
X145304761Y-88809523D01*
X145352380Y-88666666D01*
X145352380Y-88571428D01*
X145304761Y-88428571D01*
X145209523Y-88333333D01*
X145114285Y-88285714D01*
X144923809Y-88238095D01*
X144780952Y-88238095D01*
X144590476Y-88285714D01*
X144495238Y-88333333D01*
X144400000Y-88428571D01*
X144352380Y-88571428D01*
X144352380Y-88666666D01*
X144400000Y-88809523D01*
X144447619Y-88857142D01*
X144447619Y-89238095D02*
X144400000Y-89285714D01*
X144352380Y-89380952D01*
X144352380Y-89619047D01*
X144400000Y-89714285D01*
X144447619Y-89761904D01*
X144542857Y-89809523D01*
X144638095Y-89809523D01*
X144780952Y-89761904D01*
X145352380Y-89190476D01*
X145352380Y-89809523D01*
X145352380Y-90285714D02*
X145352380Y-90476190D01*
X145304761Y-90571428D01*
X145257142Y-90619047D01*
X145114285Y-90714285D01*
X144923809Y-90761904D01*
X144542857Y-90761904D01*
X144447619Y-90714285D01*
X144400000Y-90666666D01*
X144352380Y-90571428D01*
X144352380Y-90380952D01*
X144400000Y-90285714D01*
X144447619Y-90238095D01*
X144542857Y-90190476D01*
X144780952Y-90190476D01*
X144876190Y-90238095D01*
X144923809Y-90285714D01*
X144971428Y-90380952D01*
X144971428Y-90571428D01*
X144923809Y-90666666D01*
X144876190Y-90714285D01*
X144780952Y-90761904D01*
X140557142Y-109857142D02*
X140604761Y-109809523D01*
X140652380Y-109666666D01*
X140652380Y-109571428D01*
X140604761Y-109428571D01*
X140509523Y-109333333D01*
X140414285Y-109285714D01*
X140223809Y-109238095D01*
X140080952Y-109238095D01*
X139890476Y-109285714D01*
X139795238Y-109333333D01*
X139700000Y-109428571D01*
X139652380Y-109571428D01*
X139652380Y-109666666D01*
X139700000Y-109809523D01*
X139747619Y-109857142D01*
X139652380Y-110190476D02*
X139652380Y-110809523D01*
X140033333Y-110476190D01*
X140033333Y-110619047D01*
X140080952Y-110714285D01*
X140128571Y-110761904D01*
X140223809Y-110809523D01*
X140461904Y-110809523D01*
X140557142Y-110761904D01*
X140604761Y-110714285D01*
X140652380Y-110619047D01*
X140652380Y-110333333D01*
X140604761Y-110238095D01*
X140557142Y-110190476D01*
X139652380Y-111428571D02*
X139652380Y-111523809D01*
X139700000Y-111619047D01*
X139747619Y-111666666D01*
X139842857Y-111714285D01*
X140033333Y-111761904D01*
X140271428Y-111761904D01*
X140461904Y-111714285D01*
X140557142Y-111666666D01*
X140604761Y-111619047D01*
X140652380Y-111523809D01*
X140652380Y-111428571D01*
X140604761Y-111333333D01*
X140557142Y-111285714D01*
X140461904Y-111238095D01*
X140271428Y-111190476D01*
X140033333Y-111190476D01*
X139842857Y-111238095D01*
X139747619Y-111285714D01*
X139700000Y-111333333D01*
X139652380Y-111428571D01*
X146657142Y-109857142D02*
X146704761Y-109809523D01*
X146752380Y-109666666D01*
X146752380Y-109571428D01*
X146704761Y-109428571D01*
X146609523Y-109333333D01*
X146514285Y-109285714D01*
X146323809Y-109238095D01*
X146180952Y-109238095D01*
X145990476Y-109285714D01*
X145895238Y-109333333D01*
X145800000Y-109428571D01*
X145752380Y-109571428D01*
X145752380Y-109666666D01*
X145800000Y-109809523D01*
X145847619Y-109857142D01*
X145752380Y-110190476D02*
X145752380Y-110809523D01*
X146133333Y-110476190D01*
X146133333Y-110619047D01*
X146180952Y-110714285D01*
X146228571Y-110761904D01*
X146323809Y-110809523D01*
X146561904Y-110809523D01*
X146657142Y-110761904D01*
X146704761Y-110714285D01*
X146752380Y-110619047D01*
X146752380Y-110333333D01*
X146704761Y-110238095D01*
X146657142Y-110190476D01*
X146752380Y-111761904D02*
X146752380Y-111190476D01*
X146752380Y-111476190D02*
X145752380Y-111476190D01*
X145895238Y-111380952D01*
X145990476Y-111285714D01*
X146038095Y-111190476D01*
X128357142Y-68157142D02*
X128404761Y-68109523D01*
X128452380Y-67966666D01*
X128452380Y-67871428D01*
X128404761Y-67728571D01*
X128309523Y-67633333D01*
X128214285Y-67585714D01*
X128023809Y-67538095D01*
X127880952Y-67538095D01*
X127690476Y-67585714D01*
X127595238Y-67633333D01*
X127500000Y-67728571D01*
X127452380Y-67871428D01*
X127452380Y-67966666D01*
X127500000Y-68109523D01*
X127547619Y-68157142D01*
X127452380Y-68490476D02*
X127452380Y-69109523D01*
X127833333Y-68776190D01*
X127833333Y-68919047D01*
X127880952Y-69014285D01*
X127928571Y-69061904D01*
X128023809Y-69109523D01*
X128261904Y-69109523D01*
X128357142Y-69061904D01*
X128404761Y-69014285D01*
X128452380Y-68919047D01*
X128452380Y-68633333D01*
X128404761Y-68538095D01*
X128357142Y-68490476D01*
X127547619Y-69490476D02*
X127500000Y-69538095D01*
X127452380Y-69633333D01*
X127452380Y-69871428D01*
X127500000Y-69966666D01*
X127547619Y-70014285D01*
X127642857Y-70061904D01*
X127738095Y-70061904D01*
X127880952Y-70014285D01*
X128452380Y-69442857D01*
X128452380Y-70061904D01*
X149242857Y-101857142D02*
X149290476Y-101904761D01*
X149433333Y-101952380D01*
X149528571Y-101952380D01*
X149671428Y-101904761D01*
X149766666Y-101809523D01*
X149814285Y-101714285D01*
X149861904Y-101523809D01*
X149861904Y-101380952D01*
X149814285Y-101190476D01*
X149766666Y-101095238D01*
X149671428Y-101000000D01*
X149528571Y-100952380D01*
X149433333Y-100952380D01*
X149290476Y-101000000D01*
X149242857Y-101047619D01*
X148909523Y-100952380D02*
X148290476Y-100952380D01*
X148623809Y-101333333D01*
X148480952Y-101333333D01*
X148385714Y-101380952D01*
X148338095Y-101428571D01*
X148290476Y-101523809D01*
X148290476Y-101761904D01*
X148338095Y-101857142D01*
X148385714Y-101904761D01*
X148480952Y-101952380D01*
X148766666Y-101952380D01*
X148861904Y-101904761D01*
X148909523Y-101857142D01*
X147957142Y-100952380D02*
X147338095Y-100952380D01*
X147671428Y-101333333D01*
X147528571Y-101333333D01*
X147433333Y-101380952D01*
X147385714Y-101428571D01*
X147338095Y-101523809D01*
X147338095Y-101761904D01*
X147385714Y-101857142D01*
X147433333Y-101904761D01*
X147528571Y-101952380D01*
X147814285Y-101952380D01*
X147909523Y-101904761D01*
X147957142Y-101857142D01*
X144357142Y-109857142D02*
X144404761Y-109809523D01*
X144452380Y-109666666D01*
X144452380Y-109571428D01*
X144404761Y-109428571D01*
X144309523Y-109333333D01*
X144214285Y-109285714D01*
X144023809Y-109238095D01*
X143880952Y-109238095D01*
X143690476Y-109285714D01*
X143595238Y-109333333D01*
X143500000Y-109428571D01*
X143452380Y-109571428D01*
X143452380Y-109666666D01*
X143500000Y-109809523D01*
X143547619Y-109857142D01*
X143452380Y-110190476D02*
X143452380Y-110809523D01*
X143833333Y-110476190D01*
X143833333Y-110619047D01*
X143880952Y-110714285D01*
X143928571Y-110761904D01*
X144023809Y-110809523D01*
X144261904Y-110809523D01*
X144357142Y-110761904D01*
X144404761Y-110714285D01*
X144452380Y-110619047D01*
X144452380Y-110333333D01*
X144404761Y-110238095D01*
X144357142Y-110190476D01*
X143785714Y-111666666D02*
X144452380Y-111666666D01*
X143404761Y-111428571D02*
X144119047Y-111190476D01*
X144119047Y-111809523D01*
X143042857Y-85557142D02*
X143090476Y-85604761D01*
X143233333Y-85652380D01*
X143328571Y-85652380D01*
X143471428Y-85604761D01*
X143566666Y-85509523D01*
X143614285Y-85414285D01*
X143661904Y-85223809D01*
X143661904Y-85080952D01*
X143614285Y-84890476D01*
X143566666Y-84795238D01*
X143471428Y-84700000D01*
X143328571Y-84652380D01*
X143233333Y-84652380D01*
X143090476Y-84700000D01*
X143042857Y-84747619D01*
X142709523Y-84652380D02*
X142090476Y-84652380D01*
X142423809Y-85033333D01*
X142280952Y-85033333D01*
X142185714Y-85080952D01*
X142138095Y-85128571D01*
X142090476Y-85223809D01*
X142090476Y-85461904D01*
X142138095Y-85557142D01*
X142185714Y-85604761D01*
X142280952Y-85652380D01*
X142566666Y-85652380D01*
X142661904Y-85604761D01*
X142709523Y-85557142D01*
X141185714Y-84652380D02*
X141661904Y-84652380D01*
X141709523Y-85128571D01*
X141661904Y-85080952D01*
X141566666Y-85033333D01*
X141328571Y-85033333D01*
X141233333Y-85080952D01*
X141185714Y-85128571D01*
X141138095Y-85223809D01*
X141138095Y-85461904D01*
X141185714Y-85557142D01*
X141233333Y-85604761D01*
X141328571Y-85652380D01*
X141566666Y-85652380D01*
X141661904Y-85604761D01*
X141709523Y-85557142D01*
X150757142Y-88857142D02*
X150804761Y-88809523D01*
X150852380Y-88666666D01*
X150852380Y-88571428D01*
X150804761Y-88428571D01*
X150709523Y-88333333D01*
X150614285Y-88285714D01*
X150423809Y-88238095D01*
X150280952Y-88238095D01*
X150090476Y-88285714D01*
X149995238Y-88333333D01*
X149900000Y-88428571D01*
X149852380Y-88571428D01*
X149852380Y-88666666D01*
X149900000Y-88809523D01*
X149947619Y-88857142D01*
X149852380Y-89190476D02*
X149852380Y-89809523D01*
X150233333Y-89476190D01*
X150233333Y-89619047D01*
X150280952Y-89714285D01*
X150328571Y-89761904D01*
X150423809Y-89809523D01*
X150661904Y-89809523D01*
X150757142Y-89761904D01*
X150804761Y-89714285D01*
X150852380Y-89619047D01*
X150852380Y-89333333D01*
X150804761Y-89238095D01*
X150757142Y-89190476D01*
X150280952Y-90380952D02*
X150233333Y-90285714D01*
X150185714Y-90238095D01*
X150090476Y-90190476D01*
X150042857Y-90190476D01*
X149947619Y-90238095D01*
X149900000Y-90285714D01*
X149852380Y-90380952D01*
X149852380Y-90571428D01*
X149900000Y-90666666D01*
X149947619Y-90714285D01*
X150042857Y-90761904D01*
X150090476Y-90761904D01*
X150185714Y-90714285D01*
X150233333Y-90666666D01*
X150280952Y-90571428D01*
X150280952Y-90380952D01*
X150328571Y-90285714D01*
X150376190Y-90238095D01*
X150471428Y-90190476D01*
X150661904Y-90190476D01*
X150757142Y-90238095D01*
X150804761Y-90285714D01*
X150852380Y-90380952D01*
X150852380Y-90571428D01*
X150804761Y-90666666D01*
X150757142Y-90714285D01*
X150661904Y-90761904D01*
X150471428Y-90761904D01*
X150376190Y-90714285D01*
X150328571Y-90666666D01*
X150280952Y-90571428D01*
X132942857Y-95157142D02*
X132990476Y-95204761D01*
X133133333Y-95252380D01*
X133228571Y-95252380D01*
X133371428Y-95204761D01*
X133466666Y-95109523D01*
X133514285Y-95014285D01*
X133561904Y-94823809D01*
X133561904Y-94680952D01*
X133514285Y-94490476D01*
X133466666Y-94395238D01*
X133371428Y-94300000D01*
X133228571Y-94252380D01*
X133133333Y-94252380D01*
X132990476Y-94300000D01*
X132942857Y-94347619D01*
X132609523Y-94252380D02*
X131990476Y-94252380D01*
X132323809Y-94633333D01*
X132180952Y-94633333D01*
X132085714Y-94680952D01*
X132038095Y-94728571D01*
X131990476Y-94823809D01*
X131990476Y-95061904D01*
X132038095Y-95157142D01*
X132085714Y-95204761D01*
X132180952Y-95252380D01*
X132466666Y-95252380D01*
X132561904Y-95204761D01*
X132609523Y-95157142D01*
X131514285Y-95252380D02*
X131323809Y-95252380D01*
X131228571Y-95204761D01*
X131180952Y-95157142D01*
X131085714Y-95014285D01*
X131038095Y-94823809D01*
X131038095Y-94442857D01*
X131085714Y-94347619D01*
X131133333Y-94300000D01*
X131228571Y-94252380D01*
X131419047Y-94252380D01*
X131514285Y-94300000D01*
X131561904Y-94347619D01*
X131609523Y-94442857D01*
X131609523Y-94680952D01*
X131561904Y-94776190D01*
X131514285Y-94823809D01*
X131419047Y-94871428D01*
X131228571Y-94871428D01*
X131133333Y-94823809D01*
X131085714Y-94776190D01*
X131038095Y-94680952D01*
X156842857Y-98757142D02*
X156890476Y-98804761D01*
X157033333Y-98852380D01*
X157128571Y-98852380D01*
X157271428Y-98804761D01*
X157366666Y-98709523D01*
X157414285Y-98614285D01*
X157461904Y-98423809D01*
X157461904Y-98280952D01*
X157414285Y-98090476D01*
X157366666Y-97995238D01*
X157271428Y-97900000D01*
X157128571Y-97852380D01*
X157033333Y-97852380D01*
X156890476Y-97900000D01*
X156842857Y-97947619D01*
X155985714Y-98185714D02*
X155985714Y-98852380D01*
X156223809Y-97804761D02*
X156461904Y-98519047D01*
X155842857Y-98519047D01*
X155509523Y-97947619D02*
X155461904Y-97900000D01*
X155366666Y-97852380D01*
X155128571Y-97852380D01*
X155033333Y-97900000D01*
X154985714Y-97947619D01*
X154938095Y-98042857D01*
X154938095Y-98138095D01*
X154985714Y-98280952D01*
X155557142Y-98852380D01*
X154938095Y-98852380D01*
X124257142Y-109557142D02*
X124304761Y-109509523D01*
X124352380Y-109366666D01*
X124352380Y-109271428D01*
X124304761Y-109128571D01*
X124209523Y-109033333D01*
X124114285Y-108985714D01*
X123923809Y-108938095D01*
X123780952Y-108938095D01*
X123590476Y-108985714D01*
X123495238Y-109033333D01*
X123400000Y-109128571D01*
X123352380Y-109271428D01*
X123352380Y-109366666D01*
X123400000Y-109509523D01*
X123447619Y-109557142D01*
X123685714Y-110414285D02*
X124352380Y-110414285D01*
X123304761Y-110176190D02*
X124019047Y-109938095D01*
X124019047Y-110557142D01*
X123352380Y-110842857D02*
X123352380Y-111461904D01*
X123733333Y-111128571D01*
X123733333Y-111271428D01*
X123780952Y-111366666D01*
X123828571Y-111414285D01*
X123923809Y-111461904D01*
X124161904Y-111461904D01*
X124257142Y-111414285D01*
X124304761Y-111366666D01*
X124352380Y-111271428D01*
X124352380Y-110985714D01*
X124304761Y-110890476D01*
X124257142Y-110842857D01*
X128007142Y-86157142D02*
X128054761Y-86109523D01*
X128102380Y-85966666D01*
X128102380Y-85871428D01*
X128054761Y-85728571D01*
X127959523Y-85633333D01*
X127864285Y-85585714D01*
X127673809Y-85538095D01*
X127530952Y-85538095D01*
X127340476Y-85585714D01*
X127245238Y-85633333D01*
X127150000Y-85728571D01*
X127102380Y-85871428D01*
X127102380Y-85966666D01*
X127150000Y-86109523D01*
X127197619Y-86157142D01*
X127435714Y-87014285D02*
X128102380Y-87014285D01*
X127054761Y-86776190D02*
X127769047Y-86538095D01*
X127769047Y-87157142D01*
X127435714Y-87966666D02*
X128102380Y-87966666D01*
X127054761Y-87728571D02*
X127769047Y-87490476D01*
X127769047Y-88109523D01*
X148657142Y-109857142D02*
X148704761Y-109809523D01*
X148752380Y-109666666D01*
X148752380Y-109571428D01*
X148704761Y-109428571D01*
X148609523Y-109333333D01*
X148514285Y-109285714D01*
X148323809Y-109238095D01*
X148180952Y-109238095D01*
X147990476Y-109285714D01*
X147895238Y-109333333D01*
X147800000Y-109428571D01*
X147752380Y-109571428D01*
X147752380Y-109666666D01*
X147800000Y-109809523D01*
X147847619Y-109857142D01*
X148085714Y-110714285D02*
X148752380Y-110714285D01*
X147704761Y-110476190D02*
X148419047Y-110238095D01*
X148419047Y-110857142D01*
X147752380Y-111714285D02*
X147752380Y-111238095D01*
X148228571Y-111190476D01*
X148180952Y-111238095D01*
X148133333Y-111333333D01*
X148133333Y-111571428D01*
X148180952Y-111666666D01*
X148228571Y-111714285D01*
X148323809Y-111761904D01*
X148561904Y-111761904D01*
X148657142Y-111714285D01*
X148704761Y-111666666D01*
X148752380Y-111571428D01*
X148752380Y-111333333D01*
X148704761Y-111238095D01*
X148657142Y-111190476D01*
X101042857Y-74852380D02*
X101376190Y-74376190D01*
X101614285Y-74852380D02*
X101614285Y-73852380D01*
X101233333Y-73852380D01*
X101138095Y-73900000D01*
X101090476Y-73947619D01*
X101042857Y-74042857D01*
X101042857Y-74185714D01*
X101090476Y-74280952D01*
X101138095Y-74328571D01*
X101233333Y-74376190D01*
X101614285Y-74376190D01*
X100661904Y-73947619D02*
X100614285Y-73900000D01*
X100519047Y-73852380D01*
X100280952Y-73852380D01*
X100185714Y-73900000D01*
X100138095Y-73947619D01*
X100090476Y-74042857D01*
X100090476Y-74138095D01*
X100138095Y-74280952D01*
X100709523Y-74852380D01*
X100090476Y-74852380D01*
X99614285Y-74852380D02*
X99423809Y-74852380D01*
X99328571Y-74804761D01*
X99280952Y-74757142D01*
X99185714Y-74614285D01*
X99138095Y-74423809D01*
X99138095Y-74042857D01*
X99185714Y-73947619D01*
X99233333Y-73900000D01*
X99328571Y-73852380D01*
X99519047Y-73852380D01*
X99614285Y-73900000D01*
X99661904Y-73947619D01*
X99709523Y-74042857D01*
X99709523Y-74280952D01*
X99661904Y-74376190D01*
X99614285Y-74423809D01*
X99519047Y-74471428D01*
X99328571Y-74471428D01*
X99233333Y-74423809D01*
X99185714Y-74376190D01*
X99138095Y-74280952D01*
X101042857Y-82852380D02*
X101376190Y-82376190D01*
X101614285Y-82852380D02*
X101614285Y-81852380D01*
X101233333Y-81852380D01*
X101138095Y-81900000D01*
X101090476Y-81947619D01*
X101042857Y-82042857D01*
X101042857Y-82185714D01*
X101090476Y-82280952D01*
X101138095Y-82328571D01*
X101233333Y-82376190D01*
X101614285Y-82376190D01*
X100709523Y-81852380D02*
X100090476Y-81852380D01*
X100423809Y-82233333D01*
X100280952Y-82233333D01*
X100185714Y-82280952D01*
X100138095Y-82328571D01*
X100090476Y-82423809D01*
X100090476Y-82661904D01*
X100138095Y-82757142D01*
X100185714Y-82804761D01*
X100280952Y-82852380D01*
X100566666Y-82852380D01*
X100661904Y-82804761D01*
X100709523Y-82757142D01*
X99471428Y-81852380D02*
X99376190Y-81852380D01*
X99280952Y-81900000D01*
X99233333Y-81947619D01*
X99185714Y-82042857D01*
X99138095Y-82233333D01*
X99138095Y-82471428D01*
X99185714Y-82661904D01*
X99233333Y-82757142D01*
X99280952Y-82804761D01*
X99376190Y-82852380D01*
X99471428Y-82852380D01*
X99566666Y-82804761D01*
X99614285Y-82757142D01*
X99661904Y-82661904D01*
X99709523Y-82471428D01*
X99709523Y-82233333D01*
X99661904Y-82042857D01*
X99614285Y-81947619D01*
X99566666Y-81900000D01*
X99471428Y-81852380D01*
X100052380Y-89757142D02*
X99576190Y-89423809D01*
X100052380Y-89185714D02*
X99052380Y-89185714D01*
X99052380Y-89566666D01*
X99100000Y-89661904D01*
X99147619Y-89709523D01*
X99242857Y-89757142D01*
X99385714Y-89757142D01*
X99480952Y-89709523D01*
X99528571Y-89661904D01*
X99576190Y-89566666D01*
X99576190Y-89185714D01*
X99385714Y-90614285D02*
X100052380Y-90614285D01*
X99004761Y-90376190D02*
X99719047Y-90138095D01*
X99719047Y-90757142D01*
X99480952Y-91280952D02*
X99433333Y-91185714D01*
X99385714Y-91138095D01*
X99290476Y-91090476D01*
X99242857Y-91090476D01*
X99147619Y-91138095D01*
X99100000Y-91185714D01*
X99052380Y-91280952D01*
X99052380Y-91471428D01*
X99100000Y-91566666D01*
X99147619Y-91614285D01*
X99242857Y-91661904D01*
X99290476Y-91661904D01*
X99385714Y-91614285D01*
X99433333Y-91566666D01*
X99480952Y-91471428D01*
X99480952Y-91280952D01*
X99528571Y-91185714D01*
X99576190Y-91138095D01*
X99671428Y-91090476D01*
X99861904Y-91090476D01*
X99957142Y-91138095D01*
X100004761Y-91185714D01*
X100052380Y-91280952D01*
X100052380Y-91471428D01*
X100004761Y-91566666D01*
X99957142Y-91614285D01*
X99861904Y-91661904D01*
X99671428Y-91661904D01*
X99576190Y-91614285D01*
X99528571Y-91566666D01*
X99480952Y-91471428D01*
X100052380Y-97757142D02*
X99576190Y-97423809D01*
X100052380Y-97185714D02*
X99052380Y-97185714D01*
X99052380Y-97566666D01*
X99100000Y-97661904D01*
X99147619Y-97709523D01*
X99242857Y-97757142D01*
X99385714Y-97757142D01*
X99480952Y-97709523D01*
X99528571Y-97661904D01*
X99576190Y-97566666D01*
X99576190Y-97185714D01*
X99385714Y-98614285D02*
X100052380Y-98614285D01*
X99004761Y-98376190D02*
X99719047Y-98138095D01*
X99719047Y-98757142D01*
X100052380Y-99185714D02*
X100052380Y-99376190D01*
X100004761Y-99471428D01*
X99957142Y-99519047D01*
X99814285Y-99614285D01*
X99623809Y-99661904D01*
X99242857Y-99661904D01*
X99147619Y-99614285D01*
X99100000Y-99566666D01*
X99052380Y-99471428D01*
X99052380Y-99280952D01*
X99100000Y-99185714D01*
X99147619Y-99138095D01*
X99242857Y-99090476D01*
X99480952Y-99090476D01*
X99576190Y-99138095D01*
X99623809Y-99185714D01*
X99671428Y-99280952D01*
X99671428Y-99471428D01*
X99623809Y-99566666D01*
X99576190Y-99614285D01*
X99480952Y-99661904D01*
X100052380Y-105757142D02*
X99576190Y-105423809D01*
X100052380Y-105185714D02*
X99052380Y-105185714D01*
X99052380Y-105566666D01*
X99100000Y-105661904D01*
X99147619Y-105709523D01*
X99242857Y-105757142D01*
X99385714Y-105757142D01*
X99480952Y-105709523D01*
X99528571Y-105661904D01*
X99576190Y-105566666D01*
X99576190Y-105185714D01*
X99052380Y-106661904D02*
X99052380Y-106185714D01*
X99528571Y-106138095D01*
X99480952Y-106185714D01*
X99433333Y-106280952D01*
X99433333Y-106519047D01*
X99480952Y-106614285D01*
X99528571Y-106661904D01*
X99623809Y-106709523D01*
X99861904Y-106709523D01*
X99957142Y-106661904D01*
X100004761Y-106614285D01*
X100052380Y-106519047D01*
X100052380Y-106280952D01*
X100004761Y-106185714D01*
X99957142Y-106138095D01*
X99052380Y-107328571D02*
X99052380Y-107423809D01*
X99100000Y-107519047D01*
X99147619Y-107566666D01*
X99242857Y-107614285D01*
X99433333Y-107661904D01*
X99671428Y-107661904D01*
X99861904Y-107614285D01*
X99957142Y-107566666D01*
X100004761Y-107519047D01*
X100052380Y-107423809D01*
X100052380Y-107328571D01*
X100004761Y-107233333D01*
X99957142Y-107185714D01*
X99861904Y-107138095D01*
X99671428Y-107090476D01*
X99433333Y-107090476D01*
X99242857Y-107138095D01*
X99147619Y-107185714D01*
X99100000Y-107233333D01*
X99052380Y-107328571D01*
X101142857Y-115052380D02*
X101476190Y-114576190D01*
X101714285Y-115052380D02*
X101714285Y-114052380D01*
X101333333Y-114052380D01*
X101238095Y-114100000D01*
X101190476Y-114147619D01*
X101142857Y-114242857D01*
X101142857Y-114385714D01*
X101190476Y-114480952D01*
X101238095Y-114528571D01*
X101333333Y-114576190D01*
X101714285Y-114576190D01*
X100238095Y-114052380D02*
X100714285Y-114052380D01*
X100761904Y-114528571D01*
X100714285Y-114480952D01*
X100619047Y-114433333D01*
X100380952Y-114433333D01*
X100285714Y-114480952D01*
X100238095Y-114528571D01*
X100190476Y-114623809D01*
X100190476Y-114861904D01*
X100238095Y-114957142D01*
X100285714Y-115004761D01*
X100380952Y-115052380D01*
X100619047Y-115052380D01*
X100714285Y-115004761D01*
X100761904Y-114957142D01*
X99857142Y-114052380D02*
X99238095Y-114052380D01*
X99571428Y-114433333D01*
X99428571Y-114433333D01*
X99333333Y-114480952D01*
X99285714Y-114528571D01*
X99238095Y-114623809D01*
X99238095Y-114861904D01*
X99285714Y-114957142D01*
X99333333Y-115004761D01*
X99428571Y-115052380D01*
X99714285Y-115052380D01*
X99809523Y-115004761D01*
X99857142Y-114957142D01*
X101042857Y-122852380D02*
X101376190Y-122376190D01*
X101614285Y-122852380D02*
X101614285Y-121852380D01*
X101233333Y-121852380D01*
X101138095Y-121900000D01*
X101090476Y-121947619D01*
X101042857Y-122042857D01*
X101042857Y-122185714D01*
X101090476Y-122280952D01*
X101138095Y-122328571D01*
X101233333Y-122376190D01*
X101614285Y-122376190D01*
X100138095Y-121852380D02*
X100614285Y-121852380D01*
X100661904Y-122328571D01*
X100614285Y-122280952D01*
X100519047Y-122233333D01*
X100280952Y-122233333D01*
X100185714Y-122280952D01*
X100138095Y-122328571D01*
X100090476Y-122423809D01*
X100090476Y-122661904D01*
X100138095Y-122757142D01*
X100185714Y-122804761D01*
X100280952Y-122852380D01*
X100519047Y-122852380D01*
X100614285Y-122804761D01*
X100661904Y-122757142D01*
X99233333Y-122185714D02*
X99233333Y-122852380D01*
X99471428Y-121804761D02*
X99709523Y-122519047D01*
X99090476Y-122519047D01*
X98222380Y-67557142D02*
X97746190Y-67223809D01*
X98222380Y-66985714D02*
X97222380Y-66985714D01*
X97222380Y-67366666D01*
X97270000Y-67461904D01*
X97317619Y-67509523D01*
X97412857Y-67557142D01*
X97555714Y-67557142D01*
X97650952Y-67509523D01*
X97698571Y-67461904D01*
X97746190Y-67366666D01*
X97746190Y-66985714D01*
X97222380Y-68461904D02*
X97222380Y-67985714D01*
X97698571Y-67938095D01*
X97650952Y-67985714D01*
X97603333Y-68080952D01*
X97603333Y-68319047D01*
X97650952Y-68414285D01*
X97698571Y-68461904D01*
X97793809Y-68509523D01*
X98031904Y-68509523D01*
X98127142Y-68461904D01*
X98174761Y-68414285D01*
X98222380Y-68319047D01*
X98222380Y-68080952D01*
X98174761Y-67985714D01*
X98127142Y-67938095D01*
X97222380Y-69414285D02*
X97222380Y-68938095D01*
X97698571Y-68890476D01*
X97650952Y-68938095D01*
X97603333Y-69033333D01*
X97603333Y-69271428D01*
X97650952Y-69366666D01*
X97698571Y-69414285D01*
X97793809Y-69461904D01*
X98031904Y-69461904D01*
X98127142Y-69414285D01*
X98174761Y-69366666D01*
X98222380Y-69271428D01*
X98222380Y-69033333D01*
X98174761Y-68938095D01*
X98127142Y-68890476D01*
X104842857Y-135452380D02*
X105176190Y-134976190D01*
X105414285Y-135452380D02*
X105414285Y-134452380D01*
X105033333Y-134452380D01*
X104938095Y-134500000D01*
X104890476Y-134547619D01*
X104842857Y-134642857D01*
X104842857Y-134785714D01*
X104890476Y-134880952D01*
X104938095Y-134928571D01*
X105033333Y-134976190D01*
X105414285Y-134976190D01*
X103938095Y-134452380D02*
X104414285Y-134452380D01*
X104461904Y-134928571D01*
X104414285Y-134880952D01*
X104319047Y-134833333D01*
X104080952Y-134833333D01*
X103985714Y-134880952D01*
X103938095Y-134928571D01*
X103890476Y-135023809D01*
X103890476Y-135261904D01*
X103938095Y-135357142D01*
X103985714Y-135404761D01*
X104080952Y-135452380D01*
X104319047Y-135452380D01*
X104414285Y-135404761D01*
X104461904Y-135357142D01*
X103033333Y-134452380D02*
X103223809Y-134452380D01*
X103319047Y-134500000D01*
X103366666Y-134547619D01*
X103461904Y-134690476D01*
X103509523Y-134880952D01*
X103509523Y-135261904D01*
X103461904Y-135357142D01*
X103414285Y-135404761D01*
X103319047Y-135452380D01*
X103128571Y-135452380D01*
X103033333Y-135404761D01*
X102985714Y-135357142D01*
X102938095Y-135261904D01*
X102938095Y-135023809D01*
X102985714Y-134928571D01*
X103033333Y-134880952D01*
X103128571Y-134833333D01*
X103319047Y-134833333D01*
X103414285Y-134880952D01*
X103461904Y-134928571D01*
X103509523Y-135023809D01*
X143242857Y-75357142D02*
X143290476Y-75404761D01*
X143433333Y-75452380D01*
X143528571Y-75452380D01*
X143671428Y-75404761D01*
X143766666Y-75309523D01*
X143814285Y-75214285D01*
X143861904Y-75023809D01*
X143861904Y-74880952D01*
X143814285Y-74690476D01*
X143766666Y-74595238D01*
X143671428Y-74500000D01*
X143528571Y-74452380D01*
X143433333Y-74452380D01*
X143290476Y-74500000D01*
X143242857Y-74547619D01*
X142385714Y-74452380D02*
X142576190Y-74452380D01*
X142671428Y-74500000D01*
X142719047Y-74547619D01*
X142814285Y-74690476D01*
X142861904Y-74880952D01*
X142861904Y-75261904D01*
X142814285Y-75357142D01*
X142766666Y-75404761D01*
X142671428Y-75452380D01*
X142480952Y-75452380D01*
X142385714Y-75404761D01*
X142338095Y-75357142D01*
X142290476Y-75261904D01*
X142290476Y-75023809D01*
X142338095Y-74928571D01*
X142385714Y-74880952D01*
X142480952Y-74833333D01*
X142671428Y-74833333D01*
X142766666Y-74880952D01*
X142814285Y-74928571D01*
X142861904Y-75023809D01*
X141957142Y-74452380D02*
X141338095Y-74452380D01*
X141671428Y-74833333D01*
X141528571Y-74833333D01*
X141433333Y-74880952D01*
X141385714Y-74928571D01*
X141338095Y-75023809D01*
X141338095Y-75261904D01*
X141385714Y-75357142D01*
X141433333Y-75404761D01*
X141528571Y-75452380D01*
X141814285Y-75452380D01*
X141909523Y-75404761D01*
X141957142Y-75357142D01*
M02*
