G04 #@! TF.GenerationSoftware,KiCad,Pcbnew,(5.1.9)-1*
G04 #@! TF.CreationDate,2021-05-07T01:52:01+09:00*
G04 #@! TF.ProjectId,xSSDAC,78535344-4143-42e6-9b69-6361645f7063,rev?*
G04 #@! TF.SameCoordinates,Original*
G04 #@! TF.FileFunction,Profile,NP*
%FSLAX46Y46*%
G04 Gerber Fmt 4.6, Leading zero omitted, Abs format (unit mm)*
G04 Created by KiCad (PCBNEW (5.1.9)-1) date 2021-05-07 01:52:01*
%MOMM*%
%LPD*%
G01*
G04 APERTURE LIST*
G04 #@! TA.AperFunction,Profile*
%ADD10C,0.050000*%
G04 #@! TD*
G04 APERTURE END LIST*
D10*
X194200000Y-78250000D02*
X194200000Y-58400000D01*
X192500000Y-78250000D02*
X194200000Y-78250000D01*
X192500000Y-80050000D02*
X192500000Y-78250000D01*
X194200000Y-80050000D02*
X192500000Y-80050000D01*
X194200000Y-86750000D02*
X194200000Y-80050000D01*
X192500000Y-86750000D02*
X194200000Y-86750000D01*
X192500000Y-88550000D02*
X192500000Y-86750000D01*
X194200000Y-88550000D02*
X192500000Y-88550000D01*
X194200000Y-108250000D02*
X194200000Y-88550000D01*
X192500000Y-108250000D02*
X194200000Y-108250000D01*
X192500000Y-110050000D02*
X192500000Y-108250000D01*
X194200000Y-110050000D02*
X192500000Y-110050000D01*
X194200000Y-116750000D02*
X194200000Y-110050000D01*
X192500000Y-116750000D02*
X194200000Y-116750000D01*
X192500000Y-118550000D02*
X192500000Y-116750000D01*
X194200000Y-118550000D02*
X192500000Y-118550000D01*
X194200000Y-58400000D02*
X94200000Y-58400000D01*
X194200000Y-138400000D02*
X194200000Y-118550000D01*
X94200000Y-138400000D02*
X194200000Y-138400000D01*
X94200000Y-58400000D02*
X94200000Y-138400000D01*
M02*
