G04 #@! TF.GenerationSoftware,KiCad,Pcbnew,7.0.5*
G04 #@! TF.CreationDate,2023-06-24T08:19:34+09:00*
G04 #@! TF.ProjectId,xSSDAC,78535344-4143-42e6-9b69-6361645f7063,rev?*
G04 #@! TF.SameCoordinates,Original*
G04 #@! TF.FileFunction,Legend,Bot*
G04 #@! TF.FilePolarity,Positive*
%FSLAX46Y46*%
G04 Gerber Fmt 4.6, Leading zero omitted, Abs format (unit mm)*
G04 Created by KiCad (PCBNEW 7.0.5) date 2023-06-24 08:19:34*
%MOMM*%
%LPD*%
G01*
G04 APERTURE LIST*
%ADD10C,0.300000*%
%ADD11C,0.150000*%
%ADD12C,0.254000*%
%ADD13C,0.120000*%
%ADD14C,0.200000*%
G04 APERTURE END LIST*
D10*
X164988346Y-129063328D02*
X164202632Y-128063328D01*
X164988346Y-128063328D02*
X164202632Y-129063328D01*
X163702631Y-128991900D02*
X163488346Y-129063328D01*
X163488346Y-129063328D02*
X163131203Y-129063328D01*
X163131203Y-129063328D02*
X162988346Y-128991900D01*
X162988346Y-128991900D02*
X162916917Y-128920471D01*
X162916917Y-128920471D02*
X162845488Y-128777614D01*
X162845488Y-128777614D02*
X162845488Y-128634757D01*
X162845488Y-128634757D02*
X162916917Y-128491900D01*
X162916917Y-128491900D02*
X162988346Y-128420471D01*
X162988346Y-128420471D02*
X163131203Y-128349042D01*
X163131203Y-128349042D02*
X163416917Y-128277614D01*
X163416917Y-128277614D02*
X163559774Y-128206185D01*
X163559774Y-128206185D02*
X163631203Y-128134757D01*
X163631203Y-128134757D02*
X163702631Y-127991900D01*
X163702631Y-127991900D02*
X163702631Y-127849042D01*
X163702631Y-127849042D02*
X163631203Y-127706185D01*
X163631203Y-127706185D02*
X163559774Y-127634757D01*
X163559774Y-127634757D02*
X163416917Y-127563328D01*
X163416917Y-127563328D02*
X163059774Y-127563328D01*
X163059774Y-127563328D02*
X162845488Y-127634757D01*
X162274060Y-128991900D02*
X162059775Y-129063328D01*
X162059775Y-129063328D02*
X161702632Y-129063328D01*
X161702632Y-129063328D02*
X161559775Y-128991900D01*
X161559775Y-128991900D02*
X161488346Y-128920471D01*
X161488346Y-128920471D02*
X161416917Y-128777614D01*
X161416917Y-128777614D02*
X161416917Y-128634757D01*
X161416917Y-128634757D02*
X161488346Y-128491900D01*
X161488346Y-128491900D02*
X161559775Y-128420471D01*
X161559775Y-128420471D02*
X161702632Y-128349042D01*
X161702632Y-128349042D02*
X161988346Y-128277614D01*
X161988346Y-128277614D02*
X162131203Y-128206185D01*
X162131203Y-128206185D02*
X162202632Y-128134757D01*
X162202632Y-128134757D02*
X162274060Y-127991900D01*
X162274060Y-127991900D02*
X162274060Y-127849042D01*
X162274060Y-127849042D02*
X162202632Y-127706185D01*
X162202632Y-127706185D02*
X162131203Y-127634757D01*
X162131203Y-127634757D02*
X161988346Y-127563328D01*
X161988346Y-127563328D02*
X161631203Y-127563328D01*
X161631203Y-127563328D02*
X161416917Y-127634757D01*
X160774061Y-129063328D02*
X160774061Y-127563328D01*
X160774061Y-127563328D02*
X160416918Y-127563328D01*
X160416918Y-127563328D02*
X160202632Y-127634757D01*
X160202632Y-127634757D02*
X160059775Y-127777614D01*
X160059775Y-127777614D02*
X159988346Y-127920471D01*
X159988346Y-127920471D02*
X159916918Y-128206185D01*
X159916918Y-128206185D02*
X159916918Y-128420471D01*
X159916918Y-128420471D02*
X159988346Y-128706185D01*
X159988346Y-128706185D02*
X160059775Y-128849042D01*
X160059775Y-128849042D02*
X160202632Y-128991900D01*
X160202632Y-128991900D02*
X160416918Y-129063328D01*
X160416918Y-129063328D02*
X160774061Y-129063328D01*
X159345489Y-128634757D02*
X158631204Y-128634757D01*
X159488346Y-129063328D02*
X158988346Y-127563328D01*
X158988346Y-127563328D02*
X158488346Y-129063328D01*
X157131204Y-128920471D02*
X157202632Y-128991900D01*
X157202632Y-128991900D02*
X157416918Y-129063328D01*
X157416918Y-129063328D02*
X157559775Y-129063328D01*
X157559775Y-129063328D02*
X157774061Y-128991900D01*
X157774061Y-128991900D02*
X157916918Y-128849042D01*
X157916918Y-128849042D02*
X157988347Y-128706185D01*
X157988347Y-128706185D02*
X158059775Y-128420471D01*
X158059775Y-128420471D02*
X158059775Y-128206185D01*
X158059775Y-128206185D02*
X157988347Y-127920471D01*
X157988347Y-127920471D02*
X157916918Y-127777614D01*
X157916918Y-127777614D02*
X157774061Y-127634757D01*
X157774061Y-127634757D02*
X157559775Y-127563328D01*
X157559775Y-127563328D02*
X157416918Y-127563328D01*
X157416918Y-127563328D02*
X157202632Y-127634757D01*
X157202632Y-127634757D02*
X157131204Y-127706185D01*
X155416918Y-128991900D02*
X155202633Y-129063328D01*
X155202633Y-129063328D02*
X154845490Y-129063328D01*
X154845490Y-129063328D02*
X154702633Y-128991900D01*
X154702633Y-128991900D02*
X154631204Y-128920471D01*
X154631204Y-128920471D02*
X154559775Y-128777614D01*
X154559775Y-128777614D02*
X154559775Y-128634757D01*
X154559775Y-128634757D02*
X154631204Y-128491900D01*
X154631204Y-128491900D02*
X154702633Y-128420471D01*
X154702633Y-128420471D02*
X154845490Y-128349042D01*
X154845490Y-128349042D02*
X155131204Y-128277614D01*
X155131204Y-128277614D02*
X155274061Y-128206185D01*
X155274061Y-128206185D02*
X155345490Y-128134757D01*
X155345490Y-128134757D02*
X155416918Y-127991900D01*
X155416918Y-127991900D02*
X155416918Y-127849042D01*
X155416918Y-127849042D02*
X155345490Y-127706185D01*
X155345490Y-127706185D02*
X155274061Y-127634757D01*
X155274061Y-127634757D02*
X155131204Y-127563328D01*
X155131204Y-127563328D02*
X154774061Y-127563328D01*
X154774061Y-127563328D02*
X154559775Y-127634757D01*
X153916919Y-129063328D02*
X153916919Y-127563328D01*
X153916919Y-127563328D02*
X153559776Y-127563328D01*
X153559776Y-127563328D02*
X153345490Y-127634757D01*
X153345490Y-127634757D02*
X153202633Y-127777614D01*
X153202633Y-127777614D02*
X153131204Y-127920471D01*
X153131204Y-127920471D02*
X153059776Y-128206185D01*
X153059776Y-128206185D02*
X153059776Y-128420471D01*
X153059776Y-128420471D02*
X153131204Y-128706185D01*
X153131204Y-128706185D02*
X153202633Y-128849042D01*
X153202633Y-128849042D02*
X153345490Y-128991900D01*
X153345490Y-128991900D02*
X153559776Y-129063328D01*
X153559776Y-129063328D02*
X153916919Y-129063328D01*
X151274062Y-128063328D02*
X151274062Y-129563328D01*
X151274062Y-128134757D02*
X151131205Y-128063328D01*
X151131205Y-128063328D02*
X150845490Y-128063328D01*
X150845490Y-128063328D02*
X150702633Y-128134757D01*
X150702633Y-128134757D02*
X150631205Y-128206185D01*
X150631205Y-128206185D02*
X150559776Y-128349042D01*
X150559776Y-128349042D02*
X150559776Y-128777614D01*
X150559776Y-128777614D02*
X150631205Y-128920471D01*
X150631205Y-128920471D02*
X150702633Y-128991900D01*
X150702633Y-128991900D02*
X150845490Y-129063328D01*
X150845490Y-129063328D02*
X151131205Y-129063328D01*
X151131205Y-129063328D02*
X151274062Y-128991900D01*
X149702633Y-129063328D02*
X149845490Y-128991900D01*
X149845490Y-128991900D02*
X149916919Y-128849042D01*
X149916919Y-128849042D02*
X149916919Y-127563328D01*
X148488348Y-129063328D02*
X148488348Y-128277614D01*
X148488348Y-128277614D02*
X148559776Y-128134757D01*
X148559776Y-128134757D02*
X148702633Y-128063328D01*
X148702633Y-128063328D02*
X148988348Y-128063328D01*
X148988348Y-128063328D02*
X149131205Y-128134757D01*
X148488348Y-128991900D02*
X148631205Y-129063328D01*
X148631205Y-129063328D02*
X148988348Y-129063328D01*
X148988348Y-129063328D02*
X149131205Y-128991900D01*
X149131205Y-128991900D02*
X149202633Y-128849042D01*
X149202633Y-128849042D02*
X149202633Y-128706185D01*
X149202633Y-128706185D02*
X149131205Y-128563328D01*
X149131205Y-128563328D02*
X148988348Y-128491900D01*
X148988348Y-128491900D02*
X148631205Y-128491900D01*
X148631205Y-128491900D02*
X148488348Y-128420471D01*
X147916919Y-128063328D02*
X147559776Y-129063328D01*
X147202633Y-128063328D02*
X147559776Y-129063328D01*
X147559776Y-129063328D02*
X147702633Y-129420471D01*
X147702633Y-129420471D02*
X147774062Y-129491900D01*
X147774062Y-129491900D02*
X147916919Y-129563328D01*
X146059776Y-128991900D02*
X146202633Y-129063328D01*
X146202633Y-129063328D02*
X146488348Y-129063328D01*
X146488348Y-129063328D02*
X146631205Y-128991900D01*
X146631205Y-128991900D02*
X146702633Y-128849042D01*
X146702633Y-128849042D02*
X146702633Y-128277614D01*
X146702633Y-128277614D02*
X146631205Y-128134757D01*
X146631205Y-128134757D02*
X146488348Y-128063328D01*
X146488348Y-128063328D02*
X146202633Y-128063328D01*
X146202633Y-128063328D02*
X146059776Y-128134757D01*
X146059776Y-128134757D02*
X145988348Y-128277614D01*
X145988348Y-128277614D02*
X145988348Y-128420471D01*
X145988348Y-128420471D02*
X146702633Y-128563328D01*
X145345491Y-129063328D02*
X145345491Y-128063328D01*
X145345491Y-128349042D02*
X145274062Y-128206185D01*
X145274062Y-128206185D02*
X145202634Y-128134757D01*
X145202634Y-128134757D02*
X145059776Y-128063328D01*
X145059776Y-128063328D02*
X144916919Y-128063328D01*
X143416920Y-128063328D02*
X143059777Y-129063328D01*
X143059777Y-129063328D02*
X142702634Y-128063328D01*
X141345491Y-129063328D02*
X142202634Y-129063328D01*
X141774063Y-129063328D02*
X141774063Y-127563328D01*
X141774063Y-127563328D02*
X141916920Y-127777614D01*
X141916920Y-127777614D02*
X142059777Y-127920471D01*
X142059777Y-127920471D02*
X142202634Y-127991900D01*
X140702635Y-128920471D02*
X140631206Y-128991900D01*
X140631206Y-128991900D02*
X140702635Y-129063328D01*
X140702635Y-129063328D02*
X140774063Y-128991900D01*
X140774063Y-128991900D02*
X140702635Y-128920471D01*
X140702635Y-128920471D02*
X140702635Y-129063328D01*
X139202634Y-129063328D02*
X140059777Y-129063328D01*
X139631206Y-129063328D02*
X139631206Y-127563328D01*
X139631206Y-127563328D02*
X139774063Y-127777614D01*
X139774063Y-127777614D02*
X139916920Y-127920471D01*
X139916920Y-127920471D02*
X140059777Y-127991900D01*
X165059774Y-129978328D02*
X164202632Y-129978328D01*
X164631203Y-131478328D02*
X164631203Y-129978328D01*
X163702632Y-131335471D02*
X163631203Y-131406900D01*
X163631203Y-131406900D02*
X163702632Y-131478328D01*
X163702632Y-131478328D02*
X163774060Y-131406900D01*
X163774060Y-131406900D02*
X163702632Y-131335471D01*
X163702632Y-131335471D02*
X163702632Y-131478328D01*
X161916917Y-131406900D02*
X161702632Y-131478328D01*
X161702632Y-131478328D02*
X161345489Y-131478328D01*
X161345489Y-131478328D02*
X161202632Y-131406900D01*
X161202632Y-131406900D02*
X161131203Y-131335471D01*
X161131203Y-131335471D02*
X161059774Y-131192614D01*
X161059774Y-131192614D02*
X161059774Y-131049757D01*
X161059774Y-131049757D02*
X161131203Y-130906900D01*
X161131203Y-130906900D02*
X161202632Y-130835471D01*
X161202632Y-130835471D02*
X161345489Y-130764042D01*
X161345489Y-130764042D02*
X161631203Y-130692614D01*
X161631203Y-130692614D02*
X161774060Y-130621185D01*
X161774060Y-130621185D02*
X161845489Y-130549757D01*
X161845489Y-130549757D02*
X161916917Y-130406900D01*
X161916917Y-130406900D02*
X161916917Y-130264042D01*
X161916917Y-130264042D02*
X161845489Y-130121185D01*
X161845489Y-130121185D02*
X161774060Y-130049757D01*
X161774060Y-130049757D02*
X161631203Y-129978328D01*
X161631203Y-129978328D02*
X161274060Y-129978328D01*
X161274060Y-129978328D02*
X161059774Y-130049757D01*
X159774061Y-131478328D02*
X159774061Y-130692614D01*
X159774061Y-130692614D02*
X159845489Y-130549757D01*
X159845489Y-130549757D02*
X159988346Y-130478328D01*
X159988346Y-130478328D02*
X160274061Y-130478328D01*
X160274061Y-130478328D02*
X160416918Y-130549757D01*
X159774061Y-131406900D02*
X159916918Y-131478328D01*
X159916918Y-131478328D02*
X160274061Y-131478328D01*
X160274061Y-131478328D02*
X160416918Y-131406900D01*
X160416918Y-131406900D02*
X160488346Y-131264042D01*
X160488346Y-131264042D02*
X160488346Y-131121185D01*
X160488346Y-131121185D02*
X160416918Y-130978328D01*
X160416918Y-130978328D02*
X160274061Y-130906900D01*
X160274061Y-130906900D02*
X159916918Y-130906900D01*
X159916918Y-130906900D02*
X159774061Y-130835471D01*
X159059775Y-131478328D02*
X159059775Y-129978328D01*
X158916918Y-130906900D02*
X158488346Y-131478328D01*
X158488346Y-130478328D02*
X159059775Y-131049757D01*
X157202632Y-130478328D02*
X157202632Y-131478328D01*
X157845489Y-130478328D02*
X157845489Y-131264042D01*
X157845489Y-131264042D02*
X157774060Y-131406900D01*
X157774060Y-131406900D02*
X157631203Y-131478328D01*
X157631203Y-131478328D02*
X157416917Y-131478328D01*
X157416917Y-131478328D02*
X157274060Y-131406900D01*
X157274060Y-131406900D02*
X157202632Y-131335471D01*
X156488346Y-131478328D02*
X156488346Y-130478328D01*
X156488346Y-130764042D02*
X156416917Y-130621185D01*
X156416917Y-130621185D02*
X156345489Y-130549757D01*
X156345489Y-130549757D02*
X156202631Y-130478328D01*
X156202631Y-130478328D02*
X156059774Y-130478328D01*
X154916918Y-131478328D02*
X154916918Y-130692614D01*
X154916918Y-130692614D02*
X154988346Y-130549757D01*
X154988346Y-130549757D02*
X155131203Y-130478328D01*
X155131203Y-130478328D02*
X155416918Y-130478328D01*
X155416918Y-130478328D02*
X155559775Y-130549757D01*
X154916918Y-131406900D02*
X155059775Y-131478328D01*
X155059775Y-131478328D02*
X155416918Y-131478328D01*
X155416918Y-131478328D02*
X155559775Y-131406900D01*
X155559775Y-131406900D02*
X155631203Y-131264042D01*
X155631203Y-131264042D02*
X155631203Y-131121185D01*
X155631203Y-131121185D02*
X155559775Y-130978328D01*
X155559775Y-130978328D02*
X155416918Y-130906900D01*
X155416918Y-130906900D02*
X155059775Y-130906900D01*
X155059775Y-130906900D02*
X154916918Y-130835471D01*
X154202632Y-131478328D02*
X154202632Y-130478328D01*
X154202632Y-129978328D02*
X154274060Y-130049757D01*
X154274060Y-130049757D02*
X154202632Y-130121185D01*
X154202632Y-130121185D02*
X154131203Y-130049757D01*
X154131203Y-130049757D02*
X154202632Y-129978328D01*
X154202632Y-129978328D02*
X154202632Y-130121185D01*
X164416917Y-132393328D02*
X164416917Y-133464757D01*
X164416917Y-133464757D02*
X164488346Y-133679042D01*
X164488346Y-133679042D02*
X164631203Y-133821900D01*
X164631203Y-133821900D02*
X164845489Y-133893328D01*
X164845489Y-133893328D02*
X164988346Y-133893328D01*
X163059775Y-132893328D02*
X163059775Y-133893328D01*
X163702632Y-132893328D02*
X163702632Y-133679042D01*
X163702632Y-133679042D02*
X163631203Y-133821900D01*
X163631203Y-133821900D02*
X163488346Y-133893328D01*
X163488346Y-133893328D02*
X163274060Y-133893328D01*
X163274060Y-133893328D02*
X163131203Y-133821900D01*
X163131203Y-133821900D02*
X163059775Y-133750471D01*
X162345489Y-132893328D02*
X162345489Y-133893328D01*
X162345489Y-133036185D02*
X162274060Y-132964757D01*
X162274060Y-132964757D02*
X162131203Y-132893328D01*
X162131203Y-132893328D02*
X161916917Y-132893328D01*
X161916917Y-132893328D02*
X161774060Y-132964757D01*
X161774060Y-132964757D02*
X161702632Y-133107614D01*
X161702632Y-133107614D02*
X161702632Y-133893328D01*
X159916917Y-132536185D02*
X159845489Y-132464757D01*
X159845489Y-132464757D02*
X159702632Y-132393328D01*
X159702632Y-132393328D02*
X159345489Y-132393328D01*
X159345489Y-132393328D02*
X159202632Y-132464757D01*
X159202632Y-132464757D02*
X159131203Y-132536185D01*
X159131203Y-132536185D02*
X159059774Y-132679042D01*
X159059774Y-132679042D02*
X159059774Y-132821900D01*
X159059774Y-132821900D02*
X159131203Y-133036185D01*
X159131203Y-133036185D02*
X159988346Y-133893328D01*
X159988346Y-133893328D02*
X159059774Y-133893328D01*
X158131203Y-132393328D02*
X157988346Y-132393328D01*
X157988346Y-132393328D02*
X157845489Y-132464757D01*
X157845489Y-132464757D02*
X157774061Y-132536185D01*
X157774061Y-132536185D02*
X157702632Y-132679042D01*
X157702632Y-132679042D02*
X157631203Y-132964757D01*
X157631203Y-132964757D02*
X157631203Y-133321900D01*
X157631203Y-133321900D02*
X157702632Y-133607614D01*
X157702632Y-133607614D02*
X157774061Y-133750471D01*
X157774061Y-133750471D02*
X157845489Y-133821900D01*
X157845489Y-133821900D02*
X157988346Y-133893328D01*
X157988346Y-133893328D02*
X158131203Y-133893328D01*
X158131203Y-133893328D02*
X158274061Y-133821900D01*
X158274061Y-133821900D02*
X158345489Y-133750471D01*
X158345489Y-133750471D02*
X158416918Y-133607614D01*
X158416918Y-133607614D02*
X158488346Y-133321900D01*
X158488346Y-133321900D02*
X158488346Y-132964757D01*
X158488346Y-132964757D02*
X158416918Y-132679042D01*
X158416918Y-132679042D02*
X158345489Y-132536185D01*
X158345489Y-132536185D02*
X158274061Y-132464757D01*
X158274061Y-132464757D02*
X158131203Y-132393328D01*
X157059775Y-132536185D02*
X156988347Y-132464757D01*
X156988347Y-132464757D02*
X156845490Y-132393328D01*
X156845490Y-132393328D02*
X156488347Y-132393328D01*
X156488347Y-132393328D02*
X156345490Y-132464757D01*
X156345490Y-132464757D02*
X156274061Y-132536185D01*
X156274061Y-132536185D02*
X156202632Y-132679042D01*
X156202632Y-132679042D02*
X156202632Y-132821900D01*
X156202632Y-132821900D02*
X156274061Y-133036185D01*
X156274061Y-133036185D02*
X157131204Y-133893328D01*
X157131204Y-133893328D02*
X156202632Y-133893328D01*
X155702633Y-132393328D02*
X154774061Y-132393328D01*
X154774061Y-132393328D02*
X155274061Y-132964757D01*
X155274061Y-132964757D02*
X155059776Y-132964757D01*
X155059776Y-132964757D02*
X154916919Y-133036185D01*
X154916919Y-133036185D02*
X154845490Y-133107614D01*
X154845490Y-133107614D02*
X154774061Y-133250471D01*
X154774061Y-133250471D02*
X154774061Y-133607614D01*
X154774061Y-133607614D02*
X154845490Y-133750471D01*
X154845490Y-133750471D02*
X154916919Y-133821900D01*
X154916919Y-133821900D02*
X155059776Y-133893328D01*
X155059776Y-133893328D02*
X155488347Y-133893328D01*
X155488347Y-133893328D02*
X155631204Y-133821900D01*
X155631204Y-133821900D02*
X155702633Y-133750471D01*
D11*
X162595238Y-97350057D02*
X162690476Y-97302438D01*
X162690476Y-97302438D02*
X162785714Y-97207200D01*
X162785714Y-97207200D02*
X162928571Y-97064342D01*
X162928571Y-97064342D02*
X163023809Y-97016723D01*
X163023809Y-97016723D02*
X163119047Y-97016723D01*
X163071428Y-97254819D02*
X163166666Y-97207200D01*
X163166666Y-97207200D02*
X163261904Y-97111961D01*
X163261904Y-97111961D02*
X163309523Y-96921485D01*
X163309523Y-96921485D02*
X163309523Y-96588152D01*
X163309523Y-96588152D02*
X163261904Y-96397676D01*
X163261904Y-96397676D02*
X163166666Y-96302438D01*
X163166666Y-96302438D02*
X163071428Y-96254819D01*
X163071428Y-96254819D02*
X162880952Y-96254819D01*
X162880952Y-96254819D02*
X162785714Y-96302438D01*
X162785714Y-96302438D02*
X162690476Y-96397676D01*
X162690476Y-96397676D02*
X162642857Y-96588152D01*
X162642857Y-96588152D02*
X162642857Y-96921485D01*
X162642857Y-96921485D02*
X162690476Y-97111961D01*
X162690476Y-97111961D02*
X162785714Y-97207200D01*
X162785714Y-97207200D02*
X162880952Y-97254819D01*
X162880952Y-97254819D02*
X163071428Y-97254819D01*
X161785714Y-96588152D02*
X161785714Y-97254819D01*
X162023809Y-96207200D02*
X162261904Y-96921485D01*
X162261904Y-96921485D02*
X161642857Y-96921485D01*
X188138094Y-98854819D02*
X188138094Y-97854819D01*
X188138094Y-97854819D02*
X187899999Y-97854819D01*
X187899999Y-97854819D02*
X187757142Y-97902438D01*
X187757142Y-97902438D02*
X187661904Y-97997676D01*
X187661904Y-97997676D02*
X187614285Y-98092914D01*
X187614285Y-98092914D02*
X187566666Y-98283390D01*
X187566666Y-98283390D02*
X187566666Y-98426247D01*
X187566666Y-98426247D02*
X187614285Y-98616723D01*
X187614285Y-98616723D02*
X187661904Y-98711961D01*
X187661904Y-98711961D02*
X187757142Y-98807200D01*
X187757142Y-98807200D02*
X187899999Y-98854819D01*
X187899999Y-98854819D02*
X188138094Y-98854819D01*
X186661904Y-97854819D02*
X187138094Y-97854819D01*
X187138094Y-97854819D02*
X187185713Y-98331009D01*
X187185713Y-98331009D02*
X187138094Y-98283390D01*
X187138094Y-98283390D02*
X187042856Y-98235771D01*
X187042856Y-98235771D02*
X186804761Y-98235771D01*
X186804761Y-98235771D02*
X186709523Y-98283390D01*
X186709523Y-98283390D02*
X186661904Y-98331009D01*
X186661904Y-98331009D02*
X186614285Y-98426247D01*
X186614285Y-98426247D02*
X186614285Y-98664342D01*
X186614285Y-98664342D02*
X186661904Y-98759580D01*
X186661904Y-98759580D02*
X186709523Y-98807200D01*
X186709523Y-98807200D02*
X186804761Y-98854819D01*
X186804761Y-98854819D02*
X187042856Y-98854819D01*
X187042856Y-98854819D02*
X187138094Y-98807200D01*
X187138094Y-98807200D02*
X187185713Y-98759580D01*
X138433333Y-132331009D02*
X138766666Y-132331009D01*
X138766666Y-132854819D02*
X138766666Y-131854819D01*
X138766666Y-131854819D02*
X138290476Y-131854819D01*
X137576190Y-132331009D02*
X137433333Y-132378628D01*
X137433333Y-132378628D02*
X137385714Y-132426247D01*
X137385714Y-132426247D02*
X137338095Y-132521485D01*
X137338095Y-132521485D02*
X137338095Y-132664342D01*
X137338095Y-132664342D02*
X137385714Y-132759580D01*
X137385714Y-132759580D02*
X137433333Y-132807200D01*
X137433333Y-132807200D02*
X137528571Y-132854819D01*
X137528571Y-132854819D02*
X137909523Y-132854819D01*
X137909523Y-132854819D02*
X137909523Y-131854819D01*
X137909523Y-131854819D02*
X137576190Y-131854819D01*
X137576190Y-131854819D02*
X137480952Y-131902438D01*
X137480952Y-131902438D02*
X137433333Y-131950057D01*
X137433333Y-131950057D02*
X137385714Y-132045295D01*
X137385714Y-132045295D02*
X137385714Y-132140533D01*
X137385714Y-132140533D02*
X137433333Y-132235771D01*
X137433333Y-132235771D02*
X137480952Y-132283390D01*
X137480952Y-132283390D02*
X137576190Y-132331009D01*
X137576190Y-132331009D02*
X137909523Y-132331009D01*
X136385714Y-132854819D02*
X136957142Y-132854819D01*
X136671428Y-132854819D02*
X136671428Y-131854819D01*
X136671428Y-131854819D02*
X136766666Y-131997676D01*
X136766666Y-131997676D02*
X136861904Y-132092914D01*
X136861904Y-132092914D02*
X136957142Y-132140533D01*
X156054819Y-73833333D02*
X155578628Y-73500000D01*
X156054819Y-73261905D02*
X155054819Y-73261905D01*
X155054819Y-73261905D02*
X155054819Y-73642857D01*
X155054819Y-73642857D02*
X155102438Y-73738095D01*
X155102438Y-73738095D02*
X155150057Y-73785714D01*
X155150057Y-73785714D02*
X155245295Y-73833333D01*
X155245295Y-73833333D02*
X155388152Y-73833333D01*
X155388152Y-73833333D02*
X155483390Y-73785714D01*
X155483390Y-73785714D02*
X155531009Y-73738095D01*
X155531009Y-73738095D02*
X155578628Y-73642857D01*
X155578628Y-73642857D02*
X155578628Y-73261905D01*
X155054819Y-74166667D02*
X155054819Y-74785714D01*
X155054819Y-74785714D02*
X155435771Y-74452381D01*
X155435771Y-74452381D02*
X155435771Y-74595238D01*
X155435771Y-74595238D02*
X155483390Y-74690476D01*
X155483390Y-74690476D02*
X155531009Y-74738095D01*
X155531009Y-74738095D02*
X155626247Y-74785714D01*
X155626247Y-74785714D02*
X155864342Y-74785714D01*
X155864342Y-74785714D02*
X155959580Y-74738095D01*
X155959580Y-74738095D02*
X156007200Y-74690476D01*
X156007200Y-74690476D02*
X156054819Y-74595238D01*
X156054819Y-74595238D02*
X156054819Y-74309524D01*
X156054819Y-74309524D02*
X156007200Y-74214286D01*
X156007200Y-74214286D02*
X155959580Y-74166667D01*
X158654819Y-73833333D02*
X158178628Y-73500000D01*
X158654819Y-73261905D02*
X157654819Y-73261905D01*
X157654819Y-73261905D02*
X157654819Y-73642857D01*
X157654819Y-73642857D02*
X157702438Y-73738095D01*
X157702438Y-73738095D02*
X157750057Y-73785714D01*
X157750057Y-73785714D02*
X157845295Y-73833333D01*
X157845295Y-73833333D02*
X157988152Y-73833333D01*
X157988152Y-73833333D02*
X158083390Y-73785714D01*
X158083390Y-73785714D02*
X158131009Y-73738095D01*
X158131009Y-73738095D02*
X158178628Y-73642857D01*
X158178628Y-73642857D02*
X158178628Y-73261905D01*
X157988152Y-74690476D02*
X158654819Y-74690476D01*
X157607200Y-74452381D02*
X158321485Y-74214286D01*
X158321485Y-74214286D02*
X158321485Y-74833333D01*
X146166666Y-64854819D02*
X146499999Y-64378628D01*
X146738094Y-64854819D02*
X146738094Y-63854819D01*
X146738094Y-63854819D02*
X146357142Y-63854819D01*
X146357142Y-63854819D02*
X146261904Y-63902438D01*
X146261904Y-63902438D02*
X146214285Y-63950057D01*
X146214285Y-63950057D02*
X146166666Y-64045295D01*
X146166666Y-64045295D02*
X146166666Y-64188152D01*
X146166666Y-64188152D02*
X146214285Y-64283390D01*
X146214285Y-64283390D02*
X146261904Y-64331009D01*
X146261904Y-64331009D02*
X146357142Y-64378628D01*
X146357142Y-64378628D02*
X146738094Y-64378628D01*
X145833332Y-63854819D02*
X145166666Y-63854819D01*
X145166666Y-63854819D02*
X145595237Y-64854819D01*
X169130357Y-74654819D02*
X169463690Y-74178628D01*
X169701785Y-74654819D02*
X169701785Y-73654819D01*
X169701785Y-73654819D02*
X169320833Y-73654819D01*
X169320833Y-73654819D02*
X169225595Y-73702438D01*
X169225595Y-73702438D02*
X169177976Y-73750057D01*
X169177976Y-73750057D02*
X169130357Y-73845295D01*
X169130357Y-73845295D02*
X169130357Y-73988152D01*
X169130357Y-73988152D02*
X169177976Y-74083390D01*
X169177976Y-74083390D02*
X169225595Y-74131009D01*
X169225595Y-74131009D02*
X169320833Y-74178628D01*
X169320833Y-74178628D02*
X169701785Y-74178628D01*
X168797023Y-73654819D02*
X168177976Y-73654819D01*
X168177976Y-73654819D02*
X168511309Y-74035771D01*
X168511309Y-74035771D02*
X168368452Y-74035771D01*
X168368452Y-74035771D02*
X168273214Y-74083390D01*
X168273214Y-74083390D02*
X168225595Y-74131009D01*
X168225595Y-74131009D02*
X168177976Y-74226247D01*
X168177976Y-74226247D02*
X168177976Y-74464342D01*
X168177976Y-74464342D02*
X168225595Y-74559580D01*
X168225595Y-74559580D02*
X168273214Y-74607200D01*
X168273214Y-74607200D02*
X168368452Y-74654819D01*
X168368452Y-74654819D02*
X168654166Y-74654819D01*
X168654166Y-74654819D02*
X168749404Y-74607200D01*
X168749404Y-74607200D02*
X168797023Y-74559580D01*
X167844642Y-73654819D02*
X167177976Y-73654819D01*
X167177976Y-73654819D02*
X167606547Y-74654819D01*
X174684819Y-66757142D02*
X174208628Y-66423809D01*
X174684819Y-66185714D02*
X173684819Y-66185714D01*
X173684819Y-66185714D02*
X173684819Y-66566666D01*
X173684819Y-66566666D02*
X173732438Y-66661904D01*
X173732438Y-66661904D02*
X173780057Y-66709523D01*
X173780057Y-66709523D02*
X173875295Y-66757142D01*
X173875295Y-66757142D02*
X174018152Y-66757142D01*
X174018152Y-66757142D02*
X174113390Y-66709523D01*
X174113390Y-66709523D02*
X174161009Y-66661904D01*
X174161009Y-66661904D02*
X174208628Y-66566666D01*
X174208628Y-66566666D02*
X174208628Y-66185714D01*
X173684819Y-67090476D02*
X173684819Y-67709523D01*
X173684819Y-67709523D02*
X174065771Y-67376190D01*
X174065771Y-67376190D02*
X174065771Y-67519047D01*
X174065771Y-67519047D02*
X174113390Y-67614285D01*
X174113390Y-67614285D02*
X174161009Y-67661904D01*
X174161009Y-67661904D02*
X174256247Y-67709523D01*
X174256247Y-67709523D02*
X174494342Y-67709523D01*
X174494342Y-67709523D02*
X174589580Y-67661904D01*
X174589580Y-67661904D02*
X174637200Y-67614285D01*
X174637200Y-67614285D02*
X174684819Y-67519047D01*
X174684819Y-67519047D02*
X174684819Y-67233333D01*
X174684819Y-67233333D02*
X174637200Y-67138095D01*
X174637200Y-67138095D02*
X174589580Y-67090476D01*
X174113390Y-68280952D02*
X174065771Y-68185714D01*
X174065771Y-68185714D02*
X174018152Y-68138095D01*
X174018152Y-68138095D02*
X173922914Y-68090476D01*
X173922914Y-68090476D02*
X173875295Y-68090476D01*
X173875295Y-68090476D02*
X173780057Y-68138095D01*
X173780057Y-68138095D02*
X173732438Y-68185714D01*
X173732438Y-68185714D02*
X173684819Y-68280952D01*
X173684819Y-68280952D02*
X173684819Y-68471428D01*
X173684819Y-68471428D02*
X173732438Y-68566666D01*
X173732438Y-68566666D02*
X173780057Y-68614285D01*
X173780057Y-68614285D02*
X173875295Y-68661904D01*
X173875295Y-68661904D02*
X173922914Y-68661904D01*
X173922914Y-68661904D02*
X174018152Y-68614285D01*
X174018152Y-68614285D02*
X174065771Y-68566666D01*
X174065771Y-68566666D02*
X174113390Y-68471428D01*
X174113390Y-68471428D02*
X174113390Y-68280952D01*
X174113390Y-68280952D02*
X174161009Y-68185714D01*
X174161009Y-68185714D02*
X174208628Y-68138095D01*
X174208628Y-68138095D02*
X174303866Y-68090476D01*
X174303866Y-68090476D02*
X174494342Y-68090476D01*
X174494342Y-68090476D02*
X174589580Y-68138095D01*
X174589580Y-68138095D02*
X174637200Y-68185714D01*
X174637200Y-68185714D02*
X174684819Y-68280952D01*
X174684819Y-68280952D02*
X174684819Y-68471428D01*
X174684819Y-68471428D02*
X174637200Y-68566666D01*
X174637200Y-68566666D02*
X174589580Y-68614285D01*
X174589580Y-68614285D02*
X174494342Y-68661904D01*
X174494342Y-68661904D02*
X174303866Y-68661904D01*
X174303866Y-68661904D02*
X174208628Y-68614285D01*
X174208628Y-68614285D02*
X174161009Y-68566666D01*
X174161009Y-68566666D02*
X174113390Y-68471428D01*
X143242857Y-73654819D02*
X143576190Y-73178628D01*
X143814285Y-73654819D02*
X143814285Y-72654819D01*
X143814285Y-72654819D02*
X143433333Y-72654819D01*
X143433333Y-72654819D02*
X143338095Y-72702438D01*
X143338095Y-72702438D02*
X143290476Y-72750057D01*
X143290476Y-72750057D02*
X143242857Y-72845295D01*
X143242857Y-72845295D02*
X143242857Y-72988152D01*
X143242857Y-72988152D02*
X143290476Y-73083390D01*
X143290476Y-73083390D02*
X143338095Y-73131009D01*
X143338095Y-73131009D02*
X143433333Y-73178628D01*
X143433333Y-73178628D02*
X143814285Y-73178628D01*
X142385714Y-72988152D02*
X142385714Y-73654819D01*
X142623809Y-72607200D02*
X142861904Y-73321485D01*
X142861904Y-73321485D02*
X142242857Y-73321485D01*
X141957142Y-72654819D02*
X141290476Y-72654819D01*
X141290476Y-72654819D02*
X141719047Y-73654819D01*
X134484580Y-129770833D02*
X134532200Y-129723214D01*
X134532200Y-129723214D02*
X134579819Y-129580357D01*
X134579819Y-129580357D02*
X134579819Y-129485119D01*
X134579819Y-129485119D02*
X134532200Y-129342262D01*
X134532200Y-129342262D02*
X134436961Y-129247024D01*
X134436961Y-129247024D02*
X134341723Y-129199405D01*
X134341723Y-129199405D02*
X134151247Y-129151786D01*
X134151247Y-129151786D02*
X134008390Y-129151786D01*
X134008390Y-129151786D02*
X133817914Y-129199405D01*
X133817914Y-129199405D02*
X133722676Y-129247024D01*
X133722676Y-129247024D02*
X133627438Y-129342262D01*
X133627438Y-129342262D02*
X133579819Y-129485119D01*
X133579819Y-129485119D02*
X133579819Y-129580357D01*
X133579819Y-129580357D02*
X133627438Y-129723214D01*
X133627438Y-129723214D02*
X133675057Y-129770833D01*
X133675057Y-130151786D02*
X133627438Y-130199405D01*
X133627438Y-130199405D02*
X133579819Y-130294643D01*
X133579819Y-130294643D02*
X133579819Y-130532738D01*
X133579819Y-130532738D02*
X133627438Y-130627976D01*
X133627438Y-130627976D02*
X133675057Y-130675595D01*
X133675057Y-130675595D02*
X133770295Y-130723214D01*
X133770295Y-130723214D02*
X133865533Y-130723214D01*
X133865533Y-130723214D02*
X134008390Y-130675595D01*
X134008390Y-130675595D02*
X134579819Y-130104167D01*
X134579819Y-130104167D02*
X134579819Y-130723214D01*
X143159580Y-88857142D02*
X143207200Y-88809523D01*
X143207200Y-88809523D02*
X143254819Y-88666666D01*
X143254819Y-88666666D02*
X143254819Y-88571428D01*
X143254819Y-88571428D02*
X143207200Y-88428571D01*
X143207200Y-88428571D02*
X143111961Y-88333333D01*
X143111961Y-88333333D02*
X143016723Y-88285714D01*
X143016723Y-88285714D02*
X142826247Y-88238095D01*
X142826247Y-88238095D02*
X142683390Y-88238095D01*
X142683390Y-88238095D02*
X142492914Y-88285714D01*
X142492914Y-88285714D02*
X142397676Y-88333333D01*
X142397676Y-88333333D02*
X142302438Y-88428571D01*
X142302438Y-88428571D02*
X142254819Y-88571428D01*
X142254819Y-88571428D02*
X142254819Y-88666666D01*
X142254819Y-88666666D02*
X142302438Y-88809523D01*
X142302438Y-88809523D02*
X142350057Y-88857142D01*
X143254819Y-89809523D02*
X143254819Y-89238095D01*
X143254819Y-89523809D02*
X142254819Y-89523809D01*
X142254819Y-89523809D02*
X142397676Y-89428571D01*
X142397676Y-89428571D02*
X142492914Y-89333333D01*
X142492914Y-89333333D02*
X142540533Y-89238095D01*
X142588152Y-90666666D02*
X143254819Y-90666666D01*
X142207200Y-90428571D02*
X142921485Y-90190476D01*
X142921485Y-90190476D02*
X142921485Y-90809523D01*
X132942857Y-103759580D02*
X132990476Y-103807200D01*
X132990476Y-103807200D02*
X133133333Y-103854819D01*
X133133333Y-103854819D02*
X133228571Y-103854819D01*
X133228571Y-103854819D02*
X133371428Y-103807200D01*
X133371428Y-103807200D02*
X133466666Y-103711961D01*
X133466666Y-103711961D02*
X133514285Y-103616723D01*
X133514285Y-103616723D02*
X133561904Y-103426247D01*
X133561904Y-103426247D02*
X133561904Y-103283390D01*
X133561904Y-103283390D02*
X133514285Y-103092914D01*
X133514285Y-103092914D02*
X133466666Y-102997676D01*
X133466666Y-102997676D02*
X133371428Y-102902438D01*
X133371428Y-102902438D02*
X133228571Y-102854819D01*
X133228571Y-102854819D02*
X133133333Y-102854819D01*
X133133333Y-102854819D02*
X132990476Y-102902438D01*
X132990476Y-102902438D02*
X132942857Y-102950057D01*
X131990476Y-103854819D02*
X132561904Y-103854819D01*
X132276190Y-103854819D02*
X132276190Y-102854819D01*
X132276190Y-102854819D02*
X132371428Y-102997676D01*
X132371428Y-102997676D02*
X132466666Y-103092914D01*
X132466666Y-103092914D02*
X132561904Y-103140533D01*
X131085714Y-102854819D02*
X131561904Y-102854819D01*
X131561904Y-102854819D02*
X131609523Y-103331009D01*
X131609523Y-103331009D02*
X131561904Y-103283390D01*
X131561904Y-103283390D02*
X131466666Y-103235771D01*
X131466666Y-103235771D02*
X131228571Y-103235771D01*
X131228571Y-103235771D02*
X131133333Y-103283390D01*
X131133333Y-103283390D02*
X131085714Y-103331009D01*
X131085714Y-103331009D02*
X131038095Y-103426247D01*
X131038095Y-103426247D02*
X131038095Y-103664342D01*
X131038095Y-103664342D02*
X131085714Y-103759580D01*
X131085714Y-103759580D02*
X131133333Y-103807200D01*
X131133333Y-103807200D02*
X131228571Y-103854819D01*
X131228571Y-103854819D02*
X131466666Y-103854819D01*
X131466666Y-103854819D02*
X131561904Y-103807200D01*
X131561904Y-103807200D02*
X131609523Y-103759580D01*
X149242857Y-95759580D02*
X149290476Y-95807200D01*
X149290476Y-95807200D02*
X149433333Y-95854819D01*
X149433333Y-95854819D02*
X149528571Y-95854819D01*
X149528571Y-95854819D02*
X149671428Y-95807200D01*
X149671428Y-95807200D02*
X149766666Y-95711961D01*
X149766666Y-95711961D02*
X149814285Y-95616723D01*
X149814285Y-95616723D02*
X149861904Y-95426247D01*
X149861904Y-95426247D02*
X149861904Y-95283390D01*
X149861904Y-95283390D02*
X149814285Y-95092914D01*
X149814285Y-95092914D02*
X149766666Y-94997676D01*
X149766666Y-94997676D02*
X149671428Y-94902438D01*
X149671428Y-94902438D02*
X149528571Y-94854819D01*
X149528571Y-94854819D02*
X149433333Y-94854819D01*
X149433333Y-94854819D02*
X149290476Y-94902438D01*
X149290476Y-94902438D02*
X149242857Y-94950057D01*
X148290476Y-95854819D02*
X148861904Y-95854819D01*
X148576190Y-95854819D02*
X148576190Y-94854819D01*
X148576190Y-94854819D02*
X148671428Y-94997676D01*
X148671428Y-94997676D02*
X148766666Y-95092914D01*
X148766666Y-95092914D02*
X148861904Y-95140533D01*
X147814285Y-95854819D02*
X147623809Y-95854819D01*
X147623809Y-95854819D02*
X147528571Y-95807200D01*
X147528571Y-95807200D02*
X147480952Y-95759580D01*
X147480952Y-95759580D02*
X147385714Y-95616723D01*
X147385714Y-95616723D02*
X147338095Y-95426247D01*
X147338095Y-95426247D02*
X147338095Y-95045295D01*
X147338095Y-95045295D02*
X147385714Y-94950057D01*
X147385714Y-94950057D02*
X147433333Y-94902438D01*
X147433333Y-94902438D02*
X147528571Y-94854819D01*
X147528571Y-94854819D02*
X147719047Y-94854819D01*
X147719047Y-94854819D02*
X147814285Y-94902438D01*
X147814285Y-94902438D02*
X147861904Y-94950057D01*
X147861904Y-94950057D02*
X147909523Y-95045295D01*
X147909523Y-95045295D02*
X147909523Y-95283390D01*
X147909523Y-95283390D02*
X147861904Y-95378628D01*
X147861904Y-95378628D02*
X147814285Y-95426247D01*
X147814285Y-95426247D02*
X147719047Y-95473866D01*
X147719047Y-95473866D02*
X147528571Y-95473866D01*
X147528571Y-95473866D02*
X147433333Y-95426247D01*
X147433333Y-95426247D02*
X147385714Y-95378628D01*
X147385714Y-95378628D02*
X147338095Y-95283390D01*
X149242857Y-103759580D02*
X149290476Y-103807200D01*
X149290476Y-103807200D02*
X149433333Y-103854819D01*
X149433333Y-103854819D02*
X149528571Y-103854819D01*
X149528571Y-103854819D02*
X149671428Y-103807200D01*
X149671428Y-103807200D02*
X149766666Y-103711961D01*
X149766666Y-103711961D02*
X149814285Y-103616723D01*
X149814285Y-103616723D02*
X149861904Y-103426247D01*
X149861904Y-103426247D02*
X149861904Y-103283390D01*
X149861904Y-103283390D02*
X149814285Y-103092914D01*
X149814285Y-103092914D02*
X149766666Y-102997676D01*
X149766666Y-102997676D02*
X149671428Y-102902438D01*
X149671428Y-102902438D02*
X149528571Y-102854819D01*
X149528571Y-102854819D02*
X149433333Y-102854819D01*
X149433333Y-102854819D02*
X149290476Y-102902438D01*
X149290476Y-102902438D02*
X149242857Y-102950057D01*
X148861904Y-102950057D02*
X148814285Y-102902438D01*
X148814285Y-102902438D02*
X148719047Y-102854819D01*
X148719047Y-102854819D02*
X148480952Y-102854819D01*
X148480952Y-102854819D02*
X148385714Y-102902438D01*
X148385714Y-102902438D02*
X148338095Y-102950057D01*
X148338095Y-102950057D02*
X148290476Y-103045295D01*
X148290476Y-103045295D02*
X148290476Y-103140533D01*
X148290476Y-103140533D02*
X148338095Y-103283390D01*
X148338095Y-103283390D02*
X148909523Y-103854819D01*
X148909523Y-103854819D02*
X148290476Y-103854819D01*
X147671428Y-102854819D02*
X147576190Y-102854819D01*
X147576190Y-102854819D02*
X147480952Y-102902438D01*
X147480952Y-102902438D02*
X147433333Y-102950057D01*
X147433333Y-102950057D02*
X147385714Y-103045295D01*
X147385714Y-103045295D02*
X147338095Y-103235771D01*
X147338095Y-103235771D02*
X147338095Y-103473866D01*
X147338095Y-103473866D02*
X147385714Y-103664342D01*
X147385714Y-103664342D02*
X147433333Y-103759580D01*
X147433333Y-103759580D02*
X147480952Y-103807200D01*
X147480952Y-103807200D02*
X147576190Y-103854819D01*
X147576190Y-103854819D02*
X147671428Y-103854819D01*
X147671428Y-103854819D02*
X147766666Y-103807200D01*
X147766666Y-103807200D02*
X147814285Y-103759580D01*
X147814285Y-103759580D02*
X147861904Y-103664342D01*
X147861904Y-103664342D02*
X147909523Y-103473866D01*
X147909523Y-103473866D02*
X147909523Y-103235771D01*
X147909523Y-103235771D02*
X147861904Y-103045295D01*
X147861904Y-103045295D02*
X147814285Y-102950057D01*
X147814285Y-102950057D02*
X147766666Y-102902438D01*
X147766666Y-102902438D02*
X147671428Y-102854819D01*
X138159580Y-88857142D02*
X138207200Y-88809523D01*
X138207200Y-88809523D02*
X138254819Y-88666666D01*
X138254819Y-88666666D02*
X138254819Y-88571428D01*
X138254819Y-88571428D02*
X138207200Y-88428571D01*
X138207200Y-88428571D02*
X138111961Y-88333333D01*
X138111961Y-88333333D02*
X138016723Y-88285714D01*
X138016723Y-88285714D02*
X137826247Y-88238095D01*
X137826247Y-88238095D02*
X137683390Y-88238095D01*
X137683390Y-88238095D02*
X137492914Y-88285714D01*
X137492914Y-88285714D02*
X137397676Y-88333333D01*
X137397676Y-88333333D02*
X137302438Y-88428571D01*
X137302438Y-88428571D02*
X137254819Y-88571428D01*
X137254819Y-88571428D02*
X137254819Y-88666666D01*
X137254819Y-88666666D02*
X137302438Y-88809523D01*
X137302438Y-88809523D02*
X137350057Y-88857142D01*
X137350057Y-89238095D02*
X137302438Y-89285714D01*
X137302438Y-89285714D02*
X137254819Y-89380952D01*
X137254819Y-89380952D02*
X137254819Y-89619047D01*
X137254819Y-89619047D02*
X137302438Y-89714285D01*
X137302438Y-89714285D02*
X137350057Y-89761904D01*
X137350057Y-89761904D02*
X137445295Y-89809523D01*
X137445295Y-89809523D02*
X137540533Y-89809523D01*
X137540533Y-89809523D02*
X137683390Y-89761904D01*
X137683390Y-89761904D02*
X138254819Y-89190476D01*
X138254819Y-89190476D02*
X138254819Y-89809523D01*
X137254819Y-90142857D02*
X137254819Y-90761904D01*
X137254819Y-90761904D02*
X137635771Y-90428571D01*
X137635771Y-90428571D02*
X137635771Y-90571428D01*
X137635771Y-90571428D02*
X137683390Y-90666666D01*
X137683390Y-90666666D02*
X137731009Y-90714285D01*
X137731009Y-90714285D02*
X137826247Y-90761904D01*
X137826247Y-90761904D02*
X138064342Y-90761904D01*
X138064342Y-90761904D02*
X138159580Y-90714285D01*
X138159580Y-90714285D02*
X138207200Y-90666666D01*
X138207200Y-90666666D02*
X138254819Y-90571428D01*
X138254819Y-90571428D02*
X138254819Y-90285714D01*
X138254819Y-90285714D02*
X138207200Y-90190476D01*
X138207200Y-90190476D02*
X138159580Y-90142857D01*
X132942857Y-96759580D02*
X132990476Y-96807200D01*
X132990476Y-96807200D02*
X133133333Y-96854819D01*
X133133333Y-96854819D02*
X133228571Y-96854819D01*
X133228571Y-96854819D02*
X133371428Y-96807200D01*
X133371428Y-96807200D02*
X133466666Y-96711961D01*
X133466666Y-96711961D02*
X133514285Y-96616723D01*
X133514285Y-96616723D02*
X133561904Y-96426247D01*
X133561904Y-96426247D02*
X133561904Y-96283390D01*
X133561904Y-96283390D02*
X133514285Y-96092914D01*
X133514285Y-96092914D02*
X133466666Y-95997676D01*
X133466666Y-95997676D02*
X133371428Y-95902438D01*
X133371428Y-95902438D02*
X133228571Y-95854819D01*
X133228571Y-95854819D02*
X133133333Y-95854819D01*
X133133333Y-95854819D02*
X132990476Y-95902438D01*
X132990476Y-95902438D02*
X132942857Y-95950057D01*
X132561904Y-95950057D02*
X132514285Y-95902438D01*
X132514285Y-95902438D02*
X132419047Y-95854819D01*
X132419047Y-95854819D02*
X132180952Y-95854819D01*
X132180952Y-95854819D02*
X132085714Y-95902438D01*
X132085714Y-95902438D02*
X132038095Y-95950057D01*
X132038095Y-95950057D02*
X131990476Y-96045295D01*
X131990476Y-96045295D02*
X131990476Y-96140533D01*
X131990476Y-96140533D02*
X132038095Y-96283390D01*
X132038095Y-96283390D02*
X132609523Y-96854819D01*
X132609523Y-96854819D02*
X131990476Y-96854819D01*
X131133333Y-96188152D02*
X131133333Y-96854819D01*
X131371428Y-95807200D02*
X131609523Y-96521485D01*
X131609523Y-96521485D02*
X130990476Y-96521485D01*
X132942857Y-101859580D02*
X132990476Y-101907200D01*
X132990476Y-101907200D02*
X133133333Y-101954819D01*
X133133333Y-101954819D02*
X133228571Y-101954819D01*
X133228571Y-101954819D02*
X133371428Y-101907200D01*
X133371428Y-101907200D02*
X133466666Y-101811961D01*
X133466666Y-101811961D02*
X133514285Y-101716723D01*
X133514285Y-101716723D02*
X133561904Y-101526247D01*
X133561904Y-101526247D02*
X133561904Y-101383390D01*
X133561904Y-101383390D02*
X133514285Y-101192914D01*
X133514285Y-101192914D02*
X133466666Y-101097676D01*
X133466666Y-101097676D02*
X133371428Y-101002438D01*
X133371428Y-101002438D02*
X133228571Y-100954819D01*
X133228571Y-100954819D02*
X133133333Y-100954819D01*
X133133333Y-100954819D02*
X132990476Y-101002438D01*
X132990476Y-101002438D02*
X132942857Y-101050057D01*
X132561904Y-101050057D02*
X132514285Y-101002438D01*
X132514285Y-101002438D02*
X132419047Y-100954819D01*
X132419047Y-100954819D02*
X132180952Y-100954819D01*
X132180952Y-100954819D02*
X132085714Y-101002438D01*
X132085714Y-101002438D02*
X132038095Y-101050057D01*
X132038095Y-101050057D02*
X131990476Y-101145295D01*
X131990476Y-101145295D02*
X131990476Y-101240533D01*
X131990476Y-101240533D02*
X132038095Y-101383390D01*
X132038095Y-101383390D02*
X132609523Y-101954819D01*
X132609523Y-101954819D02*
X131990476Y-101954819D01*
X131133333Y-100954819D02*
X131323809Y-100954819D01*
X131323809Y-100954819D02*
X131419047Y-101002438D01*
X131419047Y-101002438D02*
X131466666Y-101050057D01*
X131466666Y-101050057D02*
X131561904Y-101192914D01*
X131561904Y-101192914D02*
X131609523Y-101383390D01*
X131609523Y-101383390D02*
X131609523Y-101764342D01*
X131609523Y-101764342D02*
X131561904Y-101859580D01*
X131561904Y-101859580D02*
X131514285Y-101907200D01*
X131514285Y-101907200D02*
X131419047Y-101954819D01*
X131419047Y-101954819D02*
X131228571Y-101954819D01*
X131228571Y-101954819D02*
X131133333Y-101907200D01*
X131133333Y-101907200D02*
X131085714Y-101859580D01*
X131085714Y-101859580D02*
X131038095Y-101764342D01*
X131038095Y-101764342D02*
X131038095Y-101526247D01*
X131038095Y-101526247D02*
X131085714Y-101431009D01*
X131085714Y-101431009D02*
X131133333Y-101383390D01*
X131133333Y-101383390D02*
X131228571Y-101335771D01*
X131228571Y-101335771D02*
X131419047Y-101335771D01*
X131419047Y-101335771D02*
X131514285Y-101383390D01*
X131514285Y-101383390D02*
X131561904Y-101431009D01*
X131561904Y-101431009D02*
X131609523Y-101526247D01*
X149242857Y-94159580D02*
X149290476Y-94207200D01*
X149290476Y-94207200D02*
X149433333Y-94254819D01*
X149433333Y-94254819D02*
X149528571Y-94254819D01*
X149528571Y-94254819D02*
X149671428Y-94207200D01*
X149671428Y-94207200D02*
X149766666Y-94111961D01*
X149766666Y-94111961D02*
X149814285Y-94016723D01*
X149814285Y-94016723D02*
X149861904Y-93826247D01*
X149861904Y-93826247D02*
X149861904Y-93683390D01*
X149861904Y-93683390D02*
X149814285Y-93492914D01*
X149814285Y-93492914D02*
X149766666Y-93397676D01*
X149766666Y-93397676D02*
X149671428Y-93302438D01*
X149671428Y-93302438D02*
X149528571Y-93254819D01*
X149528571Y-93254819D02*
X149433333Y-93254819D01*
X149433333Y-93254819D02*
X149290476Y-93302438D01*
X149290476Y-93302438D02*
X149242857Y-93350057D01*
X148861904Y-93350057D02*
X148814285Y-93302438D01*
X148814285Y-93302438D02*
X148719047Y-93254819D01*
X148719047Y-93254819D02*
X148480952Y-93254819D01*
X148480952Y-93254819D02*
X148385714Y-93302438D01*
X148385714Y-93302438D02*
X148338095Y-93350057D01*
X148338095Y-93350057D02*
X148290476Y-93445295D01*
X148290476Y-93445295D02*
X148290476Y-93540533D01*
X148290476Y-93540533D02*
X148338095Y-93683390D01*
X148338095Y-93683390D02*
X148909523Y-94254819D01*
X148909523Y-94254819D02*
X148290476Y-94254819D01*
X147957142Y-93254819D02*
X147290476Y-93254819D01*
X147290476Y-93254819D02*
X147719047Y-94254819D01*
X132942857Y-98759580D02*
X132990476Y-98807200D01*
X132990476Y-98807200D02*
X133133333Y-98854819D01*
X133133333Y-98854819D02*
X133228571Y-98854819D01*
X133228571Y-98854819D02*
X133371428Y-98807200D01*
X133371428Y-98807200D02*
X133466666Y-98711961D01*
X133466666Y-98711961D02*
X133514285Y-98616723D01*
X133514285Y-98616723D02*
X133561904Y-98426247D01*
X133561904Y-98426247D02*
X133561904Y-98283390D01*
X133561904Y-98283390D02*
X133514285Y-98092914D01*
X133514285Y-98092914D02*
X133466666Y-97997676D01*
X133466666Y-97997676D02*
X133371428Y-97902438D01*
X133371428Y-97902438D02*
X133228571Y-97854819D01*
X133228571Y-97854819D02*
X133133333Y-97854819D01*
X133133333Y-97854819D02*
X132990476Y-97902438D01*
X132990476Y-97902438D02*
X132942857Y-97950057D01*
X132561904Y-97950057D02*
X132514285Y-97902438D01*
X132514285Y-97902438D02*
X132419047Y-97854819D01*
X132419047Y-97854819D02*
X132180952Y-97854819D01*
X132180952Y-97854819D02*
X132085714Y-97902438D01*
X132085714Y-97902438D02*
X132038095Y-97950057D01*
X132038095Y-97950057D02*
X131990476Y-98045295D01*
X131990476Y-98045295D02*
X131990476Y-98140533D01*
X131990476Y-98140533D02*
X132038095Y-98283390D01*
X132038095Y-98283390D02*
X132609523Y-98854819D01*
X132609523Y-98854819D02*
X131990476Y-98854819D01*
X131419047Y-98283390D02*
X131514285Y-98235771D01*
X131514285Y-98235771D02*
X131561904Y-98188152D01*
X131561904Y-98188152D02*
X131609523Y-98092914D01*
X131609523Y-98092914D02*
X131609523Y-98045295D01*
X131609523Y-98045295D02*
X131561904Y-97950057D01*
X131561904Y-97950057D02*
X131514285Y-97902438D01*
X131514285Y-97902438D02*
X131419047Y-97854819D01*
X131419047Y-97854819D02*
X131228571Y-97854819D01*
X131228571Y-97854819D02*
X131133333Y-97902438D01*
X131133333Y-97902438D02*
X131085714Y-97950057D01*
X131085714Y-97950057D02*
X131038095Y-98045295D01*
X131038095Y-98045295D02*
X131038095Y-98092914D01*
X131038095Y-98092914D02*
X131085714Y-98188152D01*
X131085714Y-98188152D02*
X131133333Y-98235771D01*
X131133333Y-98235771D02*
X131228571Y-98283390D01*
X131228571Y-98283390D02*
X131419047Y-98283390D01*
X131419047Y-98283390D02*
X131514285Y-98331009D01*
X131514285Y-98331009D02*
X131561904Y-98378628D01*
X131561904Y-98378628D02*
X131609523Y-98473866D01*
X131609523Y-98473866D02*
X131609523Y-98664342D01*
X131609523Y-98664342D02*
X131561904Y-98759580D01*
X131561904Y-98759580D02*
X131514285Y-98807200D01*
X131514285Y-98807200D02*
X131419047Y-98854819D01*
X131419047Y-98854819D02*
X131228571Y-98854819D01*
X131228571Y-98854819D02*
X131133333Y-98807200D01*
X131133333Y-98807200D02*
X131085714Y-98759580D01*
X131085714Y-98759580D02*
X131038095Y-98664342D01*
X131038095Y-98664342D02*
X131038095Y-98473866D01*
X131038095Y-98473866D02*
X131085714Y-98378628D01*
X131085714Y-98378628D02*
X131133333Y-98331009D01*
X131133333Y-98331009D02*
X131228571Y-98283390D01*
X145259580Y-88857142D02*
X145307200Y-88809523D01*
X145307200Y-88809523D02*
X145354819Y-88666666D01*
X145354819Y-88666666D02*
X145354819Y-88571428D01*
X145354819Y-88571428D02*
X145307200Y-88428571D01*
X145307200Y-88428571D02*
X145211961Y-88333333D01*
X145211961Y-88333333D02*
X145116723Y-88285714D01*
X145116723Y-88285714D02*
X144926247Y-88238095D01*
X144926247Y-88238095D02*
X144783390Y-88238095D01*
X144783390Y-88238095D02*
X144592914Y-88285714D01*
X144592914Y-88285714D02*
X144497676Y-88333333D01*
X144497676Y-88333333D02*
X144402438Y-88428571D01*
X144402438Y-88428571D02*
X144354819Y-88571428D01*
X144354819Y-88571428D02*
X144354819Y-88666666D01*
X144354819Y-88666666D02*
X144402438Y-88809523D01*
X144402438Y-88809523D02*
X144450057Y-88857142D01*
X144450057Y-89238095D02*
X144402438Y-89285714D01*
X144402438Y-89285714D02*
X144354819Y-89380952D01*
X144354819Y-89380952D02*
X144354819Y-89619047D01*
X144354819Y-89619047D02*
X144402438Y-89714285D01*
X144402438Y-89714285D02*
X144450057Y-89761904D01*
X144450057Y-89761904D02*
X144545295Y-89809523D01*
X144545295Y-89809523D02*
X144640533Y-89809523D01*
X144640533Y-89809523D02*
X144783390Y-89761904D01*
X144783390Y-89761904D02*
X145354819Y-89190476D01*
X145354819Y-89190476D02*
X145354819Y-89809523D01*
X145354819Y-90285714D02*
X145354819Y-90476190D01*
X145354819Y-90476190D02*
X145307200Y-90571428D01*
X145307200Y-90571428D02*
X145259580Y-90619047D01*
X145259580Y-90619047D02*
X145116723Y-90714285D01*
X145116723Y-90714285D02*
X144926247Y-90761904D01*
X144926247Y-90761904D02*
X144545295Y-90761904D01*
X144545295Y-90761904D02*
X144450057Y-90714285D01*
X144450057Y-90714285D02*
X144402438Y-90666666D01*
X144402438Y-90666666D02*
X144354819Y-90571428D01*
X144354819Y-90571428D02*
X144354819Y-90380952D01*
X144354819Y-90380952D02*
X144402438Y-90285714D01*
X144402438Y-90285714D02*
X144450057Y-90238095D01*
X144450057Y-90238095D02*
X144545295Y-90190476D01*
X144545295Y-90190476D02*
X144783390Y-90190476D01*
X144783390Y-90190476D02*
X144878628Y-90238095D01*
X144878628Y-90238095D02*
X144926247Y-90285714D01*
X144926247Y-90285714D02*
X144973866Y-90380952D01*
X144973866Y-90380952D02*
X144973866Y-90571428D01*
X144973866Y-90571428D02*
X144926247Y-90666666D01*
X144926247Y-90666666D02*
X144878628Y-90714285D01*
X144878628Y-90714285D02*
X144783390Y-90761904D01*
X146659580Y-109857142D02*
X146707200Y-109809523D01*
X146707200Y-109809523D02*
X146754819Y-109666666D01*
X146754819Y-109666666D02*
X146754819Y-109571428D01*
X146754819Y-109571428D02*
X146707200Y-109428571D01*
X146707200Y-109428571D02*
X146611961Y-109333333D01*
X146611961Y-109333333D02*
X146516723Y-109285714D01*
X146516723Y-109285714D02*
X146326247Y-109238095D01*
X146326247Y-109238095D02*
X146183390Y-109238095D01*
X146183390Y-109238095D02*
X145992914Y-109285714D01*
X145992914Y-109285714D02*
X145897676Y-109333333D01*
X145897676Y-109333333D02*
X145802438Y-109428571D01*
X145802438Y-109428571D02*
X145754819Y-109571428D01*
X145754819Y-109571428D02*
X145754819Y-109666666D01*
X145754819Y-109666666D02*
X145802438Y-109809523D01*
X145802438Y-109809523D02*
X145850057Y-109857142D01*
X145754819Y-110190476D02*
X145754819Y-110809523D01*
X145754819Y-110809523D02*
X146135771Y-110476190D01*
X146135771Y-110476190D02*
X146135771Y-110619047D01*
X146135771Y-110619047D02*
X146183390Y-110714285D01*
X146183390Y-110714285D02*
X146231009Y-110761904D01*
X146231009Y-110761904D02*
X146326247Y-110809523D01*
X146326247Y-110809523D02*
X146564342Y-110809523D01*
X146564342Y-110809523D02*
X146659580Y-110761904D01*
X146659580Y-110761904D02*
X146707200Y-110714285D01*
X146707200Y-110714285D02*
X146754819Y-110619047D01*
X146754819Y-110619047D02*
X146754819Y-110333333D01*
X146754819Y-110333333D02*
X146707200Y-110238095D01*
X146707200Y-110238095D02*
X146659580Y-110190476D01*
X146754819Y-111761904D02*
X146754819Y-111190476D01*
X146754819Y-111476190D02*
X145754819Y-111476190D01*
X145754819Y-111476190D02*
X145897676Y-111380952D01*
X145897676Y-111380952D02*
X145992914Y-111285714D01*
X145992914Y-111285714D02*
X146040533Y-111190476D01*
X149242857Y-101859580D02*
X149290476Y-101907200D01*
X149290476Y-101907200D02*
X149433333Y-101954819D01*
X149433333Y-101954819D02*
X149528571Y-101954819D01*
X149528571Y-101954819D02*
X149671428Y-101907200D01*
X149671428Y-101907200D02*
X149766666Y-101811961D01*
X149766666Y-101811961D02*
X149814285Y-101716723D01*
X149814285Y-101716723D02*
X149861904Y-101526247D01*
X149861904Y-101526247D02*
X149861904Y-101383390D01*
X149861904Y-101383390D02*
X149814285Y-101192914D01*
X149814285Y-101192914D02*
X149766666Y-101097676D01*
X149766666Y-101097676D02*
X149671428Y-101002438D01*
X149671428Y-101002438D02*
X149528571Y-100954819D01*
X149528571Y-100954819D02*
X149433333Y-100954819D01*
X149433333Y-100954819D02*
X149290476Y-101002438D01*
X149290476Y-101002438D02*
X149242857Y-101050057D01*
X148909523Y-100954819D02*
X148290476Y-100954819D01*
X148290476Y-100954819D02*
X148623809Y-101335771D01*
X148623809Y-101335771D02*
X148480952Y-101335771D01*
X148480952Y-101335771D02*
X148385714Y-101383390D01*
X148385714Y-101383390D02*
X148338095Y-101431009D01*
X148338095Y-101431009D02*
X148290476Y-101526247D01*
X148290476Y-101526247D02*
X148290476Y-101764342D01*
X148290476Y-101764342D02*
X148338095Y-101859580D01*
X148338095Y-101859580D02*
X148385714Y-101907200D01*
X148385714Y-101907200D02*
X148480952Y-101954819D01*
X148480952Y-101954819D02*
X148766666Y-101954819D01*
X148766666Y-101954819D02*
X148861904Y-101907200D01*
X148861904Y-101907200D02*
X148909523Y-101859580D01*
X147957142Y-100954819D02*
X147338095Y-100954819D01*
X147338095Y-100954819D02*
X147671428Y-101335771D01*
X147671428Y-101335771D02*
X147528571Y-101335771D01*
X147528571Y-101335771D02*
X147433333Y-101383390D01*
X147433333Y-101383390D02*
X147385714Y-101431009D01*
X147385714Y-101431009D02*
X147338095Y-101526247D01*
X147338095Y-101526247D02*
X147338095Y-101764342D01*
X147338095Y-101764342D02*
X147385714Y-101859580D01*
X147385714Y-101859580D02*
X147433333Y-101907200D01*
X147433333Y-101907200D02*
X147528571Y-101954819D01*
X147528571Y-101954819D02*
X147814285Y-101954819D01*
X147814285Y-101954819D02*
X147909523Y-101907200D01*
X147909523Y-101907200D02*
X147957142Y-101859580D01*
X144359580Y-109857142D02*
X144407200Y-109809523D01*
X144407200Y-109809523D02*
X144454819Y-109666666D01*
X144454819Y-109666666D02*
X144454819Y-109571428D01*
X144454819Y-109571428D02*
X144407200Y-109428571D01*
X144407200Y-109428571D02*
X144311961Y-109333333D01*
X144311961Y-109333333D02*
X144216723Y-109285714D01*
X144216723Y-109285714D02*
X144026247Y-109238095D01*
X144026247Y-109238095D02*
X143883390Y-109238095D01*
X143883390Y-109238095D02*
X143692914Y-109285714D01*
X143692914Y-109285714D02*
X143597676Y-109333333D01*
X143597676Y-109333333D02*
X143502438Y-109428571D01*
X143502438Y-109428571D02*
X143454819Y-109571428D01*
X143454819Y-109571428D02*
X143454819Y-109666666D01*
X143454819Y-109666666D02*
X143502438Y-109809523D01*
X143502438Y-109809523D02*
X143550057Y-109857142D01*
X143454819Y-110190476D02*
X143454819Y-110809523D01*
X143454819Y-110809523D02*
X143835771Y-110476190D01*
X143835771Y-110476190D02*
X143835771Y-110619047D01*
X143835771Y-110619047D02*
X143883390Y-110714285D01*
X143883390Y-110714285D02*
X143931009Y-110761904D01*
X143931009Y-110761904D02*
X144026247Y-110809523D01*
X144026247Y-110809523D02*
X144264342Y-110809523D01*
X144264342Y-110809523D02*
X144359580Y-110761904D01*
X144359580Y-110761904D02*
X144407200Y-110714285D01*
X144407200Y-110714285D02*
X144454819Y-110619047D01*
X144454819Y-110619047D02*
X144454819Y-110333333D01*
X144454819Y-110333333D02*
X144407200Y-110238095D01*
X144407200Y-110238095D02*
X144359580Y-110190476D01*
X143788152Y-111666666D02*
X144454819Y-111666666D01*
X143407200Y-111428571D02*
X144121485Y-111190476D01*
X144121485Y-111190476D02*
X144121485Y-111809523D01*
X150759580Y-88857142D02*
X150807200Y-88809523D01*
X150807200Y-88809523D02*
X150854819Y-88666666D01*
X150854819Y-88666666D02*
X150854819Y-88571428D01*
X150854819Y-88571428D02*
X150807200Y-88428571D01*
X150807200Y-88428571D02*
X150711961Y-88333333D01*
X150711961Y-88333333D02*
X150616723Y-88285714D01*
X150616723Y-88285714D02*
X150426247Y-88238095D01*
X150426247Y-88238095D02*
X150283390Y-88238095D01*
X150283390Y-88238095D02*
X150092914Y-88285714D01*
X150092914Y-88285714D02*
X149997676Y-88333333D01*
X149997676Y-88333333D02*
X149902438Y-88428571D01*
X149902438Y-88428571D02*
X149854819Y-88571428D01*
X149854819Y-88571428D02*
X149854819Y-88666666D01*
X149854819Y-88666666D02*
X149902438Y-88809523D01*
X149902438Y-88809523D02*
X149950057Y-88857142D01*
X149854819Y-89190476D02*
X149854819Y-89809523D01*
X149854819Y-89809523D02*
X150235771Y-89476190D01*
X150235771Y-89476190D02*
X150235771Y-89619047D01*
X150235771Y-89619047D02*
X150283390Y-89714285D01*
X150283390Y-89714285D02*
X150331009Y-89761904D01*
X150331009Y-89761904D02*
X150426247Y-89809523D01*
X150426247Y-89809523D02*
X150664342Y-89809523D01*
X150664342Y-89809523D02*
X150759580Y-89761904D01*
X150759580Y-89761904D02*
X150807200Y-89714285D01*
X150807200Y-89714285D02*
X150854819Y-89619047D01*
X150854819Y-89619047D02*
X150854819Y-89333333D01*
X150854819Y-89333333D02*
X150807200Y-89238095D01*
X150807200Y-89238095D02*
X150759580Y-89190476D01*
X150283390Y-90380952D02*
X150235771Y-90285714D01*
X150235771Y-90285714D02*
X150188152Y-90238095D01*
X150188152Y-90238095D02*
X150092914Y-90190476D01*
X150092914Y-90190476D02*
X150045295Y-90190476D01*
X150045295Y-90190476D02*
X149950057Y-90238095D01*
X149950057Y-90238095D02*
X149902438Y-90285714D01*
X149902438Y-90285714D02*
X149854819Y-90380952D01*
X149854819Y-90380952D02*
X149854819Y-90571428D01*
X149854819Y-90571428D02*
X149902438Y-90666666D01*
X149902438Y-90666666D02*
X149950057Y-90714285D01*
X149950057Y-90714285D02*
X150045295Y-90761904D01*
X150045295Y-90761904D02*
X150092914Y-90761904D01*
X150092914Y-90761904D02*
X150188152Y-90714285D01*
X150188152Y-90714285D02*
X150235771Y-90666666D01*
X150235771Y-90666666D02*
X150283390Y-90571428D01*
X150283390Y-90571428D02*
X150283390Y-90380952D01*
X150283390Y-90380952D02*
X150331009Y-90285714D01*
X150331009Y-90285714D02*
X150378628Y-90238095D01*
X150378628Y-90238095D02*
X150473866Y-90190476D01*
X150473866Y-90190476D02*
X150664342Y-90190476D01*
X150664342Y-90190476D02*
X150759580Y-90238095D01*
X150759580Y-90238095D02*
X150807200Y-90285714D01*
X150807200Y-90285714D02*
X150854819Y-90380952D01*
X150854819Y-90380952D02*
X150854819Y-90571428D01*
X150854819Y-90571428D02*
X150807200Y-90666666D01*
X150807200Y-90666666D02*
X150759580Y-90714285D01*
X150759580Y-90714285D02*
X150664342Y-90761904D01*
X150664342Y-90761904D02*
X150473866Y-90761904D01*
X150473866Y-90761904D02*
X150378628Y-90714285D01*
X150378628Y-90714285D02*
X150331009Y-90666666D01*
X150331009Y-90666666D02*
X150283390Y-90571428D01*
X132942857Y-95159580D02*
X132990476Y-95207200D01*
X132990476Y-95207200D02*
X133133333Y-95254819D01*
X133133333Y-95254819D02*
X133228571Y-95254819D01*
X133228571Y-95254819D02*
X133371428Y-95207200D01*
X133371428Y-95207200D02*
X133466666Y-95111961D01*
X133466666Y-95111961D02*
X133514285Y-95016723D01*
X133514285Y-95016723D02*
X133561904Y-94826247D01*
X133561904Y-94826247D02*
X133561904Y-94683390D01*
X133561904Y-94683390D02*
X133514285Y-94492914D01*
X133514285Y-94492914D02*
X133466666Y-94397676D01*
X133466666Y-94397676D02*
X133371428Y-94302438D01*
X133371428Y-94302438D02*
X133228571Y-94254819D01*
X133228571Y-94254819D02*
X133133333Y-94254819D01*
X133133333Y-94254819D02*
X132990476Y-94302438D01*
X132990476Y-94302438D02*
X132942857Y-94350057D01*
X132609523Y-94254819D02*
X131990476Y-94254819D01*
X131990476Y-94254819D02*
X132323809Y-94635771D01*
X132323809Y-94635771D02*
X132180952Y-94635771D01*
X132180952Y-94635771D02*
X132085714Y-94683390D01*
X132085714Y-94683390D02*
X132038095Y-94731009D01*
X132038095Y-94731009D02*
X131990476Y-94826247D01*
X131990476Y-94826247D02*
X131990476Y-95064342D01*
X131990476Y-95064342D02*
X132038095Y-95159580D01*
X132038095Y-95159580D02*
X132085714Y-95207200D01*
X132085714Y-95207200D02*
X132180952Y-95254819D01*
X132180952Y-95254819D02*
X132466666Y-95254819D01*
X132466666Y-95254819D02*
X132561904Y-95207200D01*
X132561904Y-95207200D02*
X132609523Y-95159580D01*
X131514285Y-95254819D02*
X131323809Y-95254819D01*
X131323809Y-95254819D02*
X131228571Y-95207200D01*
X131228571Y-95207200D02*
X131180952Y-95159580D01*
X131180952Y-95159580D02*
X131085714Y-95016723D01*
X131085714Y-95016723D02*
X131038095Y-94826247D01*
X131038095Y-94826247D02*
X131038095Y-94445295D01*
X131038095Y-94445295D02*
X131085714Y-94350057D01*
X131085714Y-94350057D02*
X131133333Y-94302438D01*
X131133333Y-94302438D02*
X131228571Y-94254819D01*
X131228571Y-94254819D02*
X131419047Y-94254819D01*
X131419047Y-94254819D02*
X131514285Y-94302438D01*
X131514285Y-94302438D02*
X131561904Y-94350057D01*
X131561904Y-94350057D02*
X131609523Y-94445295D01*
X131609523Y-94445295D02*
X131609523Y-94683390D01*
X131609523Y-94683390D02*
X131561904Y-94778628D01*
X131561904Y-94778628D02*
X131514285Y-94826247D01*
X131514285Y-94826247D02*
X131419047Y-94873866D01*
X131419047Y-94873866D02*
X131228571Y-94873866D01*
X131228571Y-94873866D02*
X131133333Y-94826247D01*
X131133333Y-94826247D02*
X131085714Y-94778628D01*
X131085714Y-94778628D02*
X131038095Y-94683390D01*
X156842857Y-98759580D02*
X156890476Y-98807200D01*
X156890476Y-98807200D02*
X157033333Y-98854819D01*
X157033333Y-98854819D02*
X157128571Y-98854819D01*
X157128571Y-98854819D02*
X157271428Y-98807200D01*
X157271428Y-98807200D02*
X157366666Y-98711961D01*
X157366666Y-98711961D02*
X157414285Y-98616723D01*
X157414285Y-98616723D02*
X157461904Y-98426247D01*
X157461904Y-98426247D02*
X157461904Y-98283390D01*
X157461904Y-98283390D02*
X157414285Y-98092914D01*
X157414285Y-98092914D02*
X157366666Y-97997676D01*
X157366666Y-97997676D02*
X157271428Y-97902438D01*
X157271428Y-97902438D02*
X157128571Y-97854819D01*
X157128571Y-97854819D02*
X157033333Y-97854819D01*
X157033333Y-97854819D02*
X156890476Y-97902438D01*
X156890476Y-97902438D02*
X156842857Y-97950057D01*
X155985714Y-98188152D02*
X155985714Y-98854819D01*
X156223809Y-97807200D02*
X156461904Y-98521485D01*
X156461904Y-98521485D02*
X155842857Y-98521485D01*
X155509523Y-97950057D02*
X155461904Y-97902438D01*
X155461904Y-97902438D02*
X155366666Y-97854819D01*
X155366666Y-97854819D02*
X155128571Y-97854819D01*
X155128571Y-97854819D02*
X155033333Y-97902438D01*
X155033333Y-97902438D02*
X154985714Y-97950057D01*
X154985714Y-97950057D02*
X154938095Y-98045295D01*
X154938095Y-98045295D02*
X154938095Y-98140533D01*
X154938095Y-98140533D02*
X154985714Y-98283390D01*
X154985714Y-98283390D02*
X155557142Y-98854819D01*
X155557142Y-98854819D02*
X154938095Y-98854819D01*
X124259580Y-109557142D02*
X124307200Y-109509523D01*
X124307200Y-109509523D02*
X124354819Y-109366666D01*
X124354819Y-109366666D02*
X124354819Y-109271428D01*
X124354819Y-109271428D02*
X124307200Y-109128571D01*
X124307200Y-109128571D02*
X124211961Y-109033333D01*
X124211961Y-109033333D02*
X124116723Y-108985714D01*
X124116723Y-108985714D02*
X123926247Y-108938095D01*
X123926247Y-108938095D02*
X123783390Y-108938095D01*
X123783390Y-108938095D02*
X123592914Y-108985714D01*
X123592914Y-108985714D02*
X123497676Y-109033333D01*
X123497676Y-109033333D02*
X123402438Y-109128571D01*
X123402438Y-109128571D02*
X123354819Y-109271428D01*
X123354819Y-109271428D02*
X123354819Y-109366666D01*
X123354819Y-109366666D02*
X123402438Y-109509523D01*
X123402438Y-109509523D02*
X123450057Y-109557142D01*
X123688152Y-110414285D02*
X124354819Y-110414285D01*
X123307200Y-110176190D02*
X124021485Y-109938095D01*
X124021485Y-109938095D02*
X124021485Y-110557142D01*
X123354819Y-110842857D02*
X123354819Y-111461904D01*
X123354819Y-111461904D02*
X123735771Y-111128571D01*
X123735771Y-111128571D02*
X123735771Y-111271428D01*
X123735771Y-111271428D02*
X123783390Y-111366666D01*
X123783390Y-111366666D02*
X123831009Y-111414285D01*
X123831009Y-111414285D02*
X123926247Y-111461904D01*
X123926247Y-111461904D02*
X124164342Y-111461904D01*
X124164342Y-111461904D02*
X124259580Y-111414285D01*
X124259580Y-111414285D02*
X124307200Y-111366666D01*
X124307200Y-111366666D02*
X124354819Y-111271428D01*
X124354819Y-111271428D02*
X124354819Y-110985714D01*
X124354819Y-110985714D02*
X124307200Y-110890476D01*
X124307200Y-110890476D02*
X124259580Y-110842857D01*
X148659580Y-109857142D02*
X148707200Y-109809523D01*
X148707200Y-109809523D02*
X148754819Y-109666666D01*
X148754819Y-109666666D02*
X148754819Y-109571428D01*
X148754819Y-109571428D02*
X148707200Y-109428571D01*
X148707200Y-109428571D02*
X148611961Y-109333333D01*
X148611961Y-109333333D02*
X148516723Y-109285714D01*
X148516723Y-109285714D02*
X148326247Y-109238095D01*
X148326247Y-109238095D02*
X148183390Y-109238095D01*
X148183390Y-109238095D02*
X147992914Y-109285714D01*
X147992914Y-109285714D02*
X147897676Y-109333333D01*
X147897676Y-109333333D02*
X147802438Y-109428571D01*
X147802438Y-109428571D02*
X147754819Y-109571428D01*
X147754819Y-109571428D02*
X147754819Y-109666666D01*
X147754819Y-109666666D02*
X147802438Y-109809523D01*
X147802438Y-109809523D02*
X147850057Y-109857142D01*
X148088152Y-110714285D02*
X148754819Y-110714285D01*
X147707200Y-110476190D02*
X148421485Y-110238095D01*
X148421485Y-110238095D02*
X148421485Y-110857142D01*
X147754819Y-111714285D02*
X147754819Y-111238095D01*
X147754819Y-111238095D02*
X148231009Y-111190476D01*
X148231009Y-111190476D02*
X148183390Y-111238095D01*
X148183390Y-111238095D02*
X148135771Y-111333333D01*
X148135771Y-111333333D02*
X148135771Y-111571428D01*
X148135771Y-111571428D02*
X148183390Y-111666666D01*
X148183390Y-111666666D02*
X148231009Y-111714285D01*
X148231009Y-111714285D02*
X148326247Y-111761904D01*
X148326247Y-111761904D02*
X148564342Y-111761904D01*
X148564342Y-111761904D02*
X148659580Y-111714285D01*
X148659580Y-111714285D02*
X148707200Y-111666666D01*
X148707200Y-111666666D02*
X148754819Y-111571428D01*
X148754819Y-111571428D02*
X148754819Y-111333333D01*
X148754819Y-111333333D02*
X148707200Y-111238095D01*
X148707200Y-111238095D02*
X148659580Y-111190476D01*
X156559580Y-61033333D02*
X156607200Y-60985714D01*
X156607200Y-60985714D02*
X156654819Y-60842857D01*
X156654819Y-60842857D02*
X156654819Y-60747619D01*
X156654819Y-60747619D02*
X156607200Y-60604762D01*
X156607200Y-60604762D02*
X156511961Y-60509524D01*
X156511961Y-60509524D02*
X156416723Y-60461905D01*
X156416723Y-60461905D02*
X156226247Y-60414286D01*
X156226247Y-60414286D02*
X156083390Y-60414286D01*
X156083390Y-60414286D02*
X155892914Y-60461905D01*
X155892914Y-60461905D02*
X155797676Y-60509524D01*
X155797676Y-60509524D02*
X155702438Y-60604762D01*
X155702438Y-60604762D02*
X155654819Y-60747619D01*
X155654819Y-60747619D02*
X155654819Y-60842857D01*
X155654819Y-60842857D02*
X155702438Y-60985714D01*
X155702438Y-60985714D02*
X155750057Y-61033333D01*
X155654819Y-61890476D02*
X155654819Y-61700000D01*
X155654819Y-61700000D02*
X155702438Y-61604762D01*
X155702438Y-61604762D02*
X155750057Y-61557143D01*
X155750057Y-61557143D02*
X155892914Y-61461905D01*
X155892914Y-61461905D02*
X156083390Y-61414286D01*
X156083390Y-61414286D02*
X156464342Y-61414286D01*
X156464342Y-61414286D02*
X156559580Y-61461905D01*
X156559580Y-61461905D02*
X156607200Y-61509524D01*
X156607200Y-61509524D02*
X156654819Y-61604762D01*
X156654819Y-61604762D02*
X156654819Y-61795238D01*
X156654819Y-61795238D02*
X156607200Y-61890476D01*
X156607200Y-61890476D02*
X156559580Y-61938095D01*
X156559580Y-61938095D02*
X156464342Y-61985714D01*
X156464342Y-61985714D02*
X156226247Y-61985714D01*
X156226247Y-61985714D02*
X156131009Y-61938095D01*
X156131009Y-61938095D02*
X156083390Y-61890476D01*
X156083390Y-61890476D02*
X156035771Y-61795238D01*
X156035771Y-61795238D02*
X156035771Y-61604762D01*
X156035771Y-61604762D02*
X156083390Y-61509524D01*
X156083390Y-61509524D02*
X156131009Y-61461905D01*
X156131009Y-61461905D02*
X156226247Y-61414286D01*
X141761904Y-63854819D02*
X141761904Y-64664342D01*
X141761904Y-64664342D02*
X141714285Y-64759580D01*
X141714285Y-64759580D02*
X141666666Y-64807200D01*
X141666666Y-64807200D02*
X141571428Y-64854819D01*
X141571428Y-64854819D02*
X141380952Y-64854819D01*
X141380952Y-64854819D02*
X141285714Y-64807200D01*
X141285714Y-64807200D02*
X141238095Y-64759580D01*
X141238095Y-64759580D02*
X141190476Y-64664342D01*
X141190476Y-64664342D02*
X141190476Y-63854819D01*
X140666666Y-64854819D02*
X140476190Y-64854819D01*
X140476190Y-64854819D02*
X140380952Y-64807200D01*
X140380952Y-64807200D02*
X140333333Y-64759580D01*
X140333333Y-64759580D02*
X140238095Y-64616723D01*
X140238095Y-64616723D02*
X140190476Y-64426247D01*
X140190476Y-64426247D02*
X140190476Y-64045295D01*
X140190476Y-64045295D02*
X140238095Y-63950057D01*
X140238095Y-63950057D02*
X140285714Y-63902438D01*
X140285714Y-63902438D02*
X140380952Y-63854819D01*
X140380952Y-63854819D02*
X140571428Y-63854819D01*
X140571428Y-63854819D02*
X140666666Y-63902438D01*
X140666666Y-63902438D02*
X140714285Y-63950057D01*
X140714285Y-63950057D02*
X140761904Y-64045295D01*
X140761904Y-64045295D02*
X140761904Y-64283390D01*
X140761904Y-64283390D02*
X140714285Y-64378628D01*
X140714285Y-64378628D02*
X140666666Y-64426247D01*
X140666666Y-64426247D02*
X140571428Y-64473866D01*
X140571428Y-64473866D02*
X140380952Y-64473866D01*
X140380952Y-64473866D02*
X140285714Y-64426247D01*
X140285714Y-64426247D02*
X140238095Y-64378628D01*
X140238095Y-64378628D02*
X140190476Y-64283390D01*
X140559580Y-109857142D02*
X140607200Y-109809523D01*
X140607200Y-109809523D02*
X140654819Y-109666666D01*
X140654819Y-109666666D02*
X140654819Y-109571428D01*
X140654819Y-109571428D02*
X140607200Y-109428571D01*
X140607200Y-109428571D02*
X140511961Y-109333333D01*
X140511961Y-109333333D02*
X140416723Y-109285714D01*
X140416723Y-109285714D02*
X140226247Y-109238095D01*
X140226247Y-109238095D02*
X140083390Y-109238095D01*
X140083390Y-109238095D02*
X139892914Y-109285714D01*
X139892914Y-109285714D02*
X139797676Y-109333333D01*
X139797676Y-109333333D02*
X139702438Y-109428571D01*
X139702438Y-109428571D02*
X139654819Y-109571428D01*
X139654819Y-109571428D02*
X139654819Y-109666666D01*
X139654819Y-109666666D02*
X139702438Y-109809523D01*
X139702438Y-109809523D02*
X139750057Y-109857142D01*
X139654819Y-110190476D02*
X139654819Y-110809523D01*
X139654819Y-110809523D02*
X140035771Y-110476190D01*
X140035771Y-110476190D02*
X140035771Y-110619047D01*
X140035771Y-110619047D02*
X140083390Y-110714285D01*
X140083390Y-110714285D02*
X140131009Y-110761904D01*
X140131009Y-110761904D02*
X140226247Y-110809523D01*
X140226247Y-110809523D02*
X140464342Y-110809523D01*
X140464342Y-110809523D02*
X140559580Y-110761904D01*
X140559580Y-110761904D02*
X140607200Y-110714285D01*
X140607200Y-110714285D02*
X140654819Y-110619047D01*
X140654819Y-110619047D02*
X140654819Y-110333333D01*
X140654819Y-110333333D02*
X140607200Y-110238095D01*
X140607200Y-110238095D02*
X140559580Y-110190476D01*
X139654819Y-111428571D02*
X139654819Y-111523809D01*
X139654819Y-111523809D02*
X139702438Y-111619047D01*
X139702438Y-111619047D02*
X139750057Y-111666666D01*
X139750057Y-111666666D02*
X139845295Y-111714285D01*
X139845295Y-111714285D02*
X140035771Y-111761904D01*
X140035771Y-111761904D02*
X140273866Y-111761904D01*
X140273866Y-111761904D02*
X140464342Y-111714285D01*
X140464342Y-111714285D02*
X140559580Y-111666666D01*
X140559580Y-111666666D02*
X140607200Y-111619047D01*
X140607200Y-111619047D02*
X140654819Y-111523809D01*
X140654819Y-111523809D02*
X140654819Y-111428571D01*
X140654819Y-111428571D02*
X140607200Y-111333333D01*
X140607200Y-111333333D02*
X140559580Y-111285714D01*
X140559580Y-111285714D02*
X140464342Y-111238095D01*
X140464342Y-111238095D02*
X140273866Y-111190476D01*
X140273866Y-111190476D02*
X140035771Y-111190476D01*
X140035771Y-111190476D02*
X139845295Y-111238095D01*
X139845295Y-111238095D02*
X139750057Y-111285714D01*
X139750057Y-111285714D02*
X139702438Y-111333333D01*
X139702438Y-111333333D02*
X139654819Y-111428571D01*
X164654819Y-67238095D02*
X165464342Y-67238095D01*
X165464342Y-67238095D02*
X165559580Y-67285714D01*
X165559580Y-67285714D02*
X165607200Y-67333333D01*
X165607200Y-67333333D02*
X165654819Y-67428571D01*
X165654819Y-67428571D02*
X165654819Y-67619047D01*
X165654819Y-67619047D02*
X165607200Y-67714285D01*
X165607200Y-67714285D02*
X165559580Y-67761904D01*
X165559580Y-67761904D02*
X165464342Y-67809523D01*
X165464342Y-67809523D02*
X164654819Y-67809523D01*
X164654819Y-68190476D02*
X164654819Y-68857142D01*
X164654819Y-68857142D02*
X165654819Y-68428571D01*
X181684819Y-71957142D02*
X181208628Y-71623809D01*
X181684819Y-71385714D02*
X180684819Y-71385714D01*
X180684819Y-71385714D02*
X180684819Y-71766666D01*
X180684819Y-71766666D02*
X180732438Y-71861904D01*
X180732438Y-71861904D02*
X180780057Y-71909523D01*
X180780057Y-71909523D02*
X180875295Y-71957142D01*
X180875295Y-71957142D02*
X181018152Y-71957142D01*
X181018152Y-71957142D02*
X181113390Y-71909523D01*
X181113390Y-71909523D02*
X181161009Y-71861904D01*
X181161009Y-71861904D02*
X181208628Y-71766666D01*
X181208628Y-71766666D02*
X181208628Y-71385714D01*
X180684819Y-72290476D02*
X180684819Y-72909523D01*
X180684819Y-72909523D02*
X181065771Y-72576190D01*
X181065771Y-72576190D02*
X181065771Y-72719047D01*
X181065771Y-72719047D02*
X181113390Y-72814285D01*
X181113390Y-72814285D02*
X181161009Y-72861904D01*
X181161009Y-72861904D02*
X181256247Y-72909523D01*
X181256247Y-72909523D02*
X181494342Y-72909523D01*
X181494342Y-72909523D02*
X181589580Y-72861904D01*
X181589580Y-72861904D02*
X181637200Y-72814285D01*
X181637200Y-72814285D02*
X181684819Y-72719047D01*
X181684819Y-72719047D02*
X181684819Y-72433333D01*
X181684819Y-72433333D02*
X181637200Y-72338095D01*
X181637200Y-72338095D02*
X181589580Y-72290476D01*
X180684819Y-73814285D02*
X180684819Y-73338095D01*
X180684819Y-73338095D02*
X181161009Y-73290476D01*
X181161009Y-73290476D02*
X181113390Y-73338095D01*
X181113390Y-73338095D02*
X181065771Y-73433333D01*
X181065771Y-73433333D02*
X181065771Y-73671428D01*
X181065771Y-73671428D02*
X181113390Y-73766666D01*
X181113390Y-73766666D02*
X181161009Y-73814285D01*
X181161009Y-73814285D02*
X181256247Y-73861904D01*
X181256247Y-73861904D02*
X181494342Y-73861904D01*
X181494342Y-73861904D02*
X181589580Y-73814285D01*
X181589580Y-73814285D02*
X181637200Y-73766666D01*
X181637200Y-73766666D02*
X181684819Y-73671428D01*
X181684819Y-73671428D02*
X181684819Y-73433333D01*
X181684819Y-73433333D02*
X181637200Y-73338095D01*
X181637200Y-73338095D02*
X181589580Y-73290476D01*
X145966666Y-69654819D02*
X146299999Y-69178628D01*
X146538094Y-69654819D02*
X146538094Y-68654819D01*
X146538094Y-68654819D02*
X146157142Y-68654819D01*
X146157142Y-68654819D02*
X146061904Y-68702438D01*
X146061904Y-68702438D02*
X146014285Y-68750057D01*
X146014285Y-68750057D02*
X145966666Y-68845295D01*
X145966666Y-68845295D02*
X145966666Y-68988152D01*
X145966666Y-68988152D02*
X146014285Y-69083390D01*
X146014285Y-69083390D02*
X146061904Y-69131009D01*
X146061904Y-69131009D02*
X146157142Y-69178628D01*
X146157142Y-69178628D02*
X146538094Y-69178628D01*
X145395237Y-69083390D02*
X145490475Y-69035771D01*
X145490475Y-69035771D02*
X145538094Y-68988152D01*
X145538094Y-68988152D02*
X145585713Y-68892914D01*
X145585713Y-68892914D02*
X145585713Y-68845295D01*
X145585713Y-68845295D02*
X145538094Y-68750057D01*
X145538094Y-68750057D02*
X145490475Y-68702438D01*
X145490475Y-68702438D02*
X145395237Y-68654819D01*
X145395237Y-68654819D02*
X145204761Y-68654819D01*
X145204761Y-68654819D02*
X145109523Y-68702438D01*
X145109523Y-68702438D02*
X145061904Y-68750057D01*
X145061904Y-68750057D02*
X145014285Y-68845295D01*
X145014285Y-68845295D02*
X145014285Y-68892914D01*
X145014285Y-68892914D02*
X145061904Y-68988152D01*
X145061904Y-68988152D02*
X145109523Y-69035771D01*
X145109523Y-69035771D02*
X145204761Y-69083390D01*
X145204761Y-69083390D02*
X145395237Y-69083390D01*
X145395237Y-69083390D02*
X145490475Y-69131009D01*
X145490475Y-69131009D02*
X145538094Y-69178628D01*
X145538094Y-69178628D02*
X145585713Y-69273866D01*
X145585713Y-69273866D02*
X145585713Y-69464342D01*
X145585713Y-69464342D02*
X145538094Y-69559580D01*
X145538094Y-69559580D02*
X145490475Y-69607200D01*
X145490475Y-69607200D02*
X145395237Y-69654819D01*
X145395237Y-69654819D02*
X145204761Y-69654819D01*
X145204761Y-69654819D02*
X145109523Y-69607200D01*
X145109523Y-69607200D02*
X145061904Y-69559580D01*
X145061904Y-69559580D02*
X145014285Y-69464342D01*
X145014285Y-69464342D02*
X145014285Y-69273866D01*
X145014285Y-69273866D02*
X145061904Y-69178628D01*
X145061904Y-69178628D02*
X145109523Y-69131009D01*
X145109523Y-69131009D02*
X145204761Y-69083390D01*
X111634819Y-71533333D02*
X111158628Y-71200000D01*
X111634819Y-70961905D02*
X110634819Y-70961905D01*
X110634819Y-70961905D02*
X110634819Y-71342857D01*
X110634819Y-71342857D02*
X110682438Y-71438095D01*
X110682438Y-71438095D02*
X110730057Y-71485714D01*
X110730057Y-71485714D02*
X110825295Y-71533333D01*
X110825295Y-71533333D02*
X110968152Y-71533333D01*
X110968152Y-71533333D02*
X111063390Y-71485714D01*
X111063390Y-71485714D02*
X111111009Y-71438095D01*
X111111009Y-71438095D02*
X111158628Y-71342857D01*
X111158628Y-71342857D02*
X111158628Y-70961905D01*
X110634819Y-72390476D02*
X110634819Y-72200000D01*
X110634819Y-72200000D02*
X110682438Y-72104762D01*
X110682438Y-72104762D02*
X110730057Y-72057143D01*
X110730057Y-72057143D02*
X110872914Y-71961905D01*
X110872914Y-71961905D02*
X111063390Y-71914286D01*
X111063390Y-71914286D02*
X111444342Y-71914286D01*
X111444342Y-71914286D02*
X111539580Y-71961905D01*
X111539580Y-71961905D02*
X111587200Y-72009524D01*
X111587200Y-72009524D02*
X111634819Y-72104762D01*
X111634819Y-72104762D02*
X111634819Y-72295238D01*
X111634819Y-72295238D02*
X111587200Y-72390476D01*
X111587200Y-72390476D02*
X111539580Y-72438095D01*
X111539580Y-72438095D02*
X111444342Y-72485714D01*
X111444342Y-72485714D02*
X111206247Y-72485714D01*
X111206247Y-72485714D02*
X111111009Y-72438095D01*
X111111009Y-72438095D02*
X111063390Y-72390476D01*
X111063390Y-72390476D02*
X111015771Y-72295238D01*
X111015771Y-72295238D02*
X111015771Y-72104762D01*
X111015771Y-72104762D02*
X111063390Y-72009524D01*
X111063390Y-72009524D02*
X111111009Y-71961905D01*
X111111009Y-71961905D02*
X111206247Y-71914286D01*
X134838094Y-77454819D02*
X134838094Y-78264342D01*
X134838094Y-78264342D02*
X134790475Y-78359580D01*
X134790475Y-78359580D02*
X134742856Y-78407200D01*
X134742856Y-78407200D02*
X134647618Y-78454819D01*
X134647618Y-78454819D02*
X134457142Y-78454819D01*
X134457142Y-78454819D02*
X134361904Y-78407200D01*
X134361904Y-78407200D02*
X134314285Y-78359580D01*
X134314285Y-78359580D02*
X134266666Y-78264342D01*
X134266666Y-78264342D02*
X134266666Y-77454819D01*
X133838094Y-77550057D02*
X133790475Y-77502438D01*
X133790475Y-77502438D02*
X133695237Y-77454819D01*
X133695237Y-77454819D02*
X133457142Y-77454819D01*
X133457142Y-77454819D02*
X133361904Y-77502438D01*
X133361904Y-77502438D02*
X133314285Y-77550057D01*
X133314285Y-77550057D02*
X133266666Y-77645295D01*
X133266666Y-77645295D02*
X133266666Y-77740533D01*
X133266666Y-77740533D02*
X133314285Y-77883390D01*
X133314285Y-77883390D02*
X133885713Y-78454819D01*
X133885713Y-78454819D02*
X133266666Y-78454819D01*
X132314285Y-78454819D02*
X132885713Y-78454819D01*
X132599999Y-78454819D02*
X132599999Y-77454819D01*
X132599999Y-77454819D02*
X132695237Y-77597676D01*
X132695237Y-77597676D02*
X132790475Y-77692914D01*
X132790475Y-77692914D02*
X132885713Y-77740533D01*
X128359580Y-68157142D02*
X128407200Y-68109523D01*
X128407200Y-68109523D02*
X128454819Y-67966666D01*
X128454819Y-67966666D02*
X128454819Y-67871428D01*
X128454819Y-67871428D02*
X128407200Y-67728571D01*
X128407200Y-67728571D02*
X128311961Y-67633333D01*
X128311961Y-67633333D02*
X128216723Y-67585714D01*
X128216723Y-67585714D02*
X128026247Y-67538095D01*
X128026247Y-67538095D02*
X127883390Y-67538095D01*
X127883390Y-67538095D02*
X127692914Y-67585714D01*
X127692914Y-67585714D02*
X127597676Y-67633333D01*
X127597676Y-67633333D02*
X127502438Y-67728571D01*
X127502438Y-67728571D02*
X127454819Y-67871428D01*
X127454819Y-67871428D02*
X127454819Y-67966666D01*
X127454819Y-67966666D02*
X127502438Y-68109523D01*
X127502438Y-68109523D02*
X127550057Y-68157142D01*
X127454819Y-68490476D02*
X127454819Y-69109523D01*
X127454819Y-69109523D02*
X127835771Y-68776190D01*
X127835771Y-68776190D02*
X127835771Y-68919047D01*
X127835771Y-68919047D02*
X127883390Y-69014285D01*
X127883390Y-69014285D02*
X127931009Y-69061904D01*
X127931009Y-69061904D02*
X128026247Y-69109523D01*
X128026247Y-69109523D02*
X128264342Y-69109523D01*
X128264342Y-69109523D02*
X128359580Y-69061904D01*
X128359580Y-69061904D02*
X128407200Y-69014285D01*
X128407200Y-69014285D02*
X128454819Y-68919047D01*
X128454819Y-68919047D02*
X128454819Y-68633333D01*
X128454819Y-68633333D02*
X128407200Y-68538095D01*
X128407200Y-68538095D02*
X128359580Y-68490476D01*
X127550057Y-69490476D02*
X127502438Y-69538095D01*
X127502438Y-69538095D02*
X127454819Y-69633333D01*
X127454819Y-69633333D02*
X127454819Y-69871428D01*
X127454819Y-69871428D02*
X127502438Y-69966666D01*
X127502438Y-69966666D02*
X127550057Y-70014285D01*
X127550057Y-70014285D02*
X127645295Y-70061904D01*
X127645295Y-70061904D02*
X127740533Y-70061904D01*
X127740533Y-70061904D02*
X127883390Y-70014285D01*
X127883390Y-70014285D02*
X128454819Y-69442857D01*
X128454819Y-69442857D02*
X128454819Y-70061904D01*
X126759580Y-75957142D02*
X126807200Y-75909523D01*
X126807200Y-75909523D02*
X126854819Y-75766666D01*
X126854819Y-75766666D02*
X126854819Y-75671428D01*
X126854819Y-75671428D02*
X126807200Y-75528571D01*
X126807200Y-75528571D02*
X126711961Y-75433333D01*
X126711961Y-75433333D02*
X126616723Y-75385714D01*
X126616723Y-75385714D02*
X126426247Y-75338095D01*
X126426247Y-75338095D02*
X126283390Y-75338095D01*
X126283390Y-75338095D02*
X126092914Y-75385714D01*
X126092914Y-75385714D02*
X125997676Y-75433333D01*
X125997676Y-75433333D02*
X125902438Y-75528571D01*
X125902438Y-75528571D02*
X125854819Y-75671428D01*
X125854819Y-75671428D02*
X125854819Y-75766666D01*
X125854819Y-75766666D02*
X125902438Y-75909523D01*
X125902438Y-75909523D02*
X125950057Y-75957142D01*
X126854819Y-76909523D02*
X126854819Y-76338095D01*
X126854819Y-76623809D02*
X125854819Y-76623809D01*
X125854819Y-76623809D02*
X125997676Y-76528571D01*
X125997676Y-76528571D02*
X126092914Y-76433333D01*
X126092914Y-76433333D02*
X126140533Y-76338095D01*
X125854819Y-77766666D02*
X125854819Y-77576190D01*
X125854819Y-77576190D02*
X125902438Y-77480952D01*
X125902438Y-77480952D02*
X125950057Y-77433333D01*
X125950057Y-77433333D02*
X126092914Y-77338095D01*
X126092914Y-77338095D02*
X126283390Y-77290476D01*
X126283390Y-77290476D02*
X126664342Y-77290476D01*
X126664342Y-77290476D02*
X126759580Y-77338095D01*
X126759580Y-77338095D02*
X126807200Y-77385714D01*
X126807200Y-77385714D02*
X126854819Y-77480952D01*
X126854819Y-77480952D02*
X126854819Y-77671428D01*
X126854819Y-77671428D02*
X126807200Y-77766666D01*
X126807200Y-77766666D02*
X126759580Y-77814285D01*
X126759580Y-77814285D02*
X126664342Y-77861904D01*
X126664342Y-77861904D02*
X126426247Y-77861904D01*
X126426247Y-77861904D02*
X126331009Y-77814285D01*
X126331009Y-77814285D02*
X126283390Y-77766666D01*
X126283390Y-77766666D02*
X126235771Y-77671428D01*
X126235771Y-77671428D02*
X126235771Y-77480952D01*
X126235771Y-77480952D02*
X126283390Y-77385714D01*
X126283390Y-77385714D02*
X126331009Y-77338095D01*
X126331009Y-77338095D02*
X126426247Y-77290476D01*
X130454819Y-79657142D02*
X129978628Y-79323809D01*
X130454819Y-79085714D02*
X129454819Y-79085714D01*
X129454819Y-79085714D02*
X129454819Y-79466666D01*
X129454819Y-79466666D02*
X129502438Y-79561904D01*
X129502438Y-79561904D02*
X129550057Y-79609523D01*
X129550057Y-79609523D02*
X129645295Y-79657142D01*
X129645295Y-79657142D02*
X129788152Y-79657142D01*
X129788152Y-79657142D02*
X129883390Y-79609523D01*
X129883390Y-79609523D02*
X129931009Y-79561904D01*
X129931009Y-79561904D02*
X129978628Y-79466666D01*
X129978628Y-79466666D02*
X129978628Y-79085714D01*
X130454819Y-80609523D02*
X130454819Y-80038095D01*
X130454819Y-80323809D02*
X129454819Y-80323809D01*
X129454819Y-80323809D02*
X129597676Y-80228571D01*
X129597676Y-80228571D02*
X129692914Y-80133333D01*
X129692914Y-80133333D02*
X129740533Y-80038095D01*
X129454819Y-81466666D02*
X129454819Y-81276190D01*
X129454819Y-81276190D02*
X129502438Y-81180952D01*
X129502438Y-81180952D02*
X129550057Y-81133333D01*
X129550057Y-81133333D02*
X129692914Y-81038095D01*
X129692914Y-81038095D02*
X129883390Y-80990476D01*
X129883390Y-80990476D02*
X130264342Y-80990476D01*
X130264342Y-80990476D02*
X130359580Y-81038095D01*
X130359580Y-81038095D02*
X130407200Y-81085714D01*
X130407200Y-81085714D02*
X130454819Y-81180952D01*
X130454819Y-81180952D02*
X130454819Y-81371428D01*
X130454819Y-81371428D02*
X130407200Y-81466666D01*
X130407200Y-81466666D02*
X130359580Y-81514285D01*
X130359580Y-81514285D02*
X130264342Y-81561904D01*
X130264342Y-81561904D02*
X130026247Y-81561904D01*
X130026247Y-81561904D02*
X129931009Y-81514285D01*
X129931009Y-81514285D02*
X129883390Y-81466666D01*
X129883390Y-81466666D02*
X129835771Y-81371428D01*
X129835771Y-81371428D02*
X129835771Y-81180952D01*
X129835771Y-81180952D02*
X129883390Y-81085714D01*
X129883390Y-81085714D02*
X129931009Y-81038095D01*
X129931009Y-81038095D02*
X130026247Y-80990476D01*
X116714819Y-71533333D02*
X116238628Y-71200000D01*
X116714819Y-70961905D02*
X115714819Y-70961905D01*
X115714819Y-70961905D02*
X115714819Y-71342857D01*
X115714819Y-71342857D02*
X115762438Y-71438095D01*
X115762438Y-71438095D02*
X115810057Y-71485714D01*
X115810057Y-71485714D02*
X115905295Y-71533333D01*
X115905295Y-71533333D02*
X116048152Y-71533333D01*
X116048152Y-71533333D02*
X116143390Y-71485714D01*
X116143390Y-71485714D02*
X116191009Y-71438095D01*
X116191009Y-71438095D02*
X116238628Y-71342857D01*
X116238628Y-71342857D02*
X116238628Y-70961905D01*
X115714819Y-72438095D02*
X115714819Y-71961905D01*
X115714819Y-71961905D02*
X116191009Y-71914286D01*
X116191009Y-71914286D02*
X116143390Y-71961905D01*
X116143390Y-71961905D02*
X116095771Y-72057143D01*
X116095771Y-72057143D02*
X116095771Y-72295238D01*
X116095771Y-72295238D02*
X116143390Y-72390476D01*
X116143390Y-72390476D02*
X116191009Y-72438095D01*
X116191009Y-72438095D02*
X116286247Y-72485714D01*
X116286247Y-72485714D02*
X116524342Y-72485714D01*
X116524342Y-72485714D02*
X116619580Y-72438095D01*
X116619580Y-72438095D02*
X116667200Y-72390476D01*
X116667200Y-72390476D02*
X116714819Y-72295238D01*
X116714819Y-72295238D02*
X116714819Y-72057143D01*
X116714819Y-72057143D02*
X116667200Y-71961905D01*
X116667200Y-71961905D02*
X116619580Y-71914286D01*
X128009580Y-86157142D02*
X128057200Y-86109523D01*
X128057200Y-86109523D02*
X128104819Y-85966666D01*
X128104819Y-85966666D02*
X128104819Y-85871428D01*
X128104819Y-85871428D02*
X128057200Y-85728571D01*
X128057200Y-85728571D02*
X127961961Y-85633333D01*
X127961961Y-85633333D02*
X127866723Y-85585714D01*
X127866723Y-85585714D02*
X127676247Y-85538095D01*
X127676247Y-85538095D02*
X127533390Y-85538095D01*
X127533390Y-85538095D02*
X127342914Y-85585714D01*
X127342914Y-85585714D02*
X127247676Y-85633333D01*
X127247676Y-85633333D02*
X127152438Y-85728571D01*
X127152438Y-85728571D02*
X127104819Y-85871428D01*
X127104819Y-85871428D02*
X127104819Y-85966666D01*
X127104819Y-85966666D02*
X127152438Y-86109523D01*
X127152438Y-86109523D02*
X127200057Y-86157142D01*
X127438152Y-87014285D02*
X128104819Y-87014285D01*
X127057200Y-86776190D02*
X127771485Y-86538095D01*
X127771485Y-86538095D02*
X127771485Y-87157142D01*
X127438152Y-87966666D02*
X128104819Y-87966666D01*
X127057200Y-87728571D02*
X127771485Y-87490476D01*
X127771485Y-87490476D02*
X127771485Y-88109523D01*
X134242857Y-70959580D02*
X134290476Y-71007200D01*
X134290476Y-71007200D02*
X134433333Y-71054819D01*
X134433333Y-71054819D02*
X134528571Y-71054819D01*
X134528571Y-71054819D02*
X134671428Y-71007200D01*
X134671428Y-71007200D02*
X134766666Y-70911961D01*
X134766666Y-70911961D02*
X134814285Y-70816723D01*
X134814285Y-70816723D02*
X134861904Y-70626247D01*
X134861904Y-70626247D02*
X134861904Y-70483390D01*
X134861904Y-70483390D02*
X134814285Y-70292914D01*
X134814285Y-70292914D02*
X134766666Y-70197676D01*
X134766666Y-70197676D02*
X134671428Y-70102438D01*
X134671428Y-70102438D02*
X134528571Y-70054819D01*
X134528571Y-70054819D02*
X134433333Y-70054819D01*
X134433333Y-70054819D02*
X134290476Y-70102438D01*
X134290476Y-70102438D02*
X134242857Y-70150057D01*
X133861904Y-70150057D02*
X133814285Y-70102438D01*
X133814285Y-70102438D02*
X133719047Y-70054819D01*
X133719047Y-70054819D02*
X133480952Y-70054819D01*
X133480952Y-70054819D02*
X133385714Y-70102438D01*
X133385714Y-70102438D02*
X133338095Y-70150057D01*
X133338095Y-70150057D02*
X133290476Y-70245295D01*
X133290476Y-70245295D02*
X133290476Y-70340533D01*
X133290476Y-70340533D02*
X133338095Y-70483390D01*
X133338095Y-70483390D02*
X133909523Y-71054819D01*
X133909523Y-71054819D02*
X133290476Y-71054819D01*
X132385714Y-70054819D02*
X132861904Y-70054819D01*
X132861904Y-70054819D02*
X132909523Y-70531009D01*
X132909523Y-70531009D02*
X132861904Y-70483390D01*
X132861904Y-70483390D02*
X132766666Y-70435771D01*
X132766666Y-70435771D02*
X132528571Y-70435771D01*
X132528571Y-70435771D02*
X132433333Y-70483390D01*
X132433333Y-70483390D02*
X132385714Y-70531009D01*
X132385714Y-70531009D02*
X132338095Y-70626247D01*
X132338095Y-70626247D02*
X132338095Y-70864342D01*
X132338095Y-70864342D02*
X132385714Y-70959580D01*
X132385714Y-70959580D02*
X132433333Y-71007200D01*
X132433333Y-71007200D02*
X132528571Y-71054819D01*
X132528571Y-71054819D02*
X132766666Y-71054819D01*
X132766666Y-71054819D02*
X132861904Y-71007200D01*
X132861904Y-71007200D02*
X132909523Y-70959580D01*
X159254819Y-66838095D02*
X160064342Y-66838095D01*
X160064342Y-66838095D02*
X160159580Y-66885714D01*
X160159580Y-66885714D02*
X160207200Y-66933333D01*
X160207200Y-66933333D02*
X160254819Y-67028571D01*
X160254819Y-67028571D02*
X160254819Y-67219047D01*
X160254819Y-67219047D02*
X160207200Y-67314285D01*
X160207200Y-67314285D02*
X160159580Y-67361904D01*
X160159580Y-67361904D02*
X160064342Y-67409523D01*
X160064342Y-67409523D02*
X159254819Y-67409523D01*
X159683390Y-68028571D02*
X159635771Y-67933333D01*
X159635771Y-67933333D02*
X159588152Y-67885714D01*
X159588152Y-67885714D02*
X159492914Y-67838095D01*
X159492914Y-67838095D02*
X159445295Y-67838095D01*
X159445295Y-67838095D02*
X159350057Y-67885714D01*
X159350057Y-67885714D02*
X159302438Y-67933333D01*
X159302438Y-67933333D02*
X159254819Y-68028571D01*
X159254819Y-68028571D02*
X159254819Y-68219047D01*
X159254819Y-68219047D02*
X159302438Y-68314285D01*
X159302438Y-68314285D02*
X159350057Y-68361904D01*
X159350057Y-68361904D02*
X159445295Y-68409523D01*
X159445295Y-68409523D02*
X159492914Y-68409523D01*
X159492914Y-68409523D02*
X159588152Y-68361904D01*
X159588152Y-68361904D02*
X159635771Y-68314285D01*
X159635771Y-68314285D02*
X159683390Y-68219047D01*
X159683390Y-68219047D02*
X159683390Y-68028571D01*
X159683390Y-68028571D02*
X159731009Y-67933333D01*
X159731009Y-67933333D02*
X159778628Y-67885714D01*
X159778628Y-67885714D02*
X159873866Y-67838095D01*
X159873866Y-67838095D02*
X160064342Y-67838095D01*
X160064342Y-67838095D02*
X160159580Y-67885714D01*
X160159580Y-67885714D02*
X160207200Y-67933333D01*
X160207200Y-67933333D02*
X160254819Y-68028571D01*
X160254819Y-68028571D02*
X160254819Y-68219047D01*
X160254819Y-68219047D02*
X160207200Y-68314285D01*
X160207200Y-68314285D02*
X160159580Y-68361904D01*
X160159580Y-68361904D02*
X160064342Y-68409523D01*
X160064342Y-68409523D02*
X159873866Y-68409523D01*
X159873866Y-68409523D02*
X159778628Y-68361904D01*
X159778628Y-68361904D02*
X159731009Y-68314285D01*
X159731009Y-68314285D02*
X159683390Y-68219047D01*
X153766666Y-69359580D02*
X153814285Y-69407200D01*
X153814285Y-69407200D02*
X153957142Y-69454819D01*
X153957142Y-69454819D02*
X154052380Y-69454819D01*
X154052380Y-69454819D02*
X154195237Y-69407200D01*
X154195237Y-69407200D02*
X154290475Y-69311961D01*
X154290475Y-69311961D02*
X154338094Y-69216723D01*
X154338094Y-69216723D02*
X154385713Y-69026247D01*
X154385713Y-69026247D02*
X154385713Y-68883390D01*
X154385713Y-68883390D02*
X154338094Y-68692914D01*
X154338094Y-68692914D02*
X154290475Y-68597676D01*
X154290475Y-68597676D02*
X154195237Y-68502438D01*
X154195237Y-68502438D02*
X154052380Y-68454819D01*
X154052380Y-68454819D02*
X153957142Y-68454819D01*
X153957142Y-68454819D02*
X153814285Y-68502438D01*
X153814285Y-68502438D02*
X153766666Y-68550057D01*
X152909523Y-68788152D02*
X152909523Y-69454819D01*
X153147618Y-68407200D02*
X153385713Y-69121485D01*
X153385713Y-69121485D02*
X152766666Y-69121485D01*
X163366666Y-65254819D02*
X163699999Y-64778628D01*
X163938094Y-65254819D02*
X163938094Y-64254819D01*
X163938094Y-64254819D02*
X163557142Y-64254819D01*
X163557142Y-64254819D02*
X163461904Y-64302438D01*
X163461904Y-64302438D02*
X163414285Y-64350057D01*
X163414285Y-64350057D02*
X163366666Y-64445295D01*
X163366666Y-64445295D02*
X163366666Y-64588152D01*
X163366666Y-64588152D02*
X163414285Y-64683390D01*
X163414285Y-64683390D02*
X163461904Y-64731009D01*
X163461904Y-64731009D02*
X163557142Y-64778628D01*
X163557142Y-64778628D02*
X163938094Y-64778628D01*
X162985713Y-64350057D02*
X162938094Y-64302438D01*
X162938094Y-64302438D02*
X162842856Y-64254819D01*
X162842856Y-64254819D02*
X162604761Y-64254819D01*
X162604761Y-64254819D02*
X162509523Y-64302438D01*
X162509523Y-64302438D02*
X162461904Y-64350057D01*
X162461904Y-64350057D02*
X162414285Y-64445295D01*
X162414285Y-64445295D02*
X162414285Y-64540533D01*
X162414285Y-64540533D02*
X162461904Y-64683390D01*
X162461904Y-64683390D02*
X163033332Y-65254819D01*
X163033332Y-65254819D02*
X162414285Y-65254819D01*
X171642857Y-81559580D02*
X171690476Y-81607200D01*
X171690476Y-81607200D02*
X171833333Y-81654819D01*
X171833333Y-81654819D02*
X171928571Y-81654819D01*
X171928571Y-81654819D02*
X172071428Y-81607200D01*
X172071428Y-81607200D02*
X172166666Y-81511961D01*
X172166666Y-81511961D02*
X172214285Y-81416723D01*
X172214285Y-81416723D02*
X172261904Y-81226247D01*
X172261904Y-81226247D02*
X172261904Y-81083390D01*
X172261904Y-81083390D02*
X172214285Y-80892914D01*
X172214285Y-80892914D02*
X172166666Y-80797676D01*
X172166666Y-80797676D02*
X172071428Y-80702438D01*
X172071428Y-80702438D02*
X171928571Y-80654819D01*
X171928571Y-80654819D02*
X171833333Y-80654819D01*
X171833333Y-80654819D02*
X171690476Y-80702438D01*
X171690476Y-80702438D02*
X171642857Y-80750057D01*
X170738095Y-80654819D02*
X171214285Y-80654819D01*
X171214285Y-80654819D02*
X171261904Y-81131009D01*
X171261904Y-81131009D02*
X171214285Y-81083390D01*
X171214285Y-81083390D02*
X171119047Y-81035771D01*
X171119047Y-81035771D02*
X170880952Y-81035771D01*
X170880952Y-81035771D02*
X170785714Y-81083390D01*
X170785714Y-81083390D02*
X170738095Y-81131009D01*
X170738095Y-81131009D02*
X170690476Y-81226247D01*
X170690476Y-81226247D02*
X170690476Y-81464342D01*
X170690476Y-81464342D02*
X170738095Y-81559580D01*
X170738095Y-81559580D02*
X170785714Y-81607200D01*
X170785714Y-81607200D02*
X170880952Y-81654819D01*
X170880952Y-81654819D02*
X171119047Y-81654819D01*
X171119047Y-81654819D02*
X171214285Y-81607200D01*
X171214285Y-81607200D02*
X171261904Y-81559580D01*
X169833333Y-80988152D02*
X169833333Y-81654819D01*
X170071428Y-80607200D02*
X170309523Y-81321485D01*
X170309523Y-81321485D02*
X169690476Y-81321485D01*
X167495238Y-115350057D02*
X167590476Y-115302438D01*
X167590476Y-115302438D02*
X167685714Y-115207200D01*
X167685714Y-115207200D02*
X167828571Y-115064342D01*
X167828571Y-115064342D02*
X167923809Y-115016723D01*
X167923809Y-115016723D02*
X168019047Y-115016723D01*
X167971428Y-115254819D02*
X168066666Y-115207200D01*
X168066666Y-115207200D02*
X168161904Y-115111961D01*
X168161904Y-115111961D02*
X168209523Y-114921485D01*
X168209523Y-114921485D02*
X168209523Y-114588152D01*
X168209523Y-114588152D02*
X168161904Y-114397676D01*
X168161904Y-114397676D02*
X168066666Y-114302438D01*
X168066666Y-114302438D02*
X167971428Y-114254819D01*
X167971428Y-114254819D02*
X167780952Y-114254819D01*
X167780952Y-114254819D02*
X167685714Y-114302438D01*
X167685714Y-114302438D02*
X167590476Y-114397676D01*
X167590476Y-114397676D02*
X167542857Y-114588152D01*
X167542857Y-114588152D02*
X167542857Y-114921485D01*
X167542857Y-114921485D02*
X167590476Y-115111961D01*
X167590476Y-115111961D02*
X167685714Y-115207200D01*
X167685714Y-115207200D02*
X167780952Y-115254819D01*
X167780952Y-115254819D02*
X167971428Y-115254819D01*
X167209523Y-114254819D02*
X166590476Y-114254819D01*
X166590476Y-114254819D02*
X166923809Y-114635771D01*
X166923809Y-114635771D02*
X166780952Y-114635771D01*
X166780952Y-114635771D02*
X166685714Y-114683390D01*
X166685714Y-114683390D02*
X166638095Y-114731009D01*
X166638095Y-114731009D02*
X166590476Y-114826247D01*
X166590476Y-114826247D02*
X166590476Y-115064342D01*
X166590476Y-115064342D02*
X166638095Y-115159580D01*
X166638095Y-115159580D02*
X166685714Y-115207200D01*
X166685714Y-115207200D02*
X166780952Y-115254819D01*
X166780952Y-115254819D02*
X167066666Y-115254819D01*
X167066666Y-115254819D02*
X167161904Y-115207200D01*
X167161904Y-115207200D02*
X167209523Y-115159580D01*
X158254819Y-117157142D02*
X157778628Y-116823809D01*
X158254819Y-116585714D02*
X157254819Y-116585714D01*
X157254819Y-116585714D02*
X157254819Y-116966666D01*
X157254819Y-116966666D02*
X157302438Y-117061904D01*
X157302438Y-117061904D02*
X157350057Y-117109523D01*
X157350057Y-117109523D02*
X157445295Y-117157142D01*
X157445295Y-117157142D02*
X157588152Y-117157142D01*
X157588152Y-117157142D02*
X157683390Y-117109523D01*
X157683390Y-117109523D02*
X157731009Y-117061904D01*
X157731009Y-117061904D02*
X157778628Y-116966666D01*
X157778628Y-116966666D02*
X157778628Y-116585714D01*
X157254819Y-117490476D02*
X157254819Y-118109523D01*
X157254819Y-118109523D02*
X157635771Y-117776190D01*
X157635771Y-117776190D02*
X157635771Y-117919047D01*
X157635771Y-117919047D02*
X157683390Y-118014285D01*
X157683390Y-118014285D02*
X157731009Y-118061904D01*
X157731009Y-118061904D02*
X157826247Y-118109523D01*
X157826247Y-118109523D02*
X158064342Y-118109523D01*
X158064342Y-118109523D02*
X158159580Y-118061904D01*
X158159580Y-118061904D02*
X158207200Y-118014285D01*
X158207200Y-118014285D02*
X158254819Y-117919047D01*
X158254819Y-117919047D02*
X158254819Y-117633333D01*
X158254819Y-117633333D02*
X158207200Y-117538095D01*
X158207200Y-117538095D02*
X158159580Y-117490476D01*
X157588152Y-118966666D02*
X158254819Y-118966666D01*
X157207200Y-118728571D02*
X157921485Y-118490476D01*
X157921485Y-118490476D02*
X157921485Y-119109523D01*
D12*
X170167619Y-61904318D02*
X170167619Y-62932413D01*
X170167619Y-62932413D02*
X170107142Y-63053365D01*
X170107142Y-63053365D02*
X170046666Y-63113842D01*
X170046666Y-63113842D02*
X169925714Y-63174318D01*
X169925714Y-63174318D02*
X169683809Y-63174318D01*
X169683809Y-63174318D02*
X169562857Y-63113842D01*
X169562857Y-63113842D02*
X169502380Y-63053365D01*
X169502380Y-63053365D02*
X169441904Y-62932413D01*
X169441904Y-62932413D02*
X169441904Y-61904318D01*
X168292857Y-62327651D02*
X168292857Y-63174318D01*
X168595238Y-61843842D02*
X168897619Y-62750984D01*
X168897619Y-62750984D02*
X168111428Y-62750984D01*
D11*
X176895238Y-69750057D02*
X176990476Y-69702438D01*
X176990476Y-69702438D02*
X177085714Y-69607200D01*
X177085714Y-69607200D02*
X177228571Y-69464342D01*
X177228571Y-69464342D02*
X177323809Y-69416723D01*
X177323809Y-69416723D02*
X177419047Y-69416723D01*
X177371428Y-69654819D02*
X177466666Y-69607200D01*
X177466666Y-69607200D02*
X177561904Y-69511961D01*
X177561904Y-69511961D02*
X177609523Y-69321485D01*
X177609523Y-69321485D02*
X177609523Y-68988152D01*
X177609523Y-68988152D02*
X177561904Y-68797676D01*
X177561904Y-68797676D02*
X177466666Y-68702438D01*
X177466666Y-68702438D02*
X177371428Y-68654819D01*
X177371428Y-68654819D02*
X177180952Y-68654819D01*
X177180952Y-68654819D02*
X177085714Y-68702438D01*
X177085714Y-68702438D02*
X176990476Y-68797676D01*
X176990476Y-68797676D02*
X176942857Y-68988152D01*
X176942857Y-68988152D02*
X176942857Y-69321485D01*
X176942857Y-69321485D02*
X176990476Y-69511961D01*
X176990476Y-69511961D02*
X177085714Y-69607200D01*
X177085714Y-69607200D02*
X177180952Y-69654819D01*
X177180952Y-69654819D02*
X177371428Y-69654819D01*
X176561904Y-68750057D02*
X176514285Y-68702438D01*
X176514285Y-68702438D02*
X176419047Y-68654819D01*
X176419047Y-68654819D02*
X176180952Y-68654819D01*
X176180952Y-68654819D02*
X176085714Y-68702438D01*
X176085714Y-68702438D02*
X176038095Y-68750057D01*
X176038095Y-68750057D02*
X175990476Y-68845295D01*
X175990476Y-68845295D02*
X175990476Y-68940533D01*
X175990476Y-68940533D02*
X176038095Y-69083390D01*
X176038095Y-69083390D02*
X176609523Y-69654819D01*
X176609523Y-69654819D02*
X175990476Y-69654819D01*
X176895238Y-75550057D02*
X176990476Y-75502438D01*
X176990476Y-75502438D02*
X177085714Y-75407200D01*
X177085714Y-75407200D02*
X177228571Y-75264342D01*
X177228571Y-75264342D02*
X177323809Y-75216723D01*
X177323809Y-75216723D02*
X177419047Y-75216723D01*
X177371428Y-75454819D02*
X177466666Y-75407200D01*
X177466666Y-75407200D02*
X177561904Y-75311961D01*
X177561904Y-75311961D02*
X177609523Y-75121485D01*
X177609523Y-75121485D02*
X177609523Y-74788152D01*
X177609523Y-74788152D02*
X177561904Y-74597676D01*
X177561904Y-74597676D02*
X177466666Y-74502438D01*
X177466666Y-74502438D02*
X177371428Y-74454819D01*
X177371428Y-74454819D02*
X177180952Y-74454819D01*
X177180952Y-74454819D02*
X177085714Y-74502438D01*
X177085714Y-74502438D02*
X176990476Y-74597676D01*
X176990476Y-74597676D02*
X176942857Y-74788152D01*
X176942857Y-74788152D02*
X176942857Y-75121485D01*
X176942857Y-75121485D02*
X176990476Y-75311961D01*
X176990476Y-75311961D02*
X177085714Y-75407200D01*
X177085714Y-75407200D02*
X177180952Y-75454819D01*
X177180952Y-75454819D02*
X177371428Y-75454819D01*
X175990476Y-75454819D02*
X176561904Y-75454819D01*
X176276190Y-75454819D02*
X176276190Y-74454819D01*
X176276190Y-74454819D02*
X176371428Y-74597676D01*
X176371428Y-74597676D02*
X176466666Y-74692914D01*
X176466666Y-74692914D02*
X176561904Y-74740533D01*
X172154819Y-72757142D02*
X171678628Y-72423809D01*
X172154819Y-72185714D02*
X171154819Y-72185714D01*
X171154819Y-72185714D02*
X171154819Y-72566666D01*
X171154819Y-72566666D02*
X171202438Y-72661904D01*
X171202438Y-72661904D02*
X171250057Y-72709523D01*
X171250057Y-72709523D02*
X171345295Y-72757142D01*
X171345295Y-72757142D02*
X171488152Y-72757142D01*
X171488152Y-72757142D02*
X171583390Y-72709523D01*
X171583390Y-72709523D02*
X171631009Y-72661904D01*
X171631009Y-72661904D02*
X171678628Y-72566666D01*
X171678628Y-72566666D02*
X171678628Y-72185714D01*
X171154819Y-73090476D02*
X171154819Y-73709523D01*
X171154819Y-73709523D02*
X171535771Y-73376190D01*
X171535771Y-73376190D02*
X171535771Y-73519047D01*
X171535771Y-73519047D02*
X171583390Y-73614285D01*
X171583390Y-73614285D02*
X171631009Y-73661904D01*
X171631009Y-73661904D02*
X171726247Y-73709523D01*
X171726247Y-73709523D02*
X171964342Y-73709523D01*
X171964342Y-73709523D02*
X172059580Y-73661904D01*
X172059580Y-73661904D02*
X172107200Y-73614285D01*
X172107200Y-73614285D02*
X172154819Y-73519047D01*
X172154819Y-73519047D02*
X172154819Y-73233333D01*
X172154819Y-73233333D02*
X172107200Y-73138095D01*
X172107200Y-73138095D02*
X172059580Y-73090476D01*
X171154819Y-74566666D02*
X171154819Y-74376190D01*
X171154819Y-74376190D02*
X171202438Y-74280952D01*
X171202438Y-74280952D02*
X171250057Y-74233333D01*
X171250057Y-74233333D02*
X171392914Y-74138095D01*
X171392914Y-74138095D02*
X171583390Y-74090476D01*
X171583390Y-74090476D02*
X171964342Y-74090476D01*
X171964342Y-74090476D02*
X172059580Y-74138095D01*
X172059580Y-74138095D02*
X172107200Y-74185714D01*
X172107200Y-74185714D02*
X172154819Y-74280952D01*
X172154819Y-74280952D02*
X172154819Y-74471428D01*
X172154819Y-74471428D02*
X172107200Y-74566666D01*
X172107200Y-74566666D02*
X172059580Y-74614285D01*
X172059580Y-74614285D02*
X171964342Y-74661904D01*
X171964342Y-74661904D02*
X171726247Y-74661904D01*
X171726247Y-74661904D02*
X171631009Y-74614285D01*
X171631009Y-74614285D02*
X171583390Y-74566666D01*
X171583390Y-74566666D02*
X171535771Y-74471428D01*
X171535771Y-74471428D02*
X171535771Y-74280952D01*
X171535771Y-74280952D02*
X171583390Y-74185714D01*
X171583390Y-74185714D02*
X171631009Y-74138095D01*
X171631009Y-74138095D02*
X171726247Y-74090476D01*
X168424819Y-118157142D02*
X167948628Y-117823809D01*
X168424819Y-117585714D02*
X167424819Y-117585714D01*
X167424819Y-117585714D02*
X167424819Y-117966666D01*
X167424819Y-117966666D02*
X167472438Y-118061904D01*
X167472438Y-118061904D02*
X167520057Y-118109523D01*
X167520057Y-118109523D02*
X167615295Y-118157142D01*
X167615295Y-118157142D02*
X167758152Y-118157142D01*
X167758152Y-118157142D02*
X167853390Y-118109523D01*
X167853390Y-118109523D02*
X167901009Y-118061904D01*
X167901009Y-118061904D02*
X167948628Y-117966666D01*
X167948628Y-117966666D02*
X167948628Y-117585714D01*
X167424819Y-118490476D02*
X167424819Y-119109523D01*
X167424819Y-119109523D02*
X167805771Y-118776190D01*
X167805771Y-118776190D02*
X167805771Y-118919047D01*
X167805771Y-118919047D02*
X167853390Y-119014285D01*
X167853390Y-119014285D02*
X167901009Y-119061904D01*
X167901009Y-119061904D02*
X167996247Y-119109523D01*
X167996247Y-119109523D02*
X168234342Y-119109523D01*
X168234342Y-119109523D02*
X168329580Y-119061904D01*
X168329580Y-119061904D02*
X168377200Y-119014285D01*
X168377200Y-119014285D02*
X168424819Y-118919047D01*
X168424819Y-118919047D02*
X168424819Y-118633333D01*
X168424819Y-118633333D02*
X168377200Y-118538095D01*
X168377200Y-118538095D02*
X168329580Y-118490476D01*
X168424819Y-119585714D02*
X168424819Y-119776190D01*
X168424819Y-119776190D02*
X168377200Y-119871428D01*
X168377200Y-119871428D02*
X168329580Y-119919047D01*
X168329580Y-119919047D02*
X168186723Y-120014285D01*
X168186723Y-120014285D02*
X167996247Y-120061904D01*
X167996247Y-120061904D02*
X167615295Y-120061904D01*
X167615295Y-120061904D02*
X167520057Y-120014285D01*
X167520057Y-120014285D02*
X167472438Y-119966666D01*
X167472438Y-119966666D02*
X167424819Y-119871428D01*
X167424819Y-119871428D02*
X167424819Y-119680952D01*
X167424819Y-119680952D02*
X167472438Y-119585714D01*
X167472438Y-119585714D02*
X167520057Y-119538095D01*
X167520057Y-119538095D02*
X167615295Y-119490476D01*
X167615295Y-119490476D02*
X167853390Y-119490476D01*
X167853390Y-119490476D02*
X167948628Y-119538095D01*
X167948628Y-119538095D02*
X167996247Y-119585714D01*
X167996247Y-119585714D02*
X168043866Y-119680952D01*
X168043866Y-119680952D02*
X168043866Y-119871428D01*
X168043866Y-119871428D02*
X167996247Y-119966666D01*
X167996247Y-119966666D02*
X167948628Y-120014285D01*
X167948628Y-120014285D02*
X167853390Y-120061904D01*
X142254819Y-78961905D02*
X143064342Y-78961905D01*
X143064342Y-78961905D02*
X143159580Y-79009524D01*
X143159580Y-79009524D02*
X143207200Y-79057143D01*
X143207200Y-79057143D02*
X143254819Y-79152381D01*
X143254819Y-79152381D02*
X143254819Y-79342857D01*
X143254819Y-79342857D02*
X143207200Y-79438095D01*
X143207200Y-79438095D02*
X143159580Y-79485714D01*
X143159580Y-79485714D02*
X143064342Y-79533333D01*
X143064342Y-79533333D02*
X142254819Y-79533333D01*
X143254819Y-80533333D02*
X143254819Y-79961905D01*
X143254819Y-80247619D02*
X142254819Y-80247619D01*
X142254819Y-80247619D02*
X142397676Y-80152381D01*
X142397676Y-80152381D02*
X142492914Y-80057143D01*
X142492914Y-80057143D02*
X142540533Y-79961905D01*
X142683390Y-81104762D02*
X142635771Y-81009524D01*
X142635771Y-81009524D02*
X142588152Y-80961905D01*
X142588152Y-80961905D02*
X142492914Y-80914286D01*
X142492914Y-80914286D02*
X142445295Y-80914286D01*
X142445295Y-80914286D02*
X142350057Y-80961905D01*
X142350057Y-80961905D02*
X142302438Y-81009524D01*
X142302438Y-81009524D02*
X142254819Y-81104762D01*
X142254819Y-81104762D02*
X142254819Y-81295238D01*
X142254819Y-81295238D02*
X142302438Y-81390476D01*
X142302438Y-81390476D02*
X142350057Y-81438095D01*
X142350057Y-81438095D02*
X142445295Y-81485714D01*
X142445295Y-81485714D02*
X142492914Y-81485714D01*
X142492914Y-81485714D02*
X142588152Y-81438095D01*
X142588152Y-81438095D02*
X142635771Y-81390476D01*
X142635771Y-81390476D02*
X142683390Y-81295238D01*
X142683390Y-81295238D02*
X142683390Y-81104762D01*
X142683390Y-81104762D02*
X142731009Y-81009524D01*
X142731009Y-81009524D02*
X142778628Y-80961905D01*
X142778628Y-80961905D02*
X142873866Y-80914286D01*
X142873866Y-80914286D02*
X143064342Y-80914286D01*
X143064342Y-80914286D02*
X143159580Y-80961905D01*
X143159580Y-80961905D02*
X143207200Y-81009524D01*
X143207200Y-81009524D02*
X143254819Y-81104762D01*
X143254819Y-81104762D02*
X143254819Y-81295238D01*
X143254819Y-81295238D02*
X143207200Y-81390476D01*
X143207200Y-81390476D02*
X143159580Y-81438095D01*
X143159580Y-81438095D02*
X143064342Y-81485714D01*
X143064342Y-81485714D02*
X142873866Y-81485714D01*
X142873866Y-81485714D02*
X142778628Y-81438095D01*
X142778628Y-81438095D02*
X142731009Y-81390476D01*
X142731009Y-81390476D02*
X142683390Y-81295238D01*
X148959580Y-83033333D02*
X149007200Y-82985714D01*
X149007200Y-82985714D02*
X149054819Y-82842857D01*
X149054819Y-82842857D02*
X149054819Y-82747619D01*
X149054819Y-82747619D02*
X149007200Y-82604762D01*
X149007200Y-82604762D02*
X148911961Y-82509524D01*
X148911961Y-82509524D02*
X148816723Y-82461905D01*
X148816723Y-82461905D02*
X148626247Y-82414286D01*
X148626247Y-82414286D02*
X148483390Y-82414286D01*
X148483390Y-82414286D02*
X148292914Y-82461905D01*
X148292914Y-82461905D02*
X148197676Y-82509524D01*
X148197676Y-82509524D02*
X148102438Y-82604762D01*
X148102438Y-82604762D02*
X148054819Y-82747619D01*
X148054819Y-82747619D02*
X148054819Y-82842857D01*
X148054819Y-82842857D02*
X148102438Y-82985714D01*
X148102438Y-82985714D02*
X148150057Y-83033333D01*
X148054819Y-83938095D02*
X148054819Y-83461905D01*
X148054819Y-83461905D02*
X148531009Y-83414286D01*
X148531009Y-83414286D02*
X148483390Y-83461905D01*
X148483390Y-83461905D02*
X148435771Y-83557143D01*
X148435771Y-83557143D02*
X148435771Y-83795238D01*
X148435771Y-83795238D02*
X148483390Y-83890476D01*
X148483390Y-83890476D02*
X148531009Y-83938095D01*
X148531009Y-83938095D02*
X148626247Y-83985714D01*
X148626247Y-83985714D02*
X148864342Y-83985714D01*
X148864342Y-83985714D02*
X148959580Y-83938095D01*
X148959580Y-83938095D02*
X149007200Y-83890476D01*
X149007200Y-83890476D02*
X149054819Y-83795238D01*
X149054819Y-83795238D02*
X149054819Y-83557143D01*
X149054819Y-83557143D02*
X149007200Y-83461905D01*
X149007200Y-83461905D02*
X148959580Y-83414286D01*
X148966666Y-78159580D02*
X149014285Y-78207200D01*
X149014285Y-78207200D02*
X149157142Y-78254819D01*
X149157142Y-78254819D02*
X149252380Y-78254819D01*
X149252380Y-78254819D02*
X149395237Y-78207200D01*
X149395237Y-78207200D02*
X149490475Y-78111961D01*
X149490475Y-78111961D02*
X149538094Y-78016723D01*
X149538094Y-78016723D02*
X149585713Y-77826247D01*
X149585713Y-77826247D02*
X149585713Y-77683390D01*
X149585713Y-77683390D02*
X149538094Y-77492914D01*
X149538094Y-77492914D02*
X149490475Y-77397676D01*
X149490475Y-77397676D02*
X149395237Y-77302438D01*
X149395237Y-77302438D02*
X149252380Y-77254819D01*
X149252380Y-77254819D02*
X149157142Y-77254819D01*
X149157142Y-77254819D02*
X149014285Y-77302438D01*
X149014285Y-77302438D02*
X148966666Y-77350057D01*
X148633332Y-77254819D02*
X147966666Y-77254819D01*
X147966666Y-77254819D02*
X148395237Y-78254819D01*
X98224819Y-67557142D02*
X97748628Y-67223809D01*
X98224819Y-66985714D02*
X97224819Y-66985714D01*
X97224819Y-66985714D02*
X97224819Y-67366666D01*
X97224819Y-67366666D02*
X97272438Y-67461904D01*
X97272438Y-67461904D02*
X97320057Y-67509523D01*
X97320057Y-67509523D02*
X97415295Y-67557142D01*
X97415295Y-67557142D02*
X97558152Y-67557142D01*
X97558152Y-67557142D02*
X97653390Y-67509523D01*
X97653390Y-67509523D02*
X97701009Y-67461904D01*
X97701009Y-67461904D02*
X97748628Y-67366666D01*
X97748628Y-67366666D02*
X97748628Y-66985714D01*
X97224819Y-68461904D02*
X97224819Y-67985714D01*
X97224819Y-67985714D02*
X97701009Y-67938095D01*
X97701009Y-67938095D02*
X97653390Y-67985714D01*
X97653390Y-67985714D02*
X97605771Y-68080952D01*
X97605771Y-68080952D02*
X97605771Y-68319047D01*
X97605771Y-68319047D02*
X97653390Y-68414285D01*
X97653390Y-68414285D02*
X97701009Y-68461904D01*
X97701009Y-68461904D02*
X97796247Y-68509523D01*
X97796247Y-68509523D02*
X98034342Y-68509523D01*
X98034342Y-68509523D02*
X98129580Y-68461904D01*
X98129580Y-68461904D02*
X98177200Y-68414285D01*
X98177200Y-68414285D02*
X98224819Y-68319047D01*
X98224819Y-68319047D02*
X98224819Y-68080952D01*
X98224819Y-68080952D02*
X98177200Y-67985714D01*
X98177200Y-67985714D02*
X98129580Y-67938095D01*
X97224819Y-69414285D02*
X97224819Y-68938095D01*
X97224819Y-68938095D02*
X97701009Y-68890476D01*
X97701009Y-68890476D02*
X97653390Y-68938095D01*
X97653390Y-68938095D02*
X97605771Y-69033333D01*
X97605771Y-69033333D02*
X97605771Y-69271428D01*
X97605771Y-69271428D02*
X97653390Y-69366666D01*
X97653390Y-69366666D02*
X97701009Y-69414285D01*
X97701009Y-69414285D02*
X97796247Y-69461904D01*
X97796247Y-69461904D02*
X98034342Y-69461904D01*
X98034342Y-69461904D02*
X98129580Y-69414285D01*
X98129580Y-69414285D02*
X98177200Y-69366666D01*
X98177200Y-69366666D02*
X98224819Y-69271428D01*
X98224819Y-69271428D02*
X98224819Y-69033333D01*
X98224819Y-69033333D02*
X98177200Y-68938095D01*
X98177200Y-68938095D02*
X98129580Y-68890476D01*
X104842857Y-135454819D02*
X105176190Y-134978628D01*
X105414285Y-135454819D02*
X105414285Y-134454819D01*
X105414285Y-134454819D02*
X105033333Y-134454819D01*
X105033333Y-134454819D02*
X104938095Y-134502438D01*
X104938095Y-134502438D02*
X104890476Y-134550057D01*
X104890476Y-134550057D02*
X104842857Y-134645295D01*
X104842857Y-134645295D02*
X104842857Y-134788152D01*
X104842857Y-134788152D02*
X104890476Y-134883390D01*
X104890476Y-134883390D02*
X104938095Y-134931009D01*
X104938095Y-134931009D02*
X105033333Y-134978628D01*
X105033333Y-134978628D02*
X105414285Y-134978628D01*
X103938095Y-134454819D02*
X104414285Y-134454819D01*
X104414285Y-134454819D02*
X104461904Y-134931009D01*
X104461904Y-134931009D02*
X104414285Y-134883390D01*
X104414285Y-134883390D02*
X104319047Y-134835771D01*
X104319047Y-134835771D02*
X104080952Y-134835771D01*
X104080952Y-134835771D02*
X103985714Y-134883390D01*
X103985714Y-134883390D02*
X103938095Y-134931009D01*
X103938095Y-134931009D02*
X103890476Y-135026247D01*
X103890476Y-135026247D02*
X103890476Y-135264342D01*
X103890476Y-135264342D02*
X103938095Y-135359580D01*
X103938095Y-135359580D02*
X103985714Y-135407200D01*
X103985714Y-135407200D02*
X104080952Y-135454819D01*
X104080952Y-135454819D02*
X104319047Y-135454819D01*
X104319047Y-135454819D02*
X104414285Y-135407200D01*
X104414285Y-135407200D02*
X104461904Y-135359580D01*
X103033333Y-134454819D02*
X103223809Y-134454819D01*
X103223809Y-134454819D02*
X103319047Y-134502438D01*
X103319047Y-134502438D02*
X103366666Y-134550057D01*
X103366666Y-134550057D02*
X103461904Y-134692914D01*
X103461904Y-134692914D02*
X103509523Y-134883390D01*
X103509523Y-134883390D02*
X103509523Y-135264342D01*
X103509523Y-135264342D02*
X103461904Y-135359580D01*
X103461904Y-135359580D02*
X103414285Y-135407200D01*
X103414285Y-135407200D02*
X103319047Y-135454819D01*
X103319047Y-135454819D02*
X103128571Y-135454819D01*
X103128571Y-135454819D02*
X103033333Y-135407200D01*
X103033333Y-135407200D02*
X102985714Y-135359580D01*
X102985714Y-135359580D02*
X102938095Y-135264342D01*
X102938095Y-135264342D02*
X102938095Y-135026247D01*
X102938095Y-135026247D02*
X102985714Y-134931009D01*
X102985714Y-134931009D02*
X103033333Y-134883390D01*
X103033333Y-134883390D02*
X103128571Y-134835771D01*
X103128571Y-134835771D02*
X103319047Y-134835771D01*
X103319047Y-134835771D02*
X103414285Y-134883390D01*
X103414285Y-134883390D02*
X103461904Y-134931009D01*
X103461904Y-134931009D02*
X103509523Y-135026247D01*
X142966666Y-83759580D02*
X143014285Y-83807200D01*
X143014285Y-83807200D02*
X143157142Y-83854819D01*
X143157142Y-83854819D02*
X143252380Y-83854819D01*
X143252380Y-83854819D02*
X143395237Y-83807200D01*
X143395237Y-83807200D02*
X143490475Y-83711961D01*
X143490475Y-83711961D02*
X143538094Y-83616723D01*
X143538094Y-83616723D02*
X143585713Y-83426247D01*
X143585713Y-83426247D02*
X143585713Y-83283390D01*
X143585713Y-83283390D02*
X143538094Y-83092914D01*
X143538094Y-83092914D02*
X143490475Y-82997676D01*
X143490475Y-82997676D02*
X143395237Y-82902438D01*
X143395237Y-82902438D02*
X143252380Y-82854819D01*
X143252380Y-82854819D02*
X143157142Y-82854819D01*
X143157142Y-82854819D02*
X143014285Y-82902438D01*
X143014285Y-82902438D02*
X142966666Y-82950057D01*
X142395237Y-83283390D02*
X142490475Y-83235771D01*
X142490475Y-83235771D02*
X142538094Y-83188152D01*
X142538094Y-83188152D02*
X142585713Y-83092914D01*
X142585713Y-83092914D02*
X142585713Y-83045295D01*
X142585713Y-83045295D02*
X142538094Y-82950057D01*
X142538094Y-82950057D02*
X142490475Y-82902438D01*
X142490475Y-82902438D02*
X142395237Y-82854819D01*
X142395237Y-82854819D02*
X142204761Y-82854819D01*
X142204761Y-82854819D02*
X142109523Y-82902438D01*
X142109523Y-82902438D02*
X142061904Y-82950057D01*
X142061904Y-82950057D02*
X142014285Y-83045295D01*
X142014285Y-83045295D02*
X142014285Y-83092914D01*
X142014285Y-83092914D02*
X142061904Y-83188152D01*
X142061904Y-83188152D02*
X142109523Y-83235771D01*
X142109523Y-83235771D02*
X142204761Y-83283390D01*
X142204761Y-83283390D02*
X142395237Y-83283390D01*
X142395237Y-83283390D02*
X142490475Y-83331009D01*
X142490475Y-83331009D02*
X142538094Y-83378628D01*
X142538094Y-83378628D02*
X142585713Y-83473866D01*
X142585713Y-83473866D02*
X142585713Y-83664342D01*
X142585713Y-83664342D02*
X142538094Y-83759580D01*
X142538094Y-83759580D02*
X142490475Y-83807200D01*
X142490475Y-83807200D02*
X142395237Y-83854819D01*
X142395237Y-83854819D02*
X142204761Y-83854819D01*
X142204761Y-83854819D02*
X142109523Y-83807200D01*
X142109523Y-83807200D02*
X142061904Y-83759580D01*
X142061904Y-83759580D02*
X142014285Y-83664342D01*
X142014285Y-83664342D02*
X142014285Y-83473866D01*
X142014285Y-83473866D02*
X142061904Y-83378628D01*
X142061904Y-83378628D02*
X142109523Y-83331009D01*
X142109523Y-83331009D02*
X142204761Y-83283390D01*
X101042857Y-74854819D02*
X101376190Y-74378628D01*
X101614285Y-74854819D02*
X101614285Y-73854819D01*
X101614285Y-73854819D02*
X101233333Y-73854819D01*
X101233333Y-73854819D02*
X101138095Y-73902438D01*
X101138095Y-73902438D02*
X101090476Y-73950057D01*
X101090476Y-73950057D02*
X101042857Y-74045295D01*
X101042857Y-74045295D02*
X101042857Y-74188152D01*
X101042857Y-74188152D02*
X101090476Y-74283390D01*
X101090476Y-74283390D02*
X101138095Y-74331009D01*
X101138095Y-74331009D02*
X101233333Y-74378628D01*
X101233333Y-74378628D02*
X101614285Y-74378628D01*
X100661904Y-73950057D02*
X100614285Y-73902438D01*
X100614285Y-73902438D02*
X100519047Y-73854819D01*
X100519047Y-73854819D02*
X100280952Y-73854819D01*
X100280952Y-73854819D02*
X100185714Y-73902438D01*
X100185714Y-73902438D02*
X100138095Y-73950057D01*
X100138095Y-73950057D02*
X100090476Y-74045295D01*
X100090476Y-74045295D02*
X100090476Y-74140533D01*
X100090476Y-74140533D02*
X100138095Y-74283390D01*
X100138095Y-74283390D02*
X100709523Y-74854819D01*
X100709523Y-74854819D02*
X100090476Y-74854819D01*
X99614285Y-74854819D02*
X99423809Y-74854819D01*
X99423809Y-74854819D02*
X99328571Y-74807200D01*
X99328571Y-74807200D02*
X99280952Y-74759580D01*
X99280952Y-74759580D02*
X99185714Y-74616723D01*
X99185714Y-74616723D02*
X99138095Y-74426247D01*
X99138095Y-74426247D02*
X99138095Y-74045295D01*
X99138095Y-74045295D02*
X99185714Y-73950057D01*
X99185714Y-73950057D02*
X99233333Y-73902438D01*
X99233333Y-73902438D02*
X99328571Y-73854819D01*
X99328571Y-73854819D02*
X99519047Y-73854819D01*
X99519047Y-73854819D02*
X99614285Y-73902438D01*
X99614285Y-73902438D02*
X99661904Y-73950057D01*
X99661904Y-73950057D02*
X99709523Y-74045295D01*
X99709523Y-74045295D02*
X99709523Y-74283390D01*
X99709523Y-74283390D02*
X99661904Y-74378628D01*
X99661904Y-74378628D02*
X99614285Y-74426247D01*
X99614285Y-74426247D02*
X99519047Y-74473866D01*
X99519047Y-74473866D02*
X99328571Y-74473866D01*
X99328571Y-74473866D02*
X99233333Y-74426247D01*
X99233333Y-74426247D02*
X99185714Y-74378628D01*
X99185714Y-74378628D02*
X99138095Y-74283390D01*
X101042857Y-82854819D02*
X101376190Y-82378628D01*
X101614285Y-82854819D02*
X101614285Y-81854819D01*
X101614285Y-81854819D02*
X101233333Y-81854819D01*
X101233333Y-81854819D02*
X101138095Y-81902438D01*
X101138095Y-81902438D02*
X101090476Y-81950057D01*
X101090476Y-81950057D02*
X101042857Y-82045295D01*
X101042857Y-82045295D02*
X101042857Y-82188152D01*
X101042857Y-82188152D02*
X101090476Y-82283390D01*
X101090476Y-82283390D02*
X101138095Y-82331009D01*
X101138095Y-82331009D02*
X101233333Y-82378628D01*
X101233333Y-82378628D02*
X101614285Y-82378628D01*
X100709523Y-81854819D02*
X100090476Y-81854819D01*
X100090476Y-81854819D02*
X100423809Y-82235771D01*
X100423809Y-82235771D02*
X100280952Y-82235771D01*
X100280952Y-82235771D02*
X100185714Y-82283390D01*
X100185714Y-82283390D02*
X100138095Y-82331009D01*
X100138095Y-82331009D02*
X100090476Y-82426247D01*
X100090476Y-82426247D02*
X100090476Y-82664342D01*
X100090476Y-82664342D02*
X100138095Y-82759580D01*
X100138095Y-82759580D02*
X100185714Y-82807200D01*
X100185714Y-82807200D02*
X100280952Y-82854819D01*
X100280952Y-82854819D02*
X100566666Y-82854819D01*
X100566666Y-82854819D02*
X100661904Y-82807200D01*
X100661904Y-82807200D02*
X100709523Y-82759580D01*
X99471428Y-81854819D02*
X99376190Y-81854819D01*
X99376190Y-81854819D02*
X99280952Y-81902438D01*
X99280952Y-81902438D02*
X99233333Y-81950057D01*
X99233333Y-81950057D02*
X99185714Y-82045295D01*
X99185714Y-82045295D02*
X99138095Y-82235771D01*
X99138095Y-82235771D02*
X99138095Y-82473866D01*
X99138095Y-82473866D02*
X99185714Y-82664342D01*
X99185714Y-82664342D02*
X99233333Y-82759580D01*
X99233333Y-82759580D02*
X99280952Y-82807200D01*
X99280952Y-82807200D02*
X99376190Y-82854819D01*
X99376190Y-82854819D02*
X99471428Y-82854819D01*
X99471428Y-82854819D02*
X99566666Y-82807200D01*
X99566666Y-82807200D02*
X99614285Y-82759580D01*
X99614285Y-82759580D02*
X99661904Y-82664342D01*
X99661904Y-82664342D02*
X99709523Y-82473866D01*
X99709523Y-82473866D02*
X99709523Y-82235771D01*
X99709523Y-82235771D02*
X99661904Y-82045295D01*
X99661904Y-82045295D02*
X99614285Y-81950057D01*
X99614285Y-81950057D02*
X99566666Y-81902438D01*
X99566666Y-81902438D02*
X99471428Y-81854819D01*
X100054819Y-89757142D02*
X99578628Y-89423809D01*
X100054819Y-89185714D02*
X99054819Y-89185714D01*
X99054819Y-89185714D02*
X99054819Y-89566666D01*
X99054819Y-89566666D02*
X99102438Y-89661904D01*
X99102438Y-89661904D02*
X99150057Y-89709523D01*
X99150057Y-89709523D02*
X99245295Y-89757142D01*
X99245295Y-89757142D02*
X99388152Y-89757142D01*
X99388152Y-89757142D02*
X99483390Y-89709523D01*
X99483390Y-89709523D02*
X99531009Y-89661904D01*
X99531009Y-89661904D02*
X99578628Y-89566666D01*
X99578628Y-89566666D02*
X99578628Y-89185714D01*
X99388152Y-90614285D02*
X100054819Y-90614285D01*
X99007200Y-90376190D02*
X99721485Y-90138095D01*
X99721485Y-90138095D02*
X99721485Y-90757142D01*
X99483390Y-91280952D02*
X99435771Y-91185714D01*
X99435771Y-91185714D02*
X99388152Y-91138095D01*
X99388152Y-91138095D02*
X99292914Y-91090476D01*
X99292914Y-91090476D02*
X99245295Y-91090476D01*
X99245295Y-91090476D02*
X99150057Y-91138095D01*
X99150057Y-91138095D02*
X99102438Y-91185714D01*
X99102438Y-91185714D02*
X99054819Y-91280952D01*
X99054819Y-91280952D02*
X99054819Y-91471428D01*
X99054819Y-91471428D02*
X99102438Y-91566666D01*
X99102438Y-91566666D02*
X99150057Y-91614285D01*
X99150057Y-91614285D02*
X99245295Y-91661904D01*
X99245295Y-91661904D02*
X99292914Y-91661904D01*
X99292914Y-91661904D02*
X99388152Y-91614285D01*
X99388152Y-91614285D02*
X99435771Y-91566666D01*
X99435771Y-91566666D02*
X99483390Y-91471428D01*
X99483390Y-91471428D02*
X99483390Y-91280952D01*
X99483390Y-91280952D02*
X99531009Y-91185714D01*
X99531009Y-91185714D02*
X99578628Y-91138095D01*
X99578628Y-91138095D02*
X99673866Y-91090476D01*
X99673866Y-91090476D02*
X99864342Y-91090476D01*
X99864342Y-91090476D02*
X99959580Y-91138095D01*
X99959580Y-91138095D02*
X100007200Y-91185714D01*
X100007200Y-91185714D02*
X100054819Y-91280952D01*
X100054819Y-91280952D02*
X100054819Y-91471428D01*
X100054819Y-91471428D02*
X100007200Y-91566666D01*
X100007200Y-91566666D02*
X99959580Y-91614285D01*
X99959580Y-91614285D02*
X99864342Y-91661904D01*
X99864342Y-91661904D02*
X99673866Y-91661904D01*
X99673866Y-91661904D02*
X99578628Y-91614285D01*
X99578628Y-91614285D02*
X99531009Y-91566666D01*
X99531009Y-91566666D02*
X99483390Y-91471428D01*
X100054819Y-97757142D02*
X99578628Y-97423809D01*
X100054819Y-97185714D02*
X99054819Y-97185714D01*
X99054819Y-97185714D02*
X99054819Y-97566666D01*
X99054819Y-97566666D02*
X99102438Y-97661904D01*
X99102438Y-97661904D02*
X99150057Y-97709523D01*
X99150057Y-97709523D02*
X99245295Y-97757142D01*
X99245295Y-97757142D02*
X99388152Y-97757142D01*
X99388152Y-97757142D02*
X99483390Y-97709523D01*
X99483390Y-97709523D02*
X99531009Y-97661904D01*
X99531009Y-97661904D02*
X99578628Y-97566666D01*
X99578628Y-97566666D02*
X99578628Y-97185714D01*
X99388152Y-98614285D02*
X100054819Y-98614285D01*
X99007200Y-98376190D02*
X99721485Y-98138095D01*
X99721485Y-98138095D02*
X99721485Y-98757142D01*
X100054819Y-99185714D02*
X100054819Y-99376190D01*
X100054819Y-99376190D02*
X100007200Y-99471428D01*
X100007200Y-99471428D02*
X99959580Y-99519047D01*
X99959580Y-99519047D02*
X99816723Y-99614285D01*
X99816723Y-99614285D02*
X99626247Y-99661904D01*
X99626247Y-99661904D02*
X99245295Y-99661904D01*
X99245295Y-99661904D02*
X99150057Y-99614285D01*
X99150057Y-99614285D02*
X99102438Y-99566666D01*
X99102438Y-99566666D02*
X99054819Y-99471428D01*
X99054819Y-99471428D02*
X99054819Y-99280952D01*
X99054819Y-99280952D02*
X99102438Y-99185714D01*
X99102438Y-99185714D02*
X99150057Y-99138095D01*
X99150057Y-99138095D02*
X99245295Y-99090476D01*
X99245295Y-99090476D02*
X99483390Y-99090476D01*
X99483390Y-99090476D02*
X99578628Y-99138095D01*
X99578628Y-99138095D02*
X99626247Y-99185714D01*
X99626247Y-99185714D02*
X99673866Y-99280952D01*
X99673866Y-99280952D02*
X99673866Y-99471428D01*
X99673866Y-99471428D02*
X99626247Y-99566666D01*
X99626247Y-99566666D02*
X99578628Y-99614285D01*
X99578628Y-99614285D02*
X99483390Y-99661904D01*
X100054819Y-105757142D02*
X99578628Y-105423809D01*
X100054819Y-105185714D02*
X99054819Y-105185714D01*
X99054819Y-105185714D02*
X99054819Y-105566666D01*
X99054819Y-105566666D02*
X99102438Y-105661904D01*
X99102438Y-105661904D02*
X99150057Y-105709523D01*
X99150057Y-105709523D02*
X99245295Y-105757142D01*
X99245295Y-105757142D02*
X99388152Y-105757142D01*
X99388152Y-105757142D02*
X99483390Y-105709523D01*
X99483390Y-105709523D02*
X99531009Y-105661904D01*
X99531009Y-105661904D02*
X99578628Y-105566666D01*
X99578628Y-105566666D02*
X99578628Y-105185714D01*
X99054819Y-106661904D02*
X99054819Y-106185714D01*
X99054819Y-106185714D02*
X99531009Y-106138095D01*
X99531009Y-106138095D02*
X99483390Y-106185714D01*
X99483390Y-106185714D02*
X99435771Y-106280952D01*
X99435771Y-106280952D02*
X99435771Y-106519047D01*
X99435771Y-106519047D02*
X99483390Y-106614285D01*
X99483390Y-106614285D02*
X99531009Y-106661904D01*
X99531009Y-106661904D02*
X99626247Y-106709523D01*
X99626247Y-106709523D02*
X99864342Y-106709523D01*
X99864342Y-106709523D02*
X99959580Y-106661904D01*
X99959580Y-106661904D02*
X100007200Y-106614285D01*
X100007200Y-106614285D02*
X100054819Y-106519047D01*
X100054819Y-106519047D02*
X100054819Y-106280952D01*
X100054819Y-106280952D02*
X100007200Y-106185714D01*
X100007200Y-106185714D02*
X99959580Y-106138095D01*
X99054819Y-107328571D02*
X99054819Y-107423809D01*
X99054819Y-107423809D02*
X99102438Y-107519047D01*
X99102438Y-107519047D02*
X99150057Y-107566666D01*
X99150057Y-107566666D02*
X99245295Y-107614285D01*
X99245295Y-107614285D02*
X99435771Y-107661904D01*
X99435771Y-107661904D02*
X99673866Y-107661904D01*
X99673866Y-107661904D02*
X99864342Y-107614285D01*
X99864342Y-107614285D02*
X99959580Y-107566666D01*
X99959580Y-107566666D02*
X100007200Y-107519047D01*
X100007200Y-107519047D02*
X100054819Y-107423809D01*
X100054819Y-107423809D02*
X100054819Y-107328571D01*
X100054819Y-107328571D02*
X100007200Y-107233333D01*
X100007200Y-107233333D02*
X99959580Y-107185714D01*
X99959580Y-107185714D02*
X99864342Y-107138095D01*
X99864342Y-107138095D02*
X99673866Y-107090476D01*
X99673866Y-107090476D02*
X99435771Y-107090476D01*
X99435771Y-107090476D02*
X99245295Y-107138095D01*
X99245295Y-107138095D02*
X99150057Y-107185714D01*
X99150057Y-107185714D02*
X99102438Y-107233333D01*
X99102438Y-107233333D02*
X99054819Y-107328571D01*
X101142857Y-115054819D02*
X101476190Y-114578628D01*
X101714285Y-115054819D02*
X101714285Y-114054819D01*
X101714285Y-114054819D02*
X101333333Y-114054819D01*
X101333333Y-114054819D02*
X101238095Y-114102438D01*
X101238095Y-114102438D02*
X101190476Y-114150057D01*
X101190476Y-114150057D02*
X101142857Y-114245295D01*
X101142857Y-114245295D02*
X101142857Y-114388152D01*
X101142857Y-114388152D02*
X101190476Y-114483390D01*
X101190476Y-114483390D02*
X101238095Y-114531009D01*
X101238095Y-114531009D02*
X101333333Y-114578628D01*
X101333333Y-114578628D02*
X101714285Y-114578628D01*
X100238095Y-114054819D02*
X100714285Y-114054819D01*
X100714285Y-114054819D02*
X100761904Y-114531009D01*
X100761904Y-114531009D02*
X100714285Y-114483390D01*
X100714285Y-114483390D02*
X100619047Y-114435771D01*
X100619047Y-114435771D02*
X100380952Y-114435771D01*
X100380952Y-114435771D02*
X100285714Y-114483390D01*
X100285714Y-114483390D02*
X100238095Y-114531009D01*
X100238095Y-114531009D02*
X100190476Y-114626247D01*
X100190476Y-114626247D02*
X100190476Y-114864342D01*
X100190476Y-114864342D02*
X100238095Y-114959580D01*
X100238095Y-114959580D02*
X100285714Y-115007200D01*
X100285714Y-115007200D02*
X100380952Y-115054819D01*
X100380952Y-115054819D02*
X100619047Y-115054819D01*
X100619047Y-115054819D02*
X100714285Y-115007200D01*
X100714285Y-115007200D02*
X100761904Y-114959580D01*
X99857142Y-114054819D02*
X99238095Y-114054819D01*
X99238095Y-114054819D02*
X99571428Y-114435771D01*
X99571428Y-114435771D02*
X99428571Y-114435771D01*
X99428571Y-114435771D02*
X99333333Y-114483390D01*
X99333333Y-114483390D02*
X99285714Y-114531009D01*
X99285714Y-114531009D02*
X99238095Y-114626247D01*
X99238095Y-114626247D02*
X99238095Y-114864342D01*
X99238095Y-114864342D02*
X99285714Y-114959580D01*
X99285714Y-114959580D02*
X99333333Y-115007200D01*
X99333333Y-115007200D02*
X99428571Y-115054819D01*
X99428571Y-115054819D02*
X99714285Y-115054819D01*
X99714285Y-115054819D02*
X99809523Y-115007200D01*
X99809523Y-115007200D02*
X99857142Y-114959580D01*
X101042857Y-122854819D02*
X101376190Y-122378628D01*
X101614285Y-122854819D02*
X101614285Y-121854819D01*
X101614285Y-121854819D02*
X101233333Y-121854819D01*
X101233333Y-121854819D02*
X101138095Y-121902438D01*
X101138095Y-121902438D02*
X101090476Y-121950057D01*
X101090476Y-121950057D02*
X101042857Y-122045295D01*
X101042857Y-122045295D02*
X101042857Y-122188152D01*
X101042857Y-122188152D02*
X101090476Y-122283390D01*
X101090476Y-122283390D02*
X101138095Y-122331009D01*
X101138095Y-122331009D02*
X101233333Y-122378628D01*
X101233333Y-122378628D02*
X101614285Y-122378628D01*
X100138095Y-121854819D02*
X100614285Y-121854819D01*
X100614285Y-121854819D02*
X100661904Y-122331009D01*
X100661904Y-122331009D02*
X100614285Y-122283390D01*
X100614285Y-122283390D02*
X100519047Y-122235771D01*
X100519047Y-122235771D02*
X100280952Y-122235771D01*
X100280952Y-122235771D02*
X100185714Y-122283390D01*
X100185714Y-122283390D02*
X100138095Y-122331009D01*
X100138095Y-122331009D02*
X100090476Y-122426247D01*
X100090476Y-122426247D02*
X100090476Y-122664342D01*
X100090476Y-122664342D02*
X100138095Y-122759580D01*
X100138095Y-122759580D02*
X100185714Y-122807200D01*
X100185714Y-122807200D02*
X100280952Y-122854819D01*
X100280952Y-122854819D02*
X100519047Y-122854819D01*
X100519047Y-122854819D02*
X100614285Y-122807200D01*
X100614285Y-122807200D02*
X100661904Y-122759580D01*
X99233333Y-122188152D02*
X99233333Y-122854819D01*
X99471428Y-121807200D02*
X99709523Y-122521485D01*
X99709523Y-122521485D02*
X99090476Y-122521485D01*
X159742857Y-102454819D02*
X160076190Y-101978628D01*
X160314285Y-102454819D02*
X160314285Y-101454819D01*
X160314285Y-101454819D02*
X159933333Y-101454819D01*
X159933333Y-101454819D02*
X159838095Y-101502438D01*
X159838095Y-101502438D02*
X159790476Y-101550057D01*
X159790476Y-101550057D02*
X159742857Y-101645295D01*
X159742857Y-101645295D02*
X159742857Y-101788152D01*
X159742857Y-101788152D02*
X159790476Y-101883390D01*
X159790476Y-101883390D02*
X159838095Y-101931009D01*
X159838095Y-101931009D02*
X159933333Y-101978628D01*
X159933333Y-101978628D02*
X160314285Y-101978628D01*
X158885714Y-101788152D02*
X158885714Y-102454819D01*
X159123809Y-101407200D02*
X159361904Y-102121485D01*
X159361904Y-102121485D02*
X158742857Y-102121485D01*
X158171428Y-101454819D02*
X158076190Y-101454819D01*
X158076190Y-101454819D02*
X157980952Y-101502438D01*
X157980952Y-101502438D02*
X157933333Y-101550057D01*
X157933333Y-101550057D02*
X157885714Y-101645295D01*
X157885714Y-101645295D02*
X157838095Y-101835771D01*
X157838095Y-101835771D02*
X157838095Y-102073866D01*
X157838095Y-102073866D02*
X157885714Y-102264342D01*
X157885714Y-102264342D02*
X157933333Y-102359580D01*
X157933333Y-102359580D02*
X157980952Y-102407200D01*
X157980952Y-102407200D02*
X158076190Y-102454819D01*
X158076190Y-102454819D02*
X158171428Y-102454819D01*
X158171428Y-102454819D02*
X158266666Y-102407200D01*
X158266666Y-102407200D02*
X158314285Y-102359580D01*
X158314285Y-102359580D02*
X158361904Y-102264342D01*
X158361904Y-102264342D02*
X158409523Y-102073866D01*
X158409523Y-102073866D02*
X158409523Y-101835771D01*
X158409523Y-101835771D02*
X158361904Y-101645295D01*
X158361904Y-101645295D02*
X158314285Y-101550057D01*
X158314285Y-101550057D02*
X158266666Y-101502438D01*
X158266666Y-101502438D02*
X158171428Y-101454819D01*
X143042857Y-85559580D02*
X143090476Y-85607200D01*
X143090476Y-85607200D02*
X143233333Y-85654819D01*
X143233333Y-85654819D02*
X143328571Y-85654819D01*
X143328571Y-85654819D02*
X143471428Y-85607200D01*
X143471428Y-85607200D02*
X143566666Y-85511961D01*
X143566666Y-85511961D02*
X143614285Y-85416723D01*
X143614285Y-85416723D02*
X143661904Y-85226247D01*
X143661904Y-85226247D02*
X143661904Y-85083390D01*
X143661904Y-85083390D02*
X143614285Y-84892914D01*
X143614285Y-84892914D02*
X143566666Y-84797676D01*
X143566666Y-84797676D02*
X143471428Y-84702438D01*
X143471428Y-84702438D02*
X143328571Y-84654819D01*
X143328571Y-84654819D02*
X143233333Y-84654819D01*
X143233333Y-84654819D02*
X143090476Y-84702438D01*
X143090476Y-84702438D02*
X143042857Y-84750057D01*
X142709523Y-84654819D02*
X142090476Y-84654819D01*
X142090476Y-84654819D02*
X142423809Y-85035771D01*
X142423809Y-85035771D02*
X142280952Y-85035771D01*
X142280952Y-85035771D02*
X142185714Y-85083390D01*
X142185714Y-85083390D02*
X142138095Y-85131009D01*
X142138095Y-85131009D02*
X142090476Y-85226247D01*
X142090476Y-85226247D02*
X142090476Y-85464342D01*
X142090476Y-85464342D02*
X142138095Y-85559580D01*
X142138095Y-85559580D02*
X142185714Y-85607200D01*
X142185714Y-85607200D02*
X142280952Y-85654819D01*
X142280952Y-85654819D02*
X142566666Y-85654819D01*
X142566666Y-85654819D02*
X142661904Y-85607200D01*
X142661904Y-85607200D02*
X142709523Y-85559580D01*
X141185714Y-84654819D02*
X141661904Y-84654819D01*
X141661904Y-84654819D02*
X141709523Y-85131009D01*
X141709523Y-85131009D02*
X141661904Y-85083390D01*
X141661904Y-85083390D02*
X141566666Y-85035771D01*
X141566666Y-85035771D02*
X141328571Y-85035771D01*
X141328571Y-85035771D02*
X141233333Y-85083390D01*
X141233333Y-85083390D02*
X141185714Y-85131009D01*
X141185714Y-85131009D02*
X141138095Y-85226247D01*
X141138095Y-85226247D02*
X141138095Y-85464342D01*
X141138095Y-85464342D02*
X141185714Y-85559580D01*
X141185714Y-85559580D02*
X141233333Y-85607200D01*
X141233333Y-85607200D02*
X141328571Y-85654819D01*
X141328571Y-85654819D02*
X141566666Y-85654819D01*
X141566666Y-85654819D02*
X141661904Y-85607200D01*
X141661904Y-85607200D02*
X141709523Y-85559580D01*
X143242857Y-75359580D02*
X143290476Y-75407200D01*
X143290476Y-75407200D02*
X143433333Y-75454819D01*
X143433333Y-75454819D02*
X143528571Y-75454819D01*
X143528571Y-75454819D02*
X143671428Y-75407200D01*
X143671428Y-75407200D02*
X143766666Y-75311961D01*
X143766666Y-75311961D02*
X143814285Y-75216723D01*
X143814285Y-75216723D02*
X143861904Y-75026247D01*
X143861904Y-75026247D02*
X143861904Y-74883390D01*
X143861904Y-74883390D02*
X143814285Y-74692914D01*
X143814285Y-74692914D02*
X143766666Y-74597676D01*
X143766666Y-74597676D02*
X143671428Y-74502438D01*
X143671428Y-74502438D02*
X143528571Y-74454819D01*
X143528571Y-74454819D02*
X143433333Y-74454819D01*
X143433333Y-74454819D02*
X143290476Y-74502438D01*
X143290476Y-74502438D02*
X143242857Y-74550057D01*
X142385714Y-74454819D02*
X142576190Y-74454819D01*
X142576190Y-74454819D02*
X142671428Y-74502438D01*
X142671428Y-74502438D02*
X142719047Y-74550057D01*
X142719047Y-74550057D02*
X142814285Y-74692914D01*
X142814285Y-74692914D02*
X142861904Y-74883390D01*
X142861904Y-74883390D02*
X142861904Y-75264342D01*
X142861904Y-75264342D02*
X142814285Y-75359580D01*
X142814285Y-75359580D02*
X142766666Y-75407200D01*
X142766666Y-75407200D02*
X142671428Y-75454819D01*
X142671428Y-75454819D02*
X142480952Y-75454819D01*
X142480952Y-75454819D02*
X142385714Y-75407200D01*
X142385714Y-75407200D02*
X142338095Y-75359580D01*
X142338095Y-75359580D02*
X142290476Y-75264342D01*
X142290476Y-75264342D02*
X142290476Y-75026247D01*
X142290476Y-75026247D02*
X142338095Y-74931009D01*
X142338095Y-74931009D02*
X142385714Y-74883390D01*
X142385714Y-74883390D02*
X142480952Y-74835771D01*
X142480952Y-74835771D02*
X142671428Y-74835771D01*
X142671428Y-74835771D02*
X142766666Y-74883390D01*
X142766666Y-74883390D02*
X142814285Y-74931009D01*
X142814285Y-74931009D02*
X142861904Y-75026247D01*
X141957142Y-74454819D02*
X141338095Y-74454819D01*
X141338095Y-74454819D02*
X141671428Y-74835771D01*
X141671428Y-74835771D02*
X141528571Y-74835771D01*
X141528571Y-74835771D02*
X141433333Y-74883390D01*
X141433333Y-74883390D02*
X141385714Y-74931009D01*
X141385714Y-74931009D02*
X141338095Y-75026247D01*
X141338095Y-75026247D02*
X141338095Y-75264342D01*
X141338095Y-75264342D02*
X141385714Y-75359580D01*
X141385714Y-75359580D02*
X141433333Y-75407200D01*
X141433333Y-75407200D02*
X141528571Y-75454819D01*
X141528571Y-75454819D02*
X141814285Y-75454819D01*
X141814285Y-75454819D02*
X141909523Y-75407200D01*
X141909523Y-75407200D02*
X141957142Y-75359580D01*
D13*
X161250000Y-101050000D02*
X163650000Y-101050000D01*
X161850000Y-97750000D02*
X163650000Y-97750000D01*
X163650000Y-97750000D02*
X163650000Y-98800000D01*
X163650000Y-101050000D02*
X163650000Y-100000000D01*
D14*
X185560000Y-97775000D02*
X183150000Y-97775000D01*
X184850000Y-99025000D02*
X183150000Y-99025000D01*
X137800000Y-131100000D02*
X137800000Y-130500000D01*
D13*
X155277500Y-71542224D02*
X155277500Y-71032776D01*
X156322500Y-71542224D02*
X156322500Y-71032776D01*
X158722500Y-71032776D02*
X158722500Y-71542224D01*
X157677500Y-71032776D02*
X157677500Y-71542224D01*
X146342224Y-66322500D02*
X145832776Y-66322500D01*
X146342224Y-65277500D02*
X145832776Y-65277500D01*
X168232776Y-72077500D02*
X168742224Y-72077500D01*
X168232776Y-73122500D02*
X168742224Y-73122500D01*
X172277500Y-67742224D02*
X172277500Y-67232776D01*
X173322500Y-67742224D02*
X173322500Y-67232776D01*
X145545276Y-72677500D02*
X146054724Y-72677500D01*
X145545276Y-73722500D02*
X146054724Y-73722500D01*
X132215000Y-130083767D02*
X132215000Y-129791233D01*
X133235000Y-130083767D02*
X133235000Y-129791233D01*
X141710000Y-89453733D02*
X141710000Y-89746267D01*
X140690000Y-89453733D02*
X140690000Y-89746267D01*
X135253733Y-102890000D02*
X135546267Y-102890000D01*
X135253733Y-103910000D02*
X135546267Y-103910000D01*
X153146267Y-95910000D02*
X152853733Y-95910000D01*
X153146267Y-94890000D02*
X152853733Y-94890000D01*
X153146267Y-103910000D02*
X152853733Y-103910000D01*
X153146267Y-102890000D02*
X152853733Y-102890000D01*
X139710000Y-89453733D02*
X139710000Y-89746267D01*
X138690000Y-89453733D02*
X138690000Y-89746267D01*
X135253733Y-95890000D02*
X135546267Y-95890000D01*
X135253733Y-96910000D02*
X135546267Y-96910000D01*
X135253733Y-100890000D02*
X135546267Y-100890000D01*
X135253733Y-101910000D02*
X135546267Y-101910000D01*
X153146267Y-94310000D02*
X152853733Y-94310000D01*
X153146267Y-93290000D02*
X152853733Y-93290000D01*
X135253733Y-97890000D02*
X135546267Y-97890000D01*
X135253733Y-98910000D02*
X135546267Y-98910000D01*
X146910000Y-89453733D02*
X146910000Y-89746267D01*
X145890000Y-89453733D02*
X145890000Y-89746267D01*
X145690000Y-107346267D02*
X145690000Y-107053733D01*
X146710000Y-107346267D02*
X146710000Y-107053733D01*
X153146267Y-101910000D02*
X152853733Y-101910000D01*
X153146267Y-100890000D02*
X152853733Y-100890000D01*
X143690000Y-107346267D02*
X143690000Y-107053733D01*
X144710000Y-107346267D02*
X144710000Y-107053733D01*
X149310000Y-89453733D02*
X149310000Y-89746267D01*
X148290000Y-89453733D02*
X148290000Y-89746267D01*
X135253733Y-94290000D02*
X135546267Y-94290000D01*
X135253733Y-95310000D02*
X135546267Y-95310000D01*
X153146267Y-98910000D02*
X152853733Y-98910000D01*
X153146267Y-97890000D02*
X152853733Y-97890000D01*
X126710000Y-109488748D02*
X126710000Y-110911252D01*
X124890000Y-109488748D02*
X124890000Y-110911252D01*
X147690000Y-107346267D02*
X147690000Y-107053733D01*
X148710000Y-107346267D02*
X148710000Y-107053733D01*
X156710000Y-63716233D02*
X156710000Y-64008767D01*
X155690000Y-63716233D02*
X155690000Y-64008767D01*
D14*
X142550000Y-65400000D02*
X141350000Y-65400000D01*
D13*
X139690000Y-107346267D02*
X139690000Y-107053733D01*
X140710000Y-107346267D02*
X140710000Y-107053733D01*
D14*
X161100000Y-66350000D02*
X161100000Y-67550000D01*
X164050000Y-67900000D02*
X161150000Y-67900000D01*
X161150000Y-67900000D02*
X161150000Y-68500000D01*
X164050000Y-68500000D02*
X164050000Y-67900000D01*
X161150000Y-68500000D02*
X164050000Y-68500000D01*
D13*
X179277500Y-72854724D02*
X179277500Y-72345276D01*
X180322500Y-72854724D02*
X180322500Y-72345276D01*
X146342224Y-68322500D02*
X145832776Y-68322500D01*
X146342224Y-67277500D02*
X145832776Y-67277500D01*
X111702500Y-67945276D02*
X111702500Y-68454724D01*
X110657500Y-67945276D02*
X110657500Y-68454724D01*
D14*
X135450000Y-73900000D02*
X134250000Y-73900000D01*
X133900000Y-76850000D02*
X133900000Y-73950000D01*
X133900000Y-73950000D02*
X133300000Y-73950000D01*
X133300000Y-76850000D02*
X133900000Y-76850000D01*
X133300000Y-73950000D02*
X133300000Y-76850000D01*
D13*
X128510000Y-71853733D02*
X128510000Y-72146267D01*
X127490000Y-71853733D02*
X127490000Y-72146267D01*
X127490000Y-77146267D02*
X127490000Y-76853733D01*
X128510000Y-77146267D02*
X128510000Y-76853733D01*
X130322500Y-75145276D02*
X130322500Y-75654724D01*
X129277500Y-75145276D02*
X129277500Y-75654724D01*
X116782500Y-67945276D02*
X116782500Y-68454724D01*
X115737500Y-67945276D02*
X115737500Y-68454724D01*
X124890000Y-87511252D02*
X124890000Y-86088748D01*
X126710000Y-87511252D02*
X126710000Y-86088748D01*
X133746267Y-72510000D02*
X133453733Y-72510000D01*
X133746267Y-71490000D02*
X133453733Y-71490000D01*
D14*
X158750000Y-66400000D02*
X157550000Y-66400000D01*
D13*
X153483767Y-68110000D02*
X153191233Y-68110000D01*
X153483767Y-67090000D02*
X153191233Y-67090000D01*
X160432776Y-64277500D02*
X160942224Y-64277500D01*
X160432776Y-65322500D02*
X160942224Y-65322500D01*
D14*
X171000000Y-76800000D02*
X171000000Y-79800000D01*
D13*
X169150000Y-116450000D02*
X171550000Y-116450000D01*
X169750000Y-113150000D02*
X171550000Y-113150000D01*
X171550000Y-113150000D02*
X171550000Y-114200000D01*
X171550000Y-116450000D02*
X171550000Y-115400000D01*
X158322500Y-114345276D02*
X158322500Y-114854724D01*
X157277500Y-114345276D02*
X157277500Y-114854724D01*
D14*
X171450000Y-67300000D02*
X171450000Y-64800000D01*
X166950000Y-64800000D02*
X166950000Y-67300000D01*
X170754380Y-69494000D02*
G75*
G03*
X170754380Y-69494000I-44380J0D01*
G01*
D13*
X178450000Y-68050000D02*
X178450000Y-65650000D01*
X175150000Y-67450000D02*
X175150000Y-65650000D01*
X175150000Y-65650000D02*
X176200000Y-65650000D01*
X178450000Y-65650000D02*
X177400000Y-65650000D01*
X178450000Y-73850000D02*
X178450000Y-71450000D01*
X175150000Y-73250000D02*
X175150000Y-71450000D01*
X175150000Y-71450000D02*
X176200000Y-71450000D01*
X178450000Y-71450000D02*
X177400000Y-71450000D01*
X173722500Y-73145276D02*
X173722500Y-73654724D01*
X172677500Y-73145276D02*
X172677500Y-73654724D01*
X169922500Y-118545276D02*
X169922500Y-119054724D01*
X168877500Y-118545276D02*
X168877500Y-119054724D01*
X146300000Y-82010000D02*
X144500000Y-82010000D01*
X144500000Y-78790000D02*
X146950000Y-78790000D01*
X148090000Y-80608767D02*
X148090000Y-80316233D01*
X149110000Y-80608767D02*
X149110000Y-80316233D01*
X145746267Y-78310000D02*
X145453733Y-78310000D01*
X145746267Y-77290000D02*
X145453733Y-77290000D01*
X99722500Y-67945276D02*
X99722500Y-68454724D01*
X98677500Y-67945276D02*
X98677500Y-68454724D01*
X103945276Y-132877500D02*
X104454724Y-132877500D01*
X103945276Y-133922500D02*
X104454724Y-133922500D01*
X145538748Y-82565000D02*
X146061252Y-82565000D01*
X145538748Y-84035000D02*
X146061252Y-84035000D01*
X96945276Y-73877500D02*
X97454724Y-73877500D01*
X96945276Y-74922500D02*
X97454724Y-74922500D01*
X96945276Y-81877500D02*
X97454724Y-81877500D01*
X96945276Y-82922500D02*
X97454724Y-82922500D01*
X96945276Y-89877500D02*
X97454724Y-89877500D01*
X96945276Y-90922500D02*
X97454724Y-90922500D01*
X96945276Y-97877500D02*
X97454724Y-97877500D01*
X96945276Y-98922500D02*
X97454724Y-98922500D01*
X96945276Y-105877500D02*
X97454724Y-105877500D01*
X96945276Y-106922500D02*
X97454724Y-106922500D01*
X96945276Y-113877500D02*
X97454724Y-113877500D01*
X96945276Y-114922500D02*
X97454724Y-114922500D01*
X96945276Y-121877500D02*
X97454724Y-121877500D01*
X96945276Y-122922500D02*
X97454724Y-122922500D01*
X159354724Y-100922500D02*
X158845276Y-100922500D01*
X159354724Y-99877500D02*
X158845276Y-99877500D01*
X145808767Y-85710000D02*
X145516233Y-85710000D01*
X145808767Y-84690000D02*
X145516233Y-84690000D01*
X164900000Y-96200000D02*
X164900000Y-100600000D01*
X164900000Y-100600000D02*
X169300000Y-100600000D01*
X169300000Y-96200000D02*
X164900000Y-96200000D01*
X169300000Y-100600000D02*
X169300000Y-96200000D01*
X145996267Y-75510000D02*
X145703733Y-75510000D01*
X145996267Y-74490000D02*
X145703733Y-74490000D01*
M02*
