M48
INCH,TZ
T1C0.0157
T2C0.0197
T3C0.0315
T4C0.0327
T5C0.0394
T6C0.0433
T7C0.0472
T8C0.0512
T9C0.0669
T10C0.1063
T11C0.1181
%
G90
G05
T1
X44173Y-36299
X45354Y-26535
X45512Y-36299
X46457Y-36693
X46457Y-37559
X47323Y-27638
X47559Y-38976
X47559Y-39606
X48425Y-38583
X48425Y-39606
X48819Y-26535
X49291Y-27638
X50866Y-33071
X50945Y-38661
X50945Y-39921
X51654Y-44331
X51890Y-31260
X51890Y-31890
X51969Y-46772
X52205Y-32677
X52205Y-33150
X52244Y-31575
X52441Y-45118
X53937Y-34567
X54173Y-25827
X54252Y-42756
X54331Y-37008
X54331Y-37402
X54331Y-38740
X54331Y-39528
X54331Y-39921
X54331Y-40709
X54409Y-37953
X54961Y-32677
X55118Y-30000
X55197Y-41181
X55276Y-32992
X55276Y-45984
X55276Y-46772
X55512Y-28268
X55512Y-28976
X55512Y-31260
X55512Y-31890
X55512Y-49134
X55827Y-31575
X55906Y-41181
X56181Y-49134
X56220Y-30079
X56457Y-26535
X56575Y-49646
X56772Y-41181
X56929Y-45984
X56929Y-46772
X56944Y-43991
X56969Y-30000
X57559Y-41181
X57874Y-30000
X57953Y-36299
X58110Y-34882
X58268Y-41181
X58346Y-30000
X58504Y-36299
X58818Y-30001
X59213Y-36929
X59213Y-37559
X59213Y-37953
X59213Y-38740
X59213Y-39528
X59213Y-39921
X59213Y-40709
X60000Y-31260
X60000Y-33228
X61496Y-37795
X61654Y-33543
X61654Y-34488
X61732Y-39528
X61732Y-41024
X61732Y-42126
X61969Y-37244
X62126Y-35512
X62362Y-38425
X62362Y-41024
X62441Y-34488
X62520Y-45906
X62530Y-44478
X62756Y-37244
X63307Y-26850
X64016Y-34882
X64016Y-41732
X64528Y-38701
T2
X38258Y-24961
X38258Y-52520
X38491Y-24397
X38491Y-25524
X38491Y-51956
X38491Y-53083
X39055Y-24163
X39055Y-25758
X39055Y-51722
X39055Y-53317
X39619Y-24397
X39619Y-25524
X39619Y-51956
X39619Y-53083
X39852Y-24961
X39852Y-52520
X40630Y-49843
X43465Y-33071
X43465Y-33543
X43465Y-34016
X43543Y-30315
X43543Y-45118
X43543Y-45984
X43543Y-47008
X43937Y-33071
X43937Y-33543
X43937Y-34016
X44882Y-28898
X45748Y-50157
X46142Y-28898
X46693Y-40315
X48504Y-45039
X48504Y-45512
X48976Y-32441
X49055Y-45039
X49055Y-45512
X49134Y-31654
X49134Y-49449
X49144Y-30935
X49606Y-45039
X49606Y-45512
X50551Y-49449
X53622Y-23543
X54409Y-36378
X54567Y-26220
X54567Y-27795
X54724Y-24016
X54803Y-36378
X55118Y-38346
X55118Y-38740
X55118Y-39134
X55197Y-36378
X55354Y-51496
X55591Y-36378
X55821Y-51502
X56378Y-37087
X56378Y-40394
X56772Y-37087
X56772Y-40394
X57165Y-34173
X57165Y-37087
X57165Y-40394
X57402Y-27795
X57480Y-51496
X57953Y-51496
X58031Y-48740
X58189Y-30630
X58425Y-38346
X58425Y-38740
X58425Y-39134
X58976Y-23780
X59055Y-28976
X59764Y-47874
X59843Y-27874
X59921Y-23780
X61024Y-25512
X61575Y-44921
X61732Y-28976
X61811Y-48031
X62283Y-24567
X62441Y-25512
X62756Y-36220
X62756Y-38031
X62756Y-43071
X62756Y-44882
X63228Y-34409
X63228Y-41260
X63307Y-47953
X65039Y-35354
X65039Y-42205
X65118Y-36063
X65197Y-42913
X65827Y-30827
X66614Y-27638
X66693Y-47717
X66850Y-38740
X67480Y-26220
X67520Y-34449
X67520Y-34961
X67520Y-41299
X67520Y-41811
X68110Y-45197
X68189Y-36693
X68189Y-43543
X69252Y-36535
X69252Y-43386
X69764Y-34646
X69764Y-41496
X70000Y-44173
X70315Y-37163
X70472Y-45197
X70787Y-27559
X72441Y-38346
X72441Y-39134
X73691Y-24961
X73691Y-52520
X73924Y-24397
X73924Y-25524
X73924Y-51956
X73924Y-53083
X74488Y-24163
X74488Y-25758
X74488Y-51722
X74488Y-53317
X75052Y-24397
X75052Y-25524
X75052Y-51956
X75052Y-53083
X75285Y-24961
X75285Y-52520
T3
X37717Y-23622
X37717Y-53780
X41102Y-24488
X42795Y-28031
X42795Y-31535
X45197Y-52441
X48819Y-50709
X49843Y-52441
X50236Y-35118
X50236Y-35748
X50236Y-36378
X50236Y-41260
X50236Y-41890
X50236Y-42520
X51102Y-28709
X51102Y-30630
X51969Y-49449
X52598Y-53780
X53071Y-51496
X58583Y-24724
X59370Y-32362
X59961Y-52441
X60551Y-24724
X60630Y-43465
X63189Y-53701
X65630Y-49449
X66614Y-49449
X68386Y-49449
X69370Y-49449
X70315Y-30157
X70315Y-31157
X70315Y-46323
X70315Y-47323
X73937Y-28425
X73937Y-49055
X73961Y-29764
X73961Y-47717
X74921Y-28425
X74921Y-49055
X74961Y-29764
X74961Y-47717
T4
X65748Y-51870
X66748Y-51870
X68748Y-51870
X69748Y-51870
X70748Y-51870
T5
X38563Y-28406
X38563Y-30177
X38563Y-31555
X38563Y-33327
X38563Y-34705
X38563Y-36476
X38563Y-37854
X38563Y-39626
X38563Y-41004
X38563Y-42776
X38563Y-44154
X38563Y-45925
X38563Y-47303
X38563Y-49075
X39764Y-35591
X39764Y-36591
X39764Y-37591
X39764Y-38591
X39764Y-39591
X39764Y-40591
X39764Y-41591
X39764Y-42591
X41122Y-28406
X41122Y-30177
X41122Y-31555
X41122Y-33327
X41122Y-34705
X41122Y-36476
X41122Y-37854
X41122Y-39626
X41122Y-41004
X41122Y-42776
X41122Y-44154
X41122Y-45925
X41122Y-47303
X41122Y-49075
X44134Y-37240
X44134Y-38240
X44134Y-39240
X44134Y-40240
T6
X42323Y-24748
X42323Y-25748
X43323Y-24748
X43323Y-25748
X44323Y-24748
X44323Y-25748
X45323Y-24748
X45323Y-25748
X46323Y-24748
X46323Y-25748
X47323Y-24748
X47323Y-25748
X48323Y-24748
X48323Y-25748
X49323Y-24748
X49323Y-25748
X50323Y-24748
X50323Y-25748
X51323Y-24748
X51323Y-25748
T7
X72126Y-27795
X72126Y-29795
X72126Y-47685
X72126Y-49685
T10
X39055Y-24961
X39055Y-52520
X74488Y-24961
X74488Y-52520
T11
X56772Y-38740
T5
G00X73110Y-33130
M15
G01X73110Y-32539
M16
G05
G00X73110Y-44941
M15
G01X73110Y-44350
M16
G05
T8
G00X75118Y-32835
M15
G01X74646Y-32835
M16
G05
G00X75118Y-44646
M15
G01X74646Y-44646
M16
G05
T9
G00X45591Y-31535
M15
G01X45591Y-31142
M16
G05
G00X46850Y-46969
M15
G01X46850Y-47362
M16
G05
T0
M30
