M48
; DRILL file {KiCad 7.0.5} date Thu Aug 17 19:10:36 2023
; FORMAT={-:-/ absolute / inch / decimal}
; #@! TF.CreationDate,2023-08-17T19:10:36+09:00
; #@! TF.GenerationSoftware,Kicad,Pcbnew,7.0.5
; #@! TF.FileFunction,Plated,1,2,PTH
FMAT,2
INCH
; #@! TA.AperFunction,Plated,PTH,ViaDrill
T1C0.0157
; #@! TA.AperFunction,Plated,PTH,ViaDrill
T2C0.0197
; #@! TA.AperFunction,Plated,PTH,ComponentDrill
T3C0.0197
; #@! TA.AperFunction,Plated,PTH,ComponentDrill
T4C0.0276
; #@! TA.AperFunction,Plated,PTH,ViaDrill
T5C0.0315
; #@! TA.AperFunction,Plated,PTH,ComponentDrill
T6C0.0315
; #@! TA.AperFunction,Plated,PTH,ComponentDrill
T7C0.0327
; #@! TA.AperFunction,Plated,PTH,ComponentDrill
T8C0.0394
; #@! TA.AperFunction,Plated,PTH,ComponentDrill
T9C0.0453
; #@! TA.AperFunction,Plated,PTH,ComponentDrill
T10C0.0512
; #@! TA.AperFunction,Plated,PTH,ComponentDrill
T11C0.1063
%
G90
G05
T1
X4.4994Y-2.6122
X4.4994Y-2.8012
X4.5Y-2.9902
X4.5388Y-2.5256
X4.5709Y-4.7681
X4.5827Y-3.7402
X4.5827Y-3.939
X4.5827Y-4.0394
X4.5984Y-4.8681
X4.6476Y-3.5276
X4.649Y-2.5689
X4.649Y-2.7579
X4.6496Y-2.9469
X4.6614Y-3.7402
X4.6614Y-3.8622
X4.6614Y-3.939
X4.687Y-4.1929
X4.689Y-3.9724
X4.7106Y-3.2835
X4.7185Y-3.5276
X4.7972Y-3.3327
X4.8563Y-4.0118
X4.8858Y-4.5394
X4.8858Y-4.7441
X4.9134Y-4.0866
X4.9134Y-4.1614
X4.9144Y-4.0118
X4.9252Y-5.378
X4.9941Y-3.4409
X4.998Y-4.5925
X4.998Y-4.7795
X4.998Y-4.874
X5.0276Y-4.1083
X5.0285Y-3.8307
X5.0285Y-3.9173
X5.0315Y-3.7067
X5.0315Y-3.7795
X5.0335Y-5.2933
X5.0394Y-3.9921
X5.0787Y-4.374
X5.0965Y-4.1988
X5.1102Y-5.2283
X5.1102Y-5.3228
X5.1181Y-5.1181
X5.122Y-4.0
X5.127Y-4.1348
X5.128Y-4.7933
X5.1476Y-4.4232
X5.1496Y-4.6437
X5.1575Y-3.9764
X5.1772Y-4.3937
X5.189Y-4.0
X5.2008Y-5.3366
X5.2087Y-4.3642
X5.2205Y-3.9764
X5.2283Y-4.75
X5.2283Y-4.8543
X5.2382Y-3.0413
X5.2657Y-3.5827
X5.2756Y-3.1648
X5.2766Y-4.403
X5.2972Y-4.3641
X5.3484Y-5.2933
X5.3701Y-4.1585
X5.3976Y-3.1969
X5.4016Y-3.9882
X5.4331Y-5.2283
X5.4331Y-5.3228
X5.437Y-3.2815
X5.4409Y-3.9882
X5.4528Y-4.1378
X5.4567Y-3.3642
X5.5157Y-5.3366
X5.5197Y-3.2992
X5.6102Y-5.0472
X5.6496Y-4.8228
X5.6516Y-3.2992
X5.6614Y-3.7638
X5.6614Y-3.8189
X5.6634Y-5.2933
X5.6732Y-4.9094
X5.7244Y-3.6929
X5.7323Y-4.1811
X5.7717Y-4.1811
X5.7874Y-3.6929
X5.7923Y-4.8228
X5.8228Y-4.1693
X5.8268Y-3.6929
X5.8346Y-5.3366
X5.9055Y-3.6929
X5.9055Y-4.1811
X5.9823Y-5.2933
X5.9843Y-3.6929
X5.9843Y-4.1811
X6.0236Y-3.2047
X6.0236Y-3.6929
X6.0236Y-4.1811
X6.1024Y-3.6929
X6.1024Y-4.1811
X6.1496Y-3.7874
X6.1496Y-3.8583
X6.1496Y-3.937
X6.1496Y-4.0236
X6.1496Y-4.0945
X6.1496Y-5.3366
X6.1634Y-3.2992
X6.2756Y-3.2992
X6.2972Y-5.2933
X6.3071Y-4.1634
X6.3071Y-4.2441
X6.3386Y-3.3622
X6.3579Y-3.2799
X6.4213Y-3.0354
X6.4306Y-3.9198
X6.4409Y-4.3268
X6.4488Y-5.4094
X6.4508Y-3.1831
X6.4646Y-5.3366
X6.5354Y-3.0354
X6.5354Y-3.1654
X6.5591Y-4.2988
X6.5787Y-3.6496
X6.6102Y-5.2933
X6.6299Y-3.9016
X6.6299Y-4.0197
X6.6417Y-3.3307
X6.6575Y-4.6535
X6.6969Y-4.2244
X6.7087Y-3.9016
X6.7087Y-4.0197
X6.7087Y-4.4447
X6.7756Y-5.3366
X6.9232Y-5.2933
X6.9449Y-3.9961
X6.9449Y-4.063
X6.9961Y-3.9567
X7.0276Y-4.4173
X7.0984Y-4.1772
X7.2835Y-4.311
T2
X4.3858Y-4.252
X4.4094Y-3.622
X4.4094Y-3.7165
X4.4291Y-4.1417
X4.5197Y-3.3425
X4.5768Y-3.3701
X4.5768Y-3.5118
X4.626Y-3.3327
X4.6535Y-4.1575
X4.6969Y-3.3327
X4.752Y-3.3543
X4.752Y-3.4252
X4.8031Y-4.1575
X4.8031Y-4.3701
X4.811Y-3.8268
X4.815Y-3.7087
X4.9134Y-3.4055
X4.9291Y-3.7087
X5.0453Y-4.5335
X5.0787Y-2.8898
X5.0807Y-2.7854
X5.0886Y-3.0925
X5.1024Y-3.7559
X5.2638Y-3.7205
X5.3386Y-2.9409
X5.4488Y-3.8976
X5.5433Y-2.7874
X5.5472Y-3.0768
X5.5472Y-3.1516
X5.6004Y-2.8386
X5.624Y-3.0768
X5.624Y-3.1516
X5.6496Y-2.7795
X5.6516Y-2.5571
X5.6693Y-4.0551
X5.6693Y-4.0945
X5.6693Y-4.1339
X5.6693Y-4.1732
X5.7402Y-3.8976
X5.7402Y-3.937
X5.7402Y-3.9764
X5.8209Y-2.5571
X5.8209Y-2.7795
X5.8661Y-2.378
X5.8661Y-3.7717
X5.8661Y-4.1024
X5.9055Y-3.7717
X5.9055Y-4.1024
X5.9449Y-2.378
X5.9449Y-3.7717
X5.9449Y-4.1024
X6.0276Y-2.6102
X6.0335Y-2.9409
X6.0709Y-3.8976
X6.0709Y-3.937
X6.0709Y-3.9764
X6.248Y-2.8898
X6.2717Y-3.091
X6.2894Y-2.752
X6.5207Y-2.9409
X6.6811Y-3.4291
X6.6811Y-3.5
X6.7254Y-2.7872
X6.7815Y-2.8386
X6.8189Y-3.6378
X6.9055Y-3.2992
X6.9055Y-3.811
X7.0709Y-5.8661
X7.1811Y-3.7953
X7.1811Y-3.8425
X7.1811Y-4.0787
X7.1817Y-4.0321
X7.3661Y-2.937
T3
X4.4478Y-2.1654
X4.4478Y-5.7087
X4.4712Y-2.109
X4.4712Y-2.2217
X4.4712Y-5.6523
X4.4712Y-5.765
X4.5276Y-2.0856
X4.5276Y-2.2451
X4.5276Y-5.6289
X4.5276Y-5.7884
X4.5839Y-2.109
X4.5839Y-2.2217
X4.5839Y-5.6523
X4.5839Y-5.765
X4.6073Y-2.1654
X4.6073Y-5.7087
X5.9055Y-2.9902
X7.2037Y-2.1654
X7.2037Y-5.7087
X7.2271Y-2.109
X7.2271Y-2.2217
X7.2271Y-5.6523
X7.2271Y-5.765
X7.2835Y-2.0856
X7.2835Y-2.2451
X7.2835Y-5.6289
X7.2835Y-5.7884
X7.3398Y-2.109
X7.3398Y-2.2217
X7.3398Y-5.6523
X7.3398Y-5.765
X7.3632Y-2.1654
X7.3632Y-5.7087
T4
X5.1457Y-2.4961
X5.2457Y-2.4961
X5.3819Y-2.4961
X5.4724Y-2.9945
X5.4724Y-3.0945
X5.4819Y-2.4961
X5.5984Y-2.3961
X5.5984Y-2.4961
X6.3268Y-2.4961
X6.4268Y-2.4961
X6.5591Y-2.4961
X6.6535Y-2.9876
X6.6535Y-3.0876
X6.6591Y-2.4961
X6.7795Y-2.3961
X6.7795Y-2.4961
T5
X4.4882Y-3.5591
X4.4882Y-3.7559
X4.6811Y-5.5236
X5.2126Y-3.6299
X5.5079Y-4.7402
X5.5709Y-4.6772
X5.5709Y-4.7402
X5.7638Y-5.122
X5.8268Y-5.122
X5.8366Y-4.6772
X5.8366Y-4.7402
X5.8976Y-4.6772
X5.8976Y-4.7402
X5.9646Y-5.122
X6.1496Y-4.5945
X6.2913Y-4.6772
X6.2913Y-4.7402
X6.2913Y-4.8031
X6.3504Y-3.5512
X6.752Y-4.7717
X6.815Y-4.7717
X7.1654Y-5.8425
X7.2756Y-3.6181
X7.2756Y-5.0354
X7.3287Y-2.4016
X7.3819Y-2.4685
X7.4094Y-5.8425
T6
X5.1457Y-2.6142
X5.1811Y-4.6937
X5.1811Y-4.8858
X5.2441Y-2.6142
X5.3819Y-2.6142
X5.4803Y-2.6142
X6.3268Y-2.6142
X6.4252Y-2.6142
X6.5591Y-2.6142
X6.6575Y-2.6142
X6.9764Y-2.5394
X6.9764Y-2.6378
X6.9764Y-2.8465
X6.9764Y-2.9449
T7
X7.2185Y-2.5394
X7.2185Y-2.6394
X7.2185Y-2.7394
X7.2185Y-2.9394
X7.2185Y-3.0394
T8
X4.872Y-5.502
X4.872Y-5.7579
X5.0492Y-5.502
X5.0492Y-5.7579
X5.187Y-5.502
X5.187Y-5.7579
X5.3642Y-5.502
X5.3642Y-5.7579
X5.502Y-5.502
X5.502Y-5.7579
X5.5906Y-5.6378
X5.6035Y-3.3917
X5.6791Y-5.502
X5.6791Y-5.7579
X5.6906Y-5.6378
X5.7035Y-3.3917
X5.7559Y-4.5276
X5.7906Y-5.6378
X5.8035Y-3.3917
X5.8169Y-5.502
X5.8169Y-5.7579
X5.8559Y-4.5276
X5.8906Y-5.6378
X5.9035Y-3.3917
X5.9559Y-4.5276
X5.9906Y-5.6378
X5.9941Y-5.502
X5.9941Y-5.7579
X6.0035Y-3.3917
X6.0559Y-4.5276
X6.0906Y-5.6378
X6.1035Y-3.3917
X6.1319Y-5.502
X6.1319Y-5.7579
X6.1906Y-5.6378
X6.2035Y-3.3917
X6.2906Y-5.6378
X6.3091Y-5.502
X6.3091Y-5.7579
X6.4469Y-5.502
X6.4469Y-5.7579
X6.624Y-5.502
X6.624Y-5.7579
X6.7618Y-5.502
X6.7618Y-5.7579
X6.8252Y-2.1654
X6.9252Y-2.1654
X6.939Y-5.502
X6.939Y-5.7579
X7.0252Y-2.1654
X7.2756Y-4.4488
X7.2756Y-4.5488
T9
X4.7031Y-4.4681
X4.7031Y-4.5681
X4.7031Y-4.6681
X4.7031Y-4.7681
X4.7031Y-4.8681
X4.7031Y-4.9681
X4.7031Y-5.0681
X4.7031Y-5.1681
X4.7031Y-5.2681
X4.7031Y-5.3681
X4.8031Y-4.4681
X4.8031Y-4.5681
X4.8031Y-4.6681
X4.8031Y-4.7681
X4.8031Y-4.8681
X4.8031Y-4.9681
X4.8031Y-5.0681
X4.8031Y-5.1681
X4.8031Y-5.2681
X4.8031Y-5.3681
T11
X4.5276Y-2.1654
X4.5276Y-5.7087
X7.2835Y-2.1654
X7.2835Y-5.7087
T8
G00X5.315Y-2.2736
M15
G01X5.315Y-2.3327
M16
G05
G00X6.4961Y-2.2736
M15
G01X6.4961Y-2.3327
M16
G05
T10
G00X5.3386Y-2.126
M15
G01X5.2913Y-2.126
M16
G05
G00X6.5197Y-2.126
M15
G01X6.4724Y-2.126
M16
G05
T0
M30
