G04 #@! TF.GenerationSoftware,KiCad,Pcbnew,(5.1.9)-1*
G04 #@! TF.CreationDate,2021-05-07T01:52:01+09:00*
G04 #@! TF.ProjectId,xSSDAC,78535344-4143-42e6-9b69-6361645f7063,rev?*
G04 #@! TF.SameCoordinates,Original*
G04 #@! TF.FileFunction,Soldermask,Bot*
G04 #@! TF.FilePolarity,Negative*
%FSLAX46Y46*%
G04 Gerber Fmt 4.6, Leading zero omitted, Abs format (unit mm)*
G04 Created by KiCad (PCBNEW (5.1.9)-1) date 2021-05-07 01:52:01*
%MOMM*%
%LPD*%
G01*
G04 APERTURE LIST*
%ADD10O,3.102000X4.602000*%
%ADD11O,4.602000X3.402000*%
%ADD12C,2.502000*%
%ADD13O,2.502000X2.502000*%
%ADD14C,1.702000*%
%ADD15O,1.702000X1.702000*%
%ADD16C,1.602000*%
%ADD17C,1.802000*%
%ADD18C,1.451000*%
%ADD19C,0.902000*%
%ADD20C,5.502000*%
%ADD21C,1.752000*%
%ADD22O,1.802000X1.802000*%
%ADD23C,2.102000*%
%ADD24C,0.100000*%
G04 APERTURE END LIST*
D10*
X185700000Y-83400000D03*
D11*
X190200000Y-83400000D03*
D10*
X185700000Y-113400000D03*
D11*
X190200000Y-113400000D03*
D12*
X183200000Y-126200000D03*
D13*
X183200000Y-121120000D03*
D14*
X178600000Y-76600000D03*
D15*
X178600000Y-79140000D03*
G36*
G01*
X146199000Y-83804298D02*
X146199000Y-82795702D01*
G75*
G02*
X146470702Y-82524000I271702J0D01*
G01*
X147204298Y-82524000D01*
G75*
G02*
X147476000Y-82795702I0J-271702D01*
G01*
X147476000Y-83804298D01*
G75*
G02*
X147204298Y-84076000I-271702J0D01*
G01*
X146470702Y-84076000D01*
G75*
G02*
X146199000Y-83804298I0J271702D01*
G01*
G37*
G36*
G01*
X144124000Y-83804298D02*
X144124000Y-82795702D01*
G75*
G02*
X144395702Y-82524000I271702J0D01*
G01*
X145129298Y-82524000D01*
G75*
G02*
X145401000Y-82795702I0J-271702D01*
G01*
X145401000Y-83804298D01*
G75*
G02*
X145129298Y-84076000I-271702J0D01*
G01*
X144395702Y-84076000D01*
G75*
G02*
X144124000Y-83804298I0J271702D01*
G01*
G37*
G36*
G01*
X148863000Y-80188500D02*
X148337000Y-80188500D01*
G75*
G02*
X148074000Y-79925500I0J263000D01*
G01*
X148074000Y-79274500D01*
G75*
G02*
X148337000Y-79011500I263000J0D01*
G01*
X148863000Y-79011500D01*
G75*
G02*
X149126000Y-79274500I0J-263000D01*
G01*
X149126000Y-79925500D01*
G75*
G02*
X148863000Y-80188500I-263000J0D01*
G01*
G37*
G36*
G01*
X148863000Y-81913500D02*
X148337000Y-81913500D01*
G75*
G02*
X148074000Y-81650500I0J263000D01*
G01*
X148074000Y-80999500D01*
G75*
G02*
X148337000Y-80736500I263000J0D01*
G01*
X148863000Y-80736500D01*
G75*
G02*
X149126000Y-80999500I0J-263000D01*
G01*
X149126000Y-81650500D01*
G75*
G02*
X148863000Y-81913500I-263000J0D01*
G01*
G37*
G36*
G01*
X157937000Y-71661500D02*
X158463000Y-71661500D01*
G75*
G02*
X158726000Y-71924500I0J-263000D01*
G01*
X158726000Y-72475500D01*
G75*
G02*
X158463000Y-72738500I-263000J0D01*
G01*
X157937000Y-72738500D01*
G75*
G02*
X157674000Y-72475500I0J263000D01*
G01*
X157674000Y-71924500D01*
G75*
G02*
X157937000Y-71661500I263000J0D01*
G01*
G37*
G36*
G01*
X157937000Y-69836500D02*
X158463000Y-69836500D01*
G75*
G02*
X158726000Y-70099500I0J-263000D01*
G01*
X158726000Y-70650500D01*
G75*
G02*
X158463000Y-70913500I-263000J0D01*
G01*
X157937000Y-70913500D01*
G75*
G02*
X157674000Y-70650500I0J263000D01*
G01*
X157674000Y-70099500D01*
G75*
G02*
X157937000Y-69836500I263000J0D01*
G01*
G37*
G36*
G01*
X135450000Y-74801000D02*
X134250000Y-74801000D01*
G75*
G02*
X134199000Y-74750000I0J51000D01*
G01*
X134199000Y-74150000D01*
G75*
G02*
X134250000Y-74099000I51000J0D01*
G01*
X135450000Y-74099000D01*
G75*
G02*
X135501000Y-74150000I0J-51000D01*
G01*
X135501000Y-74750000D01*
G75*
G02*
X135450000Y-74801000I-51000J0D01*
G01*
G37*
G36*
G01*
X135450000Y-75751000D02*
X134250000Y-75751000D01*
G75*
G02*
X134199000Y-75700000I0J51000D01*
G01*
X134199000Y-75100000D01*
G75*
G02*
X134250000Y-75049000I51000J0D01*
G01*
X135450000Y-75049000D01*
G75*
G02*
X135501000Y-75100000I0J-51000D01*
G01*
X135501000Y-75700000D01*
G75*
G02*
X135450000Y-75751000I-51000J0D01*
G01*
G37*
G36*
G01*
X135450000Y-76701000D02*
X134250000Y-76701000D01*
G75*
G02*
X134199000Y-76650000I0J51000D01*
G01*
X134199000Y-76050000D01*
G75*
G02*
X134250000Y-75999000I51000J0D01*
G01*
X135450000Y-75999000D01*
G75*
G02*
X135501000Y-76050000I0J-51000D01*
G01*
X135501000Y-76650000D01*
G75*
G02*
X135450000Y-76701000I-51000J0D01*
G01*
G37*
G36*
G01*
X132950000Y-76701000D02*
X131750000Y-76701000D01*
G75*
G02*
X131699000Y-76650000I0J51000D01*
G01*
X131699000Y-76050000D01*
G75*
G02*
X131750000Y-75999000I51000J0D01*
G01*
X132950000Y-75999000D01*
G75*
G02*
X133001000Y-76050000I0J-51000D01*
G01*
X133001000Y-76650000D01*
G75*
G02*
X132950000Y-76701000I-51000J0D01*
G01*
G37*
G36*
G01*
X132950000Y-74801000D02*
X131750000Y-74801000D01*
G75*
G02*
X131699000Y-74750000I0J51000D01*
G01*
X131699000Y-74150000D01*
G75*
G02*
X131750000Y-74099000I51000J0D01*
G01*
X132950000Y-74099000D01*
G75*
G02*
X133001000Y-74150000I0J-51000D01*
G01*
X133001000Y-74750000D01*
G75*
G02*
X132950000Y-74801000I-51000J0D01*
G01*
G37*
G36*
G01*
X147051000Y-77537000D02*
X147051000Y-78063000D01*
G75*
G02*
X146788000Y-78326000I-263000J0D01*
G01*
X146137000Y-78326000D01*
G75*
G02*
X145874000Y-78063000I0J263000D01*
G01*
X145874000Y-77537000D01*
G75*
G02*
X146137000Y-77274000I263000J0D01*
G01*
X146788000Y-77274000D01*
G75*
G02*
X147051000Y-77537000I0J-263000D01*
G01*
G37*
G36*
G01*
X145326000Y-77537000D02*
X145326000Y-78063000D01*
G75*
G02*
X145063000Y-78326000I-263000J0D01*
G01*
X144412000Y-78326000D01*
G75*
G02*
X144149000Y-78063000I0J263000D01*
G01*
X144149000Y-77537000D01*
G75*
G02*
X144412000Y-77274000I263000J0D01*
G01*
X145063000Y-77274000D01*
G75*
G02*
X145326000Y-77537000I0J-263000D01*
G01*
G37*
G36*
G01*
X117669000Y-121525001D02*
X117669000Y-118074999D01*
G75*
G02*
X117719999Y-118024000I50999J0D01*
G01*
X120280001Y-118024000D01*
G75*
G02*
X120331000Y-118074999I0J-50999D01*
G01*
X120331000Y-121525001D01*
G75*
G02*
X120280001Y-121576000I-50999J0D01*
G01*
X117719999Y-121576000D01*
G75*
G02*
X117669000Y-121525001I0J50999D01*
G01*
G37*
G36*
G01*
X135051000Y-71737000D02*
X135051000Y-72263000D01*
G75*
G02*
X134788000Y-72526000I-263000J0D01*
G01*
X134137000Y-72526000D01*
G75*
G02*
X133874000Y-72263000I0J263000D01*
G01*
X133874000Y-71737000D01*
G75*
G02*
X134137000Y-71474000I263000J0D01*
G01*
X134788000Y-71474000D01*
G75*
G02*
X135051000Y-71737000I0J-263000D01*
G01*
G37*
G36*
G01*
X133326000Y-71737000D02*
X133326000Y-72263000D01*
G75*
G02*
X133063000Y-72526000I-263000J0D01*
G01*
X132412000Y-72526000D01*
G75*
G02*
X132149000Y-72263000I0J263000D01*
G01*
X132149000Y-71737000D01*
G75*
G02*
X132412000Y-71474000I263000J0D01*
G01*
X133063000Y-71474000D01*
G75*
G02*
X133326000Y-71737000I0J-263000D01*
G01*
G37*
D16*
X129800000Y-72920000D03*
X129800000Y-77800000D03*
D17*
X112100000Y-94590000D03*
X112100000Y-97130000D03*
X112100000Y-99670000D03*
G36*
G01*
X112950000Y-103111000D02*
X111250000Y-103111000D01*
G75*
G02*
X111199000Y-103060000I0J51000D01*
G01*
X111199000Y-101360000D01*
G75*
G02*
X111250000Y-101309000I51000J0D01*
G01*
X112950000Y-101309000D01*
G75*
G02*
X113001000Y-101360000I0J-51000D01*
G01*
X113001000Y-103060000D01*
G75*
G02*
X112950000Y-103111000I-51000J0D01*
G01*
G37*
G36*
G01*
X142550000Y-66201000D02*
X141350000Y-66201000D01*
G75*
G02*
X141299000Y-66150000I0J51000D01*
G01*
X141299000Y-65750000D01*
G75*
G02*
X141350000Y-65699000I51000J0D01*
G01*
X142550000Y-65699000D01*
G75*
G02*
X142601000Y-65750000I0J-51000D01*
G01*
X142601000Y-66150000D01*
G75*
G02*
X142550000Y-66201000I-51000J0D01*
G01*
G37*
G36*
G01*
X142550000Y-66851000D02*
X141350000Y-66851000D01*
G75*
G02*
X141299000Y-66800000I0J51000D01*
G01*
X141299000Y-66400000D01*
G75*
G02*
X141350000Y-66349000I51000J0D01*
G01*
X142550000Y-66349000D01*
G75*
G02*
X142601000Y-66400000I0J-51000D01*
G01*
X142601000Y-66800000D01*
G75*
G02*
X142550000Y-66851000I-51000J0D01*
G01*
G37*
G36*
G01*
X142550000Y-67501000D02*
X141350000Y-67501000D01*
G75*
G02*
X141299000Y-67450000I0J51000D01*
G01*
X141299000Y-67050000D01*
G75*
G02*
X141350000Y-66999000I51000J0D01*
G01*
X142550000Y-66999000D01*
G75*
G02*
X142601000Y-67050000I0J-51000D01*
G01*
X142601000Y-67450000D01*
G75*
G02*
X142550000Y-67501000I-51000J0D01*
G01*
G37*
G36*
G01*
X140650000Y-67501000D02*
X139450000Y-67501000D01*
G75*
G02*
X139399000Y-67450000I0J51000D01*
G01*
X139399000Y-67050000D01*
G75*
G02*
X139450000Y-66999000I51000J0D01*
G01*
X140650000Y-66999000D01*
G75*
G02*
X140701000Y-67050000I0J-51000D01*
G01*
X140701000Y-67450000D01*
G75*
G02*
X140650000Y-67501000I-51000J0D01*
G01*
G37*
G36*
G01*
X140650000Y-66851000D02*
X139450000Y-66851000D01*
G75*
G02*
X139399000Y-66800000I0J51000D01*
G01*
X139399000Y-66400000D01*
G75*
G02*
X139450000Y-66349000I51000J0D01*
G01*
X140650000Y-66349000D01*
G75*
G02*
X140701000Y-66400000I0J-51000D01*
G01*
X140701000Y-66800000D01*
G75*
G02*
X140650000Y-66851000I-51000J0D01*
G01*
G37*
G36*
G01*
X140650000Y-66201000D02*
X139450000Y-66201000D01*
G75*
G02*
X139399000Y-66150000I0J51000D01*
G01*
X139399000Y-65750000D01*
G75*
G02*
X139450000Y-65699000I51000J0D01*
G01*
X140650000Y-65699000D01*
G75*
G02*
X140701000Y-65750000I0J-51000D01*
G01*
X140701000Y-66150000D01*
G75*
G02*
X140650000Y-66201000I-51000J0D01*
G01*
G37*
G36*
G01*
X117131000Y-77874999D02*
X117131000Y-81325001D01*
G75*
G02*
X117080001Y-81376000I-50999J0D01*
G01*
X114519999Y-81376000D01*
G75*
G02*
X114469000Y-81325001I0J50999D01*
G01*
X114469000Y-77874999D01*
G75*
G02*
X114519999Y-77824000I50999J0D01*
G01*
X117080001Y-77824000D01*
G75*
G02*
X117131000Y-77874999I0J-50999D01*
G01*
G37*
G36*
G01*
X173661000Y-76540000D02*
X173661000Y-80060000D01*
G75*
G02*
X173610000Y-80111000I-51000J0D01*
G01*
X172590000Y-80111000D01*
G75*
G02*
X172539000Y-80060000I0J51000D01*
G01*
X172539000Y-76540000D01*
G75*
G02*
X172590000Y-76489000I51000J0D01*
G01*
X173610000Y-76489000D01*
G75*
G02*
X173661000Y-76540000I0J-51000D01*
G01*
G37*
G36*
G01*
X169461000Y-76540000D02*
X169461000Y-80060000D01*
G75*
G02*
X169410000Y-80111000I-51000J0D01*
G01*
X168390000Y-80111000D01*
G75*
G02*
X168339000Y-80060000I0J51000D01*
G01*
X168339000Y-76540000D01*
G75*
G02*
X168390000Y-76489000I51000J0D01*
G01*
X169410000Y-76489000D01*
G75*
G02*
X169461000Y-76540000I0J-51000D01*
G01*
G37*
D14*
X190300000Y-124600000D03*
X187800000Y-124600000D03*
X187800000Y-72200000D03*
X190300000Y-72200000D03*
G36*
G01*
X177200000Y-71701000D02*
X176400000Y-71701000D01*
G75*
G02*
X176349000Y-71650000I0J51000D01*
G01*
X176349000Y-70750000D01*
G75*
G02*
X176400000Y-70699000I51000J0D01*
G01*
X177200000Y-70699000D01*
G75*
G02*
X177251000Y-70750000I0J-51000D01*
G01*
X177251000Y-71650000D01*
G75*
G02*
X177200000Y-71701000I-51000J0D01*
G01*
G37*
G36*
G01*
X176250000Y-74101000D02*
X175450000Y-74101000D01*
G75*
G02*
X175399000Y-74050000I0J51000D01*
G01*
X175399000Y-73150000D01*
G75*
G02*
X175450000Y-73099000I51000J0D01*
G01*
X176250000Y-73099000D01*
G75*
G02*
X176301000Y-73150000I0J-51000D01*
G01*
X176301000Y-74050000D01*
G75*
G02*
X176250000Y-74101000I-51000J0D01*
G01*
G37*
G36*
G01*
X178150000Y-74101000D02*
X177350000Y-74101000D01*
G75*
G02*
X177299000Y-74050000I0J51000D01*
G01*
X177299000Y-73150000D01*
G75*
G02*
X177350000Y-73099000I51000J0D01*
G01*
X178150000Y-73099000D01*
G75*
G02*
X178201000Y-73150000I0J-51000D01*
G01*
X178201000Y-74050000D01*
G75*
G02*
X178150000Y-74101000I-51000J0D01*
G01*
G37*
G36*
G01*
X178150000Y-68301000D02*
X177350000Y-68301000D01*
G75*
G02*
X177299000Y-68250000I0J51000D01*
G01*
X177299000Y-67350000D01*
G75*
G02*
X177350000Y-67299000I51000J0D01*
G01*
X178150000Y-67299000D01*
G75*
G02*
X178201000Y-67350000I0J-51000D01*
G01*
X178201000Y-68250000D01*
G75*
G02*
X178150000Y-68301000I-51000J0D01*
G01*
G37*
G36*
G01*
X176250000Y-68301000D02*
X175450000Y-68301000D01*
G75*
G02*
X175399000Y-68250000I0J51000D01*
G01*
X175399000Y-67350000D01*
G75*
G02*
X175450000Y-67299000I51000J0D01*
G01*
X176250000Y-67299000D01*
G75*
G02*
X176301000Y-67350000I0J-51000D01*
G01*
X176301000Y-68250000D01*
G75*
G02*
X176250000Y-68301000I-51000J0D01*
G01*
G37*
G36*
G01*
X177200000Y-65901000D02*
X176400000Y-65901000D01*
G75*
G02*
X176349000Y-65850000I0J51000D01*
G01*
X176349000Y-64950000D01*
G75*
G02*
X176400000Y-64899000I51000J0D01*
G01*
X177200000Y-64899000D01*
G75*
G02*
X177251000Y-64950000I0J-51000D01*
G01*
X177251000Y-65850000D01*
G75*
G02*
X177200000Y-65901000I-51000J0D01*
G01*
G37*
G36*
G01*
X171299000Y-115200000D02*
X171299000Y-114400000D01*
G75*
G02*
X171350000Y-114349000I51000J0D01*
G01*
X172250000Y-114349000D01*
G75*
G02*
X172301000Y-114400000I0J-51000D01*
G01*
X172301000Y-115200000D01*
G75*
G02*
X172250000Y-115251000I-51000J0D01*
G01*
X171350000Y-115251000D01*
G75*
G02*
X171299000Y-115200000I0J51000D01*
G01*
G37*
G36*
G01*
X168899000Y-114250000D02*
X168899000Y-113450000D01*
G75*
G02*
X168950000Y-113399000I51000J0D01*
G01*
X169850000Y-113399000D01*
G75*
G02*
X169901000Y-113450000I0J-51000D01*
G01*
X169901000Y-114250000D01*
G75*
G02*
X169850000Y-114301000I-51000J0D01*
G01*
X168950000Y-114301000D01*
G75*
G02*
X168899000Y-114250000I0J51000D01*
G01*
G37*
G36*
G01*
X168899000Y-116150000D02*
X168899000Y-115350000D01*
G75*
G02*
X168950000Y-115299000I51000J0D01*
G01*
X169850000Y-115299000D01*
G75*
G02*
X169901000Y-115350000I0J-51000D01*
G01*
X169901000Y-116150000D01*
G75*
G02*
X169850000Y-116201000I-51000J0D01*
G01*
X168950000Y-116201000D01*
G75*
G02*
X168899000Y-116150000I0J51000D01*
G01*
G37*
D18*
X167000000Y-131750000D03*
X169540000Y-131750000D03*
X174620000Y-131750000D03*
X177160000Y-131750000D03*
X179700000Y-131750000D03*
G36*
G01*
X136524000Y-131300000D02*
X136524000Y-130300000D01*
G75*
G02*
X136575000Y-130249000I51000J0D01*
G01*
X137425000Y-130249000D01*
G75*
G02*
X137476000Y-130300000I0J-51000D01*
G01*
X137476000Y-131300000D01*
G75*
G02*
X137425000Y-131351000I-51000J0D01*
G01*
X136575000Y-131351000D01*
G75*
G02*
X136524000Y-131300000I0J51000D01*
G01*
G37*
G36*
G01*
X138124000Y-131300000D02*
X138124000Y-130300000D01*
G75*
G02*
X138175000Y-130249000I51000J0D01*
G01*
X139025000Y-130249000D01*
G75*
G02*
X139076000Y-130300000I0J-51000D01*
G01*
X139076000Y-131300000D01*
G75*
G02*
X139025000Y-131351000I-51000J0D01*
G01*
X138175000Y-131351000D01*
G75*
G02*
X138124000Y-131300000I0J51000D01*
G01*
G37*
G36*
G01*
X162001000Y-66350000D02*
X162001000Y-67550000D01*
G75*
G02*
X161950000Y-67601000I-51000J0D01*
G01*
X161350000Y-67601000D01*
G75*
G02*
X161299000Y-67550000I0J51000D01*
G01*
X161299000Y-66350000D01*
G75*
G02*
X161350000Y-66299000I51000J0D01*
G01*
X161950000Y-66299000D01*
G75*
G02*
X162001000Y-66350000I0J-51000D01*
G01*
G37*
G36*
G01*
X162951000Y-66350000D02*
X162951000Y-67550000D01*
G75*
G02*
X162900000Y-67601000I-51000J0D01*
G01*
X162300000Y-67601000D01*
G75*
G02*
X162249000Y-67550000I0J51000D01*
G01*
X162249000Y-66350000D01*
G75*
G02*
X162300000Y-66299000I51000J0D01*
G01*
X162900000Y-66299000D01*
G75*
G02*
X162951000Y-66350000I0J-51000D01*
G01*
G37*
G36*
G01*
X163901000Y-66350000D02*
X163901000Y-67550000D01*
G75*
G02*
X163850000Y-67601000I-51000J0D01*
G01*
X163250000Y-67601000D01*
G75*
G02*
X163199000Y-67550000I0J51000D01*
G01*
X163199000Y-66350000D01*
G75*
G02*
X163250000Y-66299000I51000J0D01*
G01*
X163850000Y-66299000D01*
G75*
G02*
X163901000Y-66350000I0J-51000D01*
G01*
G37*
G36*
G01*
X163901000Y-68850000D02*
X163901000Y-70050000D01*
G75*
G02*
X163850000Y-70101000I-51000J0D01*
G01*
X163250000Y-70101000D01*
G75*
G02*
X163199000Y-70050000I0J51000D01*
G01*
X163199000Y-68850000D01*
G75*
G02*
X163250000Y-68799000I51000J0D01*
G01*
X163850000Y-68799000D01*
G75*
G02*
X163901000Y-68850000I0J-51000D01*
G01*
G37*
G36*
G01*
X162001000Y-68850000D02*
X162001000Y-70050000D01*
G75*
G02*
X161950000Y-70101000I-51000J0D01*
G01*
X161350000Y-70101000D01*
G75*
G02*
X161299000Y-70050000I0J51000D01*
G01*
X161299000Y-68850000D01*
G75*
G02*
X161350000Y-68799000I51000J0D01*
G01*
X161950000Y-68799000D01*
G75*
G02*
X162001000Y-68850000I0J-51000D01*
G01*
G37*
G36*
G01*
X158750000Y-67201000D02*
X157550000Y-67201000D01*
G75*
G02*
X157499000Y-67150000I0J51000D01*
G01*
X157499000Y-66750000D01*
G75*
G02*
X157550000Y-66699000I51000J0D01*
G01*
X158750000Y-66699000D01*
G75*
G02*
X158801000Y-66750000I0J-51000D01*
G01*
X158801000Y-67150000D01*
G75*
G02*
X158750000Y-67201000I-51000J0D01*
G01*
G37*
G36*
G01*
X158750000Y-67851000D02*
X157550000Y-67851000D01*
G75*
G02*
X157499000Y-67800000I0J51000D01*
G01*
X157499000Y-67400000D01*
G75*
G02*
X157550000Y-67349000I51000J0D01*
G01*
X158750000Y-67349000D01*
G75*
G02*
X158801000Y-67400000I0J-51000D01*
G01*
X158801000Y-67800000D01*
G75*
G02*
X158750000Y-67851000I-51000J0D01*
G01*
G37*
G36*
G01*
X158750000Y-68501000D02*
X157550000Y-68501000D01*
G75*
G02*
X157499000Y-68450000I0J51000D01*
G01*
X157499000Y-68050000D01*
G75*
G02*
X157550000Y-67999000I51000J0D01*
G01*
X158750000Y-67999000D01*
G75*
G02*
X158801000Y-68050000I0J-51000D01*
G01*
X158801000Y-68450000D01*
G75*
G02*
X158750000Y-68501000I-51000J0D01*
G01*
G37*
G36*
G01*
X156850000Y-68501000D02*
X155650000Y-68501000D01*
G75*
G02*
X155599000Y-68450000I0J51000D01*
G01*
X155599000Y-68050000D01*
G75*
G02*
X155650000Y-67999000I51000J0D01*
G01*
X156850000Y-67999000D01*
G75*
G02*
X156901000Y-68050000I0J-51000D01*
G01*
X156901000Y-68450000D01*
G75*
G02*
X156850000Y-68501000I-51000J0D01*
G01*
G37*
G36*
G01*
X156850000Y-67851000D02*
X155650000Y-67851000D01*
G75*
G02*
X155599000Y-67800000I0J51000D01*
G01*
X155599000Y-67400000D01*
G75*
G02*
X155650000Y-67349000I51000J0D01*
G01*
X156850000Y-67349000D01*
G75*
G02*
X156901000Y-67400000I0J-51000D01*
G01*
X156901000Y-67800000D01*
G75*
G02*
X156850000Y-67851000I-51000J0D01*
G01*
G37*
G36*
G01*
X156850000Y-67201000D02*
X155650000Y-67201000D01*
G75*
G02*
X155599000Y-67150000I0J51000D01*
G01*
X155599000Y-66750000D01*
G75*
G02*
X155650000Y-66699000I51000J0D01*
G01*
X156850000Y-66699000D01*
G75*
G02*
X156901000Y-66750000I0J-51000D01*
G01*
X156901000Y-67150000D01*
G75*
G02*
X156850000Y-67201000I-51000J0D01*
G01*
G37*
G36*
G01*
X144881000Y-79124999D02*
X144881000Y-79775001D01*
G75*
G02*
X144830001Y-79826000I-50999J0D01*
G01*
X143769999Y-79826000D01*
G75*
G02*
X143719000Y-79775001I0J50999D01*
G01*
X143719000Y-79124999D01*
G75*
G02*
X143769999Y-79074000I50999J0D01*
G01*
X144830001Y-79074000D01*
G75*
G02*
X144881000Y-79124999I0J-50999D01*
G01*
G37*
G36*
G01*
X144881000Y-81024999D02*
X144881000Y-81675001D01*
G75*
G02*
X144830001Y-81726000I-50999J0D01*
G01*
X143769999Y-81726000D01*
G75*
G02*
X143719000Y-81675001I0J50999D01*
G01*
X143719000Y-81024999D01*
G75*
G02*
X143769999Y-80974000I50999J0D01*
G01*
X144830001Y-80974000D01*
G75*
G02*
X144881000Y-81024999I0J-50999D01*
G01*
G37*
G36*
G01*
X147081000Y-81024999D02*
X147081000Y-81675001D01*
G75*
G02*
X147030001Y-81726000I-50999J0D01*
G01*
X145969999Y-81726000D01*
G75*
G02*
X145919000Y-81675001I0J50999D01*
G01*
X145919000Y-81024999D01*
G75*
G02*
X145969999Y-80974000I50999J0D01*
G01*
X147030001Y-80974000D01*
G75*
G02*
X147081000Y-81024999I0J-50999D01*
G01*
G37*
G36*
G01*
X147081000Y-80074999D02*
X147081000Y-80725001D01*
G75*
G02*
X147030001Y-80776000I-50999J0D01*
G01*
X145969999Y-80776000D01*
G75*
G02*
X145919000Y-80725001I0J50999D01*
G01*
X145919000Y-80074999D01*
G75*
G02*
X145969999Y-80024000I50999J0D01*
G01*
X147030001Y-80024000D01*
G75*
G02*
X147081000Y-80074999I0J-50999D01*
G01*
G37*
G36*
G01*
X147081000Y-79124999D02*
X147081000Y-79775001D01*
G75*
G02*
X147030001Y-79826000I-50999J0D01*
G01*
X145969999Y-79826000D01*
G75*
G02*
X145919000Y-79775001I0J50999D01*
G01*
X145919000Y-79124999D01*
G75*
G02*
X145969999Y-79074000I50999J0D01*
G01*
X147030001Y-79074000D01*
G75*
G02*
X147081000Y-79124999I0J-50999D01*
G01*
G37*
D14*
X173700000Y-125600000D03*
G36*
G01*
X177051000Y-124800000D02*
X177051000Y-126400000D01*
G75*
G02*
X177000000Y-126451000I-51000J0D01*
G01*
X175400000Y-126451000D01*
G75*
G02*
X175349000Y-126400000I0J51000D01*
G01*
X175349000Y-124800000D01*
G75*
G02*
X175400000Y-124749000I51000J0D01*
G01*
X177000000Y-124749000D01*
G75*
G02*
X177051000Y-124800000I0J-51000D01*
G01*
G37*
G36*
G01*
X170051000Y-124800000D02*
X170051000Y-126400000D01*
G75*
G02*
X170000000Y-126451000I-51000J0D01*
G01*
X168400000Y-126451000D01*
G75*
G02*
X168349000Y-126400000I0J51000D01*
G01*
X168349000Y-124800000D01*
G75*
G02*
X168400000Y-124749000I51000J0D01*
G01*
X170000000Y-124749000D01*
G75*
G02*
X170051000Y-124800000I0J-51000D01*
G01*
G37*
X166700000Y-125600000D03*
G36*
G01*
X183310000Y-98661000D02*
X182440000Y-98661000D01*
G75*
G02*
X182389000Y-98610000I0J51000D01*
G01*
X182389000Y-98190000D01*
G75*
G02*
X182440000Y-98139000I51000J0D01*
G01*
X183310000Y-98139000D01*
G75*
G02*
X183361000Y-98190000I0J-51000D01*
G01*
X183361000Y-98610000D01*
G75*
G02*
X183310000Y-98661000I-51000J0D01*
G01*
G37*
G36*
G01*
X185560000Y-98661000D02*
X184690000Y-98661000D01*
G75*
G02*
X184639000Y-98610000I0J51000D01*
G01*
X184639000Y-98190000D01*
G75*
G02*
X184690000Y-98139000I51000J0D01*
G01*
X185560000Y-98139000D01*
G75*
G02*
X185611000Y-98190000I0J-51000D01*
G01*
X185611000Y-98610000D01*
G75*
G02*
X185560000Y-98661000I-51000J0D01*
G01*
G37*
D13*
X183200000Y-75680000D03*
D12*
X183200000Y-70600000D03*
G36*
G01*
X163399000Y-99800000D02*
X163399000Y-99000000D01*
G75*
G02*
X163450000Y-98949000I51000J0D01*
G01*
X164350000Y-98949000D01*
G75*
G02*
X164401000Y-99000000I0J-51000D01*
G01*
X164401000Y-99800000D01*
G75*
G02*
X164350000Y-99851000I-51000J0D01*
G01*
X163450000Y-99851000D01*
G75*
G02*
X163399000Y-99800000I0J51000D01*
G01*
G37*
G36*
G01*
X160999000Y-98850000D02*
X160999000Y-98050000D01*
G75*
G02*
X161050000Y-97999000I51000J0D01*
G01*
X161950000Y-97999000D01*
G75*
G02*
X162001000Y-98050000I0J-51000D01*
G01*
X162001000Y-98850000D01*
G75*
G02*
X161950000Y-98901000I-51000J0D01*
G01*
X161050000Y-98901000D01*
G75*
G02*
X160999000Y-98850000I0J51000D01*
G01*
G37*
G36*
G01*
X160999000Y-100750000D02*
X160999000Y-99950000D01*
G75*
G02*
X161050000Y-99899000I51000J0D01*
G01*
X161950000Y-99899000D01*
G75*
G02*
X162001000Y-99950000I0J-51000D01*
G01*
X162001000Y-100750000D01*
G75*
G02*
X161950000Y-100801000I-51000J0D01*
G01*
X161050000Y-100801000D01*
G75*
G02*
X160999000Y-100750000I0J51000D01*
G01*
G37*
D14*
X178600000Y-120200000D03*
D15*
X178600000Y-117660000D03*
X190400000Y-75600000D03*
D14*
X187860000Y-75600000D03*
D15*
X190400000Y-121200000D03*
D14*
X187860000Y-121200000D03*
G36*
G01*
X171251000Y-67700000D02*
X171251000Y-69200000D01*
G75*
G02*
X171200000Y-69251000I-51000J0D01*
G01*
X170200000Y-69251000D01*
G75*
G02*
X170149000Y-69200000I0J51000D01*
G01*
X170149000Y-67700000D01*
G75*
G02*
X170200000Y-67649000I51000J0D01*
G01*
X171200000Y-67649000D01*
G75*
G02*
X171251000Y-67700000I0J-51000D01*
G01*
G37*
G36*
G01*
X169751000Y-67400000D02*
X169751000Y-69200000D01*
G75*
G02*
X169700000Y-69251000I-51000J0D01*
G01*
X168700000Y-69251000D01*
G75*
G02*
X168649000Y-69200000I0J51000D01*
G01*
X168649000Y-67400000D01*
G75*
G02*
X168700000Y-67349000I51000J0D01*
G01*
X169700000Y-67349000D01*
G75*
G02*
X169751000Y-67400000I0J-51000D01*
G01*
G37*
G36*
G01*
X168251000Y-67700000D02*
X168251000Y-69200000D01*
G75*
G02*
X168200000Y-69251000I-51000J0D01*
G01*
X167200000Y-69251000D01*
G75*
G02*
X167149000Y-69200000I0J51000D01*
G01*
X167149000Y-67700000D01*
G75*
G02*
X167200000Y-67649000I51000J0D01*
G01*
X168200000Y-67649000D01*
G75*
G02*
X168251000Y-67700000I0J-51000D01*
G01*
G37*
G36*
G01*
X170351000Y-63700000D02*
X170351000Y-67400000D01*
G75*
G02*
X170300000Y-67451000I-51000J0D01*
G01*
X168100000Y-67451000D01*
G75*
G02*
X168049000Y-67400000I0J51000D01*
G01*
X168049000Y-63700000D01*
G75*
G02*
X168100000Y-63649000I51000J0D01*
G01*
X170300000Y-63649000D01*
G75*
G02*
X170351000Y-63700000I0J-51000D01*
G01*
G37*
G36*
G01*
X141749000Y-100800000D02*
X141749000Y-96000000D01*
G75*
G02*
X141800000Y-95949000I51000J0D01*
G01*
X146600000Y-95949000D01*
G75*
G02*
X146651000Y-96000000I0J-51000D01*
G01*
X146651000Y-100800000D01*
G75*
G02*
X146600000Y-100851000I-51000J0D01*
G01*
X141800000Y-100851000D01*
G75*
G02*
X141749000Y-100800000I0J51000D01*
G01*
G37*
D19*
X100631891Y-61968109D03*
X99200000Y-61375000D03*
X97768109Y-61968109D03*
X97175000Y-63400000D03*
X97768109Y-64831891D03*
X99200000Y-65425000D03*
X100631891Y-64831891D03*
X101225000Y-63400000D03*
D20*
X99200000Y-63400000D03*
X99200000Y-133400000D03*
D19*
X101225000Y-133400000D03*
X100631891Y-134831891D03*
X99200000Y-135425000D03*
X97768109Y-134831891D03*
X97175000Y-133400000D03*
X97768109Y-131968109D03*
X99200000Y-131375000D03*
X100631891Y-131968109D03*
D20*
X189200000Y-63400000D03*
D19*
X191225000Y-63400000D03*
X190631891Y-64831891D03*
X189200000Y-65425000D03*
X187768109Y-64831891D03*
X187175000Y-63400000D03*
X187768109Y-61968109D03*
X189200000Y-61375000D03*
X190631891Y-61968109D03*
X190631891Y-131968109D03*
X189200000Y-131375000D03*
X187768109Y-131968109D03*
X187175000Y-133400000D03*
X187768109Y-134831891D03*
X189200000Y-135425000D03*
X190631891Y-134831891D03*
X191225000Y-133400000D03*
D20*
X189200000Y-133400000D03*
G36*
G01*
X159236500Y-65063000D02*
X159236500Y-64537000D01*
G75*
G02*
X159499500Y-64274000I263000J0D01*
G01*
X160050500Y-64274000D01*
G75*
G02*
X160313500Y-64537000I0J-263000D01*
G01*
X160313500Y-65063000D01*
G75*
G02*
X160050500Y-65326000I-263000J0D01*
G01*
X159499500Y-65326000D01*
G75*
G02*
X159236500Y-65063000I0J263000D01*
G01*
G37*
G36*
G01*
X161061500Y-65063000D02*
X161061500Y-64537000D01*
G75*
G02*
X161324500Y-64274000I263000J0D01*
G01*
X161875500Y-64274000D01*
G75*
G02*
X162138500Y-64537000I0J-263000D01*
G01*
X162138500Y-65063000D01*
G75*
G02*
X161875500Y-65326000I-263000J0D01*
G01*
X161324500Y-65326000D01*
G75*
G02*
X161061500Y-65063000I0J263000D01*
G01*
G37*
G36*
G01*
X156063000Y-72738500D02*
X155537000Y-72738500D01*
G75*
G02*
X155274000Y-72475500I0J263000D01*
G01*
X155274000Y-71924500D01*
G75*
G02*
X155537000Y-71661500I263000J0D01*
G01*
X156063000Y-71661500D01*
G75*
G02*
X156326000Y-71924500I0J-263000D01*
G01*
X156326000Y-72475500D01*
G75*
G02*
X156063000Y-72738500I-263000J0D01*
G01*
G37*
G36*
G01*
X156063000Y-70913500D02*
X155537000Y-70913500D01*
G75*
G02*
X155274000Y-70650500I0J263000D01*
G01*
X155274000Y-70099500D01*
G75*
G02*
X155537000Y-69836500I263000J0D01*
G01*
X156063000Y-69836500D01*
G75*
G02*
X156326000Y-70099500I0J-263000D01*
G01*
X156326000Y-70650500D01*
G75*
G02*
X156063000Y-70913500I-263000J0D01*
G01*
G37*
G36*
G01*
X119937000Y-66749000D02*
X120463000Y-66749000D01*
G75*
G02*
X120726000Y-67012000I0J-263000D01*
G01*
X120726000Y-67563000D01*
G75*
G02*
X120463000Y-67826000I-263000J0D01*
G01*
X119937000Y-67826000D01*
G75*
G02*
X119674000Y-67563000I0J263000D01*
G01*
X119674000Y-67012000D01*
G75*
G02*
X119937000Y-66749000I263000J0D01*
G01*
G37*
G36*
G01*
X119937000Y-68574000D02*
X120463000Y-68574000D01*
G75*
G02*
X120726000Y-68837000I0J-263000D01*
G01*
X120726000Y-69388000D01*
G75*
G02*
X120463000Y-69651000I-263000J0D01*
G01*
X119937000Y-69651000D01*
G75*
G02*
X119674000Y-69388000I0J263000D01*
G01*
X119674000Y-68837000D01*
G75*
G02*
X119937000Y-68574000I263000J0D01*
G01*
G37*
G36*
G01*
X124937000Y-66749000D02*
X125463000Y-66749000D01*
G75*
G02*
X125726000Y-67012000I0J-263000D01*
G01*
X125726000Y-67563000D01*
G75*
G02*
X125463000Y-67826000I-263000J0D01*
G01*
X124937000Y-67826000D01*
G75*
G02*
X124674000Y-67563000I0J263000D01*
G01*
X124674000Y-67012000D01*
G75*
G02*
X124937000Y-66749000I263000J0D01*
G01*
G37*
G36*
G01*
X124937000Y-68574000D02*
X125463000Y-68574000D01*
G75*
G02*
X125726000Y-68837000I0J-263000D01*
G01*
X125726000Y-69388000D01*
G75*
G02*
X125463000Y-69651000I-263000J0D01*
G01*
X124937000Y-69651000D01*
G75*
G02*
X124674000Y-69388000I0J263000D01*
G01*
X124674000Y-68837000D01*
G75*
G02*
X124937000Y-68574000I263000J0D01*
G01*
G37*
G36*
G01*
X145713500Y-65537000D02*
X145713500Y-66063000D01*
G75*
G02*
X145450500Y-66326000I-263000J0D01*
G01*
X144899500Y-66326000D01*
G75*
G02*
X144636500Y-66063000I0J263000D01*
G01*
X144636500Y-65537000D01*
G75*
G02*
X144899500Y-65274000I263000J0D01*
G01*
X145450500Y-65274000D01*
G75*
G02*
X145713500Y-65537000I0J-263000D01*
G01*
G37*
G36*
G01*
X147538500Y-65537000D02*
X147538500Y-66063000D01*
G75*
G02*
X147275500Y-66326000I-263000J0D01*
G01*
X146724500Y-66326000D01*
G75*
G02*
X146461500Y-66063000I0J263000D01*
G01*
X146461500Y-65537000D01*
G75*
G02*
X146724500Y-65274000I263000J0D01*
G01*
X147275500Y-65274000D01*
G75*
G02*
X147538500Y-65537000I0J-263000D01*
G01*
G37*
G36*
G01*
X145713500Y-67537000D02*
X145713500Y-68063000D01*
G75*
G02*
X145450500Y-68326000I-263000J0D01*
G01*
X144899500Y-68326000D01*
G75*
G02*
X144636500Y-68063000I0J263000D01*
G01*
X144636500Y-67537000D01*
G75*
G02*
X144899500Y-67274000I263000J0D01*
G01*
X145450500Y-67274000D01*
G75*
G02*
X145713500Y-67537000I0J-263000D01*
G01*
G37*
G36*
G01*
X147538500Y-67537000D02*
X147538500Y-68063000D01*
G75*
G02*
X147275500Y-68326000I-263000J0D01*
G01*
X146724500Y-68326000D01*
G75*
G02*
X146461500Y-68063000I0J263000D01*
G01*
X146461500Y-67537000D01*
G75*
G02*
X146724500Y-67274000I263000J0D01*
G01*
X147275500Y-67274000D01*
G75*
G02*
X147538500Y-67537000I0J-263000D01*
G01*
G37*
G36*
G01*
X129537000Y-73949000D02*
X130063000Y-73949000D01*
G75*
G02*
X130326000Y-74212000I0J-263000D01*
G01*
X130326000Y-74763000D01*
G75*
G02*
X130063000Y-75026000I-263000J0D01*
G01*
X129537000Y-75026000D01*
G75*
G02*
X129274000Y-74763000I0J263000D01*
G01*
X129274000Y-74212000D01*
G75*
G02*
X129537000Y-73949000I263000J0D01*
G01*
G37*
G36*
G01*
X129537000Y-75774000D02*
X130063000Y-75774000D01*
G75*
G02*
X130326000Y-76037000I0J-263000D01*
G01*
X130326000Y-76588000D01*
G75*
G02*
X130063000Y-76851000I-263000J0D01*
G01*
X129537000Y-76851000D01*
G75*
G02*
X129274000Y-76588000I0J263000D01*
G01*
X129274000Y-76037000D01*
G75*
G02*
X129537000Y-75774000I263000J0D01*
G01*
G37*
G36*
G01*
X157537000Y-113149000D02*
X158063000Y-113149000D01*
G75*
G02*
X158326000Y-113412000I0J-263000D01*
G01*
X158326000Y-113963000D01*
G75*
G02*
X158063000Y-114226000I-263000J0D01*
G01*
X157537000Y-114226000D01*
G75*
G02*
X157274000Y-113963000I0J263000D01*
G01*
X157274000Y-113412000D01*
G75*
G02*
X157537000Y-113149000I263000J0D01*
G01*
G37*
G36*
G01*
X157537000Y-114974000D02*
X158063000Y-114974000D01*
G75*
G02*
X158326000Y-115237000I0J-263000D01*
G01*
X158326000Y-115788000D01*
G75*
G02*
X158063000Y-116051000I-263000J0D01*
G01*
X157537000Y-116051000D01*
G75*
G02*
X157274000Y-115788000I0J263000D01*
G01*
X157274000Y-115237000D01*
G75*
G02*
X157537000Y-114974000I263000J0D01*
G01*
G37*
G36*
G01*
X180063000Y-72226000D02*
X179537000Y-72226000D01*
G75*
G02*
X179274000Y-71963000I0J263000D01*
G01*
X179274000Y-71412000D01*
G75*
G02*
X179537000Y-71149000I263000J0D01*
G01*
X180063000Y-71149000D01*
G75*
G02*
X180326000Y-71412000I0J-263000D01*
G01*
X180326000Y-71963000D01*
G75*
G02*
X180063000Y-72226000I-263000J0D01*
G01*
G37*
G36*
G01*
X180063000Y-74051000D02*
X179537000Y-74051000D01*
G75*
G02*
X179274000Y-73788000I0J263000D01*
G01*
X179274000Y-73237000D01*
G75*
G02*
X179537000Y-72974000I263000J0D01*
G01*
X180063000Y-72974000D01*
G75*
G02*
X180326000Y-73237000I0J-263000D01*
G01*
X180326000Y-73788000D01*
G75*
G02*
X180063000Y-74051000I-263000J0D01*
G01*
G37*
G36*
G01*
X172937000Y-71949000D02*
X173463000Y-71949000D01*
G75*
G02*
X173726000Y-72212000I0J-263000D01*
G01*
X173726000Y-72763000D01*
G75*
G02*
X173463000Y-73026000I-263000J0D01*
G01*
X172937000Y-73026000D01*
G75*
G02*
X172674000Y-72763000I0J263000D01*
G01*
X172674000Y-72212000D01*
G75*
G02*
X172937000Y-71949000I263000J0D01*
G01*
G37*
G36*
G01*
X172937000Y-73774000D02*
X173463000Y-73774000D01*
G75*
G02*
X173726000Y-74037000I0J-263000D01*
G01*
X173726000Y-74588000D01*
G75*
G02*
X173463000Y-74851000I-263000J0D01*
G01*
X172937000Y-74851000D01*
G75*
G02*
X172674000Y-74588000I0J263000D01*
G01*
X172674000Y-74037000D01*
G75*
G02*
X172937000Y-73774000I263000J0D01*
G01*
G37*
G36*
G01*
X167036500Y-72863000D02*
X167036500Y-72337000D01*
G75*
G02*
X167299500Y-72074000I263000J0D01*
G01*
X167850500Y-72074000D01*
G75*
G02*
X168113500Y-72337000I0J-263000D01*
G01*
X168113500Y-72863000D01*
G75*
G02*
X167850500Y-73126000I-263000J0D01*
G01*
X167299500Y-73126000D01*
G75*
G02*
X167036500Y-72863000I0J263000D01*
G01*
G37*
G36*
G01*
X168861500Y-72863000D02*
X168861500Y-72337000D01*
G75*
G02*
X169124500Y-72074000I263000J0D01*
G01*
X169675500Y-72074000D01*
G75*
G02*
X169938500Y-72337000I0J-263000D01*
G01*
X169938500Y-72863000D01*
G75*
G02*
X169675500Y-73126000I-263000J0D01*
G01*
X169124500Y-73126000D01*
G75*
G02*
X168861500Y-72863000I0J263000D01*
G01*
G37*
G36*
G01*
X173063000Y-67113500D02*
X172537000Y-67113500D01*
G75*
G02*
X172274000Y-66850500I0J263000D01*
G01*
X172274000Y-66299500D01*
G75*
G02*
X172537000Y-66036500I263000J0D01*
G01*
X173063000Y-66036500D01*
G75*
G02*
X173326000Y-66299500I0J-263000D01*
G01*
X173326000Y-66850500D01*
G75*
G02*
X173063000Y-67113500I-263000J0D01*
G01*
G37*
G36*
G01*
X173063000Y-68938500D02*
X172537000Y-68938500D01*
G75*
G02*
X172274000Y-68675500I0J263000D01*
G01*
X172274000Y-68124500D01*
G75*
G02*
X172537000Y-67861500I263000J0D01*
G01*
X173063000Y-67861500D01*
G75*
G02*
X173326000Y-68124500I0J-263000D01*
G01*
X173326000Y-68675500D01*
G75*
G02*
X173063000Y-68938500I-263000J0D01*
G01*
G37*
G36*
G01*
X169137000Y-117349000D02*
X169663000Y-117349000D01*
G75*
G02*
X169926000Y-117612000I0J-263000D01*
G01*
X169926000Y-118163000D01*
G75*
G02*
X169663000Y-118426000I-263000J0D01*
G01*
X169137000Y-118426000D01*
G75*
G02*
X168874000Y-118163000I0J263000D01*
G01*
X168874000Y-117612000D01*
G75*
G02*
X169137000Y-117349000I263000J0D01*
G01*
G37*
G36*
G01*
X169137000Y-119174000D02*
X169663000Y-119174000D01*
G75*
G02*
X169926000Y-119437000I0J-263000D01*
G01*
X169926000Y-119988000D01*
G75*
G02*
X169663000Y-120251000I-263000J0D01*
G01*
X169137000Y-120251000D01*
G75*
G02*
X168874000Y-119988000I0J263000D01*
G01*
X168874000Y-119437000D01*
G75*
G02*
X169137000Y-119174000I263000J0D01*
G01*
G37*
G36*
G01*
X158726000Y-100137000D02*
X158726000Y-100663000D01*
G75*
G02*
X158463000Y-100926000I-263000J0D01*
G01*
X157912000Y-100926000D01*
G75*
G02*
X157649000Y-100663000I0J263000D01*
G01*
X157649000Y-100137000D01*
G75*
G02*
X157912000Y-99874000I263000J0D01*
G01*
X158463000Y-99874000D01*
G75*
G02*
X158726000Y-100137000I0J-263000D01*
G01*
G37*
G36*
G01*
X160551000Y-100137000D02*
X160551000Y-100663000D01*
G75*
G02*
X160288000Y-100926000I-263000J0D01*
G01*
X159737000Y-100926000D01*
G75*
G02*
X159474000Y-100663000I0J263000D01*
G01*
X159474000Y-100137000D01*
G75*
G02*
X159737000Y-99874000I263000J0D01*
G01*
X160288000Y-99874000D01*
G75*
G02*
X160551000Y-100137000I0J-263000D01*
G01*
G37*
G36*
G01*
X146174000Y-73463000D02*
X146174000Y-72937000D01*
G75*
G02*
X146437000Y-72674000I263000J0D01*
G01*
X146988000Y-72674000D01*
G75*
G02*
X147251000Y-72937000I0J-263000D01*
G01*
X147251000Y-73463000D01*
G75*
G02*
X146988000Y-73726000I-263000J0D01*
G01*
X146437000Y-73726000D01*
G75*
G02*
X146174000Y-73463000I0J263000D01*
G01*
G37*
G36*
G01*
X144349000Y-73463000D02*
X144349000Y-72937000D01*
G75*
G02*
X144612000Y-72674000I263000J0D01*
G01*
X145163000Y-72674000D01*
G75*
G02*
X145426000Y-72937000I0J-263000D01*
G01*
X145426000Y-73463000D01*
G75*
G02*
X145163000Y-73726000I-263000J0D01*
G01*
X144612000Y-73726000D01*
G75*
G02*
X144349000Y-73463000I0J263000D01*
G01*
G37*
G36*
G01*
X131826000Y-130537000D02*
X131826000Y-131063000D01*
G75*
G02*
X131563000Y-131326000I-263000J0D01*
G01*
X130912000Y-131326000D01*
G75*
G02*
X130649000Y-131063000I0J263000D01*
G01*
X130649000Y-130537000D01*
G75*
G02*
X130912000Y-130274000I263000J0D01*
G01*
X131563000Y-130274000D01*
G75*
G02*
X131826000Y-130537000I0J-263000D01*
G01*
G37*
G36*
G01*
X133551000Y-130537000D02*
X133551000Y-131063000D01*
G75*
G02*
X133288000Y-131326000I-263000J0D01*
G01*
X132637000Y-131326000D01*
G75*
G02*
X132374000Y-131063000I0J263000D01*
G01*
X132374000Y-130537000D01*
G75*
G02*
X132637000Y-130274000I263000J0D01*
G01*
X133288000Y-130274000D01*
G75*
G02*
X133551000Y-130537000I0J-263000D01*
G01*
G37*
G36*
G01*
X154788500Y-67337000D02*
X154788500Y-67863000D01*
G75*
G02*
X154525500Y-68126000I-263000J0D01*
G01*
X153874500Y-68126000D01*
G75*
G02*
X153611500Y-67863000I0J263000D01*
G01*
X153611500Y-67337000D01*
G75*
G02*
X153874500Y-67074000I263000J0D01*
G01*
X154525500Y-67074000D01*
G75*
G02*
X154788500Y-67337000I0J-263000D01*
G01*
G37*
G36*
G01*
X153063500Y-67337000D02*
X153063500Y-67863000D01*
G75*
G02*
X152800500Y-68126000I-263000J0D01*
G01*
X152149500Y-68126000D01*
G75*
G02*
X151886500Y-67863000I0J263000D01*
G01*
X151886500Y-67337000D01*
G75*
G02*
X152149500Y-67074000I263000J0D01*
G01*
X152800500Y-67074000D01*
G75*
G02*
X153063500Y-67337000I0J-263000D01*
G01*
G37*
G36*
G01*
X155937000Y-64136500D02*
X156463000Y-64136500D01*
G75*
G02*
X156726000Y-64399500I0J-263000D01*
G01*
X156726000Y-65050500D01*
G75*
G02*
X156463000Y-65313500I-263000J0D01*
G01*
X155937000Y-65313500D01*
G75*
G02*
X155674000Y-65050500I0J263000D01*
G01*
X155674000Y-64399500D01*
G75*
G02*
X155937000Y-64136500I263000J0D01*
G01*
G37*
G36*
G01*
X155937000Y-62411500D02*
X156463000Y-62411500D01*
G75*
G02*
X156726000Y-62674500I0J-263000D01*
G01*
X156726000Y-63325500D01*
G75*
G02*
X156463000Y-63588500I-263000J0D01*
G01*
X155937000Y-63588500D01*
G75*
G02*
X155674000Y-63325500I0J263000D01*
G01*
X155674000Y-62674500D01*
G75*
G02*
X155937000Y-62411500I263000J0D01*
G01*
G37*
G36*
G01*
X140937000Y-89874000D02*
X141463000Y-89874000D01*
G75*
G02*
X141726000Y-90137000I0J-263000D01*
G01*
X141726000Y-90788000D01*
G75*
G02*
X141463000Y-91051000I-263000J0D01*
G01*
X140937000Y-91051000D01*
G75*
G02*
X140674000Y-90788000I0J263000D01*
G01*
X140674000Y-90137000D01*
G75*
G02*
X140937000Y-89874000I263000J0D01*
G01*
G37*
G36*
G01*
X140937000Y-88149000D02*
X141463000Y-88149000D01*
G75*
G02*
X141726000Y-88412000I0J-263000D01*
G01*
X141726000Y-89063000D01*
G75*
G02*
X141463000Y-89326000I-263000J0D01*
G01*
X140937000Y-89326000D01*
G75*
G02*
X140674000Y-89063000I0J263000D01*
G01*
X140674000Y-88412000D01*
G75*
G02*
X140937000Y-88149000I263000J0D01*
G01*
G37*
G36*
G01*
X133949000Y-103663000D02*
X133949000Y-103137000D01*
G75*
G02*
X134212000Y-102874000I263000J0D01*
G01*
X134863000Y-102874000D01*
G75*
G02*
X135126000Y-103137000I0J-263000D01*
G01*
X135126000Y-103663000D01*
G75*
G02*
X134863000Y-103926000I-263000J0D01*
G01*
X134212000Y-103926000D01*
G75*
G02*
X133949000Y-103663000I0J263000D01*
G01*
G37*
G36*
G01*
X135674000Y-103663000D02*
X135674000Y-103137000D01*
G75*
G02*
X135937000Y-102874000I263000J0D01*
G01*
X136588000Y-102874000D01*
G75*
G02*
X136851000Y-103137000I0J-263000D01*
G01*
X136851000Y-103663000D01*
G75*
G02*
X136588000Y-103926000I-263000J0D01*
G01*
X135937000Y-103926000D01*
G75*
G02*
X135674000Y-103663000I0J263000D01*
G01*
G37*
G36*
G01*
X128263000Y-78451000D02*
X127737000Y-78451000D01*
G75*
G02*
X127474000Y-78188000I0J263000D01*
G01*
X127474000Y-77537000D01*
G75*
G02*
X127737000Y-77274000I263000J0D01*
G01*
X128263000Y-77274000D01*
G75*
G02*
X128526000Y-77537000I0J-263000D01*
G01*
X128526000Y-78188000D01*
G75*
G02*
X128263000Y-78451000I-263000J0D01*
G01*
G37*
G36*
G01*
X128263000Y-76726000D02*
X127737000Y-76726000D01*
G75*
G02*
X127474000Y-76463000I0J263000D01*
G01*
X127474000Y-75812000D01*
G75*
G02*
X127737000Y-75549000I263000J0D01*
G01*
X128263000Y-75549000D01*
G75*
G02*
X128526000Y-75812000I0J-263000D01*
G01*
X128526000Y-76463000D01*
G75*
G02*
X128263000Y-76726000I-263000J0D01*
G01*
G37*
G36*
G01*
X152726000Y-95137000D02*
X152726000Y-95663000D01*
G75*
G02*
X152463000Y-95926000I-263000J0D01*
G01*
X151812000Y-95926000D01*
G75*
G02*
X151549000Y-95663000I0J263000D01*
G01*
X151549000Y-95137000D01*
G75*
G02*
X151812000Y-94874000I263000J0D01*
G01*
X152463000Y-94874000D01*
G75*
G02*
X152726000Y-95137000I0J-263000D01*
G01*
G37*
G36*
G01*
X154451000Y-95137000D02*
X154451000Y-95663000D01*
G75*
G02*
X154188000Y-95926000I-263000J0D01*
G01*
X153537000Y-95926000D01*
G75*
G02*
X153274000Y-95663000I0J263000D01*
G01*
X153274000Y-95137000D01*
G75*
G02*
X153537000Y-94874000I263000J0D01*
G01*
X154188000Y-94874000D01*
G75*
G02*
X154451000Y-95137000I0J-263000D01*
G01*
G37*
G36*
G01*
X152726000Y-103137000D02*
X152726000Y-103663000D01*
G75*
G02*
X152463000Y-103926000I-263000J0D01*
G01*
X151812000Y-103926000D01*
G75*
G02*
X151549000Y-103663000I0J263000D01*
G01*
X151549000Y-103137000D01*
G75*
G02*
X151812000Y-102874000I263000J0D01*
G01*
X152463000Y-102874000D01*
G75*
G02*
X152726000Y-103137000I0J-263000D01*
G01*
G37*
G36*
G01*
X154451000Y-103137000D02*
X154451000Y-103663000D01*
G75*
G02*
X154188000Y-103926000I-263000J0D01*
G01*
X153537000Y-103926000D01*
G75*
G02*
X153274000Y-103663000I0J263000D01*
G01*
X153274000Y-103137000D01*
G75*
G02*
X153537000Y-102874000I263000J0D01*
G01*
X154188000Y-102874000D01*
G75*
G02*
X154451000Y-103137000I0J-263000D01*
G01*
G37*
G36*
G01*
X138937000Y-89874000D02*
X139463000Y-89874000D01*
G75*
G02*
X139726000Y-90137000I0J-263000D01*
G01*
X139726000Y-90788000D01*
G75*
G02*
X139463000Y-91051000I-263000J0D01*
G01*
X138937000Y-91051000D01*
G75*
G02*
X138674000Y-90788000I0J263000D01*
G01*
X138674000Y-90137000D01*
G75*
G02*
X138937000Y-89874000I263000J0D01*
G01*
G37*
G36*
G01*
X138937000Y-88149000D02*
X139463000Y-88149000D01*
G75*
G02*
X139726000Y-88412000I0J-263000D01*
G01*
X139726000Y-89063000D01*
G75*
G02*
X139463000Y-89326000I-263000J0D01*
G01*
X138937000Y-89326000D01*
G75*
G02*
X138674000Y-89063000I0J263000D01*
G01*
X138674000Y-88412000D01*
G75*
G02*
X138937000Y-88149000I263000J0D01*
G01*
G37*
G36*
G01*
X133949000Y-96663000D02*
X133949000Y-96137000D01*
G75*
G02*
X134212000Y-95874000I263000J0D01*
G01*
X134863000Y-95874000D01*
G75*
G02*
X135126000Y-96137000I0J-263000D01*
G01*
X135126000Y-96663000D01*
G75*
G02*
X134863000Y-96926000I-263000J0D01*
G01*
X134212000Y-96926000D01*
G75*
G02*
X133949000Y-96663000I0J263000D01*
G01*
G37*
G36*
G01*
X135674000Y-96663000D02*
X135674000Y-96137000D01*
G75*
G02*
X135937000Y-95874000I263000J0D01*
G01*
X136588000Y-95874000D01*
G75*
G02*
X136851000Y-96137000I0J-263000D01*
G01*
X136851000Y-96663000D01*
G75*
G02*
X136588000Y-96926000I-263000J0D01*
G01*
X135937000Y-96926000D01*
G75*
G02*
X135674000Y-96663000I0J263000D01*
G01*
G37*
G36*
G01*
X133949000Y-101663000D02*
X133949000Y-101137000D01*
G75*
G02*
X134212000Y-100874000I263000J0D01*
G01*
X134863000Y-100874000D01*
G75*
G02*
X135126000Y-101137000I0J-263000D01*
G01*
X135126000Y-101663000D01*
G75*
G02*
X134863000Y-101926000I-263000J0D01*
G01*
X134212000Y-101926000D01*
G75*
G02*
X133949000Y-101663000I0J263000D01*
G01*
G37*
G36*
G01*
X135674000Y-101663000D02*
X135674000Y-101137000D01*
G75*
G02*
X135937000Y-100874000I263000J0D01*
G01*
X136588000Y-100874000D01*
G75*
G02*
X136851000Y-101137000I0J-263000D01*
G01*
X136851000Y-101663000D01*
G75*
G02*
X136588000Y-101926000I-263000J0D01*
G01*
X135937000Y-101926000D01*
G75*
G02*
X135674000Y-101663000I0J263000D01*
G01*
G37*
G36*
G01*
X152726000Y-93537000D02*
X152726000Y-94063000D01*
G75*
G02*
X152463000Y-94326000I-263000J0D01*
G01*
X151812000Y-94326000D01*
G75*
G02*
X151549000Y-94063000I0J263000D01*
G01*
X151549000Y-93537000D01*
G75*
G02*
X151812000Y-93274000I263000J0D01*
G01*
X152463000Y-93274000D01*
G75*
G02*
X152726000Y-93537000I0J-263000D01*
G01*
G37*
G36*
G01*
X154451000Y-93537000D02*
X154451000Y-94063000D01*
G75*
G02*
X154188000Y-94326000I-263000J0D01*
G01*
X153537000Y-94326000D01*
G75*
G02*
X153274000Y-94063000I0J263000D01*
G01*
X153274000Y-93537000D01*
G75*
G02*
X153537000Y-93274000I263000J0D01*
G01*
X154188000Y-93274000D01*
G75*
G02*
X154451000Y-93537000I0J-263000D01*
G01*
G37*
G36*
G01*
X135674000Y-98663000D02*
X135674000Y-98137000D01*
G75*
G02*
X135937000Y-97874000I263000J0D01*
G01*
X136588000Y-97874000D01*
G75*
G02*
X136851000Y-98137000I0J-263000D01*
G01*
X136851000Y-98663000D01*
G75*
G02*
X136588000Y-98926000I-263000J0D01*
G01*
X135937000Y-98926000D01*
G75*
G02*
X135674000Y-98663000I0J263000D01*
G01*
G37*
G36*
G01*
X133949000Y-98663000D02*
X133949000Y-98137000D01*
G75*
G02*
X134212000Y-97874000I263000J0D01*
G01*
X134863000Y-97874000D01*
G75*
G02*
X135126000Y-98137000I0J-263000D01*
G01*
X135126000Y-98663000D01*
G75*
G02*
X134863000Y-98926000I-263000J0D01*
G01*
X134212000Y-98926000D01*
G75*
G02*
X133949000Y-98663000I0J263000D01*
G01*
G37*
G36*
G01*
X146137000Y-88149000D02*
X146663000Y-88149000D01*
G75*
G02*
X146926000Y-88412000I0J-263000D01*
G01*
X146926000Y-89063000D01*
G75*
G02*
X146663000Y-89326000I-263000J0D01*
G01*
X146137000Y-89326000D01*
G75*
G02*
X145874000Y-89063000I0J263000D01*
G01*
X145874000Y-88412000D01*
G75*
G02*
X146137000Y-88149000I263000J0D01*
G01*
G37*
G36*
G01*
X146137000Y-89874000D02*
X146663000Y-89874000D01*
G75*
G02*
X146926000Y-90137000I0J-263000D01*
G01*
X146926000Y-90788000D01*
G75*
G02*
X146663000Y-91051000I-263000J0D01*
G01*
X146137000Y-91051000D01*
G75*
G02*
X145874000Y-90788000I0J263000D01*
G01*
X145874000Y-90137000D01*
G75*
G02*
X146137000Y-89874000I263000J0D01*
G01*
G37*
G36*
G01*
X140463000Y-108651000D02*
X139937000Y-108651000D01*
G75*
G02*
X139674000Y-108388000I0J263000D01*
G01*
X139674000Y-107737000D01*
G75*
G02*
X139937000Y-107474000I263000J0D01*
G01*
X140463000Y-107474000D01*
G75*
G02*
X140726000Y-107737000I0J-263000D01*
G01*
X140726000Y-108388000D01*
G75*
G02*
X140463000Y-108651000I-263000J0D01*
G01*
G37*
G36*
G01*
X140463000Y-106926000D02*
X139937000Y-106926000D01*
G75*
G02*
X139674000Y-106663000I0J263000D01*
G01*
X139674000Y-106012000D01*
G75*
G02*
X139937000Y-105749000I263000J0D01*
G01*
X140463000Y-105749000D01*
G75*
G02*
X140726000Y-106012000I0J-263000D01*
G01*
X140726000Y-106663000D01*
G75*
G02*
X140463000Y-106926000I-263000J0D01*
G01*
G37*
G36*
G01*
X146463000Y-106926000D02*
X145937000Y-106926000D01*
G75*
G02*
X145674000Y-106663000I0J263000D01*
G01*
X145674000Y-106012000D01*
G75*
G02*
X145937000Y-105749000I263000J0D01*
G01*
X146463000Y-105749000D01*
G75*
G02*
X146726000Y-106012000I0J-263000D01*
G01*
X146726000Y-106663000D01*
G75*
G02*
X146463000Y-106926000I-263000J0D01*
G01*
G37*
G36*
G01*
X146463000Y-108651000D02*
X145937000Y-108651000D01*
G75*
G02*
X145674000Y-108388000I0J263000D01*
G01*
X145674000Y-107737000D01*
G75*
G02*
X145937000Y-107474000I263000J0D01*
G01*
X146463000Y-107474000D01*
G75*
G02*
X146726000Y-107737000I0J-263000D01*
G01*
X146726000Y-108388000D01*
G75*
G02*
X146463000Y-108651000I-263000J0D01*
G01*
G37*
G36*
G01*
X127737000Y-72274000D02*
X128263000Y-72274000D01*
G75*
G02*
X128526000Y-72537000I0J-263000D01*
G01*
X128526000Y-73188000D01*
G75*
G02*
X128263000Y-73451000I-263000J0D01*
G01*
X127737000Y-73451000D01*
G75*
G02*
X127474000Y-73188000I0J263000D01*
G01*
X127474000Y-72537000D01*
G75*
G02*
X127737000Y-72274000I263000J0D01*
G01*
G37*
G36*
G01*
X127737000Y-70549000D02*
X128263000Y-70549000D01*
G75*
G02*
X128526000Y-70812000I0J-263000D01*
G01*
X128526000Y-71463000D01*
G75*
G02*
X128263000Y-71726000I-263000J0D01*
G01*
X127737000Y-71726000D01*
G75*
G02*
X127474000Y-71463000I0J263000D01*
G01*
X127474000Y-70812000D01*
G75*
G02*
X127737000Y-70549000I263000J0D01*
G01*
G37*
G36*
G01*
X154451000Y-101137000D02*
X154451000Y-101663000D01*
G75*
G02*
X154188000Y-101926000I-263000J0D01*
G01*
X153537000Y-101926000D01*
G75*
G02*
X153274000Y-101663000I0J263000D01*
G01*
X153274000Y-101137000D01*
G75*
G02*
X153537000Y-100874000I263000J0D01*
G01*
X154188000Y-100874000D01*
G75*
G02*
X154451000Y-101137000I0J-263000D01*
G01*
G37*
G36*
G01*
X152726000Y-101137000D02*
X152726000Y-101663000D01*
G75*
G02*
X152463000Y-101926000I-263000J0D01*
G01*
X151812000Y-101926000D01*
G75*
G02*
X151549000Y-101663000I0J263000D01*
G01*
X151549000Y-101137000D01*
G75*
G02*
X151812000Y-100874000I263000J0D01*
G01*
X152463000Y-100874000D01*
G75*
G02*
X152726000Y-101137000I0J-263000D01*
G01*
G37*
G36*
G01*
X144463000Y-106926000D02*
X143937000Y-106926000D01*
G75*
G02*
X143674000Y-106663000I0J263000D01*
G01*
X143674000Y-106012000D01*
G75*
G02*
X143937000Y-105749000I263000J0D01*
G01*
X144463000Y-105749000D01*
G75*
G02*
X144726000Y-106012000I0J-263000D01*
G01*
X144726000Y-106663000D01*
G75*
G02*
X144463000Y-106926000I-263000J0D01*
G01*
G37*
G36*
G01*
X144463000Y-108651000D02*
X143937000Y-108651000D01*
G75*
G02*
X143674000Y-108388000I0J263000D01*
G01*
X143674000Y-107737000D01*
G75*
G02*
X143937000Y-107474000I263000J0D01*
G01*
X144463000Y-107474000D01*
G75*
G02*
X144726000Y-107737000I0J-263000D01*
G01*
X144726000Y-108388000D01*
G75*
G02*
X144463000Y-108651000I-263000J0D01*
G01*
G37*
G36*
G01*
X147113500Y-84937000D02*
X147113500Y-85463000D01*
G75*
G02*
X146850500Y-85726000I-263000J0D01*
G01*
X146199500Y-85726000D01*
G75*
G02*
X145936500Y-85463000I0J263000D01*
G01*
X145936500Y-84937000D01*
G75*
G02*
X146199500Y-84674000I263000J0D01*
G01*
X146850500Y-84674000D01*
G75*
G02*
X147113500Y-84937000I0J-263000D01*
G01*
G37*
G36*
G01*
X145388500Y-84937000D02*
X145388500Y-85463000D01*
G75*
G02*
X145125500Y-85726000I-263000J0D01*
G01*
X144474500Y-85726000D01*
G75*
G02*
X144211500Y-85463000I0J263000D01*
G01*
X144211500Y-84937000D01*
G75*
G02*
X144474500Y-84674000I263000J0D01*
G01*
X145125500Y-84674000D01*
G75*
G02*
X145388500Y-84937000I0J-263000D01*
G01*
G37*
G36*
G01*
X148537000Y-88149000D02*
X149063000Y-88149000D01*
G75*
G02*
X149326000Y-88412000I0J-263000D01*
G01*
X149326000Y-89063000D01*
G75*
G02*
X149063000Y-89326000I-263000J0D01*
G01*
X148537000Y-89326000D01*
G75*
G02*
X148274000Y-89063000I0J263000D01*
G01*
X148274000Y-88412000D01*
G75*
G02*
X148537000Y-88149000I263000J0D01*
G01*
G37*
G36*
G01*
X148537000Y-89874000D02*
X149063000Y-89874000D01*
G75*
G02*
X149326000Y-90137000I0J-263000D01*
G01*
X149326000Y-90788000D01*
G75*
G02*
X149063000Y-91051000I-263000J0D01*
G01*
X148537000Y-91051000D01*
G75*
G02*
X148274000Y-90788000I0J263000D01*
G01*
X148274000Y-90137000D01*
G75*
G02*
X148537000Y-89874000I263000J0D01*
G01*
G37*
G36*
G01*
X135674000Y-95063000D02*
X135674000Y-94537000D01*
G75*
G02*
X135937000Y-94274000I263000J0D01*
G01*
X136588000Y-94274000D01*
G75*
G02*
X136851000Y-94537000I0J-263000D01*
G01*
X136851000Y-95063000D01*
G75*
G02*
X136588000Y-95326000I-263000J0D01*
G01*
X135937000Y-95326000D01*
G75*
G02*
X135674000Y-95063000I0J263000D01*
G01*
G37*
G36*
G01*
X133949000Y-95063000D02*
X133949000Y-94537000D01*
G75*
G02*
X134212000Y-94274000I263000J0D01*
G01*
X134863000Y-94274000D01*
G75*
G02*
X135126000Y-94537000I0J-263000D01*
G01*
X135126000Y-95063000D01*
G75*
G02*
X134863000Y-95326000I-263000J0D01*
G01*
X134212000Y-95326000D01*
G75*
G02*
X133949000Y-95063000I0J263000D01*
G01*
G37*
G36*
G01*
X154451000Y-98137000D02*
X154451000Y-98663000D01*
G75*
G02*
X154188000Y-98926000I-263000J0D01*
G01*
X153537000Y-98926000D01*
G75*
G02*
X153274000Y-98663000I0J263000D01*
G01*
X153274000Y-98137000D01*
G75*
G02*
X153537000Y-97874000I263000J0D01*
G01*
X154188000Y-97874000D01*
G75*
G02*
X154451000Y-98137000I0J-263000D01*
G01*
G37*
G36*
G01*
X152726000Y-98137000D02*
X152726000Y-98663000D01*
G75*
G02*
X152463000Y-98926000I-263000J0D01*
G01*
X151812000Y-98926000D01*
G75*
G02*
X151549000Y-98663000I0J263000D01*
G01*
X151549000Y-98137000D01*
G75*
G02*
X151812000Y-97874000I263000J0D01*
G01*
X152463000Y-97874000D01*
G75*
G02*
X152726000Y-98137000I0J-263000D01*
G01*
G37*
G36*
G01*
X125118244Y-111049000D02*
X126481756Y-111049000D01*
G75*
G02*
X126751000Y-111318244I0J-269244D01*
G01*
X126751000Y-112206756D01*
G75*
G02*
X126481756Y-112476000I-269244J0D01*
G01*
X125118244Y-112476000D01*
G75*
G02*
X124849000Y-112206756I0J269244D01*
G01*
X124849000Y-111318244D01*
G75*
G02*
X125118244Y-111049000I269244J0D01*
G01*
G37*
G36*
G01*
X125118244Y-107924000D02*
X126481756Y-107924000D01*
G75*
G02*
X126751000Y-108193244I0J-269244D01*
G01*
X126751000Y-109081756D01*
G75*
G02*
X126481756Y-109351000I-269244J0D01*
G01*
X125118244Y-109351000D01*
G75*
G02*
X124849000Y-109081756I0J269244D01*
G01*
X124849000Y-108193244D01*
G75*
G02*
X125118244Y-107924000I269244J0D01*
G01*
G37*
G36*
G01*
X126481756Y-89076000D02*
X125118244Y-89076000D01*
G75*
G02*
X124849000Y-88806756I0J269244D01*
G01*
X124849000Y-87918244D01*
G75*
G02*
X125118244Y-87649000I269244J0D01*
G01*
X126481756Y-87649000D01*
G75*
G02*
X126751000Y-87918244I0J-269244D01*
G01*
X126751000Y-88806756D01*
G75*
G02*
X126481756Y-89076000I-269244J0D01*
G01*
G37*
G36*
G01*
X126481756Y-85951000D02*
X125118244Y-85951000D01*
G75*
G02*
X124849000Y-85681756I0J269244D01*
G01*
X124849000Y-84793244D01*
G75*
G02*
X125118244Y-84524000I269244J0D01*
G01*
X126481756Y-84524000D01*
G75*
G02*
X126751000Y-84793244I0J-269244D01*
G01*
X126751000Y-85681756D01*
G75*
G02*
X126481756Y-85951000I-269244J0D01*
G01*
G37*
G36*
G01*
X148463000Y-106926000D02*
X147937000Y-106926000D01*
G75*
G02*
X147674000Y-106663000I0J263000D01*
G01*
X147674000Y-106012000D01*
G75*
G02*
X147937000Y-105749000I263000J0D01*
G01*
X148463000Y-105749000D01*
G75*
G02*
X148726000Y-106012000I0J-263000D01*
G01*
X148726000Y-106663000D01*
G75*
G02*
X148463000Y-106926000I-263000J0D01*
G01*
G37*
G36*
G01*
X148463000Y-108651000D02*
X147937000Y-108651000D01*
G75*
G02*
X147674000Y-108388000I0J263000D01*
G01*
X147674000Y-107737000D01*
G75*
G02*
X147937000Y-107474000I263000J0D01*
G01*
X148463000Y-107474000D01*
G75*
G02*
X148726000Y-107737000I0J-263000D01*
G01*
X148726000Y-108388000D01*
G75*
G02*
X148463000Y-108651000I-263000J0D01*
G01*
G37*
G36*
G01*
X106624000Y-66225000D02*
X106624000Y-64575000D01*
G75*
G02*
X106675000Y-64524000I51000J0D01*
G01*
X108325000Y-64524000D01*
G75*
G02*
X108376000Y-64575000I0J-51000D01*
G01*
X108376000Y-66225000D01*
G75*
G02*
X108325000Y-66276000I-51000J0D01*
G01*
X106675000Y-66276000D01*
G75*
G02*
X106624000Y-66225000I0J51000D01*
G01*
G37*
D21*
X107500000Y-62860000D03*
X110040000Y-65400000D03*
X110040000Y-62860000D03*
X112580000Y-65400000D03*
X112580000Y-62860000D03*
X115120000Y-65400000D03*
X115120000Y-62860000D03*
X117660000Y-65400000D03*
X117660000Y-62860000D03*
X120200000Y-65400000D03*
X120200000Y-62860000D03*
X122740000Y-65400000D03*
X122740000Y-62860000D03*
X125280000Y-65400000D03*
X125280000Y-62860000D03*
X127820000Y-65400000D03*
X127820000Y-62860000D03*
X130360000Y-65400000D03*
X130360000Y-62860000D03*
G36*
G01*
X100099000Y-91250000D02*
X100099000Y-89550000D01*
G75*
G02*
X100150000Y-89499000I51000J0D01*
G01*
X101850000Y-89499000D01*
G75*
G02*
X101901000Y-89550000I0J-51000D01*
G01*
X101901000Y-91250000D01*
G75*
G02*
X101850000Y-91301000I-51000J0D01*
G01*
X100150000Y-91301000D01*
G75*
G02*
X100099000Y-91250000I0J51000D01*
G01*
G37*
D22*
X101000000Y-92940000D03*
X101000000Y-95480000D03*
X101000000Y-98020000D03*
X101000000Y-100560000D03*
X101000000Y-103100000D03*
X101000000Y-105640000D03*
X101000000Y-108180000D03*
G36*
G01*
X95749000Y-74663000D02*
X95749000Y-74137000D01*
G75*
G02*
X96012000Y-73874000I263000J0D01*
G01*
X96563000Y-73874000D01*
G75*
G02*
X96826000Y-74137000I0J-263000D01*
G01*
X96826000Y-74663000D01*
G75*
G02*
X96563000Y-74926000I-263000J0D01*
G01*
X96012000Y-74926000D01*
G75*
G02*
X95749000Y-74663000I0J263000D01*
G01*
G37*
G36*
G01*
X97574000Y-74663000D02*
X97574000Y-74137000D01*
G75*
G02*
X97837000Y-73874000I263000J0D01*
G01*
X98388000Y-73874000D01*
G75*
G02*
X98651000Y-74137000I0J-263000D01*
G01*
X98651000Y-74663000D01*
G75*
G02*
X98388000Y-74926000I-263000J0D01*
G01*
X97837000Y-74926000D01*
G75*
G02*
X97574000Y-74663000I0J263000D01*
G01*
G37*
G36*
G01*
X95749000Y-82663000D02*
X95749000Y-82137000D01*
G75*
G02*
X96012000Y-81874000I263000J0D01*
G01*
X96563000Y-81874000D01*
G75*
G02*
X96826000Y-82137000I0J-263000D01*
G01*
X96826000Y-82663000D01*
G75*
G02*
X96563000Y-82926000I-263000J0D01*
G01*
X96012000Y-82926000D01*
G75*
G02*
X95749000Y-82663000I0J263000D01*
G01*
G37*
G36*
G01*
X97574000Y-82663000D02*
X97574000Y-82137000D01*
G75*
G02*
X97837000Y-81874000I263000J0D01*
G01*
X98388000Y-81874000D01*
G75*
G02*
X98651000Y-82137000I0J-263000D01*
G01*
X98651000Y-82663000D01*
G75*
G02*
X98388000Y-82926000I-263000J0D01*
G01*
X97837000Y-82926000D01*
G75*
G02*
X97574000Y-82663000I0J263000D01*
G01*
G37*
G36*
G01*
X97574000Y-90663000D02*
X97574000Y-90137000D01*
G75*
G02*
X97837000Y-89874000I263000J0D01*
G01*
X98388000Y-89874000D01*
G75*
G02*
X98651000Y-90137000I0J-263000D01*
G01*
X98651000Y-90663000D01*
G75*
G02*
X98388000Y-90926000I-263000J0D01*
G01*
X97837000Y-90926000D01*
G75*
G02*
X97574000Y-90663000I0J263000D01*
G01*
G37*
G36*
G01*
X95749000Y-90663000D02*
X95749000Y-90137000D01*
G75*
G02*
X96012000Y-89874000I263000J0D01*
G01*
X96563000Y-89874000D01*
G75*
G02*
X96826000Y-90137000I0J-263000D01*
G01*
X96826000Y-90663000D01*
G75*
G02*
X96563000Y-90926000I-263000J0D01*
G01*
X96012000Y-90926000D01*
G75*
G02*
X95749000Y-90663000I0J263000D01*
G01*
G37*
G36*
G01*
X97574000Y-98663000D02*
X97574000Y-98137000D01*
G75*
G02*
X97837000Y-97874000I263000J0D01*
G01*
X98388000Y-97874000D01*
G75*
G02*
X98651000Y-98137000I0J-263000D01*
G01*
X98651000Y-98663000D01*
G75*
G02*
X98388000Y-98926000I-263000J0D01*
G01*
X97837000Y-98926000D01*
G75*
G02*
X97574000Y-98663000I0J263000D01*
G01*
G37*
G36*
G01*
X95749000Y-98663000D02*
X95749000Y-98137000D01*
G75*
G02*
X96012000Y-97874000I263000J0D01*
G01*
X96563000Y-97874000D01*
G75*
G02*
X96826000Y-98137000I0J-263000D01*
G01*
X96826000Y-98663000D01*
G75*
G02*
X96563000Y-98926000I-263000J0D01*
G01*
X96012000Y-98926000D01*
G75*
G02*
X95749000Y-98663000I0J263000D01*
G01*
G37*
G36*
G01*
X95749000Y-106663000D02*
X95749000Y-106137000D01*
G75*
G02*
X96012000Y-105874000I263000J0D01*
G01*
X96563000Y-105874000D01*
G75*
G02*
X96826000Y-106137000I0J-263000D01*
G01*
X96826000Y-106663000D01*
G75*
G02*
X96563000Y-106926000I-263000J0D01*
G01*
X96012000Y-106926000D01*
G75*
G02*
X95749000Y-106663000I0J263000D01*
G01*
G37*
G36*
G01*
X97574000Y-106663000D02*
X97574000Y-106137000D01*
G75*
G02*
X97837000Y-105874000I263000J0D01*
G01*
X98388000Y-105874000D01*
G75*
G02*
X98651000Y-106137000I0J-263000D01*
G01*
X98651000Y-106663000D01*
G75*
G02*
X98388000Y-106926000I-263000J0D01*
G01*
X97837000Y-106926000D01*
G75*
G02*
X97574000Y-106663000I0J263000D01*
G01*
G37*
G36*
G01*
X97574000Y-114663000D02*
X97574000Y-114137000D01*
G75*
G02*
X97837000Y-113874000I263000J0D01*
G01*
X98388000Y-113874000D01*
G75*
G02*
X98651000Y-114137000I0J-263000D01*
G01*
X98651000Y-114663000D01*
G75*
G02*
X98388000Y-114926000I-263000J0D01*
G01*
X97837000Y-114926000D01*
G75*
G02*
X97574000Y-114663000I0J263000D01*
G01*
G37*
G36*
G01*
X95749000Y-114663000D02*
X95749000Y-114137000D01*
G75*
G02*
X96012000Y-113874000I263000J0D01*
G01*
X96563000Y-113874000D01*
G75*
G02*
X96826000Y-114137000I0J-263000D01*
G01*
X96826000Y-114663000D01*
G75*
G02*
X96563000Y-114926000I-263000J0D01*
G01*
X96012000Y-114926000D01*
G75*
G02*
X95749000Y-114663000I0J263000D01*
G01*
G37*
G36*
G01*
X95749000Y-122663000D02*
X95749000Y-122137000D01*
G75*
G02*
X96012000Y-121874000I263000J0D01*
G01*
X96563000Y-121874000D01*
G75*
G02*
X96826000Y-122137000I0J-263000D01*
G01*
X96826000Y-122663000D01*
G75*
G02*
X96563000Y-122926000I-263000J0D01*
G01*
X96012000Y-122926000D01*
G75*
G02*
X95749000Y-122663000I0J263000D01*
G01*
G37*
G36*
G01*
X97574000Y-122663000D02*
X97574000Y-122137000D01*
G75*
G02*
X97837000Y-121874000I263000J0D01*
G01*
X98388000Y-121874000D01*
G75*
G02*
X98651000Y-122137000I0J-263000D01*
G01*
X98651000Y-122663000D01*
G75*
G02*
X98388000Y-122926000I-263000J0D01*
G01*
X97837000Y-122926000D01*
G75*
G02*
X97574000Y-122663000I0J263000D01*
G01*
G37*
D23*
X104450000Y-76650000D03*
X104450000Y-72150000D03*
X97950000Y-72150000D03*
X97950000Y-76650000D03*
X97950000Y-84650000D03*
X97950000Y-80150000D03*
X104450000Y-80150000D03*
X104450000Y-84650000D03*
X104450000Y-92650000D03*
X104450000Y-88150000D03*
X97950000Y-88150000D03*
X97950000Y-92650000D03*
X97950000Y-100650000D03*
X97950000Y-96150000D03*
X104450000Y-96150000D03*
X104450000Y-100650000D03*
X104450000Y-108650000D03*
X104450000Y-104150000D03*
X97950000Y-104150000D03*
X97950000Y-108650000D03*
X97950000Y-116650000D03*
X97950000Y-112150000D03*
X104450000Y-112150000D03*
X104450000Y-116650000D03*
X104450000Y-124650000D03*
X104450000Y-120150000D03*
X97950000Y-120150000D03*
X97950000Y-124650000D03*
G36*
G01*
X98937000Y-66749000D02*
X99463000Y-66749000D01*
G75*
G02*
X99726000Y-67012000I0J-263000D01*
G01*
X99726000Y-67563000D01*
G75*
G02*
X99463000Y-67826000I-263000J0D01*
G01*
X98937000Y-67826000D01*
G75*
G02*
X98674000Y-67563000I0J263000D01*
G01*
X98674000Y-67012000D01*
G75*
G02*
X98937000Y-66749000I263000J0D01*
G01*
G37*
G36*
G01*
X98937000Y-68574000D02*
X99463000Y-68574000D01*
G75*
G02*
X99726000Y-68837000I0J-263000D01*
G01*
X99726000Y-69388000D01*
G75*
G02*
X99463000Y-69651000I-263000J0D01*
G01*
X98937000Y-69651000D01*
G75*
G02*
X98674000Y-69388000I0J263000D01*
G01*
X98674000Y-68837000D01*
G75*
G02*
X98937000Y-68574000I263000J0D01*
G01*
G37*
G36*
G01*
X102749000Y-133663000D02*
X102749000Y-133137000D01*
G75*
G02*
X103012000Y-132874000I263000J0D01*
G01*
X103563000Y-132874000D01*
G75*
G02*
X103826000Y-133137000I0J-263000D01*
G01*
X103826000Y-133663000D01*
G75*
G02*
X103563000Y-133926000I-263000J0D01*
G01*
X103012000Y-133926000D01*
G75*
G02*
X102749000Y-133663000I0J263000D01*
G01*
G37*
G36*
G01*
X104574000Y-133663000D02*
X104574000Y-133137000D01*
G75*
G02*
X104837000Y-132874000I263000J0D01*
G01*
X105388000Y-132874000D01*
G75*
G02*
X105651000Y-133137000I0J-263000D01*
G01*
X105651000Y-133663000D01*
G75*
G02*
X105388000Y-133926000I-263000J0D01*
G01*
X104837000Y-133926000D01*
G75*
G02*
X104574000Y-133663000I0J263000D01*
G01*
G37*
G36*
G01*
X165049000Y-100400000D02*
X165049000Y-96400000D01*
G75*
G02*
X165100000Y-96349000I51000J0D01*
G01*
X169100000Y-96349000D01*
G75*
G02*
X169151000Y-96400000I0J-51000D01*
G01*
X169151000Y-100400000D01*
G75*
G02*
X169100000Y-100451000I-51000J0D01*
G01*
X165100000Y-100451000D01*
G75*
G02*
X165049000Y-100400000I0J51000D01*
G01*
G37*
G36*
G01*
X147301000Y-74737000D02*
X147301000Y-75263000D01*
G75*
G02*
X147038000Y-75526000I-263000J0D01*
G01*
X146387000Y-75526000D01*
G75*
G02*
X146124000Y-75263000I0J263000D01*
G01*
X146124000Y-74737000D01*
G75*
G02*
X146387000Y-74474000I263000J0D01*
G01*
X147038000Y-74474000D01*
G75*
G02*
X147301000Y-74737000I0J-263000D01*
G01*
G37*
G36*
G01*
X145576000Y-74737000D02*
X145576000Y-75263000D01*
G75*
G02*
X145313000Y-75526000I-263000J0D01*
G01*
X144662000Y-75526000D01*
G75*
G02*
X144399000Y-75263000I0J263000D01*
G01*
X144399000Y-74737000D01*
G75*
G02*
X144662000Y-74474000I263000J0D01*
G01*
X145313000Y-74474000D01*
G75*
G02*
X145576000Y-74737000I0J-263000D01*
G01*
G37*
D24*
G36*
X147082732Y-80775000D02*
G01*
X147083000Y-80776000D01*
X147083000Y-80974000D01*
X147082000Y-80975732D01*
X147081000Y-80976000D01*
X145919000Y-80976000D01*
X145917268Y-80975000D01*
X145917000Y-80974000D01*
X145917000Y-80776000D01*
X145918000Y-80774268D01*
X145919000Y-80774000D01*
X147081000Y-80774000D01*
X147082732Y-80775000D01*
G37*
G36*
X147082732Y-79825000D02*
G01*
X147083000Y-79826000D01*
X147083000Y-80024000D01*
X147082000Y-80025732D01*
X147081000Y-80026000D01*
X145919000Y-80026000D01*
X145917268Y-80025000D01*
X145917000Y-80024000D01*
X145917000Y-79826000D01*
X145918000Y-79824268D01*
X145919000Y-79824000D01*
X147081000Y-79824000D01*
X147082732Y-79825000D01*
G37*
G36*
X130327165Y-76586374D02*
G01*
X130328000Y-76588000D01*
X130328000Y-76644362D01*
X130327990Y-76644558D01*
X130323545Y-76689695D01*
X130323469Y-76690080D01*
X130312094Y-76727576D01*
X130311944Y-76727938D01*
X130293472Y-76762497D01*
X130293254Y-76762823D01*
X130268393Y-76793116D01*
X130268116Y-76793393D01*
X130237823Y-76818254D01*
X130237497Y-76818472D01*
X130202938Y-76836944D01*
X130202576Y-76837094D01*
X130161865Y-76849444D01*
X130139500Y-76858709D01*
X130119453Y-76872104D01*
X130102406Y-76889151D01*
X130089012Y-76909198D01*
X130079786Y-76931472D01*
X130075082Y-76955123D01*
X130075082Y-76979229D01*
X130079787Y-77002879D01*
X130089014Y-77025153D01*
X130102409Y-77045200D01*
X130119422Y-77062213D01*
X130147153Y-77078833D01*
X130148125Y-77080581D01*
X130147097Y-77082296D01*
X130145360Y-77082396D01*
X130031936Y-77035415D01*
X129878313Y-77004857D01*
X129721687Y-77004857D01*
X129568064Y-77035415D01*
X129456538Y-77081610D01*
X129454555Y-77081349D01*
X129453790Y-77079501D01*
X129454830Y-77077998D01*
X129470850Y-77069436D01*
X129489487Y-77054141D01*
X129504782Y-77035505D01*
X129516148Y-77014241D01*
X129523148Y-76991166D01*
X129525511Y-76967175D01*
X129523148Y-76943184D01*
X129516148Y-76920109D01*
X129504783Y-76898845D01*
X129489488Y-76880208D01*
X129470889Y-76864944D01*
X129438088Y-76849430D01*
X129397424Y-76837094D01*
X129397062Y-76836944D01*
X129362503Y-76818472D01*
X129362177Y-76818254D01*
X129331884Y-76793393D01*
X129331607Y-76793116D01*
X129306746Y-76762823D01*
X129306528Y-76762497D01*
X129288056Y-76727938D01*
X129287906Y-76727576D01*
X129276531Y-76690080D01*
X129276455Y-76689695D01*
X129272010Y-76644558D01*
X129272000Y-76644362D01*
X129272000Y-76588000D01*
X129273000Y-76586268D01*
X129275000Y-76586268D01*
X129275990Y-76587804D01*
X129281023Y-76638914D01*
X129295877Y-76687877D01*
X129319994Y-76732999D01*
X129352452Y-76772548D01*
X129392001Y-76805006D01*
X129437123Y-76829123D01*
X129486086Y-76843977D01*
X129537094Y-76849000D01*
X130062906Y-76849000D01*
X130113914Y-76843977D01*
X130162877Y-76829123D01*
X130207999Y-76805006D01*
X130247548Y-76772548D01*
X130280006Y-76732999D01*
X130304123Y-76687877D01*
X130318977Y-76638914D01*
X130324010Y-76587804D01*
X130325175Y-76586178D01*
X130327165Y-76586374D01*
G37*
G36*
X135502732Y-75750000D02*
G01*
X135503000Y-75751000D01*
X135503000Y-75999000D01*
X135502000Y-76000732D01*
X135501000Y-76001000D01*
X134199000Y-76001000D01*
X134197268Y-76000000D01*
X134197000Y-75999000D01*
X134197000Y-75751000D01*
X134198000Y-75749268D01*
X134199000Y-75749000D01*
X135501000Y-75749000D01*
X135502732Y-75750000D01*
G37*
G36*
X135502732Y-74800000D02*
G01*
X135503000Y-74801000D01*
X135503000Y-75049000D01*
X135502000Y-75050732D01*
X135501000Y-75051000D01*
X134199000Y-75051000D01*
X134197268Y-75050000D01*
X134197000Y-75049000D01*
X134197000Y-74801000D01*
X134198000Y-74799268D01*
X134199000Y-74799000D01*
X135501000Y-74799000D01*
X135502732Y-74800000D01*
G37*
G36*
X129950183Y-73701867D02*
G01*
X129950573Y-73703829D01*
X129949260Y-73705100D01*
X129931873Y-73710374D01*
X129910609Y-73721739D01*
X129891972Y-73737034D01*
X129876677Y-73755671D01*
X129865312Y-73776935D01*
X129858312Y-73800010D01*
X129855949Y-73824001D01*
X129858312Y-73847992D01*
X129865312Y-73871067D01*
X129876677Y-73892331D01*
X129891972Y-73910968D01*
X129910609Y-73926263D01*
X129931873Y-73937628D01*
X129954948Y-73944628D01*
X129979135Y-73947010D01*
X129980761Y-73948175D01*
X129980565Y-73950165D01*
X129978939Y-73951000D01*
X129621061Y-73951000D01*
X129619329Y-73950000D01*
X129619329Y-73948000D01*
X129620865Y-73947010D01*
X129645052Y-73944628D01*
X129668127Y-73937628D01*
X129689391Y-73926263D01*
X129708028Y-73910968D01*
X129723323Y-73892331D01*
X129734688Y-73871067D01*
X129741688Y-73847992D01*
X129744051Y-73824001D01*
X129741688Y-73800010D01*
X129734688Y-73776935D01*
X129723323Y-73755671D01*
X129708028Y-73737034D01*
X129689391Y-73721739D01*
X129668127Y-73710374D01*
X129650740Y-73705100D01*
X129649373Y-73703640D01*
X129649954Y-73701726D01*
X129651711Y-73701224D01*
X129721687Y-73715143D01*
X129878313Y-73715143D01*
X129948289Y-73701224D01*
X129950183Y-73701867D01*
G37*
G36*
X156902732Y-67850000D02*
G01*
X156903000Y-67851000D01*
X156903000Y-67999000D01*
X156902000Y-68000732D01*
X156901000Y-68001000D01*
X155599000Y-68001000D01*
X155597268Y-68000000D01*
X155597000Y-67999000D01*
X155597000Y-67851000D01*
X155598000Y-67849268D01*
X155599000Y-67849000D01*
X156901000Y-67849000D01*
X156902732Y-67850000D01*
G37*
G36*
X158802732Y-67850000D02*
G01*
X158803000Y-67851000D01*
X158803000Y-67999000D01*
X158802000Y-68000732D01*
X158801000Y-68001000D01*
X157499000Y-68001000D01*
X157497268Y-68000000D01*
X157497000Y-67999000D01*
X157497000Y-67851000D01*
X157498000Y-67849268D01*
X157499000Y-67849000D01*
X158801000Y-67849000D01*
X158802732Y-67850000D01*
G37*
G36*
X168377731Y-67450000D02*
G01*
X168377731Y-67452000D01*
X168376195Y-67452990D01*
X168352008Y-67455372D01*
X168328933Y-67462372D01*
X168307669Y-67473737D01*
X168289032Y-67489032D01*
X168273737Y-67507669D01*
X168262372Y-67528933D01*
X168255372Y-67552008D01*
X168253000Y-67576093D01*
X168253000Y-67649000D01*
X168252000Y-67650732D01*
X168251000Y-67651000D01*
X167924001Y-67651000D01*
X167922269Y-67650000D01*
X167922269Y-67648000D01*
X167923805Y-67647010D01*
X167947992Y-67644628D01*
X167971067Y-67637628D01*
X167992331Y-67626263D01*
X168010968Y-67610968D01*
X168026263Y-67592331D01*
X168037628Y-67571067D01*
X168044628Y-67547992D01*
X168047000Y-67523907D01*
X168047000Y-67451000D01*
X168048000Y-67449268D01*
X168049000Y-67449000D01*
X168375999Y-67449000D01*
X168377731Y-67450000D01*
G37*
G36*
X170352732Y-67450000D02*
G01*
X170353000Y-67451000D01*
X170353000Y-67523907D01*
X170355372Y-67547992D01*
X170362372Y-67571067D01*
X170373737Y-67592331D01*
X170389032Y-67610968D01*
X170407669Y-67626263D01*
X170428933Y-67637628D01*
X170452008Y-67644628D01*
X170476195Y-67647010D01*
X170477821Y-67648175D01*
X170477625Y-67650165D01*
X170475999Y-67651000D01*
X170149000Y-67651000D01*
X170147268Y-67650000D01*
X170147000Y-67649000D01*
X170147000Y-67576093D01*
X170144628Y-67552008D01*
X170137628Y-67528933D01*
X170126263Y-67507669D01*
X170110968Y-67489032D01*
X170092331Y-67473737D01*
X170071067Y-67462372D01*
X170047992Y-67455372D01*
X170023805Y-67452990D01*
X170022179Y-67451825D01*
X170022375Y-67449835D01*
X170024001Y-67449000D01*
X170351000Y-67449000D01*
X170352732Y-67450000D01*
G37*
G36*
X163200732Y-66298000D02*
G01*
X163201000Y-66299000D01*
X163201000Y-67601000D01*
X163200000Y-67602732D01*
X163199000Y-67603000D01*
X162951000Y-67603000D01*
X162949268Y-67602000D01*
X162949000Y-67601000D01*
X162949000Y-66299000D01*
X162950000Y-66297268D01*
X162951000Y-66297000D01*
X163199000Y-66297000D01*
X163200732Y-66298000D01*
G37*
G36*
X162250732Y-66298000D02*
G01*
X162251000Y-66299000D01*
X162251000Y-67601000D01*
X162250000Y-67602732D01*
X162249000Y-67603000D01*
X162001000Y-67603000D01*
X161999268Y-67602000D01*
X161999000Y-67601000D01*
X161999000Y-66299000D01*
X162000000Y-66297268D01*
X162001000Y-66297000D01*
X162249000Y-66297000D01*
X162250732Y-66298000D01*
G37*
G36*
X156902732Y-67200000D02*
G01*
X156903000Y-67201000D01*
X156903000Y-67349000D01*
X156902000Y-67350732D01*
X156901000Y-67351000D01*
X155599000Y-67351000D01*
X155597268Y-67350000D01*
X155597000Y-67349000D01*
X155597000Y-67201000D01*
X155598000Y-67199268D01*
X155599000Y-67199000D01*
X156901000Y-67199000D01*
X156902732Y-67200000D01*
G37*
G36*
X158802732Y-67200000D02*
G01*
X158803000Y-67201000D01*
X158803000Y-67349000D01*
X158802000Y-67350732D01*
X158801000Y-67351000D01*
X157499000Y-67351000D01*
X157497268Y-67350000D01*
X157497000Y-67349000D01*
X157497000Y-67201000D01*
X157498000Y-67199268D01*
X157499000Y-67199000D01*
X158801000Y-67199000D01*
X158802732Y-67200000D01*
G37*
G36*
X142602732Y-66850000D02*
G01*
X142603000Y-66851000D01*
X142603000Y-66999000D01*
X142602000Y-67000732D01*
X142601000Y-67001000D01*
X141299000Y-67001000D01*
X141297268Y-67000000D01*
X141297000Y-66999000D01*
X141297000Y-66851000D01*
X141298000Y-66849268D01*
X141299000Y-66849000D01*
X142601000Y-66849000D01*
X142602732Y-66850000D01*
G37*
G36*
X140702732Y-66850000D02*
G01*
X140703000Y-66851000D01*
X140703000Y-66999000D01*
X140702000Y-67000732D01*
X140701000Y-67001000D01*
X139399000Y-67001000D01*
X139397268Y-67000000D01*
X139397000Y-66999000D01*
X139397000Y-66851000D01*
X139398000Y-66849268D01*
X139399000Y-66849000D01*
X140701000Y-66849000D01*
X140702732Y-66850000D01*
G37*
G36*
X140702732Y-66200000D02*
G01*
X140703000Y-66201000D01*
X140703000Y-66349000D01*
X140702000Y-66350732D01*
X140701000Y-66351000D01*
X139399000Y-66351000D01*
X139397268Y-66350000D01*
X139397000Y-66349000D01*
X139397000Y-66201000D01*
X139398000Y-66199268D01*
X139399000Y-66199000D01*
X140701000Y-66199000D01*
X140702732Y-66200000D01*
G37*
G36*
X142602732Y-66200000D02*
G01*
X142603000Y-66201000D01*
X142603000Y-66349000D01*
X142602000Y-66350732D01*
X142601000Y-66351000D01*
X141299000Y-66351000D01*
X141297268Y-66350000D01*
X141297000Y-66349000D01*
X141297000Y-66201000D01*
X141298000Y-66199268D01*
X141299000Y-66199000D01*
X142601000Y-66199000D01*
X142602732Y-66200000D01*
G37*
M02*
